G04 #@! TF.GenerationSoftware,KiCad,Pcbnew,(5.1.2)-2*
G04 #@! TF.CreationDate,2019-07-11T02:00:36+02:00*
G04 #@! TF.ProjectId,ATM32U4_backpack,41544d33-3255-4345-9f62-61636b706163,rev?*
G04 #@! TF.SameCoordinates,Original*
G04 #@! TF.FileFunction,Legend,Bot*
G04 #@! TF.FilePolarity,Positive*
%FSLAX46Y46*%
G04 Gerber Fmt 4.6, Leading zero omitted, Abs format (unit mm)*
G04 Created by KiCad (PCBNEW (5.1.2)-2) date 2019-07-11 02:00:36*
%MOMM*%
%LPD*%
G04 APERTURE LIST*
%ADD10C,0.250000*%
%ADD11C,0.120000*%
%ADD12C,0.150000*%
G04 APERTURE END LIST*
D10*
X50183333Y-92989880D02*
X50183333Y-92370833D01*
X49811904Y-93113690D02*
X51111904Y-92680357D01*
X49811904Y-92247023D01*
X51111904Y-91999404D02*
X51111904Y-91256547D01*
X49811904Y-91627976D02*
X51111904Y-91627976D01*
X49811904Y-90823214D02*
X51111904Y-90823214D01*
X50183333Y-90389880D01*
X51111904Y-89956547D01*
X49811904Y-89956547D01*
X49873809Y-88842261D02*
X49811904Y-88966071D01*
X49811904Y-89213690D01*
X49873809Y-89337500D01*
X49997619Y-89399404D01*
X50492857Y-89399404D01*
X50616666Y-89337500D01*
X50678571Y-89213690D01*
X50678571Y-88966071D01*
X50616666Y-88842261D01*
X50492857Y-88780357D01*
X50369047Y-88780357D01*
X50245238Y-89399404D01*
X50678571Y-87666071D02*
X49626190Y-87666071D01*
X49502380Y-87727976D01*
X49440476Y-87789880D01*
X49378571Y-87913690D01*
X49378571Y-88099404D01*
X49440476Y-88223214D01*
X49873809Y-87666071D02*
X49811904Y-87789880D01*
X49811904Y-88037500D01*
X49873809Y-88161309D01*
X49935714Y-88223214D01*
X50059523Y-88285119D01*
X50430952Y-88285119D01*
X50554761Y-88223214D01*
X50616666Y-88161309D01*
X50678571Y-88037500D01*
X50678571Y-87789880D01*
X50616666Y-87666071D01*
X49811904Y-86489880D02*
X50492857Y-86489880D01*
X50616666Y-86551785D01*
X50678571Y-86675595D01*
X50678571Y-86923214D01*
X50616666Y-87047023D01*
X49873809Y-86489880D02*
X49811904Y-86613690D01*
X49811904Y-86923214D01*
X49873809Y-87047023D01*
X49997619Y-87108928D01*
X50121428Y-87108928D01*
X50245238Y-87047023D01*
X50307142Y-86923214D01*
X50307142Y-86613690D01*
X50369047Y-86489880D01*
X51111904Y-85994642D02*
X51111904Y-85189880D01*
X50616666Y-85623214D01*
X50616666Y-85437500D01*
X50554761Y-85313690D01*
X50492857Y-85251785D01*
X50369047Y-85189880D01*
X50059523Y-85189880D01*
X49935714Y-85251785D01*
X49873809Y-85313690D01*
X49811904Y-85437500D01*
X49811904Y-85808928D01*
X49873809Y-85932738D01*
X49935714Y-85994642D01*
X50988095Y-84694642D02*
X51050000Y-84632738D01*
X51111904Y-84508928D01*
X51111904Y-84199404D01*
X51050000Y-84075595D01*
X50988095Y-84013690D01*
X50864285Y-83951785D01*
X50740476Y-83951785D01*
X50554761Y-84013690D01*
X49811904Y-84756547D01*
X49811904Y-83951785D01*
X51111904Y-83394642D02*
X50059523Y-83394642D01*
X49935714Y-83332738D01*
X49873809Y-83270833D01*
X49811904Y-83147023D01*
X49811904Y-82899404D01*
X49873809Y-82775595D01*
X49935714Y-82713690D01*
X50059523Y-82651785D01*
X51111904Y-82651785D01*
X50678571Y-81475595D02*
X49811904Y-81475595D01*
X51173809Y-81785119D02*
X50245238Y-82094642D01*
X50245238Y-81289880D01*
X50492857Y-79370833D02*
X50430952Y-79185119D01*
X50369047Y-79123214D01*
X50245238Y-79061309D01*
X50059523Y-79061309D01*
X49935714Y-79123214D01*
X49873809Y-79185119D01*
X49811904Y-79308928D01*
X49811904Y-79804166D01*
X51111904Y-79804166D01*
X51111904Y-79370833D01*
X51050000Y-79247023D01*
X50988095Y-79185119D01*
X50864285Y-79123214D01*
X50740476Y-79123214D01*
X50616666Y-79185119D01*
X50554761Y-79247023D01*
X50492857Y-79370833D01*
X50492857Y-79804166D01*
X49811904Y-77947023D02*
X50492857Y-77947023D01*
X50616666Y-78008928D01*
X50678571Y-78132738D01*
X50678571Y-78380357D01*
X50616666Y-78504166D01*
X49873809Y-77947023D02*
X49811904Y-78070833D01*
X49811904Y-78380357D01*
X49873809Y-78504166D01*
X49997619Y-78566071D01*
X50121428Y-78566071D01*
X50245238Y-78504166D01*
X50307142Y-78380357D01*
X50307142Y-78070833D01*
X50369047Y-77947023D01*
X49873809Y-76770833D02*
X49811904Y-76894642D01*
X49811904Y-77142261D01*
X49873809Y-77266071D01*
X49935714Y-77327976D01*
X50059523Y-77389880D01*
X50430952Y-77389880D01*
X50554761Y-77327976D01*
X50616666Y-77266071D01*
X50678571Y-77142261D01*
X50678571Y-76894642D01*
X50616666Y-76770833D01*
X49811904Y-76213690D02*
X51111904Y-76213690D01*
X50307142Y-76089880D02*
X49811904Y-75718452D01*
X50678571Y-75718452D02*
X50183333Y-76213690D01*
X49811904Y-75161309D02*
X51111904Y-75161309D01*
X51111904Y-74666071D01*
X51050000Y-74542261D01*
X50988095Y-74480357D01*
X50864285Y-74418452D01*
X50678571Y-74418452D01*
X50554761Y-74480357D01*
X50492857Y-74542261D01*
X50430952Y-74666071D01*
X50430952Y-75161309D01*
X49811904Y-73304166D02*
X50492857Y-73304166D01*
X50616666Y-73366071D01*
X50678571Y-73489880D01*
X50678571Y-73737500D01*
X50616666Y-73861309D01*
X49873809Y-73304166D02*
X49811904Y-73427976D01*
X49811904Y-73737500D01*
X49873809Y-73861309D01*
X49997619Y-73923214D01*
X50121428Y-73923214D01*
X50245238Y-73861309D01*
X50307142Y-73737500D01*
X50307142Y-73427976D01*
X50369047Y-73304166D01*
X49873809Y-72127976D02*
X49811904Y-72251785D01*
X49811904Y-72499404D01*
X49873809Y-72623214D01*
X49935714Y-72685119D01*
X50059523Y-72747023D01*
X50430952Y-72747023D01*
X50554761Y-72685119D01*
X50616666Y-72623214D01*
X50678571Y-72499404D01*
X50678571Y-72251785D01*
X50616666Y-72127976D01*
X49811904Y-71570833D02*
X51111904Y-71570833D01*
X50307142Y-71447023D02*
X49811904Y-71075595D01*
X50678571Y-71075595D02*
X50183333Y-71570833D01*
X47611904Y-92185119D02*
X48230952Y-92618452D01*
X47611904Y-92927976D02*
X48911904Y-92927976D01*
X48911904Y-92432738D01*
X48850000Y-92308928D01*
X48788095Y-92247023D01*
X48664285Y-92185119D01*
X48478571Y-92185119D01*
X48354761Y-92247023D01*
X48292857Y-92308928D01*
X48230952Y-92432738D01*
X48230952Y-92927976D01*
X47673809Y-91132738D02*
X47611904Y-91256547D01*
X47611904Y-91504166D01*
X47673809Y-91627976D01*
X47797619Y-91689880D01*
X48292857Y-91689880D01*
X48416666Y-91627976D01*
X48478571Y-91504166D01*
X48478571Y-91256547D01*
X48416666Y-91132738D01*
X48292857Y-91070833D01*
X48169047Y-91070833D01*
X48045238Y-91689880D01*
X48478571Y-90637500D02*
X47611904Y-90327976D01*
X48478571Y-90018452D01*
X47611904Y-88842261D02*
X47611904Y-89585119D01*
X47611904Y-89213690D02*
X48911904Y-89213690D01*
X48726190Y-89337500D01*
X48602380Y-89461309D01*
X48540476Y-89585119D01*
X47735714Y-88285119D02*
X47673809Y-88223214D01*
X47611904Y-88285119D01*
X47673809Y-88347023D01*
X47735714Y-88285119D01*
X47611904Y-88285119D01*
X48911904Y-87418452D02*
X48911904Y-87294642D01*
X48850000Y-87170833D01*
X48788095Y-87108928D01*
X48664285Y-87047023D01*
X48416666Y-86985119D01*
X48107142Y-86985119D01*
X47859523Y-87047023D01*
X47735714Y-87108928D01*
X47673809Y-87170833D01*
X47611904Y-87294642D01*
X47611904Y-87418452D01*
X47673809Y-87542261D01*
X47735714Y-87604166D01*
X47859523Y-87666071D01*
X48107142Y-87727976D01*
X48416666Y-87727976D01*
X48664285Y-87666071D01*
X48788095Y-87604166D01*
X48850000Y-87542261D01*
X48911904Y-87418452D01*
X47735714Y-86427976D02*
X47673809Y-86366071D01*
X47611904Y-86427976D01*
X47673809Y-86489880D01*
X47735714Y-86427976D01*
X47611904Y-86427976D01*
X48911904Y-85561309D02*
X48911904Y-85437500D01*
X48850000Y-85313690D01*
X48788095Y-85251785D01*
X48664285Y-85189880D01*
X48416666Y-85127976D01*
X48107142Y-85127976D01*
X47859523Y-85189880D01*
X47735714Y-85251785D01*
X47673809Y-85313690D01*
X47611904Y-85437500D01*
X47611904Y-85561309D01*
X47673809Y-85685119D01*
X47735714Y-85747023D01*
X47859523Y-85808928D01*
X48107142Y-85870833D01*
X48416666Y-85870833D01*
X48664285Y-85808928D01*
X48788095Y-85747023D01*
X48850000Y-85685119D01*
X48911904Y-85561309D01*
X46278571Y-92370833D02*
X45226190Y-92370833D01*
X45102380Y-92432738D01*
X45040476Y-92494642D01*
X44978571Y-92618452D01*
X44978571Y-92804166D01*
X45040476Y-92927976D01*
X45473809Y-92370833D02*
X45411904Y-92494642D01*
X45411904Y-92742261D01*
X45473809Y-92866071D01*
X45535714Y-92927976D01*
X45659523Y-92989880D01*
X46030952Y-92989880D01*
X46154761Y-92927976D01*
X46216666Y-92866071D01*
X46278571Y-92742261D01*
X46278571Y-92494642D01*
X46216666Y-92370833D01*
X45411904Y-91751785D02*
X46278571Y-91751785D01*
X46711904Y-91751785D02*
X46650000Y-91813690D01*
X46588095Y-91751785D01*
X46650000Y-91689880D01*
X46711904Y-91751785D01*
X46588095Y-91751785D01*
X46278571Y-91318452D02*
X46278571Y-90823214D01*
X46711904Y-91132738D02*
X45597619Y-91132738D01*
X45473809Y-91070833D01*
X45411904Y-90947023D01*
X45411904Y-90823214D01*
X45535714Y-90389880D02*
X45473809Y-90327976D01*
X45411904Y-90389880D01*
X45473809Y-90451785D01*
X45535714Y-90389880D01*
X45411904Y-90389880D01*
X45411904Y-89770833D02*
X46278571Y-89770833D01*
X46711904Y-89770833D02*
X46650000Y-89832738D01*
X46588095Y-89770833D01*
X46650000Y-89708928D01*
X46711904Y-89770833D01*
X46588095Y-89770833D01*
X45411904Y-88966071D02*
X45473809Y-89089880D01*
X45535714Y-89151785D01*
X45659523Y-89213690D01*
X46030952Y-89213690D01*
X46154761Y-89151785D01*
X46216666Y-89089880D01*
X46278571Y-88966071D01*
X46278571Y-88780357D01*
X46216666Y-88656547D01*
X46154761Y-88594642D01*
X46030952Y-88532738D01*
X45659523Y-88532738D01*
X45535714Y-88594642D01*
X45473809Y-88656547D01*
X45411904Y-88780357D01*
X45411904Y-88966071D01*
X46773809Y-87047023D02*
X45102380Y-88161309D01*
X45783333Y-86675595D02*
X45783333Y-86056547D01*
X45411904Y-86799404D02*
X46711904Y-86366071D01*
X45411904Y-85932738D01*
X46711904Y-85685119D02*
X45411904Y-85251785D01*
X46711904Y-84818452D01*
X45411904Y-83642261D02*
X46030952Y-84075595D01*
X45411904Y-84385119D02*
X46711904Y-84385119D01*
X46711904Y-83889880D01*
X46650000Y-83766071D01*
X46588095Y-83704166D01*
X46464285Y-83642261D01*
X46278571Y-83642261D01*
X46154761Y-83704166D01*
X46092857Y-83766071D01*
X46030952Y-83889880D01*
X46030952Y-84385119D01*
X46092857Y-82651785D02*
X46030952Y-82466071D01*
X45969047Y-82404166D01*
X45845238Y-82342261D01*
X45659523Y-82342261D01*
X45535714Y-82404166D01*
X45473809Y-82466071D01*
X45411904Y-82589880D01*
X45411904Y-83085119D01*
X46711904Y-83085119D01*
X46711904Y-82651785D01*
X46650000Y-82527976D01*
X46588095Y-82466071D01*
X46464285Y-82404166D01*
X46340476Y-82404166D01*
X46216666Y-82466071D01*
X46154761Y-82527976D01*
X46092857Y-82651785D01*
X46092857Y-83085119D01*
X45411904Y-81785119D02*
X46711904Y-81785119D01*
X46711904Y-81289880D01*
X46650000Y-81166071D01*
X46588095Y-81104166D01*
X46464285Y-81042261D01*
X46278571Y-81042261D01*
X46154761Y-81104166D01*
X46092857Y-81166071D01*
X46030952Y-81289880D01*
X46030952Y-81785119D01*
D11*
X36700000Y-101000000D02*
X38100000Y-101000000D01*
X36700000Y-99600000D02*
X36700000Y-101000000D01*
X38100000Y-99600000D02*
X36700000Y-99600000D01*
X38100000Y-101000000D02*
X38100000Y-99600000D01*
X42100000Y-103000000D02*
X42100000Y-101600000D01*
X40700000Y-103000000D02*
X42100000Y-103000000D01*
X40700000Y-101600000D02*
X40700000Y-103000000D01*
X42100000Y-101600000D02*
X40700000Y-101600000D01*
X38700000Y-99600000D02*
X38700000Y-101000000D01*
X38700000Y-101000000D02*
X40100000Y-101000000D01*
X40100000Y-101000000D02*
X40100000Y-99600000D01*
X40100000Y-99600000D02*
X38700000Y-99600000D01*
X38100000Y-99000000D02*
X38100000Y-97600000D01*
X38100000Y-97600000D02*
X36700000Y-97600000D01*
X36700000Y-97600000D02*
X36700000Y-99000000D01*
X36700000Y-99000000D02*
X38100000Y-99000000D01*
X42100000Y-99600000D02*
X40700000Y-99600000D01*
X42100000Y-101000000D02*
X42100000Y-99600000D01*
X40700000Y-101000000D02*
X42100000Y-101000000D01*
X40700000Y-99600000D02*
X40700000Y-101000000D01*
X38100000Y-103000000D02*
X38100000Y-101600000D01*
X38100000Y-101600000D02*
X36700000Y-101600000D01*
X36700000Y-101600000D02*
X36700000Y-103000000D01*
X36700000Y-103000000D02*
X38100000Y-103000000D01*
X40100000Y-103600000D02*
X38700000Y-103600000D01*
X40100000Y-105000000D02*
X40100000Y-103600000D01*
X38700000Y-105000000D02*
X40100000Y-105000000D01*
X38700000Y-103600000D02*
X38700000Y-105000000D01*
X38700000Y-101600000D02*
X38700000Y-103000000D01*
X38700000Y-103000000D02*
X40100000Y-103000000D01*
X40100000Y-103000000D02*
X40100000Y-101600000D01*
X40100000Y-101600000D02*
X38700000Y-101600000D01*
X40700000Y-103600000D02*
X40700000Y-105000000D01*
X40700000Y-105000000D02*
X42100000Y-105000000D01*
X42100000Y-105000000D02*
X42100000Y-103600000D01*
X42100000Y-103600000D02*
X40700000Y-103600000D01*
X42100000Y-97600000D02*
X40700000Y-97600000D01*
X42100000Y-99000000D02*
X42100000Y-97600000D01*
X40700000Y-99000000D02*
X42100000Y-99000000D01*
X40700000Y-97600000D02*
X40700000Y-99000000D01*
X38100000Y-95600000D02*
X36700000Y-95600000D01*
X36700000Y-95600000D02*
X36700000Y-97000000D01*
X36700000Y-97000000D02*
X38100000Y-97000000D01*
X38100000Y-97000000D02*
X38100000Y-95600000D01*
X40100000Y-93100000D02*
X40100000Y-91700000D01*
X38700000Y-93100000D02*
X40100000Y-93100000D01*
X38700000Y-91700000D02*
X38700000Y-93100000D01*
X40100000Y-91700000D02*
X38700000Y-91700000D01*
X40100000Y-95600000D02*
X38700000Y-95600000D01*
X38700000Y-95600000D02*
X38700000Y-97000000D01*
X38700000Y-97000000D02*
X40100000Y-97000000D01*
X40100000Y-97000000D02*
X40100000Y-95600000D01*
X40100000Y-97600000D02*
X38700000Y-97600000D01*
X38700000Y-97600000D02*
X38700000Y-99000000D01*
X38700000Y-99000000D02*
X40100000Y-99000000D01*
X40100000Y-99000000D02*
X40100000Y-97600000D01*
X42100000Y-93100000D02*
X42100000Y-91700000D01*
X40700000Y-93100000D02*
X42100000Y-93100000D01*
X40700000Y-91700000D02*
X40700000Y-93100000D01*
X42100000Y-91700000D02*
X40700000Y-91700000D01*
X42100000Y-95600000D02*
X40700000Y-95600000D01*
X40700000Y-95600000D02*
X40700000Y-97000000D01*
X40700000Y-97000000D02*
X42100000Y-97000000D01*
X42100000Y-97000000D02*
X42100000Y-95600000D01*
D12*
X35778571Y-99895238D02*
X35826190Y-100038095D01*
X35873809Y-100085714D01*
X35969047Y-100133333D01*
X36111904Y-100133333D01*
X36207142Y-100085714D01*
X36254761Y-100038095D01*
X36302380Y-99942857D01*
X36302380Y-99561904D01*
X35302380Y-99561904D01*
X35302380Y-99895238D01*
X35350000Y-99990476D01*
X35397619Y-100038095D01*
X35492857Y-100085714D01*
X35588095Y-100085714D01*
X35683333Y-100038095D01*
X35730952Y-99990476D01*
X35778571Y-99895238D01*
X35778571Y-99561904D01*
X35302380Y-100752380D02*
X35302380Y-100847619D01*
X35350000Y-100942857D01*
X35397619Y-100990476D01*
X35492857Y-101038095D01*
X35683333Y-101085714D01*
X35921428Y-101085714D01*
X36111904Y-101038095D01*
X36207142Y-100990476D01*
X36254761Y-100942857D01*
X36302380Y-100847619D01*
X36302380Y-100752380D01*
X36254761Y-100657142D01*
X36207142Y-100609523D01*
X36111904Y-100561904D01*
X35921428Y-100514285D01*
X35683333Y-100514285D01*
X35492857Y-100561904D01*
X35397619Y-100609523D01*
X35350000Y-100657142D01*
X35302380Y-100752380D01*
X44128571Y-101895238D02*
X44176190Y-102038095D01*
X44223809Y-102085714D01*
X44319047Y-102133333D01*
X44461904Y-102133333D01*
X44557142Y-102085714D01*
X44604761Y-102038095D01*
X44652380Y-101942857D01*
X44652380Y-101561904D01*
X43652380Y-101561904D01*
X43652380Y-101895238D01*
X43700000Y-101990476D01*
X43747619Y-102038095D01*
X43842857Y-102085714D01*
X43938095Y-102085714D01*
X44033333Y-102038095D01*
X44080952Y-101990476D01*
X44128571Y-101895238D01*
X44128571Y-101561904D01*
X43985714Y-102990476D02*
X44652380Y-102990476D01*
X43604761Y-102752380D02*
X44319047Y-102514285D01*
X44319047Y-103133333D01*
X42928571Y-99895238D02*
X42976190Y-100038095D01*
X43023809Y-100085714D01*
X43119047Y-100133333D01*
X43261904Y-100133333D01*
X43357142Y-100085714D01*
X43404761Y-100038095D01*
X43452380Y-99942857D01*
X43452380Y-99561904D01*
X42452380Y-99561904D01*
X42452380Y-99895238D01*
X42500000Y-99990476D01*
X42547619Y-100038095D01*
X42642857Y-100085714D01*
X42738095Y-100085714D01*
X42833333Y-100038095D01*
X42880952Y-99990476D01*
X42928571Y-99895238D01*
X42928571Y-99561904D01*
X42452380Y-101038095D02*
X42452380Y-100561904D01*
X42928571Y-100514285D01*
X42880952Y-100561904D01*
X42833333Y-100657142D01*
X42833333Y-100895238D01*
X42880952Y-100990476D01*
X42928571Y-101038095D01*
X43023809Y-101085714D01*
X43261904Y-101085714D01*
X43357142Y-101038095D01*
X43404761Y-100990476D01*
X43452380Y-100895238D01*
X43452380Y-100657142D01*
X43404761Y-100561904D01*
X43357142Y-100514285D01*
X36066666Y-96680952D02*
X36066666Y-97157142D01*
X36352380Y-96585714D02*
X35352380Y-96919047D01*
X36352380Y-97252380D01*
X36352380Y-98157142D02*
X35876190Y-97823809D01*
X36352380Y-97585714D02*
X35352380Y-97585714D01*
X35352380Y-97966666D01*
X35400000Y-98061904D01*
X35447619Y-98109523D01*
X35542857Y-98157142D01*
X35685714Y-98157142D01*
X35780952Y-98109523D01*
X35828571Y-98061904D01*
X35876190Y-97966666D01*
X35876190Y-97585714D01*
X35828571Y-98585714D02*
X35828571Y-98919047D01*
X36352380Y-99061904D02*
X36352380Y-98585714D01*
X35352380Y-98585714D01*
X35352380Y-99061904D01*
X35828571Y-99823809D02*
X35828571Y-99490476D01*
X36352380Y-99490476D02*
X35352380Y-99490476D01*
X35352380Y-99966666D01*
X44128571Y-99895238D02*
X44176190Y-100038095D01*
X44223809Y-100085714D01*
X44319047Y-100133333D01*
X44461904Y-100133333D01*
X44557142Y-100085714D01*
X44604761Y-100038095D01*
X44652380Y-99942857D01*
X44652380Y-99561904D01*
X43652380Y-99561904D01*
X43652380Y-99895238D01*
X43700000Y-99990476D01*
X43747619Y-100038095D01*
X43842857Y-100085714D01*
X43938095Y-100085714D01*
X44033333Y-100038095D01*
X44080952Y-99990476D01*
X44128571Y-99895238D01*
X44128571Y-99561904D01*
X43652380Y-100990476D02*
X43652380Y-100800000D01*
X43700000Y-100704761D01*
X43747619Y-100657142D01*
X43890476Y-100561904D01*
X44080952Y-100514285D01*
X44461904Y-100514285D01*
X44557142Y-100561904D01*
X44604761Y-100609523D01*
X44652380Y-100704761D01*
X44652380Y-100895238D01*
X44604761Y-100990476D01*
X44557142Y-101038095D01*
X44461904Y-101085714D01*
X44223809Y-101085714D01*
X44128571Y-101038095D01*
X44080952Y-100990476D01*
X44033333Y-100895238D01*
X44033333Y-100704761D01*
X44080952Y-100609523D01*
X44128571Y-100561904D01*
X44223809Y-100514285D01*
X35778571Y-101895238D02*
X35826190Y-102038095D01*
X35873809Y-102085714D01*
X35969047Y-102133333D01*
X36111904Y-102133333D01*
X36207142Y-102085714D01*
X36254761Y-102038095D01*
X36302380Y-101942857D01*
X36302380Y-101561904D01*
X35302380Y-101561904D01*
X35302380Y-101895238D01*
X35350000Y-101990476D01*
X35397619Y-102038095D01*
X35492857Y-102085714D01*
X35588095Y-102085714D01*
X35683333Y-102038095D01*
X35730952Y-101990476D01*
X35778571Y-101895238D01*
X35778571Y-101561904D01*
X35302380Y-102466666D02*
X35302380Y-103133333D01*
X36302380Y-102704761D01*
X43452380Y-103561904D02*
X42452380Y-103561904D01*
X42452380Y-103800000D01*
X42500000Y-103942857D01*
X42595238Y-104038095D01*
X42690476Y-104085714D01*
X42880952Y-104133333D01*
X43023809Y-104133333D01*
X43214285Y-104085714D01*
X43309523Y-104038095D01*
X43404761Y-103942857D01*
X43452380Y-103800000D01*
X43452380Y-103561904D01*
X42452380Y-104990476D02*
X42452380Y-104800000D01*
X42500000Y-104704761D01*
X42547619Y-104657142D01*
X42690476Y-104561904D01*
X42880952Y-104514285D01*
X43261904Y-104514285D01*
X43357142Y-104561904D01*
X43404761Y-104609523D01*
X43452380Y-104704761D01*
X43452380Y-104895238D01*
X43404761Y-104990476D01*
X43357142Y-105038095D01*
X43261904Y-105085714D01*
X43023809Y-105085714D01*
X42928571Y-105038095D01*
X42880952Y-104990476D01*
X42833333Y-104895238D01*
X42833333Y-104704761D01*
X42880952Y-104609523D01*
X42928571Y-104561904D01*
X43023809Y-104514285D01*
X43452380Y-101561904D02*
X42452380Y-101561904D01*
X42452380Y-101800000D01*
X42500000Y-101942857D01*
X42595238Y-102038095D01*
X42690476Y-102085714D01*
X42880952Y-102133333D01*
X43023809Y-102133333D01*
X43214285Y-102085714D01*
X43309523Y-102038095D01*
X43404761Y-101942857D01*
X43452380Y-101800000D01*
X43452380Y-101561904D01*
X42452380Y-102466666D02*
X42452380Y-103133333D01*
X43452380Y-102704761D01*
X44652380Y-103561904D02*
X43652380Y-103561904D01*
X43652380Y-103800000D01*
X43700000Y-103942857D01*
X43795238Y-104038095D01*
X43890476Y-104085714D01*
X44080952Y-104133333D01*
X44223809Y-104133333D01*
X44414285Y-104085714D01*
X44509523Y-104038095D01*
X44604761Y-103942857D01*
X44652380Y-103800000D01*
X44652380Y-103561904D01*
X43985714Y-104990476D02*
X44652380Y-104990476D01*
X43604761Y-104752380D02*
X44319047Y-104514285D01*
X44319047Y-105133333D01*
X44128571Y-97609523D02*
X44128571Y-97942857D01*
X44652380Y-98085714D02*
X44652380Y-97609523D01*
X43652380Y-97609523D01*
X43652380Y-98085714D01*
X43747619Y-98466666D02*
X43700000Y-98514285D01*
X43652380Y-98609523D01*
X43652380Y-98847619D01*
X43700000Y-98942857D01*
X43747619Y-98990476D01*
X43842857Y-99038095D01*
X43938095Y-99038095D01*
X44080952Y-98990476D01*
X44652380Y-98419047D01*
X44652380Y-99038095D01*
X35828571Y-95966666D02*
X35828571Y-95633333D01*
X36352380Y-95633333D02*
X35352380Y-95633333D01*
X35352380Y-96109523D01*
X35352380Y-96680952D02*
X35352380Y-96776190D01*
X35400000Y-96871428D01*
X35447619Y-96919047D01*
X35542857Y-96966666D01*
X35733333Y-97014285D01*
X35971428Y-97014285D01*
X36161904Y-96966666D01*
X36257142Y-96919047D01*
X36304761Y-96871428D01*
X36352380Y-96776190D01*
X36352380Y-96680952D01*
X36304761Y-96585714D01*
X36257142Y-96538095D01*
X36161904Y-96490476D01*
X35971428Y-96442857D01*
X35733333Y-96442857D01*
X35542857Y-96490476D01*
X35447619Y-96538095D01*
X35400000Y-96585714D01*
X35352380Y-96680952D01*
X39733333Y-93878571D02*
X40066666Y-93878571D01*
X40066666Y-94402380D02*
X40066666Y-93402380D01*
X39590476Y-93402380D01*
X38685714Y-94402380D02*
X39257142Y-94402380D01*
X38971428Y-94402380D02*
X38971428Y-93402380D01*
X39066666Y-93545238D01*
X39161904Y-93640476D01*
X39257142Y-93688095D01*
X42928571Y-95966666D02*
X42928571Y-95633333D01*
X43452380Y-95633333D02*
X42452380Y-95633333D01*
X42452380Y-96109523D01*
X42785714Y-96919047D02*
X43452380Y-96919047D01*
X42404761Y-96680952D02*
X43119047Y-96442857D01*
X43119047Y-97061904D01*
X42928571Y-97966666D02*
X42928571Y-97633333D01*
X43452380Y-97633333D02*
X42452380Y-97633333D01*
X42452380Y-98109523D01*
X42452380Y-98966666D02*
X42452380Y-98490476D01*
X42928571Y-98442857D01*
X42880952Y-98490476D01*
X42833333Y-98585714D01*
X42833333Y-98823809D01*
X42880952Y-98919047D01*
X42928571Y-98966666D01*
X43023809Y-99014285D01*
X43261904Y-99014285D01*
X43357142Y-98966666D01*
X43404761Y-98919047D01*
X43452380Y-98823809D01*
X43452380Y-98585714D01*
X43404761Y-98490476D01*
X43357142Y-98442857D01*
X41733333Y-93878571D02*
X42066666Y-93878571D01*
X42066666Y-94402380D02*
X42066666Y-93402380D01*
X41590476Y-93402380D01*
X40780952Y-93402380D02*
X40971428Y-93402380D01*
X41066666Y-93450000D01*
X41114285Y-93497619D01*
X41209523Y-93640476D01*
X41257142Y-93830952D01*
X41257142Y-94211904D01*
X41209523Y-94307142D01*
X41161904Y-94354761D01*
X41066666Y-94402380D01*
X40876190Y-94402380D01*
X40780952Y-94354761D01*
X40733333Y-94307142D01*
X40685714Y-94211904D01*
X40685714Y-93973809D01*
X40733333Y-93878571D01*
X40780952Y-93830952D01*
X40876190Y-93783333D01*
X41066666Y-93783333D01*
X41161904Y-93830952D01*
X41209523Y-93878571D01*
X41257142Y-93973809D01*
X44128571Y-95966666D02*
X44128571Y-95633333D01*
X44652380Y-95633333D02*
X43652380Y-95633333D01*
X43652380Y-96109523D01*
X43652380Y-96395238D02*
X43652380Y-97061904D01*
X44652380Y-96633333D01*
M02*
