G04 #@! TF.GenerationSoftware,KiCad,Pcbnew,(5.1.2)-2*
G04 #@! TF.CreationDate,2019-07-11T02:06:11+02:00*
G04 #@! TF.ProjectId,ATM32U4_backpack,41544d33-3255-4345-9f62-61636b706163,rev?*
G04 #@! TF.SameCoordinates,Original*
G04 #@! TF.FileFunction,Legend,Bot*
G04 #@! TF.FilePolarity,Positive*
%FSLAX46Y46*%
G04 Gerber Fmt 4.6, Leading zero omitted, Abs format (unit mm)*
G04 Created by KiCad (PCBNEW (5.1.2)-2) date 2019-07-11 02:06:11*
%MOMM*%
%LPD*%
G04 APERTURE LIST*
%ADD10C,0.250000*%
%ADD11C,0.120000*%
%ADD12C,0.150000*%
G04 APERTURE END LIST*
D10*
X46989880Y-112316666D02*
X46370833Y-112316666D01*
X47113690Y-112688095D02*
X46680357Y-111388095D01*
X46247023Y-112688095D01*
X45999404Y-111388095D02*
X45256547Y-111388095D01*
X45627976Y-112688095D02*
X45627976Y-111388095D01*
X44823214Y-112688095D02*
X44823214Y-111388095D01*
X44389880Y-112316666D01*
X43956547Y-111388095D01*
X43956547Y-112688095D01*
X42842261Y-112626190D02*
X42966071Y-112688095D01*
X43213690Y-112688095D01*
X43337500Y-112626190D01*
X43399404Y-112502380D01*
X43399404Y-112007142D01*
X43337500Y-111883333D01*
X43213690Y-111821428D01*
X42966071Y-111821428D01*
X42842261Y-111883333D01*
X42780357Y-112007142D01*
X42780357Y-112130952D01*
X43399404Y-112254761D01*
X41666071Y-111821428D02*
X41666071Y-112873809D01*
X41727976Y-112997619D01*
X41789880Y-113059523D01*
X41913690Y-113121428D01*
X42099404Y-113121428D01*
X42223214Y-113059523D01*
X41666071Y-112626190D02*
X41789880Y-112688095D01*
X42037500Y-112688095D01*
X42161309Y-112626190D01*
X42223214Y-112564285D01*
X42285119Y-112440476D01*
X42285119Y-112069047D01*
X42223214Y-111945238D01*
X42161309Y-111883333D01*
X42037500Y-111821428D01*
X41789880Y-111821428D01*
X41666071Y-111883333D01*
X40489880Y-112688095D02*
X40489880Y-112007142D01*
X40551785Y-111883333D01*
X40675595Y-111821428D01*
X40923214Y-111821428D01*
X41047023Y-111883333D01*
X40489880Y-112626190D02*
X40613690Y-112688095D01*
X40923214Y-112688095D01*
X41047023Y-112626190D01*
X41108928Y-112502380D01*
X41108928Y-112378571D01*
X41047023Y-112254761D01*
X40923214Y-112192857D01*
X40613690Y-112192857D01*
X40489880Y-112130952D01*
X39994642Y-111388095D02*
X39189880Y-111388095D01*
X39623214Y-111883333D01*
X39437500Y-111883333D01*
X39313690Y-111945238D01*
X39251785Y-112007142D01*
X39189880Y-112130952D01*
X39189880Y-112440476D01*
X39251785Y-112564285D01*
X39313690Y-112626190D01*
X39437500Y-112688095D01*
X39808928Y-112688095D01*
X39932738Y-112626190D01*
X39994642Y-112564285D01*
X38694642Y-111511904D02*
X38632738Y-111450000D01*
X38508928Y-111388095D01*
X38199404Y-111388095D01*
X38075595Y-111450000D01*
X38013690Y-111511904D01*
X37951785Y-111635714D01*
X37951785Y-111759523D01*
X38013690Y-111945238D01*
X38756547Y-112688095D01*
X37951785Y-112688095D01*
X37394642Y-111388095D02*
X37394642Y-112440476D01*
X37332738Y-112564285D01*
X37270833Y-112626190D01*
X37147023Y-112688095D01*
X36899404Y-112688095D01*
X36775595Y-112626190D01*
X36713690Y-112564285D01*
X36651785Y-112440476D01*
X36651785Y-111388095D01*
X35475595Y-111821428D02*
X35475595Y-112688095D01*
X35785119Y-111326190D02*
X36094642Y-112254761D01*
X35289880Y-112254761D01*
X46494642Y-114207142D02*
X46308928Y-114269047D01*
X46247023Y-114330952D01*
X46185119Y-114454761D01*
X46185119Y-114640476D01*
X46247023Y-114764285D01*
X46308928Y-114826190D01*
X46432738Y-114888095D01*
X46927976Y-114888095D01*
X46927976Y-113588095D01*
X46494642Y-113588095D01*
X46370833Y-113650000D01*
X46308928Y-113711904D01*
X46247023Y-113835714D01*
X46247023Y-113959523D01*
X46308928Y-114083333D01*
X46370833Y-114145238D01*
X46494642Y-114207142D01*
X46927976Y-114207142D01*
X45070833Y-114888095D02*
X45070833Y-114207142D01*
X45132738Y-114083333D01*
X45256547Y-114021428D01*
X45504166Y-114021428D01*
X45627976Y-114083333D01*
X45070833Y-114826190D02*
X45194642Y-114888095D01*
X45504166Y-114888095D01*
X45627976Y-114826190D01*
X45689880Y-114702380D01*
X45689880Y-114578571D01*
X45627976Y-114454761D01*
X45504166Y-114392857D01*
X45194642Y-114392857D01*
X45070833Y-114330952D01*
X43894642Y-114826190D02*
X44018452Y-114888095D01*
X44266071Y-114888095D01*
X44389880Y-114826190D01*
X44451785Y-114764285D01*
X44513690Y-114640476D01*
X44513690Y-114269047D01*
X44451785Y-114145238D01*
X44389880Y-114083333D01*
X44266071Y-114021428D01*
X44018452Y-114021428D01*
X43894642Y-114083333D01*
X43337500Y-114888095D02*
X43337500Y-113588095D01*
X43213690Y-114392857D02*
X42842261Y-114888095D01*
X42842261Y-114021428D02*
X43337500Y-114516666D01*
X42285119Y-114888095D02*
X42285119Y-113588095D01*
X41789880Y-113588095D01*
X41666071Y-113650000D01*
X41604166Y-113711904D01*
X41542261Y-113835714D01*
X41542261Y-114021428D01*
X41604166Y-114145238D01*
X41666071Y-114207142D01*
X41789880Y-114269047D01*
X42285119Y-114269047D01*
X40427976Y-114888095D02*
X40427976Y-114207142D01*
X40489880Y-114083333D01*
X40613690Y-114021428D01*
X40861309Y-114021428D01*
X40985119Y-114083333D01*
X40427976Y-114826190D02*
X40551785Y-114888095D01*
X40861309Y-114888095D01*
X40985119Y-114826190D01*
X41047023Y-114702380D01*
X41047023Y-114578571D01*
X40985119Y-114454761D01*
X40861309Y-114392857D01*
X40551785Y-114392857D01*
X40427976Y-114330952D01*
X39251785Y-114826190D02*
X39375595Y-114888095D01*
X39623214Y-114888095D01*
X39747023Y-114826190D01*
X39808928Y-114764285D01*
X39870833Y-114640476D01*
X39870833Y-114269047D01*
X39808928Y-114145238D01*
X39747023Y-114083333D01*
X39623214Y-114021428D01*
X39375595Y-114021428D01*
X39251785Y-114083333D01*
X38694642Y-114888095D02*
X38694642Y-113588095D01*
X38570833Y-114392857D02*
X38199404Y-114888095D01*
X38199404Y-114021428D02*
X38694642Y-114516666D01*
X46185119Y-117088095D02*
X46618452Y-116469047D01*
X46927976Y-117088095D02*
X46927976Y-115788095D01*
X46432738Y-115788095D01*
X46308928Y-115850000D01*
X46247023Y-115911904D01*
X46185119Y-116035714D01*
X46185119Y-116221428D01*
X46247023Y-116345238D01*
X46308928Y-116407142D01*
X46432738Y-116469047D01*
X46927976Y-116469047D01*
X45132738Y-117026190D02*
X45256547Y-117088095D01*
X45504166Y-117088095D01*
X45627976Y-117026190D01*
X45689880Y-116902380D01*
X45689880Y-116407142D01*
X45627976Y-116283333D01*
X45504166Y-116221428D01*
X45256547Y-116221428D01*
X45132738Y-116283333D01*
X45070833Y-116407142D01*
X45070833Y-116530952D01*
X45689880Y-116654761D01*
X44637500Y-116221428D02*
X44327976Y-117088095D01*
X44018452Y-116221428D01*
X42842261Y-117088095D02*
X43585119Y-117088095D01*
X43213690Y-117088095D02*
X43213690Y-115788095D01*
X43337500Y-115973809D01*
X43461309Y-116097619D01*
X43585119Y-116159523D01*
X42285119Y-116964285D02*
X42223214Y-117026190D01*
X42285119Y-117088095D01*
X42347023Y-117026190D01*
X42285119Y-116964285D01*
X42285119Y-117088095D01*
X41418452Y-115788095D02*
X41294642Y-115788095D01*
X41170833Y-115850000D01*
X41108928Y-115911904D01*
X41047023Y-116035714D01*
X40985119Y-116283333D01*
X40985119Y-116592857D01*
X41047023Y-116840476D01*
X41108928Y-116964285D01*
X41170833Y-117026190D01*
X41294642Y-117088095D01*
X41418452Y-117088095D01*
X41542261Y-117026190D01*
X41604166Y-116964285D01*
X41666071Y-116840476D01*
X41727976Y-116592857D01*
X41727976Y-116283333D01*
X41666071Y-116035714D01*
X41604166Y-115911904D01*
X41542261Y-115850000D01*
X41418452Y-115788095D01*
X40427976Y-116964285D02*
X40366071Y-117026190D01*
X40427976Y-117088095D01*
X40489880Y-117026190D01*
X40427976Y-116964285D01*
X40427976Y-117088095D01*
X39561309Y-115788095D02*
X39437500Y-115788095D01*
X39313690Y-115850000D01*
X39251785Y-115911904D01*
X39189880Y-116035714D01*
X39127976Y-116283333D01*
X39127976Y-116592857D01*
X39189880Y-116840476D01*
X39251785Y-116964285D01*
X39313690Y-117026190D01*
X39437500Y-117088095D01*
X39561309Y-117088095D01*
X39685119Y-117026190D01*
X39747023Y-116964285D01*
X39808928Y-116840476D01*
X39870833Y-116592857D01*
X39870833Y-116283333D01*
X39808928Y-116035714D01*
X39747023Y-115911904D01*
X39685119Y-115850000D01*
X39561309Y-115788095D01*
X46370833Y-118421428D02*
X46370833Y-119473809D01*
X46432738Y-119597619D01*
X46494642Y-119659523D01*
X46618452Y-119721428D01*
X46804166Y-119721428D01*
X46927976Y-119659523D01*
X46370833Y-119226190D02*
X46494642Y-119288095D01*
X46742261Y-119288095D01*
X46866071Y-119226190D01*
X46927976Y-119164285D01*
X46989880Y-119040476D01*
X46989880Y-118669047D01*
X46927976Y-118545238D01*
X46866071Y-118483333D01*
X46742261Y-118421428D01*
X46494642Y-118421428D01*
X46370833Y-118483333D01*
X45751785Y-119288095D02*
X45751785Y-118421428D01*
X45751785Y-117988095D02*
X45813690Y-118050000D01*
X45751785Y-118111904D01*
X45689880Y-118050000D01*
X45751785Y-117988095D01*
X45751785Y-118111904D01*
X45318452Y-118421428D02*
X44823214Y-118421428D01*
X45132738Y-117988095D02*
X45132738Y-119102380D01*
X45070833Y-119226190D01*
X44947023Y-119288095D01*
X44823214Y-119288095D01*
X44389880Y-119164285D02*
X44327976Y-119226190D01*
X44389880Y-119288095D01*
X44451785Y-119226190D01*
X44389880Y-119164285D01*
X44389880Y-119288095D01*
X43770833Y-119288095D02*
X43770833Y-118421428D01*
X43770833Y-117988095D02*
X43832738Y-118050000D01*
X43770833Y-118111904D01*
X43708928Y-118050000D01*
X43770833Y-117988095D01*
X43770833Y-118111904D01*
X42966071Y-119288095D02*
X43089880Y-119226190D01*
X43151785Y-119164285D01*
X43213690Y-119040476D01*
X43213690Y-118669047D01*
X43151785Y-118545238D01*
X43089880Y-118483333D01*
X42966071Y-118421428D01*
X42780357Y-118421428D01*
X42656547Y-118483333D01*
X42594642Y-118545238D01*
X42532738Y-118669047D01*
X42532738Y-119040476D01*
X42594642Y-119164285D01*
X42656547Y-119226190D01*
X42780357Y-119288095D01*
X42966071Y-119288095D01*
X41047023Y-117926190D02*
X42161309Y-119597619D01*
X40675595Y-118916666D02*
X40056547Y-118916666D01*
X40799404Y-119288095D02*
X40366071Y-117988095D01*
X39932738Y-119288095D01*
X39685119Y-117988095D02*
X39251785Y-119288095D01*
X38818452Y-117988095D01*
X37642261Y-119288095D02*
X38075595Y-118669047D01*
X38385119Y-119288095D02*
X38385119Y-117988095D01*
X37889880Y-117988095D01*
X37766071Y-118050000D01*
X37704166Y-118111904D01*
X37642261Y-118235714D01*
X37642261Y-118421428D01*
X37704166Y-118545238D01*
X37766071Y-118607142D01*
X37889880Y-118669047D01*
X38385119Y-118669047D01*
X36651785Y-118607142D02*
X36466071Y-118669047D01*
X36404166Y-118730952D01*
X36342261Y-118854761D01*
X36342261Y-119040476D01*
X36404166Y-119164285D01*
X36466071Y-119226190D01*
X36589880Y-119288095D01*
X37085119Y-119288095D01*
X37085119Y-117988095D01*
X36651785Y-117988095D01*
X36527976Y-118050000D01*
X36466071Y-118111904D01*
X36404166Y-118235714D01*
X36404166Y-118359523D01*
X36466071Y-118483333D01*
X36527976Y-118545238D01*
X36651785Y-118607142D01*
X37085119Y-118607142D01*
X35785119Y-119288095D02*
X35785119Y-117988095D01*
X35289880Y-117988095D01*
X35166071Y-118050000D01*
X35104166Y-118111904D01*
X35042261Y-118235714D01*
X35042261Y-118421428D01*
X35104166Y-118545238D01*
X35166071Y-118607142D01*
X35289880Y-118669047D01*
X35785119Y-118669047D01*
D11*
X36700000Y-101000000D02*
X38100000Y-101000000D01*
X36700000Y-99600000D02*
X36700000Y-101000000D01*
X38100000Y-99600000D02*
X36700000Y-99600000D01*
X38100000Y-101000000D02*
X38100000Y-99600000D01*
X42100000Y-103000000D02*
X42100000Y-101600000D01*
X40700000Y-103000000D02*
X42100000Y-103000000D01*
X40700000Y-101600000D02*
X40700000Y-103000000D01*
X42100000Y-101600000D02*
X40700000Y-101600000D01*
X38700000Y-99600000D02*
X38700000Y-101000000D01*
X38700000Y-101000000D02*
X40100000Y-101000000D01*
X40100000Y-101000000D02*
X40100000Y-99600000D01*
X40100000Y-99600000D02*
X38700000Y-99600000D01*
X38100000Y-99000000D02*
X38100000Y-97600000D01*
X38100000Y-97600000D02*
X36700000Y-97600000D01*
X36700000Y-97600000D02*
X36700000Y-99000000D01*
X36700000Y-99000000D02*
X38100000Y-99000000D01*
X42100000Y-99600000D02*
X40700000Y-99600000D01*
X42100000Y-101000000D02*
X42100000Y-99600000D01*
X40700000Y-101000000D02*
X42100000Y-101000000D01*
X40700000Y-99600000D02*
X40700000Y-101000000D01*
X38100000Y-103000000D02*
X38100000Y-101600000D01*
X38100000Y-101600000D02*
X36700000Y-101600000D01*
X36700000Y-101600000D02*
X36700000Y-103000000D01*
X36700000Y-103000000D02*
X38100000Y-103000000D01*
X40100000Y-103600000D02*
X38700000Y-103600000D01*
X40100000Y-105000000D02*
X40100000Y-103600000D01*
X38700000Y-105000000D02*
X40100000Y-105000000D01*
X38700000Y-103600000D02*
X38700000Y-105000000D01*
X38700000Y-101600000D02*
X38700000Y-103000000D01*
X38700000Y-103000000D02*
X40100000Y-103000000D01*
X40100000Y-103000000D02*
X40100000Y-101600000D01*
X40100000Y-101600000D02*
X38700000Y-101600000D01*
X40700000Y-103600000D02*
X40700000Y-105000000D01*
X40700000Y-105000000D02*
X42100000Y-105000000D01*
X42100000Y-105000000D02*
X42100000Y-103600000D01*
X42100000Y-103600000D02*
X40700000Y-103600000D01*
X42100000Y-97600000D02*
X40700000Y-97600000D01*
X42100000Y-99000000D02*
X42100000Y-97600000D01*
X40700000Y-99000000D02*
X42100000Y-99000000D01*
X40700000Y-97600000D02*
X40700000Y-99000000D01*
X38100000Y-95600000D02*
X36700000Y-95600000D01*
X36700000Y-95600000D02*
X36700000Y-97000000D01*
X36700000Y-97000000D02*
X38100000Y-97000000D01*
X38100000Y-97000000D02*
X38100000Y-95600000D01*
X40100000Y-93100000D02*
X40100000Y-91700000D01*
X38700000Y-93100000D02*
X40100000Y-93100000D01*
X38700000Y-91700000D02*
X38700000Y-93100000D01*
X40100000Y-91700000D02*
X38700000Y-91700000D01*
X40100000Y-95600000D02*
X38700000Y-95600000D01*
X38700000Y-95600000D02*
X38700000Y-97000000D01*
X38700000Y-97000000D02*
X40100000Y-97000000D01*
X40100000Y-97000000D02*
X40100000Y-95600000D01*
X40100000Y-97600000D02*
X38700000Y-97600000D01*
X38700000Y-97600000D02*
X38700000Y-99000000D01*
X38700000Y-99000000D02*
X40100000Y-99000000D01*
X40100000Y-99000000D02*
X40100000Y-97600000D01*
X42100000Y-93100000D02*
X42100000Y-91700000D01*
X40700000Y-93100000D02*
X42100000Y-93100000D01*
X40700000Y-91700000D02*
X40700000Y-93100000D01*
X42100000Y-91700000D02*
X40700000Y-91700000D01*
X42100000Y-95600000D02*
X40700000Y-95600000D01*
X40700000Y-95600000D02*
X40700000Y-97000000D01*
X40700000Y-97000000D02*
X42100000Y-97000000D01*
X42100000Y-97000000D02*
X42100000Y-95600000D01*
D12*
X35778571Y-99895238D02*
X35826190Y-100038095D01*
X35873809Y-100085714D01*
X35969047Y-100133333D01*
X36111904Y-100133333D01*
X36207142Y-100085714D01*
X36254761Y-100038095D01*
X36302380Y-99942857D01*
X36302380Y-99561904D01*
X35302380Y-99561904D01*
X35302380Y-99895238D01*
X35350000Y-99990476D01*
X35397619Y-100038095D01*
X35492857Y-100085714D01*
X35588095Y-100085714D01*
X35683333Y-100038095D01*
X35730952Y-99990476D01*
X35778571Y-99895238D01*
X35778571Y-99561904D01*
X35302380Y-100752380D02*
X35302380Y-100847619D01*
X35350000Y-100942857D01*
X35397619Y-100990476D01*
X35492857Y-101038095D01*
X35683333Y-101085714D01*
X35921428Y-101085714D01*
X36111904Y-101038095D01*
X36207142Y-100990476D01*
X36254761Y-100942857D01*
X36302380Y-100847619D01*
X36302380Y-100752380D01*
X36254761Y-100657142D01*
X36207142Y-100609523D01*
X36111904Y-100561904D01*
X35921428Y-100514285D01*
X35683333Y-100514285D01*
X35492857Y-100561904D01*
X35397619Y-100609523D01*
X35350000Y-100657142D01*
X35302380Y-100752380D01*
X44128571Y-101895238D02*
X44176190Y-102038095D01*
X44223809Y-102085714D01*
X44319047Y-102133333D01*
X44461904Y-102133333D01*
X44557142Y-102085714D01*
X44604761Y-102038095D01*
X44652380Y-101942857D01*
X44652380Y-101561904D01*
X43652380Y-101561904D01*
X43652380Y-101895238D01*
X43700000Y-101990476D01*
X43747619Y-102038095D01*
X43842857Y-102085714D01*
X43938095Y-102085714D01*
X44033333Y-102038095D01*
X44080952Y-101990476D01*
X44128571Y-101895238D01*
X44128571Y-101561904D01*
X43985714Y-102990476D02*
X44652380Y-102990476D01*
X43604761Y-102752380D02*
X44319047Y-102514285D01*
X44319047Y-103133333D01*
X42928571Y-99895238D02*
X42976190Y-100038095D01*
X43023809Y-100085714D01*
X43119047Y-100133333D01*
X43261904Y-100133333D01*
X43357142Y-100085714D01*
X43404761Y-100038095D01*
X43452380Y-99942857D01*
X43452380Y-99561904D01*
X42452380Y-99561904D01*
X42452380Y-99895238D01*
X42500000Y-99990476D01*
X42547619Y-100038095D01*
X42642857Y-100085714D01*
X42738095Y-100085714D01*
X42833333Y-100038095D01*
X42880952Y-99990476D01*
X42928571Y-99895238D01*
X42928571Y-99561904D01*
X42452380Y-101038095D02*
X42452380Y-100561904D01*
X42928571Y-100514285D01*
X42880952Y-100561904D01*
X42833333Y-100657142D01*
X42833333Y-100895238D01*
X42880952Y-100990476D01*
X42928571Y-101038095D01*
X43023809Y-101085714D01*
X43261904Y-101085714D01*
X43357142Y-101038095D01*
X43404761Y-100990476D01*
X43452380Y-100895238D01*
X43452380Y-100657142D01*
X43404761Y-100561904D01*
X43357142Y-100514285D01*
X36066666Y-97752380D02*
X36066666Y-98228571D01*
X36352380Y-97657142D02*
X35352380Y-97990476D01*
X36352380Y-98323809D01*
X36352380Y-98657142D02*
X35685714Y-98657142D01*
X35876190Y-98657142D02*
X35780952Y-98704761D01*
X35733333Y-98752380D01*
X35685714Y-98847619D01*
X35685714Y-98942857D01*
X44128571Y-99895238D02*
X44176190Y-100038095D01*
X44223809Y-100085714D01*
X44319047Y-100133333D01*
X44461904Y-100133333D01*
X44557142Y-100085714D01*
X44604761Y-100038095D01*
X44652380Y-99942857D01*
X44652380Y-99561904D01*
X43652380Y-99561904D01*
X43652380Y-99895238D01*
X43700000Y-99990476D01*
X43747619Y-100038095D01*
X43842857Y-100085714D01*
X43938095Y-100085714D01*
X44033333Y-100038095D01*
X44080952Y-99990476D01*
X44128571Y-99895238D01*
X44128571Y-99561904D01*
X43652380Y-100990476D02*
X43652380Y-100800000D01*
X43700000Y-100704761D01*
X43747619Y-100657142D01*
X43890476Y-100561904D01*
X44080952Y-100514285D01*
X44461904Y-100514285D01*
X44557142Y-100561904D01*
X44604761Y-100609523D01*
X44652380Y-100704761D01*
X44652380Y-100895238D01*
X44604761Y-100990476D01*
X44557142Y-101038095D01*
X44461904Y-101085714D01*
X44223809Y-101085714D01*
X44128571Y-101038095D01*
X44080952Y-100990476D01*
X44033333Y-100895238D01*
X44033333Y-100704761D01*
X44080952Y-100609523D01*
X44128571Y-100561904D01*
X44223809Y-100514285D01*
X35778571Y-101895238D02*
X35826190Y-102038095D01*
X35873809Y-102085714D01*
X35969047Y-102133333D01*
X36111904Y-102133333D01*
X36207142Y-102085714D01*
X36254761Y-102038095D01*
X36302380Y-101942857D01*
X36302380Y-101561904D01*
X35302380Y-101561904D01*
X35302380Y-101895238D01*
X35350000Y-101990476D01*
X35397619Y-102038095D01*
X35492857Y-102085714D01*
X35588095Y-102085714D01*
X35683333Y-102038095D01*
X35730952Y-101990476D01*
X35778571Y-101895238D01*
X35778571Y-101561904D01*
X35302380Y-102466666D02*
X35302380Y-103133333D01*
X36302380Y-102704761D01*
X43452380Y-103561904D02*
X42452380Y-103561904D01*
X42452380Y-103800000D01*
X42500000Y-103942857D01*
X42595238Y-104038095D01*
X42690476Y-104085714D01*
X42880952Y-104133333D01*
X43023809Y-104133333D01*
X43214285Y-104085714D01*
X43309523Y-104038095D01*
X43404761Y-103942857D01*
X43452380Y-103800000D01*
X43452380Y-103561904D01*
X42452380Y-104990476D02*
X42452380Y-104800000D01*
X42500000Y-104704761D01*
X42547619Y-104657142D01*
X42690476Y-104561904D01*
X42880952Y-104514285D01*
X43261904Y-104514285D01*
X43357142Y-104561904D01*
X43404761Y-104609523D01*
X43452380Y-104704761D01*
X43452380Y-104895238D01*
X43404761Y-104990476D01*
X43357142Y-105038095D01*
X43261904Y-105085714D01*
X43023809Y-105085714D01*
X42928571Y-105038095D01*
X42880952Y-104990476D01*
X42833333Y-104895238D01*
X42833333Y-104704761D01*
X42880952Y-104609523D01*
X42928571Y-104561904D01*
X43023809Y-104514285D01*
X43452380Y-101561904D02*
X42452380Y-101561904D01*
X42452380Y-101800000D01*
X42500000Y-101942857D01*
X42595238Y-102038095D01*
X42690476Y-102085714D01*
X42880952Y-102133333D01*
X43023809Y-102133333D01*
X43214285Y-102085714D01*
X43309523Y-102038095D01*
X43404761Y-101942857D01*
X43452380Y-101800000D01*
X43452380Y-101561904D01*
X42452380Y-102466666D02*
X42452380Y-103133333D01*
X43452380Y-102704761D01*
X44652380Y-103561904D02*
X43652380Y-103561904D01*
X43652380Y-103800000D01*
X43700000Y-103942857D01*
X43795238Y-104038095D01*
X43890476Y-104085714D01*
X44080952Y-104133333D01*
X44223809Y-104133333D01*
X44414285Y-104085714D01*
X44509523Y-104038095D01*
X44604761Y-103942857D01*
X44652380Y-103800000D01*
X44652380Y-103561904D01*
X43985714Y-104990476D02*
X44652380Y-104990476D01*
X43604761Y-104752380D02*
X44319047Y-104514285D01*
X44319047Y-105133333D01*
X44128571Y-97609523D02*
X44128571Y-97942857D01*
X44652380Y-98085714D02*
X44652380Y-97609523D01*
X43652380Y-97609523D01*
X43652380Y-98085714D01*
X43747619Y-98466666D02*
X43700000Y-98514285D01*
X43652380Y-98609523D01*
X43652380Y-98847619D01*
X43700000Y-98942857D01*
X43747619Y-98990476D01*
X43842857Y-99038095D01*
X43938095Y-99038095D01*
X44080952Y-98990476D01*
X44652380Y-98419047D01*
X44652380Y-99038095D01*
X35828571Y-95966666D02*
X35828571Y-95633333D01*
X36352380Y-95633333D02*
X35352380Y-95633333D01*
X35352380Y-96109523D01*
X35352380Y-96680952D02*
X35352380Y-96776190D01*
X35400000Y-96871428D01*
X35447619Y-96919047D01*
X35542857Y-96966666D01*
X35733333Y-97014285D01*
X35971428Y-97014285D01*
X36161904Y-96966666D01*
X36257142Y-96919047D01*
X36304761Y-96871428D01*
X36352380Y-96776190D01*
X36352380Y-96680952D01*
X36304761Y-96585714D01*
X36257142Y-96538095D01*
X36161904Y-96490476D01*
X35971428Y-96442857D01*
X35733333Y-96442857D01*
X35542857Y-96490476D01*
X35447619Y-96538095D01*
X35400000Y-96585714D01*
X35352380Y-96680952D01*
X39733333Y-93878571D02*
X40066666Y-93878571D01*
X40066666Y-94402380D02*
X40066666Y-93402380D01*
X39590476Y-93402380D01*
X38685714Y-94402380D02*
X39257142Y-94402380D01*
X38971428Y-94402380D02*
X38971428Y-93402380D01*
X39066666Y-93545238D01*
X39161904Y-93640476D01*
X39257142Y-93688095D01*
X42928571Y-95966666D02*
X42928571Y-95633333D01*
X43452380Y-95633333D02*
X42452380Y-95633333D01*
X42452380Y-96109523D01*
X42785714Y-96919047D02*
X43452380Y-96919047D01*
X42404761Y-96680952D02*
X43119047Y-96442857D01*
X43119047Y-97061904D01*
X42928571Y-97966666D02*
X42928571Y-97633333D01*
X43452380Y-97633333D02*
X42452380Y-97633333D01*
X42452380Y-98109523D01*
X42452380Y-98966666D02*
X42452380Y-98490476D01*
X42928571Y-98442857D01*
X42880952Y-98490476D01*
X42833333Y-98585714D01*
X42833333Y-98823809D01*
X42880952Y-98919047D01*
X42928571Y-98966666D01*
X43023809Y-99014285D01*
X43261904Y-99014285D01*
X43357142Y-98966666D01*
X43404761Y-98919047D01*
X43452380Y-98823809D01*
X43452380Y-98585714D01*
X43404761Y-98490476D01*
X43357142Y-98442857D01*
X41733333Y-93878571D02*
X42066666Y-93878571D01*
X42066666Y-94402380D02*
X42066666Y-93402380D01*
X41590476Y-93402380D01*
X40780952Y-93402380D02*
X40971428Y-93402380D01*
X41066666Y-93450000D01*
X41114285Y-93497619D01*
X41209523Y-93640476D01*
X41257142Y-93830952D01*
X41257142Y-94211904D01*
X41209523Y-94307142D01*
X41161904Y-94354761D01*
X41066666Y-94402380D01*
X40876190Y-94402380D01*
X40780952Y-94354761D01*
X40733333Y-94307142D01*
X40685714Y-94211904D01*
X40685714Y-93973809D01*
X40733333Y-93878571D01*
X40780952Y-93830952D01*
X40876190Y-93783333D01*
X41066666Y-93783333D01*
X41161904Y-93830952D01*
X41209523Y-93878571D01*
X41257142Y-93973809D01*
X44128571Y-95966666D02*
X44128571Y-95633333D01*
X44652380Y-95633333D02*
X43652380Y-95633333D01*
X43652380Y-96109523D01*
X43652380Y-96395238D02*
X43652380Y-97061904D01*
X44652380Y-96633333D01*
M02*
