G04 #@! TF.GenerationSoftware,KiCad,Pcbnew,(5.1.2)-2*
G04 #@! TF.CreationDate,2019-07-11T09:04:51+02:00*
G04 #@! TF.ProjectId,ATM32U4_backpack,41544d33-3255-4345-9f62-61636b706163,rev?*
G04 #@! TF.SameCoordinates,Original*
G04 #@! TF.FileFunction,Copper,L1,Top*
G04 #@! TF.FilePolarity,Positive*
%FSLAX46Y46*%
G04 Gerber Fmt 4.6, Leading zero omitted, Abs format (unit mm)*
G04 Created by KiCad (PCBNEW (5.1.2)-2) date 2019-07-11 09:04:51*
%MOMM*%
%LPD*%
G04 APERTURE LIST*
%ADD10R,1.700000X1.700000*%
%ADD11C,0.100000*%
%ADD12C,0.875000*%
%ADD13R,1.000000X1.000000*%
%ADD14O,1.700000X1.700000*%
%ADD15R,0.450000X1.380000*%
%ADD16R,1.475000X2.100000*%
%ADD17R,2.375000X1.900000*%
%ADD18R,1.175000X1.900000*%
%ADD19R,1.500000X0.550000*%
%ADD20R,0.550000X1.500000*%
%ADD21R,3.500000X2.400000*%
%ADD22R,0.900000X0.800000*%
%ADD23R,1.450000X0.450000*%
%ADD24C,0.800000*%
%ADD25C,0.400000*%
%ADD26C,1.000000*%
%ADD27C,0.200000*%
%ADD28C,0.250000*%
G04 APERTURE END LIST*
D10*
X52840000Y-118140000D03*
D11*
G36*
X49727691Y-86626053D02*
G01*
X49748926Y-86629203D01*
X49769750Y-86634419D01*
X49789962Y-86641651D01*
X49809368Y-86650830D01*
X49827781Y-86661866D01*
X49845024Y-86674654D01*
X49860930Y-86689070D01*
X49875346Y-86704976D01*
X49888134Y-86722219D01*
X49899170Y-86740632D01*
X49908349Y-86760038D01*
X49915581Y-86780250D01*
X49920797Y-86801074D01*
X49923947Y-86822309D01*
X49925000Y-86843750D01*
X49925000Y-87356250D01*
X49923947Y-87377691D01*
X49920797Y-87398926D01*
X49915581Y-87419750D01*
X49908349Y-87439962D01*
X49899170Y-87459368D01*
X49888134Y-87477781D01*
X49875346Y-87495024D01*
X49860930Y-87510930D01*
X49845024Y-87525346D01*
X49827781Y-87538134D01*
X49809368Y-87549170D01*
X49789962Y-87558349D01*
X49769750Y-87565581D01*
X49748926Y-87570797D01*
X49727691Y-87573947D01*
X49706250Y-87575000D01*
X49268750Y-87575000D01*
X49247309Y-87573947D01*
X49226074Y-87570797D01*
X49205250Y-87565581D01*
X49185038Y-87558349D01*
X49165632Y-87549170D01*
X49147219Y-87538134D01*
X49129976Y-87525346D01*
X49114070Y-87510930D01*
X49099654Y-87495024D01*
X49086866Y-87477781D01*
X49075830Y-87459368D01*
X49066651Y-87439962D01*
X49059419Y-87419750D01*
X49054203Y-87398926D01*
X49051053Y-87377691D01*
X49050000Y-87356250D01*
X49050000Y-86843750D01*
X49051053Y-86822309D01*
X49054203Y-86801074D01*
X49059419Y-86780250D01*
X49066651Y-86760038D01*
X49075830Y-86740632D01*
X49086866Y-86722219D01*
X49099654Y-86704976D01*
X49114070Y-86689070D01*
X49129976Y-86674654D01*
X49147219Y-86661866D01*
X49165632Y-86650830D01*
X49185038Y-86641651D01*
X49205250Y-86634419D01*
X49226074Y-86629203D01*
X49247309Y-86626053D01*
X49268750Y-86625000D01*
X49706250Y-86625000D01*
X49727691Y-86626053D01*
X49727691Y-86626053D01*
G37*
D12*
X49487500Y-87100000D03*
D11*
G36*
X48152691Y-86626053D02*
G01*
X48173926Y-86629203D01*
X48194750Y-86634419D01*
X48214962Y-86641651D01*
X48234368Y-86650830D01*
X48252781Y-86661866D01*
X48270024Y-86674654D01*
X48285930Y-86689070D01*
X48300346Y-86704976D01*
X48313134Y-86722219D01*
X48324170Y-86740632D01*
X48333349Y-86760038D01*
X48340581Y-86780250D01*
X48345797Y-86801074D01*
X48348947Y-86822309D01*
X48350000Y-86843750D01*
X48350000Y-87356250D01*
X48348947Y-87377691D01*
X48345797Y-87398926D01*
X48340581Y-87419750D01*
X48333349Y-87439962D01*
X48324170Y-87459368D01*
X48313134Y-87477781D01*
X48300346Y-87495024D01*
X48285930Y-87510930D01*
X48270024Y-87525346D01*
X48252781Y-87538134D01*
X48234368Y-87549170D01*
X48214962Y-87558349D01*
X48194750Y-87565581D01*
X48173926Y-87570797D01*
X48152691Y-87573947D01*
X48131250Y-87575000D01*
X47693750Y-87575000D01*
X47672309Y-87573947D01*
X47651074Y-87570797D01*
X47630250Y-87565581D01*
X47610038Y-87558349D01*
X47590632Y-87549170D01*
X47572219Y-87538134D01*
X47554976Y-87525346D01*
X47539070Y-87510930D01*
X47524654Y-87495024D01*
X47511866Y-87477781D01*
X47500830Y-87459368D01*
X47491651Y-87439962D01*
X47484419Y-87419750D01*
X47479203Y-87398926D01*
X47476053Y-87377691D01*
X47475000Y-87356250D01*
X47475000Y-86843750D01*
X47476053Y-86822309D01*
X47479203Y-86801074D01*
X47484419Y-86780250D01*
X47491651Y-86760038D01*
X47500830Y-86740632D01*
X47511866Y-86722219D01*
X47524654Y-86704976D01*
X47539070Y-86689070D01*
X47554976Y-86674654D01*
X47572219Y-86661866D01*
X47590632Y-86650830D01*
X47610038Y-86641651D01*
X47630250Y-86634419D01*
X47651074Y-86629203D01*
X47672309Y-86626053D01*
X47693750Y-86625000D01*
X48131250Y-86625000D01*
X48152691Y-86626053D01*
X48152691Y-86626053D01*
G37*
D12*
X47912500Y-87100000D03*
D11*
G36*
X48152691Y-91826053D02*
G01*
X48173926Y-91829203D01*
X48194750Y-91834419D01*
X48214962Y-91841651D01*
X48234368Y-91850830D01*
X48252781Y-91861866D01*
X48270024Y-91874654D01*
X48285930Y-91889070D01*
X48300346Y-91904976D01*
X48313134Y-91922219D01*
X48324170Y-91940632D01*
X48333349Y-91960038D01*
X48340581Y-91980250D01*
X48345797Y-92001074D01*
X48348947Y-92022309D01*
X48350000Y-92043750D01*
X48350000Y-92556250D01*
X48348947Y-92577691D01*
X48345797Y-92598926D01*
X48340581Y-92619750D01*
X48333349Y-92639962D01*
X48324170Y-92659368D01*
X48313134Y-92677781D01*
X48300346Y-92695024D01*
X48285930Y-92710930D01*
X48270024Y-92725346D01*
X48252781Y-92738134D01*
X48234368Y-92749170D01*
X48214962Y-92758349D01*
X48194750Y-92765581D01*
X48173926Y-92770797D01*
X48152691Y-92773947D01*
X48131250Y-92775000D01*
X47693750Y-92775000D01*
X47672309Y-92773947D01*
X47651074Y-92770797D01*
X47630250Y-92765581D01*
X47610038Y-92758349D01*
X47590632Y-92749170D01*
X47572219Y-92738134D01*
X47554976Y-92725346D01*
X47539070Y-92710930D01*
X47524654Y-92695024D01*
X47511866Y-92677781D01*
X47500830Y-92659368D01*
X47491651Y-92639962D01*
X47484419Y-92619750D01*
X47479203Y-92598926D01*
X47476053Y-92577691D01*
X47475000Y-92556250D01*
X47475000Y-92043750D01*
X47476053Y-92022309D01*
X47479203Y-92001074D01*
X47484419Y-91980250D01*
X47491651Y-91960038D01*
X47500830Y-91940632D01*
X47511866Y-91922219D01*
X47524654Y-91904976D01*
X47539070Y-91889070D01*
X47554976Y-91874654D01*
X47572219Y-91861866D01*
X47590632Y-91850830D01*
X47610038Y-91841651D01*
X47630250Y-91834419D01*
X47651074Y-91829203D01*
X47672309Y-91826053D01*
X47693750Y-91825000D01*
X48131250Y-91825000D01*
X48152691Y-91826053D01*
X48152691Y-91826053D01*
G37*
D12*
X47912500Y-92300000D03*
D11*
G36*
X49727691Y-91826053D02*
G01*
X49748926Y-91829203D01*
X49769750Y-91834419D01*
X49789962Y-91841651D01*
X49809368Y-91850830D01*
X49827781Y-91861866D01*
X49845024Y-91874654D01*
X49860930Y-91889070D01*
X49875346Y-91904976D01*
X49888134Y-91922219D01*
X49899170Y-91940632D01*
X49908349Y-91960038D01*
X49915581Y-91980250D01*
X49920797Y-92001074D01*
X49923947Y-92022309D01*
X49925000Y-92043750D01*
X49925000Y-92556250D01*
X49923947Y-92577691D01*
X49920797Y-92598926D01*
X49915581Y-92619750D01*
X49908349Y-92639962D01*
X49899170Y-92659368D01*
X49888134Y-92677781D01*
X49875346Y-92695024D01*
X49860930Y-92710930D01*
X49845024Y-92725346D01*
X49827781Y-92738134D01*
X49809368Y-92749170D01*
X49789962Y-92758349D01*
X49769750Y-92765581D01*
X49748926Y-92770797D01*
X49727691Y-92773947D01*
X49706250Y-92775000D01*
X49268750Y-92775000D01*
X49247309Y-92773947D01*
X49226074Y-92770797D01*
X49205250Y-92765581D01*
X49185038Y-92758349D01*
X49165632Y-92749170D01*
X49147219Y-92738134D01*
X49129976Y-92725346D01*
X49114070Y-92710930D01*
X49099654Y-92695024D01*
X49086866Y-92677781D01*
X49075830Y-92659368D01*
X49066651Y-92639962D01*
X49059419Y-92619750D01*
X49054203Y-92598926D01*
X49051053Y-92577691D01*
X49050000Y-92556250D01*
X49050000Y-92043750D01*
X49051053Y-92022309D01*
X49054203Y-92001074D01*
X49059419Y-91980250D01*
X49066651Y-91960038D01*
X49075830Y-91940632D01*
X49086866Y-91922219D01*
X49099654Y-91904976D01*
X49114070Y-91889070D01*
X49129976Y-91874654D01*
X49147219Y-91861866D01*
X49165632Y-91850830D01*
X49185038Y-91841651D01*
X49205250Y-91834419D01*
X49226074Y-91829203D01*
X49247309Y-91826053D01*
X49268750Y-91825000D01*
X49706250Y-91825000D01*
X49727691Y-91826053D01*
X49727691Y-91826053D01*
G37*
D12*
X49487500Y-92300000D03*
D11*
G36*
X44777691Y-111151053D02*
G01*
X44798926Y-111154203D01*
X44819750Y-111159419D01*
X44839962Y-111166651D01*
X44859368Y-111175830D01*
X44877781Y-111186866D01*
X44895024Y-111199654D01*
X44910930Y-111214070D01*
X44925346Y-111229976D01*
X44938134Y-111247219D01*
X44949170Y-111265632D01*
X44958349Y-111285038D01*
X44965581Y-111305250D01*
X44970797Y-111326074D01*
X44973947Y-111347309D01*
X44975000Y-111368750D01*
X44975000Y-111806250D01*
X44973947Y-111827691D01*
X44970797Y-111848926D01*
X44965581Y-111869750D01*
X44958349Y-111889962D01*
X44949170Y-111909368D01*
X44938134Y-111927781D01*
X44925346Y-111945024D01*
X44910930Y-111960930D01*
X44895024Y-111975346D01*
X44877781Y-111988134D01*
X44859368Y-111999170D01*
X44839962Y-112008349D01*
X44819750Y-112015581D01*
X44798926Y-112020797D01*
X44777691Y-112023947D01*
X44756250Y-112025000D01*
X44243750Y-112025000D01*
X44222309Y-112023947D01*
X44201074Y-112020797D01*
X44180250Y-112015581D01*
X44160038Y-112008349D01*
X44140632Y-111999170D01*
X44122219Y-111988134D01*
X44104976Y-111975346D01*
X44089070Y-111960930D01*
X44074654Y-111945024D01*
X44061866Y-111927781D01*
X44050830Y-111909368D01*
X44041651Y-111889962D01*
X44034419Y-111869750D01*
X44029203Y-111848926D01*
X44026053Y-111827691D01*
X44025000Y-111806250D01*
X44025000Y-111368750D01*
X44026053Y-111347309D01*
X44029203Y-111326074D01*
X44034419Y-111305250D01*
X44041651Y-111285038D01*
X44050830Y-111265632D01*
X44061866Y-111247219D01*
X44074654Y-111229976D01*
X44089070Y-111214070D01*
X44104976Y-111199654D01*
X44122219Y-111186866D01*
X44140632Y-111175830D01*
X44160038Y-111166651D01*
X44180250Y-111159419D01*
X44201074Y-111154203D01*
X44222309Y-111151053D01*
X44243750Y-111150000D01*
X44756250Y-111150000D01*
X44777691Y-111151053D01*
X44777691Y-111151053D01*
G37*
D12*
X44500000Y-111587500D03*
D11*
G36*
X44777691Y-109576053D02*
G01*
X44798926Y-109579203D01*
X44819750Y-109584419D01*
X44839962Y-109591651D01*
X44859368Y-109600830D01*
X44877781Y-109611866D01*
X44895024Y-109624654D01*
X44910930Y-109639070D01*
X44925346Y-109654976D01*
X44938134Y-109672219D01*
X44949170Y-109690632D01*
X44958349Y-109710038D01*
X44965581Y-109730250D01*
X44970797Y-109751074D01*
X44973947Y-109772309D01*
X44975000Y-109793750D01*
X44975000Y-110231250D01*
X44973947Y-110252691D01*
X44970797Y-110273926D01*
X44965581Y-110294750D01*
X44958349Y-110314962D01*
X44949170Y-110334368D01*
X44938134Y-110352781D01*
X44925346Y-110370024D01*
X44910930Y-110385930D01*
X44895024Y-110400346D01*
X44877781Y-110413134D01*
X44859368Y-110424170D01*
X44839962Y-110433349D01*
X44819750Y-110440581D01*
X44798926Y-110445797D01*
X44777691Y-110448947D01*
X44756250Y-110450000D01*
X44243750Y-110450000D01*
X44222309Y-110448947D01*
X44201074Y-110445797D01*
X44180250Y-110440581D01*
X44160038Y-110433349D01*
X44140632Y-110424170D01*
X44122219Y-110413134D01*
X44104976Y-110400346D01*
X44089070Y-110385930D01*
X44074654Y-110370024D01*
X44061866Y-110352781D01*
X44050830Y-110334368D01*
X44041651Y-110314962D01*
X44034419Y-110294750D01*
X44029203Y-110273926D01*
X44026053Y-110252691D01*
X44025000Y-110231250D01*
X44025000Y-109793750D01*
X44026053Y-109772309D01*
X44029203Y-109751074D01*
X44034419Y-109730250D01*
X44041651Y-109710038D01*
X44050830Y-109690632D01*
X44061866Y-109672219D01*
X44074654Y-109654976D01*
X44089070Y-109639070D01*
X44104976Y-109624654D01*
X44122219Y-109611866D01*
X44140632Y-109600830D01*
X44160038Y-109591651D01*
X44180250Y-109584419D01*
X44201074Y-109579203D01*
X44222309Y-109576053D01*
X44243750Y-109575000D01*
X44756250Y-109575000D01*
X44777691Y-109576053D01*
X44777691Y-109576053D01*
G37*
D12*
X44500000Y-110012500D03*
D11*
G36*
X35452691Y-112826053D02*
G01*
X35473926Y-112829203D01*
X35494750Y-112834419D01*
X35514962Y-112841651D01*
X35534368Y-112850830D01*
X35552781Y-112861866D01*
X35570024Y-112874654D01*
X35585930Y-112889070D01*
X35600346Y-112904976D01*
X35613134Y-112922219D01*
X35624170Y-112940632D01*
X35633349Y-112960038D01*
X35640581Y-112980250D01*
X35645797Y-113001074D01*
X35648947Y-113022309D01*
X35650000Y-113043750D01*
X35650000Y-113556250D01*
X35648947Y-113577691D01*
X35645797Y-113598926D01*
X35640581Y-113619750D01*
X35633349Y-113639962D01*
X35624170Y-113659368D01*
X35613134Y-113677781D01*
X35600346Y-113695024D01*
X35585930Y-113710930D01*
X35570024Y-113725346D01*
X35552781Y-113738134D01*
X35534368Y-113749170D01*
X35514962Y-113758349D01*
X35494750Y-113765581D01*
X35473926Y-113770797D01*
X35452691Y-113773947D01*
X35431250Y-113775000D01*
X34993750Y-113775000D01*
X34972309Y-113773947D01*
X34951074Y-113770797D01*
X34930250Y-113765581D01*
X34910038Y-113758349D01*
X34890632Y-113749170D01*
X34872219Y-113738134D01*
X34854976Y-113725346D01*
X34839070Y-113710930D01*
X34824654Y-113695024D01*
X34811866Y-113677781D01*
X34800830Y-113659368D01*
X34791651Y-113639962D01*
X34784419Y-113619750D01*
X34779203Y-113598926D01*
X34776053Y-113577691D01*
X34775000Y-113556250D01*
X34775000Y-113043750D01*
X34776053Y-113022309D01*
X34779203Y-113001074D01*
X34784419Y-112980250D01*
X34791651Y-112960038D01*
X34800830Y-112940632D01*
X34811866Y-112922219D01*
X34824654Y-112904976D01*
X34839070Y-112889070D01*
X34854976Y-112874654D01*
X34872219Y-112861866D01*
X34890632Y-112850830D01*
X34910038Y-112841651D01*
X34930250Y-112834419D01*
X34951074Y-112829203D01*
X34972309Y-112826053D01*
X34993750Y-112825000D01*
X35431250Y-112825000D01*
X35452691Y-112826053D01*
X35452691Y-112826053D01*
G37*
D12*
X35212500Y-113300000D03*
D11*
G36*
X37027691Y-112826053D02*
G01*
X37048926Y-112829203D01*
X37069750Y-112834419D01*
X37089962Y-112841651D01*
X37109368Y-112850830D01*
X37127781Y-112861866D01*
X37145024Y-112874654D01*
X37160930Y-112889070D01*
X37175346Y-112904976D01*
X37188134Y-112922219D01*
X37199170Y-112940632D01*
X37208349Y-112960038D01*
X37215581Y-112980250D01*
X37220797Y-113001074D01*
X37223947Y-113022309D01*
X37225000Y-113043750D01*
X37225000Y-113556250D01*
X37223947Y-113577691D01*
X37220797Y-113598926D01*
X37215581Y-113619750D01*
X37208349Y-113639962D01*
X37199170Y-113659368D01*
X37188134Y-113677781D01*
X37175346Y-113695024D01*
X37160930Y-113710930D01*
X37145024Y-113725346D01*
X37127781Y-113738134D01*
X37109368Y-113749170D01*
X37089962Y-113758349D01*
X37069750Y-113765581D01*
X37048926Y-113770797D01*
X37027691Y-113773947D01*
X37006250Y-113775000D01*
X36568750Y-113775000D01*
X36547309Y-113773947D01*
X36526074Y-113770797D01*
X36505250Y-113765581D01*
X36485038Y-113758349D01*
X36465632Y-113749170D01*
X36447219Y-113738134D01*
X36429976Y-113725346D01*
X36414070Y-113710930D01*
X36399654Y-113695024D01*
X36386866Y-113677781D01*
X36375830Y-113659368D01*
X36366651Y-113639962D01*
X36359419Y-113619750D01*
X36354203Y-113598926D01*
X36351053Y-113577691D01*
X36350000Y-113556250D01*
X36350000Y-113043750D01*
X36351053Y-113022309D01*
X36354203Y-113001074D01*
X36359419Y-112980250D01*
X36366651Y-112960038D01*
X36375830Y-112940632D01*
X36386866Y-112922219D01*
X36399654Y-112904976D01*
X36414070Y-112889070D01*
X36429976Y-112874654D01*
X36447219Y-112861866D01*
X36465632Y-112850830D01*
X36485038Y-112841651D01*
X36505250Y-112834419D01*
X36526074Y-112829203D01*
X36547309Y-112826053D01*
X36568750Y-112825000D01*
X37006250Y-112825000D01*
X37027691Y-112826053D01*
X37027691Y-112826053D01*
G37*
D12*
X36787500Y-113300000D03*
D11*
G36*
X32177691Y-100851053D02*
G01*
X32198926Y-100854203D01*
X32219750Y-100859419D01*
X32239962Y-100866651D01*
X32259368Y-100875830D01*
X32277781Y-100886866D01*
X32295024Y-100899654D01*
X32310930Y-100914070D01*
X32325346Y-100929976D01*
X32338134Y-100947219D01*
X32349170Y-100965632D01*
X32358349Y-100985038D01*
X32365581Y-101005250D01*
X32370797Y-101026074D01*
X32373947Y-101047309D01*
X32375000Y-101068750D01*
X32375000Y-101506250D01*
X32373947Y-101527691D01*
X32370797Y-101548926D01*
X32365581Y-101569750D01*
X32358349Y-101589962D01*
X32349170Y-101609368D01*
X32338134Y-101627781D01*
X32325346Y-101645024D01*
X32310930Y-101660930D01*
X32295024Y-101675346D01*
X32277781Y-101688134D01*
X32259368Y-101699170D01*
X32239962Y-101708349D01*
X32219750Y-101715581D01*
X32198926Y-101720797D01*
X32177691Y-101723947D01*
X32156250Y-101725000D01*
X31643750Y-101725000D01*
X31622309Y-101723947D01*
X31601074Y-101720797D01*
X31580250Y-101715581D01*
X31560038Y-101708349D01*
X31540632Y-101699170D01*
X31522219Y-101688134D01*
X31504976Y-101675346D01*
X31489070Y-101660930D01*
X31474654Y-101645024D01*
X31461866Y-101627781D01*
X31450830Y-101609368D01*
X31441651Y-101589962D01*
X31434419Y-101569750D01*
X31429203Y-101548926D01*
X31426053Y-101527691D01*
X31425000Y-101506250D01*
X31425000Y-101068750D01*
X31426053Y-101047309D01*
X31429203Y-101026074D01*
X31434419Y-101005250D01*
X31441651Y-100985038D01*
X31450830Y-100965632D01*
X31461866Y-100947219D01*
X31474654Y-100929976D01*
X31489070Y-100914070D01*
X31504976Y-100899654D01*
X31522219Y-100886866D01*
X31540632Y-100875830D01*
X31560038Y-100866651D01*
X31580250Y-100859419D01*
X31601074Y-100854203D01*
X31622309Y-100851053D01*
X31643750Y-100850000D01*
X32156250Y-100850000D01*
X32177691Y-100851053D01*
X32177691Y-100851053D01*
G37*
D12*
X31900000Y-101287500D03*
D11*
G36*
X32177691Y-99276053D02*
G01*
X32198926Y-99279203D01*
X32219750Y-99284419D01*
X32239962Y-99291651D01*
X32259368Y-99300830D01*
X32277781Y-99311866D01*
X32295024Y-99324654D01*
X32310930Y-99339070D01*
X32325346Y-99354976D01*
X32338134Y-99372219D01*
X32349170Y-99390632D01*
X32358349Y-99410038D01*
X32365581Y-99430250D01*
X32370797Y-99451074D01*
X32373947Y-99472309D01*
X32375000Y-99493750D01*
X32375000Y-99931250D01*
X32373947Y-99952691D01*
X32370797Y-99973926D01*
X32365581Y-99994750D01*
X32358349Y-100014962D01*
X32349170Y-100034368D01*
X32338134Y-100052781D01*
X32325346Y-100070024D01*
X32310930Y-100085930D01*
X32295024Y-100100346D01*
X32277781Y-100113134D01*
X32259368Y-100124170D01*
X32239962Y-100133349D01*
X32219750Y-100140581D01*
X32198926Y-100145797D01*
X32177691Y-100148947D01*
X32156250Y-100150000D01*
X31643750Y-100150000D01*
X31622309Y-100148947D01*
X31601074Y-100145797D01*
X31580250Y-100140581D01*
X31560038Y-100133349D01*
X31540632Y-100124170D01*
X31522219Y-100113134D01*
X31504976Y-100100346D01*
X31489070Y-100085930D01*
X31474654Y-100070024D01*
X31461866Y-100052781D01*
X31450830Y-100034368D01*
X31441651Y-100014962D01*
X31434419Y-99994750D01*
X31429203Y-99973926D01*
X31426053Y-99952691D01*
X31425000Y-99931250D01*
X31425000Y-99493750D01*
X31426053Y-99472309D01*
X31429203Y-99451074D01*
X31434419Y-99430250D01*
X31441651Y-99410038D01*
X31450830Y-99390632D01*
X31461866Y-99372219D01*
X31474654Y-99354976D01*
X31489070Y-99339070D01*
X31504976Y-99324654D01*
X31522219Y-99311866D01*
X31540632Y-99300830D01*
X31560038Y-99291651D01*
X31580250Y-99284419D01*
X31601074Y-99279203D01*
X31622309Y-99276053D01*
X31643750Y-99275000D01*
X32156250Y-99275000D01*
X32177691Y-99276053D01*
X32177691Y-99276053D01*
G37*
D12*
X31900000Y-99712500D03*
D13*
X31500000Y-94450000D03*
X31500000Y-96950000D03*
D10*
X50300000Y-110500000D03*
D14*
X52840000Y-110500000D03*
X50300000Y-113040000D03*
X52840000Y-113040000D03*
X50300000Y-115580000D03*
X52840000Y-115580000D03*
D15*
X33340000Y-116340000D03*
X33990000Y-116340000D03*
X34640000Y-116340000D03*
X35290000Y-116340000D03*
X35940000Y-116340000D03*
D16*
X32177500Y-116700000D03*
X37102500Y-116700000D03*
D17*
X31730000Y-119000000D03*
X37550000Y-119000000D03*
D18*
X33800000Y-119000000D03*
X35480000Y-119000000D03*
D11*
G36*
X35052691Y-107326053D02*
G01*
X35073926Y-107329203D01*
X35094750Y-107334419D01*
X35114962Y-107341651D01*
X35134368Y-107350830D01*
X35152781Y-107361866D01*
X35170024Y-107374654D01*
X35185930Y-107389070D01*
X35200346Y-107404976D01*
X35213134Y-107422219D01*
X35224170Y-107440632D01*
X35233349Y-107460038D01*
X35240581Y-107480250D01*
X35245797Y-107501074D01*
X35248947Y-107522309D01*
X35250000Y-107543750D01*
X35250000Y-108056250D01*
X35248947Y-108077691D01*
X35245797Y-108098926D01*
X35240581Y-108119750D01*
X35233349Y-108139962D01*
X35224170Y-108159368D01*
X35213134Y-108177781D01*
X35200346Y-108195024D01*
X35185930Y-108210930D01*
X35170024Y-108225346D01*
X35152781Y-108238134D01*
X35134368Y-108249170D01*
X35114962Y-108258349D01*
X35094750Y-108265581D01*
X35073926Y-108270797D01*
X35052691Y-108273947D01*
X35031250Y-108275000D01*
X34593750Y-108275000D01*
X34572309Y-108273947D01*
X34551074Y-108270797D01*
X34530250Y-108265581D01*
X34510038Y-108258349D01*
X34490632Y-108249170D01*
X34472219Y-108238134D01*
X34454976Y-108225346D01*
X34439070Y-108210930D01*
X34424654Y-108195024D01*
X34411866Y-108177781D01*
X34400830Y-108159368D01*
X34391651Y-108139962D01*
X34384419Y-108119750D01*
X34379203Y-108098926D01*
X34376053Y-108077691D01*
X34375000Y-108056250D01*
X34375000Y-107543750D01*
X34376053Y-107522309D01*
X34379203Y-107501074D01*
X34384419Y-107480250D01*
X34391651Y-107460038D01*
X34400830Y-107440632D01*
X34411866Y-107422219D01*
X34424654Y-107404976D01*
X34439070Y-107389070D01*
X34454976Y-107374654D01*
X34472219Y-107361866D01*
X34490632Y-107350830D01*
X34510038Y-107341651D01*
X34530250Y-107334419D01*
X34551074Y-107329203D01*
X34572309Y-107326053D01*
X34593750Y-107325000D01*
X35031250Y-107325000D01*
X35052691Y-107326053D01*
X35052691Y-107326053D01*
G37*
D12*
X34812500Y-107800000D03*
D11*
G36*
X36627691Y-107326053D02*
G01*
X36648926Y-107329203D01*
X36669750Y-107334419D01*
X36689962Y-107341651D01*
X36709368Y-107350830D01*
X36727781Y-107361866D01*
X36745024Y-107374654D01*
X36760930Y-107389070D01*
X36775346Y-107404976D01*
X36788134Y-107422219D01*
X36799170Y-107440632D01*
X36808349Y-107460038D01*
X36815581Y-107480250D01*
X36820797Y-107501074D01*
X36823947Y-107522309D01*
X36825000Y-107543750D01*
X36825000Y-108056250D01*
X36823947Y-108077691D01*
X36820797Y-108098926D01*
X36815581Y-108119750D01*
X36808349Y-108139962D01*
X36799170Y-108159368D01*
X36788134Y-108177781D01*
X36775346Y-108195024D01*
X36760930Y-108210930D01*
X36745024Y-108225346D01*
X36727781Y-108238134D01*
X36709368Y-108249170D01*
X36689962Y-108258349D01*
X36669750Y-108265581D01*
X36648926Y-108270797D01*
X36627691Y-108273947D01*
X36606250Y-108275000D01*
X36168750Y-108275000D01*
X36147309Y-108273947D01*
X36126074Y-108270797D01*
X36105250Y-108265581D01*
X36085038Y-108258349D01*
X36065632Y-108249170D01*
X36047219Y-108238134D01*
X36029976Y-108225346D01*
X36014070Y-108210930D01*
X35999654Y-108195024D01*
X35986866Y-108177781D01*
X35975830Y-108159368D01*
X35966651Y-108139962D01*
X35959419Y-108119750D01*
X35954203Y-108098926D01*
X35951053Y-108077691D01*
X35950000Y-108056250D01*
X35950000Y-107543750D01*
X35951053Y-107522309D01*
X35954203Y-107501074D01*
X35959419Y-107480250D01*
X35966651Y-107460038D01*
X35975830Y-107440632D01*
X35986866Y-107422219D01*
X35999654Y-107404976D01*
X36014070Y-107389070D01*
X36029976Y-107374654D01*
X36047219Y-107361866D01*
X36065632Y-107350830D01*
X36085038Y-107341651D01*
X36105250Y-107334419D01*
X36126074Y-107329203D01*
X36147309Y-107326053D01*
X36168750Y-107325000D01*
X36606250Y-107325000D01*
X36627691Y-107326053D01*
X36627691Y-107326053D01*
G37*
D12*
X36387500Y-107800000D03*
D11*
G36*
X32677691Y-108976053D02*
G01*
X32698926Y-108979203D01*
X32719750Y-108984419D01*
X32739962Y-108991651D01*
X32759368Y-109000830D01*
X32777781Y-109011866D01*
X32795024Y-109024654D01*
X32810930Y-109039070D01*
X32825346Y-109054976D01*
X32838134Y-109072219D01*
X32849170Y-109090632D01*
X32858349Y-109110038D01*
X32865581Y-109130250D01*
X32870797Y-109151074D01*
X32873947Y-109172309D01*
X32875000Y-109193750D01*
X32875000Y-109631250D01*
X32873947Y-109652691D01*
X32870797Y-109673926D01*
X32865581Y-109694750D01*
X32858349Y-109714962D01*
X32849170Y-109734368D01*
X32838134Y-109752781D01*
X32825346Y-109770024D01*
X32810930Y-109785930D01*
X32795024Y-109800346D01*
X32777781Y-109813134D01*
X32759368Y-109824170D01*
X32739962Y-109833349D01*
X32719750Y-109840581D01*
X32698926Y-109845797D01*
X32677691Y-109848947D01*
X32656250Y-109850000D01*
X32143750Y-109850000D01*
X32122309Y-109848947D01*
X32101074Y-109845797D01*
X32080250Y-109840581D01*
X32060038Y-109833349D01*
X32040632Y-109824170D01*
X32022219Y-109813134D01*
X32004976Y-109800346D01*
X31989070Y-109785930D01*
X31974654Y-109770024D01*
X31961866Y-109752781D01*
X31950830Y-109734368D01*
X31941651Y-109714962D01*
X31934419Y-109694750D01*
X31929203Y-109673926D01*
X31926053Y-109652691D01*
X31925000Y-109631250D01*
X31925000Y-109193750D01*
X31926053Y-109172309D01*
X31929203Y-109151074D01*
X31934419Y-109130250D01*
X31941651Y-109110038D01*
X31950830Y-109090632D01*
X31961866Y-109072219D01*
X31974654Y-109054976D01*
X31989070Y-109039070D01*
X32004976Y-109024654D01*
X32022219Y-109011866D01*
X32040632Y-109000830D01*
X32060038Y-108991651D01*
X32080250Y-108984419D01*
X32101074Y-108979203D01*
X32122309Y-108976053D01*
X32143750Y-108975000D01*
X32656250Y-108975000D01*
X32677691Y-108976053D01*
X32677691Y-108976053D01*
G37*
D12*
X32400000Y-109412500D03*
D11*
G36*
X32677691Y-110551053D02*
G01*
X32698926Y-110554203D01*
X32719750Y-110559419D01*
X32739962Y-110566651D01*
X32759368Y-110575830D01*
X32777781Y-110586866D01*
X32795024Y-110599654D01*
X32810930Y-110614070D01*
X32825346Y-110629976D01*
X32838134Y-110647219D01*
X32849170Y-110665632D01*
X32858349Y-110685038D01*
X32865581Y-110705250D01*
X32870797Y-110726074D01*
X32873947Y-110747309D01*
X32875000Y-110768750D01*
X32875000Y-111206250D01*
X32873947Y-111227691D01*
X32870797Y-111248926D01*
X32865581Y-111269750D01*
X32858349Y-111289962D01*
X32849170Y-111309368D01*
X32838134Y-111327781D01*
X32825346Y-111345024D01*
X32810930Y-111360930D01*
X32795024Y-111375346D01*
X32777781Y-111388134D01*
X32759368Y-111399170D01*
X32739962Y-111408349D01*
X32719750Y-111415581D01*
X32698926Y-111420797D01*
X32677691Y-111423947D01*
X32656250Y-111425000D01*
X32143750Y-111425000D01*
X32122309Y-111423947D01*
X32101074Y-111420797D01*
X32080250Y-111415581D01*
X32060038Y-111408349D01*
X32040632Y-111399170D01*
X32022219Y-111388134D01*
X32004976Y-111375346D01*
X31989070Y-111360930D01*
X31974654Y-111345024D01*
X31961866Y-111327781D01*
X31950830Y-111309368D01*
X31941651Y-111289962D01*
X31934419Y-111269750D01*
X31929203Y-111248926D01*
X31926053Y-111227691D01*
X31925000Y-111206250D01*
X31925000Y-110768750D01*
X31926053Y-110747309D01*
X31929203Y-110726074D01*
X31934419Y-110705250D01*
X31941651Y-110685038D01*
X31950830Y-110665632D01*
X31961866Y-110647219D01*
X31974654Y-110629976D01*
X31989070Y-110614070D01*
X32004976Y-110599654D01*
X32022219Y-110586866D01*
X32040632Y-110575830D01*
X32060038Y-110566651D01*
X32080250Y-110559419D01*
X32101074Y-110554203D01*
X32122309Y-110551053D01*
X32143750Y-110550000D01*
X32656250Y-110550000D01*
X32677691Y-110551053D01*
X32677691Y-110551053D01*
G37*
D12*
X32400000Y-110987500D03*
D11*
G36*
X31177691Y-110551053D02*
G01*
X31198926Y-110554203D01*
X31219750Y-110559419D01*
X31239962Y-110566651D01*
X31259368Y-110575830D01*
X31277781Y-110586866D01*
X31295024Y-110599654D01*
X31310930Y-110614070D01*
X31325346Y-110629976D01*
X31338134Y-110647219D01*
X31349170Y-110665632D01*
X31358349Y-110685038D01*
X31365581Y-110705250D01*
X31370797Y-110726074D01*
X31373947Y-110747309D01*
X31375000Y-110768750D01*
X31375000Y-111206250D01*
X31373947Y-111227691D01*
X31370797Y-111248926D01*
X31365581Y-111269750D01*
X31358349Y-111289962D01*
X31349170Y-111309368D01*
X31338134Y-111327781D01*
X31325346Y-111345024D01*
X31310930Y-111360930D01*
X31295024Y-111375346D01*
X31277781Y-111388134D01*
X31259368Y-111399170D01*
X31239962Y-111408349D01*
X31219750Y-111415581D01*
X31198926Y-111420797D01*
X31177691Y-111423947D01*
X31156250Y-111425000D01*
X30643750Y-111425000D01*
X30622309Y-111423947D01*
X30601074Y-111420797D01*
X30580250Y-111415581D01*
X30560038Y-111408349D01*
X30540632Y-111399170D01*
X30522219Y-111388134D01*
X30504976Y-111375346D01*
X30489070Y-111360930D01*
X30474654Y-111345024D01*
X30461866Y-111327781D01*
X30450830Y-111309368D01*
X30441651Y-111289962D01*
X30434419Y-111269750D01*
X30429203Y-111248926D01*
X30426053Y-111227691D01*
X30425000Y-111206250D01*
X30425000Y-110768750D01*
X30426053Y-110747309D01*
X30429203Y-110726074D01*
X30434419Y-110705250D01*
X30441651Y-110685038D01*
X30450830Y-110665632D01*
X30461866Y-110647219D01*
X30474654Y-110629976D01*
X30489070Y-110614070D01*
X30504976Y-110599654D01*
X30522219Y-110586866D01*
X30540632Y-110575830D01*
X30560038Y-110566651D01*
X30580250Y-110559419D01*
X30601074Y-110554203D01*
X30622309Y-110551053D01*
X30643750Y-110550000D01*
X31156250Y-110550000D01*
X31177691Y-110551053D01*
X31177691Y-110551053D01*
G37*
D12*
X30900000Y-110987500D03*
D11*
G36*
X31177691Y-108976053D02*
G01*
X31198926Y-108979203D01*
X31219750Y-108984419D01*
X31239962Y-108991651D01*
X31259368Y-109000830D01*
X31277781Y-109011866D01*
X31295024Y-109024654D01*
X31310930Y-109039070D01*
X31325346Y-109054976D01*
X31338134Y-109072219D01*
X31349170Y-109090632D01*
X31358349Y-109110038D01*
X31365581Y-109130250D01*
X31370797Y-109151074D01*
X31373947Y-109172309D01*
X31375000Y-109193750D01*
X31375000Y-109631250D01*
X31373947Y-109652691D01*
X31370797Y-109673926D01*
X31365581Y-109694750D01*
X31358349Y-109714962D01*
X31349170Y-109734368D01*
X31338134Y-109752781D01*
X31325346Y-109770024D01*
X31310930Y-109785930D01*
X31295024Y-109800346D01*
X31277781Y-109813134D01*
X31259368Y-109824170D01*
X31239962Y-109833349D01*
X31219750Y-109840581D01*
X31198926Y-109845797D01*
X31177691Y-109848947D01*
X31156250Y-109850000D01*
X30643750Y-109850000D01*
X30622309Y-109848947D01*
X30601074Y-109845797D01*
X30580250Y-109840581D01*
X30560038Y-109833349D01*
X30540632Y-109824170D01*
X30522219Y-109813134D01*
X30504976Y-109800346D01*
X30489070Y-109785930D01*
X30474654Y-109770024D01*
X30461866Y-109752781D01*
X30450830Y-109734368D01*
X30441651Y-109714962D01*
X30434419Y-109694750D01*
X30429203Y-109673926D01*
X30426053Y-109652691D01*
X30425000Y-109631250D01*
X30425000Y-109193750D01*
X30426053Y-109172309D01*
X30429203Y-109151074D01*
X30434419Y-109130250D01*
X30441651Y-109110038D01*
X30450830Y-109090632D01*
X30461866Y-109072219D01*
X30474654Y-109054976D01*
X30489070Y-109039070D01*
X30504976Y-109024654D01*
X30522219Y-109011866D01*
X30540632Y-109000830D01*
X30560038Y-108991651D01*
X30580250Y-108984419D01*
X30601074Y-108979203D01*
X30622309Y-108976053D01*
X30643750Y-108975000D01*
X31156250Y-108975000D01*
X31177691Y-108976053D01*
X31177691Y-108976053D01*
G37*
D12*
X30900000Y-109412500D03*
D11*
G36*
X49077691Y-97851053D02*
G01*
X49098926Y-97854203D01*
X49119750Y-97859419D01*
X49139962Y-97866651D01*
X49159368Y-97875830D01*
X49177781Y-97886866D01*
X49195024Y-97899654D01*
X49210930Y-97914070D01*
X49225346Y-97929976D01*
X49238134Y-97947219D01*
X49249170Y-97965632D01*
X49258349Y-97985038D01*
X49265581Y-98005250D01*
X49270797Y-98026074D01*
X49273947Y-98047309D01*
X49275000Y-98068750D01*
X49275000Y-98506250D01*
X49273947Y-98527691D01*
X49270797Y-98548926D01*
X49265581Y-98569750D01*
X49258349Y-98589962D01*
X49249170Y-98609368D01*
X49238134Y-98627781D01*
X49225346Y-98645024D01*
X49210930Y-98660930D01*
X49195024Y-98675346D01*
X49177781Y-98688134D01*
X49159368Y-98699170D01*
X49139962Y-98708349D01*
X49119750Y-98715581D01*
X49098926Y-98720797D01*
X49077691Y-98723947D01*
X49056250Y-98725000D01*
X48543750Y-98725000D01*
X48522309Y-98723947D01*
X48501074Y-98720797D01*
X48480250Y-98715581D01*
X48460038Y-98708349D01*
X48440632Y-98699170D01*
X48422219Y-98688134D01*
X48404976Y-98675346D01*
X48389070Y-98660930D01*
X48374654Y-98645024D01*
X48361866Y-98627781D01*
X48350830Y-98609368D01*
X48341651Y-98589962D01*
X48334419Y-98569750D01*
X48329203Y-98548926D01*
X48326053Y-98527691D01*
X48325000Y-98506250D01*
X48325000Y-98068750D01*
X48326053Y-98047309D01*
X48329203Y-98026074D01*
X48334419Y-98005250D01*
X48341651Y-97985038D01*
X48350830Y-97965632D01*
X48361866Y-97947219D01*
X48374654Y-97929976D01*
X48389070Y-97914070D01*
X48404976Y-97899654D01*
X48422219Y-97886866D01*
X48440632Y-97875830D01*
X48460038Y-97866651D01*
X48480250Y-97859419D01*
X48501074Y-97854203D01*
X48522309Y-97851053D01*
X48543750Y-97850000D01*
X49056250Y-97850000D01*
X49077691Y-97851053D01*
X49077691Y-97851053D01*
G37*
D12*
X48800000Y-98287500D03*
D11*
G36*
X49077691Y-96276053D02*
G01*
X49098926Y-96279203D01*
X49119750Y-96284419D01*
X49139962Y-96291651D01*
X49159368Y-96300830D01*
X49177781Y-96311866D01*
X49195024Y-96324654D01*
X49210930Y-96339070D01*
X49225346Y-96354976D01*
X49238134Y-96372219D01*
X49249170Y-96390632D01*
X49258349Y-96410038D01*
X49265581Y-96430250D01*
X49270797Y-96451074D01*
X49273947Y-96472309D01*
X49275000Y-96493750D01*
X49275000Y-96931250D01*
X49273947Y-96952691D01*
X49270797Y-96973926D01*
X49265581Y-96994750D01*
X49258349Y-97014962D01*
X49249170Y-97034368D01*
X49238134Y-97052781D01*
X49225346Y-97070024D01*
X49210930Y-97085930D01*
X49195024Y-97100346D01*
X49177781Y-97113134D01*
X49159368Y-97124170D01*
X49139962Y-97133349D01*
X49119750Y-97140581D01*
X49098926Y-97145797D01*
X49077691Y-97148947D01*
X49056250Y-97150000D01*
X48543750Y-97150000D01*
X48522309Y-97148947D01*
X48501074Y-97145797D01*
X48480250Y-97140581D01*
X48460038Y-97133349D01*
X48440632Y-97124170D01*
X48422219Y-97113134D01*
X48404976Y-97100346D01*
X48389070Y-97085930D01*
X48374654Y-97070024D01*
X48361866Y-97052781D01*
X48350830Y-97034368D01*
X48341651Y-97014962D01*
X48334419Y-96994750D01*
X48329203Y-96973926D01*
X48326053Y-96952691D01*
X48325000Y-96931250D01*
X48325000Y-96493750D01*
X48326053Y-96472309D01*
X48329203Y-96451074D01*
X48334419Y-96430250D01*
X48341651Y-96410038D01*
X48350830Y-96390632D01*
X48361866Y-96372219D01*
X48374654Y-96354976D01*
X48389070Y-96339070D01*
X48404976Y-96324654D01*
X48422219Y-96311866D01*
X48440632Y-96300830D01*
X48460038Y-96291651D01*
X48480250Y-96284419D01*
X48501074Y-96279203D01*
X48522309Y-96276053D01*
X48543750Y-96275000D01*
X49056250Y-96275000D01*
X49077691Y-96276053D01*
X49077691Y-96276053D01*
G37*
D12*
X48800000Y-96712500D03*
D11*
G36*
X50577691Y-96276053D02*
G01*
X50598926Y-96279203D01*
X50619750Y-96284419D01*
X50639962Y-96291651D01*
X50659368Y-96300830D01*
X50677781Y-96311866D01*
X50695024Y-96324654D01*
X50710930Y-96339070D01*
X50725346Y-96354976D01*
X50738134Y-96372219D01*
X50749170Y-96390632D01*
X50758349Y-96410038D01*
X50765581Y-96430250D01*
X50770797Y-96451074D01*
X50773947Y-96472309D01*
X50775000Y-96493750D01*
X50775000Y-96931250D01*
X50773947Y-96952691D01*
X50770797Y-96973926D01*
X50765581Y-96994750D01*
X50758349Y-97014962D01*
X50749170Y-97034368D01*
X50738134Y-97052781D01*
X50725346Y-97070024D01*
X50710930Y-97085930D01*
X50695024Y-97100346D01*
X50677781Y-97113134D01*
X50659368Y-97124170D01*
X50639962Y-97133349D01*
X50619750Y-97140581D01*
X50598926Y-97145797D01*
X50577691Y-97148947D01*
X50556250Y-97150000D01*
X50043750Y-97150000D01*
X50022309Y-97148947D01*
X50001074Y-97145797D01*
X49980250Y-97140581D01*
X49960038Y-97133349D01*
X49940632Y-97124170D01*
X49922219Y-97113134D01*
X49904976Y-97100346D01*
X49889070Y-97085930D01*
X49874654Y-97070024D01*
X49861866Y-97052781D01*
X49850830Y-97034368D01*
X49841651Y-97014962D01*
X49834419Y-96994750D01*
X49829203Y-96973926D01*
X49826053Y-96952691D01*
X49825000Y-96931250D01*
X49825000Y-96493750D01*
X49826053Y-96472309D01*
X49829203Y-96451074D01*
X49834419Y-96430250D01*
X49841651Y-96410038D01*
X49850830Y-96390632D01*
X49861866Y-96372219D01*
X49874654Y-96354976D01*
X49889070Y-96339070D01*
X49904976Y-96324654D01*
X49922219Y-96311866D01*
X49940632Y-96300830D01*
X49960038Y-96291651D01*
X49980250Y-96284419D01*
X50001074Y-96279203D01*
X50022309Y-96276053D01*
X50043750Y-96275000D01*
X50556250Y-96275000D01*
X50577691Y-96276053D01*
X50577691Y-96276053D01*
G37*
D12*
X50300000Y-96712500D03*
D11*
G36*
X50577691Y-97851053D02*
G01*
X50598926Y-97854203D01*
X50619750Y-97859419D01*
X50639962Y-97866651D01*
X50659368Y-97875830D01*
X50677781Y-97886866D01*
X50695024Y-97899654D01*
X50710930Y-97914070D01*
X50725346Y-97929976D01*
X50738134Y-97947219D01*
X50749170Y-97965632D01*
X50758349Y-97985038D01*
X50765581Y-98005250D01*
X50770797Y-98026074D01*
X50773947Y-98047309D01*
X50775000Y-98068750D01*
X50775000Y-98506250D01*
X50773947Y-98527691D01*
X50770797Y-98548926D01*
X50765581Y-98569750D01*
X50758349Y-98589962D01*
X50749170Y-98609368D01*
X50738134Y-98627781D01*
X50725346Y-98645024D01*
X50710930Y-98660930D01*
X50695024Y-98675346D01*
X50677781Y-98688134D01*
X50659368Y-98699170D01*
X50639962Y-98708349D01*
X50619750Y-98715581D01*
X50598926Y-98720797D01*
X50577691Y-98723947D01*
X50556250Y-98725000D01*
X50043750Y-98725000D01*
X50022309Y-98723947D01*
X50001074Y-98720797D01*
X49980250Y-98715581D01*
X49960038Y-98708349D01*
X49940632Y-98699170D01*
X49922219Y-98688134D01*
X49904976Y-98675346D01*
X49889070Y-98660930D01*
X49874654Y-98645024D01*
X49861866Y-98627781D01*
X49850830Y-98609368D01*
X49841651Y-98589962D01*
X49834419Y-98569750D01*
X49829203Y-98548926D01*
X49826053Y-98527691D01*
X49825000Y-98506250D01*
X49825000Y-98068750D01*
X49826053Y-98047309D01*
X49829203Y-98026074D01*
X49834419Y-98005250D01*
X49841651Y-97985038D01*
X49850830Y-97965632D01*
X49861866Y-97947219D01*
X49874654Y-97929976D01*
X49889070Y-97914070D01*
X49904976Y-97899654D01*
X49922219Y-97886866D01*
X49940632Y-97875830D01*
X49960038Y-97866651D01*
X49980250Y-97859419D01*
X50001074Y-97854203D01*
X50022309Y-97851053D01*
X50043750Y-97850000D01*
X50556250Y-97850000D01*
X50577691Y-97851053D01*
X50577691Y-97851053D01*
G37*
D12*
X50300000Y-98287500D03*
D11*
G36*
X49577691Y-74451053D02*
G01*
X49598926Y-74454203D01*
X49619750Y-74459419D01*
X49639962Y-74466651D01*
X49659368Y-74475830D01*
X49677781Y-74486866D01*
X49695024Y-74499654D01*
X49710930Y-74514070D01*
X49725346Y-74529976D01*
X49738134Y-74547219D01*
X49749170Y-74565632D01*
X49758349Y-74585038D01*
X49765581Y-74605250D01*
X49770797Y-74626074D01*
X49773947Y-74647309D01*
X49775000Y-74668750D01*
X49775000Y-75106250D01*
X49773947Y-75127691D01*
X49770797Y-75148926D01*
X49765581Y-75169750D01*
X49758349Y-75189962D01*
X49749170Y-75209368D01*
X49738134Y-75227781D01*
X49725346Y-75245024D01*
X49710930Y-75260930D01*
X49695024Y-75275346D01*
X49677781Y-75288134D01*
X49659368Y-75299170D01*
X49639962Y-75308349D01*
X49619750Y-75315581D01*
X49598926Y-75320797D01*
X49577691Y-75323947D01*
X49556250Y-75325000D01*
X49043750Y-75325000D01*
X49022309Y-75323947D01*
X49001074Y-75320797D01*
X48980250Y-75315581D01*
X48960038Y-75308349D01*
X48940632Y-75299170D01*
X48922219Y-75288134D01*
X48904976Y-75275346D01*
X48889070Y-75260930D01*
X48874654Y-75245024D01*
X48861866Y-75227781D01*
X48850830Y-75209368D01*
X48841651Y-75189962D01*
X48834419Y-75169750D01*
X48829203Y-75148926D01*
X48826053Y-75127691D01*
X48825000Y-75106250D01*
X48825000Y-74668750D01*
X48826053Y-74647309D01*
X48829203Y-74626074D01*
X48834419Y-74605250D01*
X48841651Y-74585038D01*
X48850830Y-74565632D01*
X48861866Y-74547219D01*
X48874654Y-74529976D01*
X48889070Y-74514070D01*
X48904976Y-74499654D01*
X48922219Y-74486866D01*
X48940632Y-74475830D01*
X48960038Y-74466651D01*
X48980250Y-74459419D01*
X49001074Y-74454203D01*
X49022309Y-74451053D01*
X49043750Y-74450000D01*
X49556250Y-74450000D01*
X49577691Y-74451053D01*
X49577691Y-74451053D01*
G37*
D12*
X49300000Y-74887500D03*
D11*
G36*
X49577691Y-72876053D02*
G01*
X49598926Y-72879203D01*
X49619750Y-72884419D01*
X49639962Y-72891651D01*
X49659368Y-72900830D01*
X49677781Y-72911866D01*
X49695024Y-72924654D01*
X49710930Y-72939070D01*
X49725346Y-72954976D01*
X49738134Y-72972219D01*
X49749170Y-72990632D01*
X49758349Y-73010038D01*
X49765581Y-73030250D01*
X49770797Y-73051074D01*
X49773947Y-73072309D01*
X49775000Y-73093750D01*
X49775000Y-73531250D01*
X49773947Y-73552691D01*
X49770797Y-73573926D01*
X49765581Y-73594750D01*
X49758349Y-73614962D01*
X49749170Y-73634368D01*
X49738134Y-73652781D01*
X49725346Y-73670024D01*
X49710930Y-73685930D01*
X49695024Y-73700346D01*
X49677781Y-73713134D01*
X49659368Y-73724170D01*
X49639962Y-73733349D01*
X49619750Y-73740581D01*
X49598926Y-73745797D01*
X49577691Y-73748947D01*
X49556250Y-73750000D01*
X49043750Y-73750000D01*
X49022309Y-73748947D01*
X49001074Y-73745797D01*
X48980250Y-73740581D01*
X48960038Y-73733349D01*
X48940632Y-73724170D01*
X48922219Y-73713134D01*
X48904976Y-73700346D01*
X48889070Y-73685930D01*
X48874654Y-73670024D01*
X48861866Y-73652781D01*
X48850830Y-73634368D01*
X48841651Y-73614962D01*
X48834419Y-73594750D01*
X48829203Y-73573926D01*
X48826053Y-73552691D01*
X48825000Y-73531250D01*
X48825000Y-73093750D01*
X48826053Y-73072309D01*
X48829203Y-73051074D01*
X48834419Y-73030250D01*
X48841651Y-73010038D01*
X48850830Y-72990632D01*
X48861866Y-72972219D01*
X48874654Y-72954976D01*
X48889070Y-72939070D01*
X48904976Y-72924654D01*
X48922219Y-72911866D01*
X48940632Y-72900830D01*
X48960038Y-72891651D01*
X48980250Y-72884419D01*
X49001074Y-72879203D01*
X49022309Y-72876053D01*
X49043750Y-72875000D01*
X49556250Y-72875000D01*
X49577691Y-72876053D01*
X49577691Y-72876053D01*
G37*
D12*
X49300000Y-73312500D03*
D11*
G36*
X49577691Y-75876053D02*
G01*
X49598926Y-75879203D01*
X49619750Y-75884419D01*
X49639962Y-75891651D01*
X49659368Y-75900830D01*
X49677781Y-75911866D01*
X49695024Y-75924654D01*
X49710930Y-75939070D01*
X49725346Y-75954976D01*
X49738134Y-75972219D01*
X49749170Y-75990632D01*
X49758349Y-76010038D01*
X49765581Y-76030250D01*
X49770797Y-76051074D01*
X49773947Y-76072309D01*
X49775000Y-76093750D01*
X49775000Y-76531250D01*
X49773947Y-76552691D01*
X49770797Y-76573926D01*
X49765581Y-76594750D01*
X49758349Y-76614962D01*
X49749170Y-76634368D01*
X49738134Y-76652781D01*
X49725346Y-76670024D01*
X49710930Y-76685930D01*
X49695024Y-76700346D01*
X49677781Y-76713134D01*
X49659368Y-76724170D01*
X49639962Y-76733349D01*
X49619750Y-76740581D01*
X49598926Y-76745797D01*
X49577691Y-76748947D01*
X49556250Y-76750000D01*
X49043750Y-76750000D01*
X49022309Y-76748947D01*
X49001074Y-76745797D01*
X48980250Y-76740581D01*
X48960038Y-76733349D01*
X48940632Y-76724170D01*
X48922219Y-76713134D01*
X48904976Y-76700346D01*
X48889070Y-76685930D01*
X48874654Y-76670024D01*
X48861866Y-76652781D01*
X48850830Y-76634368D01*
X48841651Y-76614962D01*
X48834419Y-76594750D01*
X48829203Y-76573926D01*
X48826053Y-76552691D01*
X48825000Y-76531250D01*
X48825000Y-76093750D01*
X48826053Y-76072309D01*
X48829203Y-76051074D01*
X48834419Y-76030250D01*
X48841651Y-76010038D01*
X48850830Y-75990632D01*
X48861866Y-75972219D01*
X48874654Y-75954976D01*
X48889070Y-75939070D01*
X48904976Y-75924654D01*
X48922219Y-75911866D01*
X48940632Y-75900830D01*
X48960038Y-75891651D01*
X48980250Y-75884419D01*
X49001074Y-75879203D01*
X49022309Y-75876053D01*
X49043750Y-75875000D01*
X49556250Y-75875000D01*
X49577691Y-75876053D01*
X49577691Y-75876053D01*
G37*
D12*
X49300000Y-76312500D03*
D11*
G36*
X49577691Y-77451053D02*
G01*
X49598926Y-77454203D01*
X49619750Y-77459419D01*
X49639962Y-77466651D01*
X49659368Y-77475830D01*
X49677781Y-77486866D01*
X49695024Y-77499654D01*
X49710930Y-77514070D01*
X49725346Y-77529976D01*
X49738134Y-77547219D01*
X49749170Y-77565632D01*
X49758349Y-77585038D01*
X49765581Y-77605250D01*
X49770797Y-77626074D01*
X49773947Y-77647309D01*
X49775000Y-77668750D01*
X49775000Y-78106250D01*
X49773947Y-78127691D01*
X49770797Y-78148926D01*
X49765581Y-78169750D01*
X49758349Y-78189962D01*
X49749170Y-78209368D01*
X49738134Y-78227781D01*
X49725346Y-78245024D01*
X49710930Y-78260930D01*
X49695024Y-78275346D01*
X49677781Y-78288134D01*
X49659368Y-78299170D01*
X49639962Y-78308349D01*
X49619750Y-78315581D01*
X49598926Y-78320797D01*
X49577691Y-78323947D01*
X49556250Y-78325000D01*
X49043750Y-78325000D01*
X49022309Y-78323947D01*
X49001074Y-78320797D01*
X48980250Y-78315581D01*
X48960038Y-78308349D01*
X48940632Y-78299170D01*
X48922219Y-78288134D01*
X48904976Y-78275346D01*
X48889070Y-78260930D01*
X48874654Y-78245024D01*
X48861866Y-78227781D01*
X48850830Y-78209368D01*
X48841651Y-78189962D01*
X48834419Y-78169750D01*
X48829203Y-78148926D01*
X48826053Y-78127691D01*
X48825000Y-78106250D01*
X48825000Y-77668750D01*
X48826053Y-77647309D01*
X48829203Y-77626074D01*
X48834419Y-77605250D01*
X48841651Y-77585038D01*
X48850830Y-77565632D01*
X48861866Y-77547219D01*
X48874654Y-77529976D01*
X48889070Y-77514070D01*
X48904976Y-77499654D01*
X48922219Y-77486866D01*
X48940632Y-77475830D01*
X48960038Y-77466651D01*
X48980250Y-77459419D01*
X49001074Y-77454203D01*
X49022309Y-77451053D01*
X49043750Y-77450000D01*
X49556250Y-77450000D01*
X49577691Y-77451053D01*
X49577691Y-77451053D01*
G37*
D12*
X49300000Y-77887500D03*
D19*
X33700000Y-96200000D03*
X33700000Y-97000000D03*
X33700000Y-97800000D03*
X33700000Y-98600000D03*
X33700000Y-99400000D03*
X33700000Y-100200000D03*
X33700000Y-101000000D03*
X33700000Y-101800000D03*
X33700000Y-102600000D03*
X33700000Y-103400000D03*
X33700000Y-104200000D03*
D20*
X35400000Y-105900000D03*
X36200000Y-105900000D03*
X37000000Y-105900000D03*
X37800000Y-105900000D03*
X38600000Y-105900000D03*
X39400000Y-105900000D03*
X40200000Y-105900000D03*
X41000000Y-105900000D03*
X41800000Y-105900000D03*
X42600000Y-105900000D03*
X43400000Y-105900000D03*
D19*
X45100000Y-104200000D03*
X45100000Y-103400000D03*
X45100000Y-102600000D03*
X45100000Y-101800000D03*
X45100000Y-101000000D03*
X45100000Y-100200000D03*
X45100000Y-99400000D03*
X45100000Y-98600000D03*
X45100000Y-97800000D03*
X45100000Y-97000000D03*
X45100000Y-96200000D03*
D20*
X43400000Y-94500000D03*
X42600000Y-94500000D03*
X41800000Y-94500000D03*
X41000000Y-94500000D03*
X40200000Y-94500000D03*
X39400000Y-94500000D03*
X38600000Y-94500000D03*
X37800000Y-94500000D03*
X37000000Y-94500000D03*
X36200000Y-94500000D03*
X35400000Y-94500000D03*
D21*
X41700000Y-110600000D03*
X36500000Y-110600000D03*
D10*
X52900000Y-102600000D03*
D14*
X52900000Y-105140000D03*
X52900000Y-107680000D03*
X52900000Y-89420000D03*
X52900000Y-86880000D03*
X52900000Y-84340000D03*
D10*
X52900000Y-81800000D03*
X52900000Y-92200000D03*
D14*
X52900000Y-94740000D03*
X52900000Y-97280000D03*
X52900000Y-99820000D03*
D10*
X52900000Y-71400000D03*
D14*
X52900000Y-73940000D03*
X52900000Y-76480000D03*
X52900000Y-79020000D03*
D22*
X49500000Y-90650000D03*
X49500000Y-88750000D03*
X47500000Y-89700000D03*
D23*
X46350000Y-117650000D03*
X46350000Y-117000000D03*
X46350000Y-116350000D03*
X46350000Y-115700000D03*
X46350000Y-115050000D03*
X46350000Y-114400000D03*
X46350000Y-113750000D03*
X40450000Y-113750000D03*
X40450000Y-114400000D03*
X40450000Y-115050000D03*
X40450000Y-115700000D03*
X40450000Y-116350000D03*
X40450000Y-117000000D03*
X40450000Y-117650000D03*
D24*
X43300000Y-92900000D03*
X38100000Y-113300000D03*
X33900000Y-109300000D03*
X33900000Y-110200000D03*
X33900000Y-111100000D03*
X48800000Y-101300000D03*
X50450000Y-95350000D03*
X45900000Y-110000000D03*
X37800000Y-108400000D03*
X44400000Y-94500000D03*
X34300000Y-94400000D03*
X54400000Y-75200000D03*
X37200000Y-104300000D03*
X46900000Y-103400000D03*
X35100000Y-97200000D03*
X35100000Y-100300000D03*
X32600000Y-114800000D03*
X33200000Y-106300000D03*
X47700000Y-112000000D03*
X42900000Y-112800000D03*
X43000000Y-115800000D03*
X49000000Y-117900000D03*
X48400000Y-89700000D03*
X42100000Y-117700000D03*
X54500000Y-106200000D03*
X54500000Y-109200000D03*
X54500000Y-116700000D03*
X50800000Y-90800000D03*
X35600000Y-104000000D03*
X33200000Y-107800000D03*
X48500000Y-107400000D03*
X50800000Y-106600000D03*
X49300000Y-106600000D03*
X44900000Y-106800000D03*
X48100000Y-95500000D03*
X48100000Y-94200000D03*
X38700000Y-117100000D03*
X41400000Y-92400000D03*
X41400000Y-102300000D03*
X39400000Y-100300000D03*
X37400000Y-98300000D03*
X41400000Y-100300000D03*
X37400000Y-102300000D03*
X39400000Y-104300000D03*
X39400000Y-102300000D03*
X41400000Y-104300000D03*
X41400000Y-98300000D03*
X37400000Y-96300000D03*
X39400000Y-92400000D03*
X39400000Y-96300000D03*
X39400000Y-98300000D03*
X41400000Y-96300000D03*
X33300000Y-95200000D03*
X50800000Y-107600000D03*
X44700000Y-115200000D03*
X37800000Y-114400000D03*
X36000000Y-100800000D03*
X35100000Y-102500000D03*
X38600000Y-115800000D03*
D25*
X36200000Y-93900000D02*
X36200000Y-95050000D01*
X36200000Y-95650000D02*
X36000000Y-95850000D01*
X36200000Y-94500000D02*
X36200000Y-95650000D01*
X36000000Y-95850000D02*
X36000000Y-98800000D01*
X36000000Y-98800000D02*
X35400000Y-99400000D01*
X33700000Y-99400000D02*
X35400000Y-99400000D01*
X32212500Y-99400000D02*
X33700000Y-99400000D01*
X31900000Y-99712500D02*
X32212500Y-99400000D01*
X31730000Y-119000000D02*
X33800000Y-119000000D01*
X33800000Y-119000000D02*
X35480000Y-119000000D01*
X35480000Y-119000000D02*
X37550000Y-119000000D01*
X37102500Y-116700000D02*
X37102500Y-115250000D01*
X36787500Y-114935000D02*
X36787500Y-113300000D01*
X37102500Y-115250000D02*
X36787500Y-114935000D01*
X36265000Y-114935000D02*
X35940000Y-115260000D01*
X36787500Y-114935000D02*
X36265000Y-114935000D01*
X35940000Y-115260000D02*
X35940000Y-116340000D01*
D26*
X54120000Y-115580000D02*
X52840000Y-115580000D01*
X55700000Y-114000000D02*
X54120000Y-115580000D01*
X52900000Y-71400000D02*
X54750000Y-71400000D01*
X54750000Y-71400000D02*
X55700000Y-72350000D01*
X55400000Y-102600000D02*
X52900000Y-102600000D01*
X55700000Y-102900000D02*
X55400000Y-102600000D01*
X55700000Y-102900000D02*
X55700000Y-114000000D01*
D25*
X47500000Y-89700000D02*
X47500000Y-90600000D01*
X47912500Y-91012500D02*
X47912500Y-92300000D01*
X47500000Y-90600000D02*
X47912500Y-91012500D01*
X47912500Y-87100000D02*
X47912500Y-88287500D01*
X47500000Y-88700000D02*
X47500000Y-89700000D01*
X47912500Y-88287500D02*
X47500000Y-88700000D01*
D26*
X52900000Y-92200000D02*
X55700000Y-92200000D01*
X55700000Y-92200000D02*
X55700000Y-102900000D01*
D25*
X42600000Y-94500000D02*
X42600000Y-93600000D01*
X42600000Y-93600000D02*
X43300000Y-92900000D01*
D26*
X55600000Y-81800000D02*
X55700000Y-81700000D01*
X52900000Y-81800000D02*
X55600000Y-81800000D01*
X55700000Y-72350000D02*
X55700000Y-81700000D01*
X55700000Y-81700000D02*
X55700000Y-87800000D01*
X55700000Y-87800000D02*
X55700000Y-92200000D01*
D25*
X43300000Y-92300000D02*
X43300000Y-92900000D01*
X41800000Y-90800000D02*
X43300000Y-92300000D01*
X37300000Y-90800000D02*
X41800000Y-90800000D01*
X36200000Y-91900000D02*
X37300000Y-90800000D01*
X36200000Y-94500000D02*
X36200000Y-91900000D01*
X51300000Y-104200000D02*
X52900000Y-102600000D01*
X45100000Y-104200000D02*
X51300000Y-104200000D01*
D26*
X37550000Y-119000000D02*
X54100000Y-119000000D01*
X55700000Y-117400000D02*
X55700000Y-114000000D01*
X54100000Y-119000000D02*
X55700000Y-117400000D01*
X31730000Y-119000000D02*
X37550000Y-119000000D01*
X32177500Y-118552500D02*
X31730000Y-119000000D01*
X32177500Y-116700000D02*
X32177500Y-118552500D01*
X37102500Y-118552500D02*
X37550000Y-119000000D01*
X37102500Y-116700000D02*
X37102500Y-118552500D01*
D27*
X45237500Y-110012500D02*
X45300000Y-109950000D01*
X45100000Y-110000000D02*
X45087500Y-110012500D01*
X45600000Y-110000000D02*
X45100000Y-110000000D01*
X44500000Y-110012500D02*
X45087500Y-110012500D01*
X45087500Y-110012500D02*
X45237500Y-110012500D01*
D25*
X37800000Y-105900000D02*
X37800000Y-108400000D01*
X31500000Y-93550000D02*
X32150000Y-92900000D01*
X31500000Y-94450000D02*
X31500000Y-93550000D01*
X35400000Y-93100000D02*
X35400000Y-94500000D01*
X35200000Y-92900000D02*
X35400000Y-93100000D01*
X43400000Y-94500000D02*
X44400000Y-94500000D01*
X34300000Y-92900000D02*
X34300000Y-94400000D01*
X32150000Y-92900000D02*
X34300000Y-92900000D01*
X34300000Y-92900000D02*
X35200000Y-92900000D01*
D27*
X49525001Y-88724999D02*
X49500000Y-88750000D01*
D25*
X49487500Y-88737500D02*
X49500000Y-88750000D01*
X49487500Y-87100000D02*
X49487500Y-88737500D01*
D27*
X37000000Y-107187500D02*
X37000000Y-105900000D01*
X36387500Y-107800000D02*
X37000000Y-107187500D01*
D25*
X37000000Y-105900000D02*
X37000000Y-104500000D01*
X37000000Y-104500000D02*
X37200000Y-104300000D01*
D27*
X49300000Y-75600000D02*
X51100000Y-75600000D01*
X49300000Y-76312500D02*
X49300000Y-75600000D01*
X49300000Y-75600000D02*
X49300000Y-74887500D01*
X51500000Y-75200000D02*
X54400000Y-75200000D01*
X51100000Y-75600000D02*
X51500000Y-75200000D01*
D25*
X46900000Y-103400000D02*
X45100000Y-103400000D01*
X49487500Y-90662500D02*
X49500000Y-90650000D01*
X49487500Y-92300000D02*
X49487500Y-90662500D01*
D27*
X48800000Y-96712500D02*
X50300000Y-96712500D01*
X50300000Y-96712500D02*
X50927500Y-96712500D01*
X41150000Y-110600000D02*
X41700000Y-110600000D01*
X39400000Y-108850000D02*
X41150000Y-110600000D01*
X39400000Y-105900000D02*
X39400000Y-108850000D01*
X42687500Y-111587500D02*
X41700000Y-110600000D01*
X44500000Y-111587500D02*
X42687500Y-111587500D01*
D25*
X32361612Y-100825888D02*
X31900000Y-101287500D01*
X32361612Y-100600948D02*
X32361612Y-100825888D01*
X32762560Y-100200000D02*
X32361612Y-100600948D01*
X33700000Y-100200000D02*
X32762560Y-100200000D01*
X33700000Y-97000000D02*
X34900000Y-97000000D01*
X34900000Y-97000000D02*
X35100000Y-97200000D01*
X34850000Y-101000000D02*
X33700000Y-101000000D01*
X34965685Y-101000000D02*
X34850000Y-101000000D01*
X35100000Y-100865685D02*
X34965685Y-101000000D01*
X35100000Y-100300000D02*
X35100000Y-100865685D01*
X32890000Y-114800000D02*
X32600000Y-114800000D01*
X33340000Y-116340000D02*
X33340000Y-115250000D01*
X33340000Y-115250000D02*
X32890000Y-114800000D01*
X31550000Y-97000000D02*
X31500000Y-96950000D01*
X33700000Y-97000000D02*
X31550000Y-97000000D01*
D27*
X33200000Y-105734315D02*
X32500000Y-105034315D01*
X33200000Y-106300000D02*
X33200000Y-105734315D01*
X32750000Y-103400000D02*
X33700000Y-103400000D01*
X32500000Y-103650000D02*
X32750000Y-103400000D01*
X32500000Y-105034315D02*
X32500000Y-103650000D01*
X47675000Y-112000000D02*
X47700000Y-112000000D01*
X46350000Y-113750000D02*
X46350000Y-113325000D01*
X46350000Y-113325000D02*
X47675000Y-112000000D01*
D25*
X47500000Y-89700000D02*
X48400000Y-89700000D01*
X42050000Y-117650000D02*
X42100000Y-117700000D01*
X40450000Y-117650000D02*
X42050000Y-117650000D01*
X52230000Y-88750000D02*
X52900000Y-89420000D01*
X49500000Y-88750000D02*
X52230000Y-88750000D01*
D27*
X41375000Y-113750000D02*
X41900000Y-114275000D01*
X40450000Y-113750000D02*
X41375000Y-113750000D01*
X41900000Y-114275000D02*
X41900000Y-116500000D01*
X43050000Y-117650000D02*
X46350000Y-117650000D01*
X41900000Y-116500000D02*
X43050000Y-117650000D01*
D25*
X48800000Y-96712500D02*
X50927500Y-96712500D01*
X50927500Y-96712500D02*
X52900000Y-94740000D01*
X46900000Y-102834315D02*
X46900000Y-103400000D01*
X46900000Y-98037500D02*
X46900000Y-102834315D01*
X48225000Y-96712500D02*
X46900000Y-98037500D01*
X48800000Y-96712500D02*
X48225000Y-96712500D01*
D27*
X41375000Y-113750000D02*
X44050000Y-113750000D01*
D25*
X54500000Y-106200000D02*
X54500000Y-109200000D01*
D27*
X47650000Y-117650000D02*
X46350000Y-117650000D01*
X48500000Y-116800000D02*
X47650000Y-117650000D01*
X53834315Y-116800000D02*
X48500000Y-116800000D01*
X53934315Y-116700000D02*
X53834315Y-116800000D01*
X54500000Y-116700000D02*
X53934315Y-116700000D01*
D25*
X53200000Y-110500000D02*
X54500000Y-109200000D01*
X52840000Y-110500000D02*
X53200000Y-110500000D01*
X49650000Y-90800000D02*
X49500000Y-90650000D01*
X50800000Y-90800000D02*
X49650000Y-90800000D01*
D27*
X33700000Y-104200000D02*
X35400000Y-104200000D01*
X35400000Y-104200000D02*
X35600000Y-104000000D01*
X35274112Y-107338388D02*
X34812500Y-107800000D01*
X35526614Y-107338388D02*
X35274112Y-107338388D01*
X36200000Y-106665002D02*
X35526614Y-107338388D01*
X36200000Y-105900000D02*
X36200000Y-106665002D01*
X33200000Y-107800000D02*
X34812500Y-107800000D01*
X42650011Y-107700011D02*
X46399989Y-107700011D01*
X41800000Y-105900000D02*
X41800000Y-106850000D01*
X41800000Y-106850000D02*
X42650011Y-107700011D01*
X48199989Y-107700011D02*
X48500000Y-107400000D01*
X46399989Y-107700011D02*
X48199989Y-107700011D01*
X51697919Y-99820000D02*
X52900000Y-99820000D01*
X49795000Y-99820000D02*
X51697919Y-99820000D01*
X48800000Y-98825000D02*
X49795000Y-99820000D01*
X48800000Y-98287500D02*
X48800000Y-98825000D01*
X49200001Y-108199999D02*
X50800000Y-106600000D01*
X42349999Y-108199999D02*
X49200001Y-108199999D01*
X41000000Y-105900000D02*
X41000000Y-106850000D01*
X41000000Y-106850000D02*
X42349999Y-108199999D01*
X34115000Y-115179999D02*
X34115000Y-114997844D01*
X33990000Y-115304999D02*
X34115000Y-115179999D01*
X33990000Y-116340000D02*
X33990000Y-115304999D01*
X31450000Y-111537500D02*
X30900000Y-110987500D01*
X31450000Y-112332844D02*
X31450000Y-111537500D01*
X34115000Y-114997844D02*
X31450000Y-112332844D01*
X31450000Y-108862500D02*
X31450000Y-103932844D01*
X30900000Y-109412500D02*
X31450000Y-108862500D01*
X31450000Y-103932844D02*
X30600000Y-103082844D01*
X30600000Y-103082844D02*
X30600000Y-98817156D01*
X32374999Y-98000000D02*
X32574999Y-97800000D01*
X30600000Y-98817156D02*
X31417156Y-98000000D01*
X32574999Y-97800000D02*
X33700000Y-97800000D01*
X31417156Y-98000000D02*
X32374999Y-98000000D01*
X32400000Y-109412500D02*
X31850000Y-108862500D01*
X31850000Y-108862500D02*
X31850000Y-103767156D01*
X31850000Y-103767156D02*
X31000000Y-102917156D01*
X31000000Y-102917156D02*
X31000000Y-98982844D01*
X31582844Y-98400000D02*
X32374999Y-98400000D01*
X31000000Y-98982844D02*
X31582844Y-98400000D01*
X32374999Y-98400000D02*
X32574999Y-98600000D01*
X32574999Y-98600000D02*
X33700000Y-98600000D01*
X34515000Y-115179999D02*
X34515000Y-114832156D01*
X34640000Y-116340000D02*
X34640000Y-115304999D01*
X34640000Y-115304999D02*
X34515000Y-115179999D01*
X31850000Y-111537500D02*
X32400000Y-110987500D01*
X34515000Y-114832156D02*
X31850000Y-112167156D01*
X31850000Y-112167156D02*
X31850000Y-111537500D01*
X42600000Y-106850000D02*
X42600000Y-105900000D01*
X42600000Y-106850000D02*
X42600000Y-106900000D01*
X42600000Y-106900000D02*
X42900000Y-107200000D01*
X42900000Y-107200000D02*
X44500000Y-107200000D01*
X44500000Y-107200000D02*
X44900000Y-106800000D01*
X51697919Y-84340000D02*
X50437919Y-85600000D01*
X52900000Y-84340000D02*
X51697919Y-84340000D01*
X50437919Y-85600000D02*
X47000000Y-85600000D01*
X47000000Y-85600000D02*
X46100000Y-86500000D01*
X46100000Y-86500000D02*
X46100000Y-93000000D01*
X46100000Y-93000000D02*
X47300000Y-94200000D01*
X47300000Y-94700000D02*
X48100000Y-95500000D01*
X47300000Y-94200000D02*
X47300000Y-94700000D01*
X50000000Y-105900000D02*
X49300000Y-106600000D01*
X51100000Y-105900000D02*
X50000000Y-105900000D01*
X51500000Y-106300000D02*
X51100000Y-105900000D01*
X51500000Y-108300000D02*
X51500000Y-106300000D01*
X46350000Y-117000000D02*
X45000000Y-117000000D01*
X45000000Y-117000000D02*
X43900000Y-115900000D01*
X43900000Y-115900000D02*
X43900000Y-114500000D01*
X43900000Y-114500000D02*
X49300000Y-109100000D01*
X49300000Y-109100000D02*
X50700000Y-109100000D01*
X50700000Y-109100000D02*
X51500000Y-108300000D01*
X52050001Y-86030001D02*
X52900000Y-86880000D01*
X47169999Y-86030001D02*
X52050001Y-86030001D01*
X46500000Y-86700000D02*
X47169999Y-86030001D01*
X46500000Y-92600000D02*
X46500000Y-92300000D01*
X48100000Y-94200000D02*
X46500000Y-92600000D01*
X46500000Y-92300000D02*
X46500000Y-86700000D01*
X38800000Y-117000000D02*
X38700000Y-117100000D01*
X40450000Y-117000000D02*
X38800000Y-117000000D01*
X37050000Y-110600000D02*
X36500000Y-110600000D01*
X38600000Y-109050000D02*
X37050000Y-110600000D01*
X38600000Y-105900000D02*
X38600000Y-109050000D01*
X35212500Y-111887500D02*
X36500000Y-110600000D01*
X35212500Y-113300000D02*
X35212500Y-111887500D01*
X41000000Y-94500000D02*
X41000000Y-92800000D01*
X41000000Y-92800000D02*
X41400000Y-92400000D01*
X42050000Y-102300000D02*
X42000000Y-102300000D01*
X44150000Y-100200000D02*
X42050000Y-102300000D01*
X45100000Y-100200000D02*
X44150000Y-100200000D01*
X42000000Y-102300000D02*
X41400000Y-102300000D01*
X44150000Y-99400000D02*
X42450000Y-101100000D01*
X45100000Y-99400000D02*
X44150000Y-99400000D01*
X42450000Y-101100000D02*
X40200000Y-101100000D01*
X40200000Y-101100000D02*
X39400000Y-100300000D01*
X37000000Y-94500000D02*
X37000000Y-95600000D01*
X37000000Y-95600000D02*
X36600000Y-96000000D01*
X36600000Y-96000000D02*
X36600000Y-97500000D01*
X36600000Y-97500000D02*
X37400000Y-98300000D01*
X45100000Y-98600000D02*
X43100000Y-98600000D01*
X43100000Y-98600000D02*
X41400000Y-100300000D01*
X37400000Y-103000000D02*
X37400000Y-102300000D01*
X36350000Y-104050000D02*
X36350000Y-104550000D01*
X36350000Y-104050000D02*
X37400000Y-103000000D01*
X36150000Y-104750000D02*
X35650000Y-104750000D01*
X36350000Y-104550000D02*
X36150000Y-104750000D01*
X35400000Y-105000000D02*
X35650000Y-104750000D01*
X35400000Y-105000000D02*
X35400000Y-105900000D01*
X44150000Y-101800000D02*
X42450000Y-103500000D01*
X45100000Y-101800000D02*
X44150000Y-101800000D01*
X42450000Y-103500000D02*
X40200000Y-103500000D01*
X40200000Y-103500000D02*
X39400000Y-104300000D01*
X44150000Y-101000000D02*
X42050000Y-103100000D01*
X45100000Y-101000000D02*
X44150000Y-101000000D01*
X42050000Y-103100000D02*
X40200000Y-103100000D01*
X40200000Y-103100000D02*
X39400000Y-102300000D01*
X42450000Y-104300000D02*
X41400000Y-104300000D01*
X44150000Y-102600000D02*
X42450000Y-104300000D01*
X45100000Y-102600000D02*
X44150000Y-102600000D01*
X45100000Y-96200000D02*
X43500000Y-96200000D01*
X43500000Y-96200000D02*
X41400000Y-98300000D01*
X37800000Y-94500000D02*
X37800000Y-95900000D01*
X37800000Y-95900000D02*
X37400000Y-96300000D01*
X38600000Y-94500000D02*
X38600000Y-93200000D01*
X38600000Y-93200000D02*
X39400000Y-92400000D01*
X39400000Y-94500000D02*
X39400000Y-96300000D01*
X40200000Y-97500000D02*
X39400000Y-98300000D01*
X40200000Y-94500000D02*
X40200000Y-97500000D01*
X41800000Y-94500000D02*
X41800000Y-95900000D01*
X41800000Y-95900000D02*
X41400000Y-96300000D01*
X33700000Y-96200000D02*
X33700000Y-95600000D01*
X33700000Y-95600000D02*
X33300000Y-95200000D01*
X51492500Y-77887500D02*
X52900000Y-76480000D01*
X49300000Y-77887500D02*
X51492500Y-77887500D01*
X45660000Y-105140000D02*
X44900000Y-105900000D01*
X52900000Y-105140000D02*
X45660000Y-105140000D01*
X43400000Y-105900000D02*
X44900000Y-105900000D01*
X46899989Y-96950011D02*
X46899989Y-94365689D01*
X45100000Y-97800000D02*
X46050000Y-97800000D01*
X46050000Y-97800000D02*
X46899989Y-96950011D01*
X52900000Y-79020000D02*
X45700000Y-86220000D01*
X45700000Y-93165700D02*
X45767150Y-93232850D01*
X45700000Y-86220000D02*
X45700000Y-93165700D01*
X46899989Y-94365689D02*
X45767150Y-93232850D01*
X52272500Y-73312500D02*
X52900000Y-73940000D01*
X50200000Y-73312500D02*
X52272500Y-73312500D01*
X45100000Y-97000000D02*
X46050000Y-97000000D01*
X46050000Y-97000000D02*
X46100000Y-97000000D01*
X49300000Y-73312500D02*
X49912500Y-73312500D01*
X49625000Y-73312500D02*
X49912500Y-73312500D01*
X49912500Y-73312500D02*
X50200000Y-73312500D01*
X46050000Y-97000000D02*
X46368620Y-96681380D01*
X46368620Y-96681380D02*
X46368620Y-94400020D01*
X45300000Y-86000000D02*
X45300000Y-93331400D01*
X45300000Y-93331400D02*
X45334300Y-93365700D01*
X46368620Y-94400020D02*
X45334300Y-93365700D01*
X49300000Y-73312500D02*
X48725000Y-73312500D01*
X48725000Y-73312500D02*
X48200000Y-73837500D01*
X48200000Y-73837500D02*
X48200000Y-83100000D01*
X48200000Y-83100000D02*
X45300000Y-86000000D01*
X51892500Y-98287500D02*
X52900000Y-97280000D01*
X50300000Y-98287500D02*
X51892500Y-98287500D01*
X40200000Y-105900000D02*
X40200000Y-106850000D01*
X49725000Y-108675000D02*
X49850000Y-108550000D01*
X42025000Y-108675000D02*
X49725000Y-108675000D01*
X49850000Y-108550000D02*
X50800000Y-107600000D01*
X40200000Y-106850000D02*
X42025000Y-108675000D01*
X50300000Y-113040000D02*
X48600000Y-114740000D01*
X48600000Y-114740000D02*
X48600000Y-115800000D01*
X48050000Y-116350000D02*
X46350000Y-116350000D01*
X48600000Y-115800000D02*
X48050000Y-116350000D01*
X51600000Y-111800000D02*
X52840000Y-113040000D01*
X49400000Y-111800000D02*
X51600000Y-111800000D01*
X48100000Y-113100000D02*
X49400000Y-111800000D01*
X48100000Y-115200000D02*
X48100000Y-113100000D01*
X46350000Y-115700000D02*
X47600000Y-115700000D01*
X47600000Y-115700000D02*
X48100000Y-115200000D01*
X46350000Y-115050000D02*
X44850000Y-115050000D01*
X44850000Y-115050000D02*
X44700000Y-115200000D01*
X40450000Y-115050000D02*
X38450000Y-115050000D01*
X38450000Y-115050000D02*
X37800000Y-114400000D01*
X35000000Y-101800000D02*
X34700000Y-101800000D01*
X36000000Y-100800000D02*
X35000000Y-101800000D01*
X34700000Y-101800000D02*
X33700000Y-101800000D01*
X33700000Y-102600000D02*
X35000000Y-102600000D01*
X35000000Y-102600000D02*
X35100000Y-102500000D01*
X39150000Y-116350000D02*
X40450000Y-116350000D01*
X38600000Y-115800000D02*
X39150000Y-116350000D01*
D28*
G36*
X51425000Y-71118750D02*
G01*
X51581250Y-71275000D01*
X52775000Y-71275000D01*
X52775000Y-71255000D01*
X53025000Y-71255000D01*
X53025000Y-71275000D01*
X54218750Y-71275000D01*
X54375000Y-71118750D01*
X54377492Y-70650000D01*
X56350000Y-70650000D01*
X56350001Y-119850000D01*
X39365072Y-119850000D01*
X39362500Y-119281250D01*
X39206250Y-119125000D01*
X37675000Y-119125000D01*
X37675000Y-119145000D01*
X37425000Y-119145000D01*
X37425000Y-119125000D01*
X35605000Y-119125000D01*
X35605000Y-119145000D01*
X35355000Y-119145000D01*
X35355000Y-119125000D01*
X33925000Y-119125000D01*
X33925000Y-119145000D01*
X33675000Y-119145000D01*
X33675000Y-119125000D01*
X31855000Y-119125000D01*
X31855000Y-119145000D01*
X31605000Y-119145000D01*
X31605000Y-119125000D01*
X31585000Y-119125000D01*
X31585000Y-118875000D01*
X31605000Y-118875000D01*
X31605000Y-118855000D01*
X31855000Y-118855000D01*
X31855000Y-118875000D01*
X33675000Y-118875000D01*
X33675000Y-118855000D01*
X33925000Y-118855000D01*
X33925000Y-118875000D01*
X35355000Y-118875000D01*
X35355000Y-118855000D01*
X35605000Y-118855000D01*
X35605000Y-118875000D01*
X37425000Y-118875000D01*
X37425000Y-118855000D01*
X37675000Y-118855000D01*
X37675000Y-118875000D01*
X39206250Y-118875000D01*
X39362500Y-118718750D01*
X39363999Y-118387261D01*
X39376089Y-118397183D01*
X39484666Y-118455219D01*
X39602479Y-118490957D01*
X39725000Y-118503024D01*
X41175000Y-118503024D01*
X41297521Y-118490957D01*
X41350124Y-118475000D01*
X41425430Y-118475000D01*
X41446600Y-118496170D01*
X41614480Y-118608344D01*
X41801018Y-118685610D01*
X41999046Y-118725000D01*
X42200954Y-118725000D01*
X42398982Y-118685610D01*
X42585520Y-118608344D01*
X42753400Y-118496170D01*
X42890371Y-118359199D01*
X42907875Y-118364509D01*
X43014393Y-118375000D01*
X43014400Y-118375000D01*
X43050000Y-118378506D01*
X43085600Y-118375000D01*
X45249059Y-118375000D01*
X45276089Y-118397183D01*
X45384666Y-118455219D01*
X45502479Y-118490957D01*
X45625000Y-118503024D01*
X47075000Y-118503024D01*
X47197521Y-118490957D01*
X47315334Y-118455219D01*
X47423911Y-118397183D01*
X47450941Y-118375000D01*
X47614403Y-118375000D01*
X47650000Y-118378506D01*
X47685597Y-118375000D01*
X47685607Y-118375000D01*
X47792125Y-118364509D01*
X47928788Y-118323053D01*
X48054737Y-118255731D01*
X48165132Y-118165132D01*
X48187832Y-118137472D01*
X48800305Y-117525000D01*
X51361976Y-117525000D01*
X51361976Y-118990000D01*
X51374043Y-119112521D01*
X51409781Y-119230334D01*
X51467817Y-119338911D01*
X51545920Y-119434080D01*
X51641089Y-119512183D01*
X51749666Y-119570219D01*
X51867479Y-119605957D01*
X51990000Y-119618024D01*
X53690000Y-119618024D01*
X53812521Y-119605957D01*
X53930334Y-119570219D01*
X54038911Y-119512183D01*
X54134080Y-119434080D01*
X54212183Y-119338911D01*
X54270219Y-119230334D01*
X54305957Y-119112521D01*
X54318024Y-118990000D01*
X54318024Y-117708884D01*
X54399046Y-117725000D01*
X54600954Y-117725000D01*
X54798982Y-117685610D01*
X54985520Y-117608344D01*
X55153400Y-117496170D01*
X55296170Y-117353400D01*
X55408344Y-117185520D01*
X55485610Y-116998982D01*
X55525000Y-116800954D01*
X55525000Y-116599046D01*
X55485610Y-116401018D01*
X55408344Y-116214480D01*
X55296170Y-116046600D01*
X55153400Y-115903830D01*
X54985520Y-115791656D01*
X54798982Y-115714390D01*
X54600954Y-115675000D01*
X54399046Y-115675000D01*
X54201018Y-115714390D01*
X54165414Y-115729137D01*
X54152812Y-115705000D01*
X52965000Y-115705000D01*
X52965000Y-115725000D01*
X52715000Y-115725000D01*
X52715000Y-115705000D01*
X52695000Y-115705000D01*
X52695000Y-115455000D01*
X52715000Y-115455000D01*
X52715000Y-115435000D01*
X52965000Y-115435000D01*
X52965000Y-115455000D01*
X54152812Y-115455000D01*
X54272045Y-115226628D01*
X54227030Y-115078214D01*
X54102485Y-114817260D01*
X53929423Y-114585617D01*
X53714496Y-114392188D01*
X53584190Y-114314706D01*
X53663431Y-114272351D01*
X53888028Y-114088028D01*
X54072351Y-113863431D01*
X54209315Y-113607189D01*
X54293657Y-113329150D01*
X54322136Y-113040000D01*
X54293657Y-112750850D01*
X54209315Y-112472811D01*
X54072351Y-112216569D01*
X53888028Y-111991972D01*
X53663431Y-111807649D01*
X53592995Y-111770000D01*
X53663431Y-111732351D01*
X53888028Y-111548028D01*
X54072351Y-111323431D01*
X54209315Y-111067189D01*
X54293657Y-110789150D01*
X54317264Y-110549461D01*
X54651850Y-110214876D01*
X54798982Y-110185610D01*
X54985520Y-110108344D01*
X55153400Y-109996170D01*
X55296170Y-109853400D01*
X55408344Y-109685520D01*
X55485610Y-109498982D01*
X55525000Y-109300954D01*
X55525000Y-109099046D01*
X55485610Y-108901018D01*
X55408344Y-108714480D01*
X55325000Y-108589747D01*
X55325000Y-106810253D01*
X55408344Y-106685520D01*
X55485610Y-106498982D01*
X55525000Y-106300954D01*
X55525000Y-106099046D01*
X55485610Y-105901018D01*
X55408344Y-105714480D01*
X55296170Y-105546600D01*
X55153400Y-105403830D01*
X54985520Y-105291656D01*
X54798982Y-105214390D01*
X54600954Y-105175000D01*
X54399046Y-105175000D01*
X54378282Y-105179130D01*
X54382136Y-105140000D01*
X54353657Y-104850850D01*
X54269315Y-104572811D01*
X54132351Y-104316569D01*
X53948028Y-104091972D01*
X53904506Y-104056254D01*
X53990334Y-104030219D01*
X54098911Y-103972183D01*
X54194080Y-103894080D01*
X54272183Y-103798911D01*
X54330219Y-103690334D01*
X54365957Y-103572521D01*
X54378024Y-103450000D01*
X54375000Y-102881250D01*
X54218750Y-102725000D01*
X53025000Y-102725000D01*
X53025000Y-102745000D01*
X52775000Y-102745000D01*
X52775000Y-102725000D01*
X51581250Y-102725000D01*
X51425000Y-102881250D01*
X51421976Y-103450000D01*
X51434043Y-103572521D01*
X51469781Y-103690334D01*
X51527817Y-103798911D01*
X51605920Y-103894080D01*
X51701089Y-103972183D01*
X51809666Y-104030219D01*
X51895494Y-104056254D01*
X51851972Y-104091972D01*
X51667649Y-104316569D01*
X51615037Y-104415000D01*
X47051228Y-104415000D01*
X47198982Y-104385610D01*
X47385520Y-104308344D01*
X47553400Y-104196170D01*
X47696170Y-104053400D01*
X47808344Y-103885520D01*
X47885610Y-103698982D01*
X47925000Y-103500954D01*
X47925000Y-103299046D01*
X47885610Y-103101018D01*
X47808344Y-102914480D01*
X47725000Y-102789747D01*
X47725000Y-98710192D01*
X47761433Y-98830296D01*
X47839683Y-98976692D01*
X47944990Y-99105010D01*
X48073308Y-99210317D01*
X48219704Y-99288567D01*
X48250123Y-99297794D01*
X48259355Y-99309043D01*
X48284869Y-99340132D01*
X48312523Y-99362827D01*
X49257172Y-100307477D01*
X49279868Y-100335132D01*
X49307523Y-100357828D01*
X49307525Y-100357830D01*
X49353139Y-100395264D01*
X49390263Y-100425731D01*
X49516212Y-100493053D01*
X49652875Y-100534509D01*
X49759393Y-100545000D01*
X49759402Y-100545000D01*
X49794999Y-100548506D01*
X49830596Y-100545000D01*
X51615037Y-100545000D01*
X51667649Y-100643431D01*
X51851972Y-100868028D01*
X52076569Y-101052351D01*
X52208404Y-101122818D01*
X52050000Y-101121976D01*
X51927479Y-101134043D01*
X51809666Y-101169781D01*
X51701089Y-101227817D01*
X51605920Y-101305920D01*
X51527817Y-101401089D01*
X51469781Y-101509666D01*
X51434043Y-101627479D01*
X51421976Y-101750000D01*
X51425000Y-102318750D01*
X51581250Y-102475000D01*
X52775000Y-102475000D01*
X52775000Y-102455000D01*
X53025000Y-102455000D01*
X53025000Y-102475000D01*
X54218750Y-102475000D01*
X54375000Y-102318750D01*
X54378024Y-101750000D01*
X54365957Y-101627479D01*
X54330219Y-101509666D01*
X54272183Y-101401089D01*
X54194080Y-101305920D01*
X54098911Y-101227817D01*
X53990334Y-101169781D01*
X53872521Y-101134043D01*
X53750000Y-101121976D01*
X53591596Y-101122818D01*
X53723431Y-101052351D01*
X53948028Y-100868028D01*
X54132351Y-100643431D01*
X54269315Y-100387189D01*
X54353657Y-100109150D01*
X54382136Y-99820000D01*
X54353657Y-99530850D01*
X54269315Y-99252811D01*
X54132351Y-98996569D01*
X53948028Y-98771972D01*
X53723431Y-98587649D01*
X53652995Y-98550000D01*
X53723431Y-98512351D01*
X53948028Y-98328028D01*
X54132351Y-98103431D01*
X54269315Y-97847189D01*
X54353657Y-97569150D01*
X54382136Y-97280000D01*
X54353657Y-96990850D01*
X54269315Y-96712811D01*
X54132351Y-96456569D01*
X53948028Y-96231972D01*
X53723431Y-96047649D01*
X53652995Y-96010000D01*
X53723431Y-95972351D01*
X53948028Y-95788028D01*
X54132351Y-95563431D01*
X54269315Y-95307189D01*
X54353657Y-95029150D01*
X54382136Y-94740000D01*
X54353657Y-94450850D01*
X54269315Y-94172811D01*
X54132351Y-93916569D01*
X53948028Y-93691972D01*
X53904506Y-93656254D01*
X53990334Y-93630219D01*
X54098911Y-93572183D01*
X54194080Y-93494080D01*
X54272183Y-93398911D01*
X54330219Y-93290334D01*
X54365957Y-93172521D01*
X54378024Y-93050000D01*
X54375000Y-92481250D01*
X54218750Y-92325000D01*
X53025000Y-92325000D01*
X53025000Y-92345000D01*
X52775000Y-92345000D01*
X52775000Y-92325000D01*
X51581250Y-92325000D01*
X51425000Y-92481250D01*
X51421976Y-93050000D01*
X51434043Y-93172521D01*
X51469781Y-93290334D01*
X51527817Y-93398911D01*
X51605920Y-93494080D01*
X51701089Y-93572183D01*
X51809666Y-93630219D01*
X51895494Y-93656254D01*
X51851972Y-93691972D01*
X51667649Y-93916569D01*
X51530685Y-94172811D01*
X51446343Y-94450850D01*
X51417864Y-94740000D01*
X51446144Y-95027130D01*
X50789411Y-95683864D01*
X50721447Y-95663247D01*
X50556250Y-95646976D01*
X50043750Y-95646976D01*
X49878553Y-95663247D01*
X49719704Y-95711433D01*
X49573308Y-95789683D01*
X49550000Y-95808811D01*
X49526692Y-95789683D01*
X49380296Y-95711433D01*
X49221447Y-95663247D01*
X49114701Y-95652733D01*
X49125000Y-95600954D01*
X49125000Y-95399046D01*
X49085610Y-95201018D01*
X49008344Y-95014480D01*
X48898442Y-94850000D01*
X49008344Y-94685520D01*
X49085610Y-94498982D01*
X49125000Y-94300954D01*
X49125000Y-94099046D01*
X49085610Y-93901018D01*
X49008344Y-93714480D01*
X48896170Y-93546600D01*
X48753400Y-93403830D01*
X48640510Y-93328399D01*
X48698911Y-93297183D01*
X48771070Y-93237964D01*
X48798308Y-93260317D01*
X48944704Y-93338567D01*
X49103553Y-93386753D01*
X49268750Y-93403024D01*
X49706250Y-93403024D01*
X49871447Y-93386753D01*
X50030296Y-93338567D01*
X50176692Y-93260317D01*
X50305010Y-93155010D01*
X50410317Y-93026692D01*
X50488567Y-92880296D01*
X50536753Y-92721447D01*
X50553024Y-92556250D01*
X50553024Y-92043750D01*
X50536753Y-91878553D01*
X50509043Y-91787206D01*
X50699046Y-91825000D01*
X50900954Y-91825000D01*
X51098982Y-91785610D01*
X51285520Y-91708344D01*
X51423391Y-91616221D01*
X51425000Y-91918750D01*
X51581250Y-92075000D01*
X52775000Y-92075000D01*
X52775000Y-92055000D01*
X53025000Y-92055000D01*
X53025000Y-92075000D01*
X54218750Y-92075000D01*
X54375000Y-91918750D01*
X54378024Y-91350000D01*
X54365957Y-91227479D01*
X54330219Y-91109666D01*
X54272183Y-91001089D01*
X54194080Y-90905920D01*
X54098911Y-90827817D01*
X53990334Y-90769781D01*
X53872521Y-90734043D01*
X53750000Y-90721976D01*
X53591596Y-90722818D01*
X53723431Y-90652351D01*
X53948028Y-90468028D01*
X54132351Y-90243431D01*
X54269315Y-89987189D01*
X54353657Y-89709150D01*
X54382136Y-89420000D01*
X54353657Y-89130850D01*
X54269315Y-88852811D01*
X54132351Y-88596569D01*
X53948028Y-88371972D01*
X53723431Y-88187649D01*
X53652995Y-88150000D01*
X53723431Y-88112351D01*
X53948028Y-87928028D01*
X54132351Y-87703431D01*
X54269315Y-87447189D01*
X54353657Y-87169150D01*
X54382136Y-86880000D01*
X54353657Y-86590850D01*
X54269315Y-86312811D01*
X54132351Y-86056569D01*
X53948028Y-85831972D01*
X53723431Y-85647649D01*
X53652995Y-85610000D01*
X53723431Y-85572351D01*
X53948028Y-85388028D01*
X54132351Y-85163431D01*
X54269315Y-84907189D01*
X54353657Y-84629150D01*
X54382136Y-84340000D01*
X54353657Y-84050850D01*
X54269315Y-83772811D01*
X54132351Y-83516569D01*
X53948028Y-83291972D01*
X53904506Y-83256254D01*
X53990334Y-83230219D01*
X54098911Y-83172183D01*
X54194080Y-83094080D01*
X54272183Y-82998911D01*
X54330219Y-82890334D01*
X54365957Y-82772521D01*
X54378024Y-82650000D01*
X54375000Y-82081250D01*
X54218750Y-81925000D01*
X53025000Y-81925000D01*
X53025000Y-81945000D01*
X52775000Y-81945000D01*
X52775000Y-81925000D01*
X51581250Y-81925000D01*
X51425000Y-82081250D01*
X51421976Y-82650000D01*
X51434043Y-82772521D01*
X51469781Y-82890334D01*
X51527817Y-82998911D01*
X51605920Y-83094080D01*
X51701089Y-83172183D01*
X51809666Y-83230219D01*
X51895494Y-83256254D01*
X51851972Y-83291972D01*
X51667649Y-83516569D01*
X51612410Y-83619915D01*
X51555794Y-83625491D01*
X51419131Y-83666947D01*
X51293182Y-83734269D01*
X51210444Y-83802170D01*
X51210442Y-83802172D01*
X51182787Y-83824868D01*
X51160091Y-83852523D01*
X50137615Y-84875000D01*
X48070304Y-84875000D01*
X51425777Y-81519527D01*
X51581250Y-81675000D01*
X52775000Y-81675000D01*
X52775000Y-81655000D01*
X53025000Y-81655000D01*
X53025000Y-81675000D01*
X54218750Y-81675000D01*
X54375000Y-81518750D01*
X54378024Y-80950000D01*
X54365957Y-80827479D01*
X54330219Y-80709666D01*
X54272183Y-80601089D01*
X54194080Y-80505920D01*
X54098911Y-80427817D01*
X53990334Y-80369781D01*
X53872521Y-80334043D01*
X53750000Y-80321976D01*
X53591596Y-80322818D01*
X53723431Y-80252351D01*
X53948028Y-80068028D01*
X54132351Y-79843431D01*
X54269315Y-79587189D01*
X54353657Y-79309150D01*
X54382136Y-79020000D01*
X54353657Y-78730850D01*
X54269315Y-78452811D01*
X54132351Y-78196569D01*
X53948028Y-77971972D01*
X53723431Y-77787649D01*
X53652995Y-77750000D01*
X53723431Y-77712351D01*
X53948028Y-77528028D01*
X54132351Y-77303431D01*
X54269315Y-77047189D01*
X54353657Y-76769150D01*
X54382136Y-76480000D01*
X54357021Y-76225000D01*
X54500954Y-76225000D01*
X54698982Y-76185610D01*
X54885520Y-76108344D01*
X55053400Y-75996170D01*
X55196170Y-75853400D01*
X55308344Y-75685520D01*
X55385610Y-75498982D01*
X55425000Y-75300954D01*
X55425000Y-75099046D01*
X55385610Y-74901018D01*
X55308344Y-74714480D01*
X55196170Y-74546600D01*
X55053400Y-74403830D01*
X54885520Y-74291656D01*
X54698982Y-74214390D01*
X54500954Y-74175000D01*
X54358990Y-74175000D01*
X54382136Y-73940000D01*
X54353657Y-73650850D01*
X54269315Y-73372811D01*
X54132351Y-73116569D01*
X53948028Y-72891972D01*
X53904506Y-72856254D01*
X53990334Y-72830219D01*
X54098911Y-72772183D01*
X54194080Y-72694080D01*
X54272183Y-72598911D01*
X54330219Y-72490334D01*
X54365957Y-72372521D01*
X54378024Y-72250000D01*
X54375000Y-71681250D01*
X54218750Y-71525000D01*
X53025000Y-71525000D01*
X53025000Y-71545000D01*
X52775000Y-71545000D01*
X52775000Y-71525000D01*
X51581250Y-71525000D01*
X51425000Y-71681250D01*
X51421976Y-72250000D01*
X51434043Y-72372521D01*
X51469781Y-72490334D01*
X51521718Y-72587500D01*
X50230930Y-72587500D01*
X50155010Y-72494990D01*
X50026692Y-72389683D01*
X49880296Y-72311433D01*
X49721447Y-72263247D01*
X49556250Y-72246976D01*
X49043750Y-72246976D01*
X48878553Y-72263247D01*
X48719704Y-72311433D01*
X48573308Y-72389683D01*
X48444990Y-72494990D01*
X48339683Y-72623308D01*
X48275387Y-72743597D01*
X48237525Y-72774670D01*
X48237523Y-72774672D01*
X48209868Y-72797368D01*
X48187172Y-72825023D01*
X47712523Y-73299672D01*
X47684868Y-73322369D01*
X47594269Y-73432764D01*
X47526947Y-73558713D01*
X47485491Y-73695376D01*
X47475000Y-73801894D01*
X47475000Y-73801903D01*
X47471494Y-73837500D01*
X47475000Y-73873097D01*
X47475001Y-82799694D01*
X44812524Y-85462172D01*
X44784868Y-85484869D01*
X44762172Y-85512524D01*
X44762170Y-85512526D01*
X44733922Y-85546947D01*
X44694269Y-85595264D01*
X44626947Y-85721213D01*
X44585491Y-85857876D01*
X44575000Y-85964394D01*
X44575000Y-85964403D01*
X44571494Y-86000000D01*
X44575000Y-86035597D01*
X44575001Y-93295793D01*
X44571494Y-93331400D01*
X44575001Y-93367007D01*
X44585492Y-93473525D01*
X44590992Y-93491656D01*
X44591397Y-93492990D01*
X44500954Y-93475000D01*
X44299046Y-93475000D01*
X44242682Y-93486211D01*
X44197183Y-93401089D01*
X44119080Y-93305920D01*
X44023911Y-93227817D01*
X43915334Y-93169781D01*
X43797521Y-93134043D01*
X43675000Y-93121976D01*
X43125000Y-93121976D01*
X43002479Y-93134043D01*
X43000303Y-93134703D01*
X42999333Y-93134406D01*
X42881250Y-93125000D01*
X42781125Y-93225125D01*
X42776089Y-93227817D01*
X42680920Y-93305920D01*
X42602817Y-93401089D01*
X42600000Y-93406359D01*
X42597183Y-93401089D01*
X42519080Y-93305920D01*
X42423911Y-93227817D01*
X42418875Y-93225125D01*
X42318750Y-93125000D01*
X42200667Y-93134406D01*
X42199697Y-93134703D01*
X42197521Y-93134043D01*
X42122878Y-93126692D01*
X42196170Y-93053400D01*
X42308344Y-92885520D01*
X42385610Y-92698982D01*
X42425000Y-92500954D01*
X42425000Y-92299046D01*
X42385610Y-92101018D01*
X42308344Y-91914480D01*
X42196170Y-91746600D01*
X42053400Y-91603830D01*
X41885520Y-91491656D01*
X41698982Y-91414390D01*
X41500954Y-91375000D01*
X41299046Y-91375000D01*
X41101018Y-91414390D01*
X40914480Y-91491656D01*
X40746600Y-91603830D01*
X40603830Y-91746600D01*
X40491656Y-91914480D01*
X40414390Y-92101018D01*
X40400000Y-92173362D01*
X40385610Y-92101018D01*
X40308344Y-91914480D01*
X40196170Y-91746600D01*
X40053400Y-91603830D01*
X39885520Y-91491656D01*
X39698982Y-91414390D01*
X39500954Y-91375000D01*
X39299046Y-91375000D01*
X39101018Y-91414390D01*
X38914480Y-91491656D01*
X38746600Y-91603830D01*
X38603830Y-91746600D01*
X38491656Y-91914480D01*
X38414390Y-92101018D01*
X38375000Y-92299046D01*
X38375000Y-92399696D01*
X38112523Y-92662173D01*
X38084869Y-92684868D01*
X38062173Y-92712523D01*
X38062170Y-92712526D01*
X37994269Y-92795264D01*
X37926947Y-92921213D01*
X37904477Y-92995290D01*
X37885492Y-93057875D01*
X37881343Y-93100000D01*
X37879179Y-93121976D01*
X37525000Y-93121976D01*
X37402479Y-93134043D01*
X37400000Y-93134795D01*
X37397521Y-93134043D01*
X37275000Y-93121976D01*
X36725000Y-93121976D01*
X36602479Y-93134043D01*
X36600303Y-93134703D01*
X36599333Y-93134406D01*
X36481250Y-93125000D01*
X36381125Y-93225125D01*
X36376089Y-93227817D01*
X36325002Y-93269743D01*
X36325002Y-93125000D01*
X36226528Y-93125000D01*
X36228990Y-93100000D01*
X36225000Y-93059487D01*
X36225000Y-93059479D01*
X36213062Y-92938272D01*
X36165888Y-92782759D01*
X36089281Y-92639437D01*
X35986185Y-92513815D01*
X35954705Y-92487980D01*
X35812021Y-92345296D01*
X35786185Y-92313815D01*
X35660563Y-92210719D01*
X35517241Y-92134112D01*
X35361728Y-92086938D01*
X35240521Y-92075000D01*
X35240513Y-92075000D01*
X35200000Y-92071010D01*
X35159487Y-92075000D01*
X34340521Y-92075000D01*
X34300000Y-92071009D01*
X34259479Y-92075000D01*
X32190513Y-92075000D01*
X32150000Y-92071010D01*
X32109487Y-92075000D01*
X32109479Y-92075000D01*
X31988272Y-92086938D01*
X31832759Y-92134112D01*
X31689437Y-92210719D01*
X31563815Y-92313815D01*
X31537983Y-92345291D01*
X30945291Y-92937984D01*
X30913816Y-92963815D01*
X30810720Y-93089437D01*
X30749092Y-93204736D01*
X30734113Y-93232759D01*
X30686938Y-93388272D01*
X30684819Y-93409788D01*
X30651089Y-93427817D01*
X30650000Y-93428711D01*
X30650000Y-70650000D01*
X51422508Y-70650000D01*
X51425000Y-71118750D01*
X51425000Y-71118750D01*
G37*
X51425000Y-71118750D02*
X51581250Y-71275000D01*
X52775000Y-71275000D01*
X52775000Y-71255000D01*
X53025000Y-71255000D01*
X53025000Y-71275000D01*
X54218750Y-71275000D01*
X54375000Y-71118750D01*
X54377492Y-70650000D01*
X56350000Y-70650000D01*
X56350001Y-119850000D01*
X39365072Y-119850000D01*
X39362500Y-119281250D01*
X39206250Y-119125000D01*
X37675000Y-119125000D01*
X37675000Y-119145000D01*
X37425000Y-119145000D01*
X37425000Y-119125000D01*
X35605000Y-119125000D01*
X35605000Y-119145000D01*
X35355000Y-119145000D01*
X35355000Y-119125000D01*
X33925000Y-119125000D01*
X33925000Y-119145000D01*
X33675000Y-119145000D01*
X33675000Y-119125000D01*
X31855000Y-119125000D01*
X31855000Y-119145000D01*
X31605000Y-119145000D01*
X31605000Y-119125000D01*
X31585000Y-119125000D01*
X31585000Y-118875000D01*
X31605000Y-118875000D01*
X31605000Y-118855000D01*
X31855000Y-118855000D01*
X31855000Y-118875000D01*
X33675000Y-118875000D01*
X33675000Y-118855000D01*
X33925000Y-118855000D01*
X33925000Y-118875000D01*
X35355000Y-118875000D01*
X35355000Y-118855000D01*
X35605000Y-118855000D01*
X35605000Y-118875000D01*
X37425000Y-118875000D01*
X37425000Y-118855000D01*
X37675000Y-118855000D01*
X37675000Y-118875000D01*
X39206250Y-118875000D01*
X39362500Y-118718750D01*
X39363999Y-118387261D01*
X39376089Y-118397183D01*
X39484666Y-118455219D01*
X39602479Y-118490957D01*
X39725000Y-118503024D01*
X41175000Y-118503024D01*
X41297521Y-118490957D01*
X41350124Y-118475000D01*
X41425430Y-118475000D01*
X41446600Y-118496170D01*
X41614480Y-118608344D01*
X41801018Y-118685610D01*
X41999046Y-118725000D01*
X42200954Y-118725000D01*
X42398982Y-118685610D01*
X42585520Y-118608344D01*
X42753400Y-118496170D01*
X42890371Y-118359199D01*
X42907875Y-118364509D01*
X43014393Y-118375000D01*
X43014400Y-118375000D01*
X43050000Y-118378506D01*
X43085600Y-118375000D01*
X45249059Y-118375000D01*
X45276089Y-118397183D01*
X45384666Y-118455219D01*
X45502479Y-118490957D01*
X45625000Y-118503024D01*
X47075000Y-118503024D01*
X47197521Y-118490957D01*
X47315334Y-118455219D01*
X47423911Y-118397183D01*
X47450941Y-118375000D01*
X47614403Y-118375000D01*
X47650000Y-118378506D01*
X47685597Y-118375000D01*
X47685607Y-118375000D01*
X47792125Y-118364509D01*
X47928788Y-118323053D01*
X48054737Y-118255731D01*
X48165132Y-118165132D01*
X48187832Y-118137472D01*
X48800305Y-117525000D01*
X51361976Y-117525000D01*
X51361976Y-118990000D01*
X51374043Y-119112521D01*
X51409781Y-119230334D01*
X51467817Y-119338911D01*
X51545920Y-119434080D01*
X51641089Y-119512183D01*
X51749666Y-119570219D01*
X51867479Y-119605957D01*
X51990000Y-119618024D01*
X53690000Y-119618024D01*
X53812521Y-119605957D01*
X53930334Y-119570219D01*
X54038911Y-119512183D01*
X54134080Y-119434080D01*
X54212183Y-119338911D01*
X54270219Y-119230334D01*
X54305957Y-119112521D01*
X54318024Y-118990000D01*
X54318024Y-117708884D01*
X54399046Y-117725000D01*
X54600954Y-117725000D01*
X54798982Y-117685610D01*
X54985520Y-117608344D01*
X55153400Y-117496170D01*
X55296170Y-117353400D01*
X55408344Y-117185520D01*
X55485610Y-116998982D01*
X55525000Y-116800954D01*
X55525000Y-116599046D01*
X55485610Y-116401018D01*
X55408344Y-116214480D01*
X55296170Y-116046600D01*
X55153400Y-115903830D01*
X54985520Y-115791656D01*
X54798982Y-115714390D01*
X54600954Y-115675000D01*
X54399046Y-115675000D01*
X54201018Y-115714390D01*
X54165414Y-115729137D01*
X54152812Y-115705000D01*
X52965000Y-115705000D01*
X52965000Y-115725000D01*
X52715000Y-115725000D01*
X52715000Y-115705000D01*
X52695000Y-115705000D01*
X52695000Y-115455000D01*
X52715000Y-115455000D01*
X52715000Y-115435000D01*
X52965000Y-115435000D01*
X52965000Y-115455000D01*
X54152812Y-115455000D01*
X54272045Y-115226628D01*
X54227030Y-115078214D01*
X54102485Y-114817260D01*
X53929423Y-114585617D01*
X53714496Y-114392188D01*
X53584190Y-114314706D01*
X53663431Y-114272351D01*
X53888028Y-114088028D01*
X54072351Y-113863431D01*
X54209315Y-113607189D01*
X54293657Y-113329150D01*
X54322136Y-113040000D01*
X54293657Y-112750850D01*
X54209315Y-112472811D01*
X54072351Y-112216569D01*
X53888028Y-111991972D01*
X53663431Y-111807649D01*
X53592995Y-111770000D01*
X53663431Y-111732351D01*
X53888028Y-111548028D01*
X54072351Y-111323431D01*
X54209315Y-111067189D01*
X54293657Y-110789150D01*
X54317264Y-110549461D01*
X54651850Y-110214876D01*
X54798982Y-110185610D01*
X54985520Y-110108344D01*
X55153400Y-109996170D01*
X55296170Y-109853400D01*
X55408344Y-109685520D01*
X55485610Y-109498982D01*
X55525000Y-109300954D01*
X55525000Y-109099046D01*
X55485610Y-108901018D01*
X55408344Y-108714480D01*
X55325000Y-108589747D01*
X55325000Y-106810253D01*
X55408344Y-106685520D01*
X55485610Y-106498982D01*
X55525000Y-106300954D01*
X55525000Y-106099046D01*
X55485610Y-105901018D01*
X55408344Y-105714480D01*
X55296170Y-105546600D01*
X55153400Y-105403830D01*
X54985520Y-105291656D01*
X54798982Y-105214390D01*
X54600954Y-105175000D01*
X54399046Y-105175000D01*
X54378282Y-105179130D01*
X54382136Y-105140000D01*
X54353657Y-104850850D01*
X54269315Y-104572811D01*
X54132351Y-104316569D01*
X53948028Y-104091972D01*
X53904506Y-104056254D01*
X53990334Y-104030219D01*
X54098911Y-103972183D01*
X54194080Y-103894080D01*
X54272183Y-103798911D01*
X54330219Y-103690334D01*
X54365957Y-103572521D01*
X54378024Y-103450000D01*
X54375000Y-102881250D01*
X54218750Y-102725000D01*
X53025000Y-102725000D01*
X53025000Y-102745000D01*
X52775000Y-102745000D01*
X52775000Y-102725000D01*
X51581250Y-102725000D01*
X51425000Y-102881250D01*
X51421976Y-103450000D01*
X51434043Y-103572521D01*
X51469781Y-103690334D01*
X51527817Y-103798911D01*
X51605920Y-103894080D01*
X51701089Y-103972183D01*
X51809666Y-104030219D01*
X51895494Y-104056254D01*
X51851972Y-104091972D01*
X51667649Y-104316569D01*
X51615037Y-104415000D01*
X47051228Y-104415000D01*
X47198982Y-104385610D01*
X47385520Y-104308344D01*
X47553400Y-104196170D01*
X47696170Y-104053400D01*
X47808344Y-103885520D01*
X47885610Y-103698982D01*
X47925000Y-103500954D01*
X47925000Y-103299046D01*
X47885610Y-103101018D01*
X47808344Y-102914480D01*
X47725000Y-102789747D01*
X47725000Y-98710192D01*
X47761433Y-98830296D01*
X47839683Y-98976692D01*
X47944990Y-99105010D01*
X48073308Y-99210317D01*
X48219704Y-99288567D01*
X48250123Y-99297794D01*
X48259355Y-99309043D01*
X48284869Y-99340132D01*
X48312523Y-99362827D01*
X49257172Y-100307477D01*
X49279868Y-100335132D01*
X49307523Y-100357828D01*
X49307525Y-100357830D01*
X49353139Y-100395264D01*
X49390263Y-100425731D01*
X49516212Y-100493053D01*
X49652875Y-100534509D01*
X49759393Y-100545000D01*
X49759402Y-100545000D01*
X49794999Y-100548506D01*
X49830596Y-100545000D01*
X51615037Y-100545000D01*
X51667649Y-100643431D01*
X51851972Y-100868028D01*
X52076569Y-101052351D01*
X52208404Y-101122818D01*
X52050000Y-101121976D01*
X51927479Y-101134043D01*
X51809666Y-101169781D01*
X51701089Y-101227817D01*
X51605920Y-101305920D01*
X51527817Y-101401089D01*
X51469781Y-101509666D01*
X51434043Y-101627479D01*
X51421976Y-101750000D01*
X51425000Y-102318750D01*
X51581250Y-102475000D01*
X52775000Y-102475000D01*
X52775000Y-102455000D01*
X53025000Y-102455000D01*
X53025000Y-102475000D01*
X54218750Y-102475000D01*
X54375000Y-102318750D01*
X54378024Y-101750000D01*
X54365957Y-101627479D01*
X54330219Y-101509666D01*
X54272183Y-101401089D01*
X54194080Y-101305920D01*
X54098911Y-101227817D01*
X53990334Y-101169781D01*
X53872521Y-101134043D01*
X53750000Y-101121976D01*
X53591596Y-101122818D01*
X53723431Y-101052351D01*
X53948028Y-100868028D01*
X54132351Y-100643431D01*
X54269315Y-100387189D01*
X54353657Y-100109150D01*
X54382136Y-99820000D01*
X54353657Y-99530850D01*
X54269315Y-99252811D01*
X54132351Y-98996569D01*
X53948028Y-98771972D01*
X53723431Y-98587649D01*
X53652995Y-98550000D01*
X53723431Y-98512351D01*
X53948028Y-98328028D01*
X54132351Y-98103431D01*
X54269315Y-97847189D01*
X54353657Y-97569150D01*
X54382136Y-97280000D01*
X54353657Y-96990850D01*
X54269315Y-96712811D01*
X54132351Y-96456569D01*
X53948028Y-96231972D01*
X53723431Y-96047649D01*
X53652995Y-96010000D01*
X53723431Y-95972351D01*
X53948028Y-95788028D01*
X54132351Y-95563431D01*
X54269315Y-95307189D01*
X54353657Y-95029150D01*
X54382136Y-94740000D01*
X54353657Y-94450850D01*
X54269315Y-94172811D01*
X54132351Y-93916569D01*
X53948028Y-93691972D01*
X53904506Y-93656254D01*
X53990334Y-93630219D01*
X54098911Y-93572183D01*
X54194080Y-93494080D01*
X54272183Y-93398911D01*
X54330219Y-93290334D01*
X54365957Y-93172521D01*
X54378024Y-93050000D01*
X54375000Y-92481250D01*
X54218750Y-92325000D01*
X53025000Y-92325000D01*
X53025000Y-92345000D01*
X52775000Y-92345000D01*
X52775000Y-92325000D01*
X51581250Y-92325000D01*
X51425000Y-92481250D01*
X51421976Y-93050000D01*
X51434043Y-93172521D01*
X51469781Y-93290334D01*
X51527817Y-93398911D01*
X51605920Y-93494080D01*
X51701089Y-93572183D01*
X51809666Y-93630219D01*
X51895494Y-93656254D01*
X51851972Y-93691972D01*
X51667649Y-93916569D01*
X51530685Y-94172811D01*
X51446343Y-94450850D01*
X51417864Y-94740000D01*
X51446144Y-95027130D01*
X50789411Y-95683864D01*
X50721447Y-95663247D01*
X50556250Y-95646976D01*
X50043750Y-95646976D01*
X49878553Y-95663247D01*
X49719704Y-95711433D01*
X49573308Y-95789683D01*
X49550000Y-95808811D01*
X49526692Y-95789683D01*
X49380296Y-95711433D01*
X49221447Y-95663247D01*
X49114701Y-95652733D01*
X49125000Y-95600954D01*
X49125000Y-95399046D01*
X49085610Y-95201018D01*
X49008344Y-95014480D01*
X48898442Y-94850000D01*
X49008344Y-94685520D01*
X49085610Y-94498982D01*
X49125000Y-94300954D01*
X49125000Y-94099046D01*
X49085610Y-93901018D01*
X49008344Y-93714480D01*
X48896170Y-93546600D01*
X48753400Y-93403830D01*
X48640510Y-93328399D01*
X48698911Y-93297183D01*
X48771070Y-93237964D01*
X48798308Y-93260317D01*
X48944704Y-93338567D01*
X49103553Y-93386753D01*
X49268750Y-93403024D01*
X49706250Y-93403024D01*
X49871447Y-93386753D01*
X50030296Y-93338567D01*
X50176692Y-93260317D01*
X50305010Y-93155010D01*
X50410317Y-93026692D01*
X50488567Y-92880296D01*
X50536753Y-92721447D01*
X50553024Y-92556250D01*
X50553024Y-92043750D01*
X50536753Y-91878553D01*
X50509043Y-91787206D01*
X50699046Y-91825000D01*
X50900954Y-91825000D01*
X51098982Y-91785610D01*
X51285520Y-91708344D01*
X51423391Y-91616221D01*
X51425000Y-91918750D01*
X51581250Y-92075000D01*
X52775000Y-92075000D01*
X52775000Y-92055000D01*
X53025000Y-92055000D01*
X53025000Y-92075000D01*
X54218750Y-92075000D01*
X54375000Y-91918750D01*
X54378024Y-91350000D01*
X54365957Y-91227479D01*
X54330219Y-91109666D01*
X54272183Y-91001089D01*
X54194080Y-90905920D01*
X54098911Y-90827817D01*
X53990334Y-90769781D01*
X53872521Y-90734043D01*
X53750000Y-90721976D01*
X53591596Y-90722818D01*
X53723431Y-90652351D01*
X53948028Y-90468028D01*
X54132351Y-90243431D01*
X54269315Y-89987189D01*
X54353657Y-89709150D01*
X54382136Y-89420000D01*
X54353657Y-89130850D01*
X54269315Y-88852811D01*
X54132351Y-88596569D01*
X53948028Y-88371972D01*
X53723431Y-88187649D01*
X53652995Y-88150000D01*
X53723431Y-88112351D01*
X53948028Y-87928028D01*
X54132351Y-87703431D01*
X54269315Y-87447189D01*
X54353657Y-87169150D01*
X54382136Y-86880000D01*
X54353657Y-86590850D01*
X54269315Y-86312811D01*
X54132351Y-86056569D01*
X53948028Y-85831972D01*
X53723431Y-85647649D01*
X53652995Y-85610000D01*
X53723431Y-85572351D01*
X53948028Y-85388028D01*
X54132351Y-85163431D01*
X54269315Y-84907189D01*
X54353657Y-84629150D01*
X54382136Y-84340000D01*
X54353657Y-84050850D01*
X54269315Y-83772811D01*
X54132351Y-83516569D01*
X53948028Y-83291972D01*
X53904506Y-83256254D01*
X53990334Y-83230219D01*
X54098911Y-83172183D01*
X54194080Y-83094080D01*
X54272183Y-82998911D01*
X54330219Y-82890334D01*
X54365957Y-82772521D01*
X54378024Y-82650000D01*
X54375000Y-82081250D01*
X54218750Y-81925000D01*
X53025000Y-81925000D01*
X53025000Y-81945000D01*
X52775000Y-81945000D01*
X52775000Y-81925000D01*
X51581250Y-81925000D01*
X51425000Y-82081250D01*
X51421976Y-82650000D01*
X51434043Y-82772521D01*
X51469781Y-82890334D01*
X51527817Y-82998911D01*
X51605920Y-83094080D01*
X51701089Y-83172183D01*
X51809666Y-83230219D01*
X51895494Y-83256254D01*
X51851972Y-83291972D01*
X51667649Y-83516569D01*
X51612410Y-83619915D01*
X51555794Y-83625491D01*
X51419131Y-83666947D01*
X51293182Y-83734269D01*
X51210444Y-83802170D01*
X51210442Y-83802172D01*
X51182787Y-83824868D01*
X51160091Y-83852523D01*
X50137615Y-84875000D01*
X48070304Y-84875000D01*
X51425777Y-81519527D01*
X51581250Y-81675000D01*
X52775000Y-81675000D01*
X52775000Y-81655000D01*
X53025000Y-81655000D01*
X53025000Y-81675000D01*
X54218750Y-81675000D01*
X54375000Y-81518750D01*
X54378024Y-80950000D01*
X54365957Y-80827479D01*
X54330219Y-80709666D01*
X54272183Y-80601089D01*
X54194080Y-80505920D01*
X54098911Y-80427817D01*
X53990334Y-80369781D01*
X53872521Y-80334043D01*
X53750000Y-80321976D01*
X53591596Y-80322818D01*
X53723431Y-80252351D01*
X53948028Y-80068028D01*
X54132351Y-79843431D01*
X54269315Y-79587189D01*
X54353657Y-79309150D01*
X54382136Y-79020000D01*
X54353657Y-78730850D01*
X54269315Y-78452811D01*
X54132351Y-78196569D01*
X53948028Y-77971972D01*
X53723431Y-77787649D01*
X53652995Y-77750000D01*
X53723431Y-77712351D01*
X53948028Y-77528028D01*
X54132351Y-77303431D01*
X54269315Y-77047189D01*
X54353657Y-76769150D01*
X54382136Y-76480000D01*
X54357021Y-76225000D01*
X54500954Y-76225000D01*
X54698982Y-76185610D01*
X54885520Y-76108344D01*
X55053400Y-75996170D01*
X55196170Y-75853400D01*
X55308344Y-75685520D01*
X55385610Y-75498982D01*
X55425000Y-75300954D01*
X55425000Y-75099046D01*
X55385610Y-74901018D01*
X55308344Y-74714480D01*
X55196170Y-74546600D01*
X55053400Y-74403830D01*
X54885520Y-74291656D01*
X54698982Y-74214390D01*
X54500954Y-74175000D01*
X54358990Y-74175000D01*
X54382136Y-73940000D01*
X54353657Y-73650850D01*
X54269315Y-73372811D01*
X54132351Y-73116569D01*
X53948028Y-72891972D01*
X53904506Y-72856254D01*
X53990334Y-72830219D01*
X54098911Y-72772183D01*
X54194080Y-72694080D01*
X54272183Y-72598911D01*
X54330219Y-72490334D01*
X54365957Y-72372521D01*
X54378024Y-72250000D01*
X54375000Y-71681250D01*
X54218750Y-71525000D01*
X53025000Y-71525000D01*
X53025000Y-71545000D01*
X52775000Y-71545000D01*
X52775000Y-71525000D01*
X51581250Y-71525000D01*
X51425000Y-71681250D01*
X51421976Y-72250000D01*
X51434043Y-72372521D01*
X51469781Y-72490334D01*
X51521718Y-72587500D01*
X50230930Y-72587500D01*
X50155010Y-72494990D01*
X50026692Y-72389683D01*
X49880296Y-72311433D01*
X49721447Y-72263247D01*
X49556250Y-72246976D01*
X49043750Y-72246976D01*
X48878553Y-72263247D01*
X48719704Y-72311433D01*
X48573308Y-72389683D01*
X48444990Y-72494990D01*
X48339683Y-72623308D01*
X48275387Y-72743597D01*
X48237525Y-72774670D01*
X48237523Y-72774672D01*
X48209868Y-72797368D01*
X48187172Y-72825023D01*
X47712523Y-73299672D01*
X47684868Y-73322369D01*
X47594269Y-73432764D01*
X47526947Y-73558713D01*
X47485491Y-73695376D01*
X47475000Y-73801894D01*
X47475000Y-73801903D01*
X47471494Y-73837500D01*
X47475000Y-73873097D01*
X47475001Y-82799694D01*
X44812524Y-85462172D01*
X44784868Y-85484869D01*
X44762172Y-85512524D01*
X44762170Y-85512526D01*
X44733922Y-85546947D01*
X44694269Y-85595264D01*
X44626947Y-85721213D01*
X44585491Y-85857876D01*
X44575000Y-85964394D01*
X44575000Y-85964403D01*
X44571494Y-86000000D01*
X44575000Y-86035597D01*
X44575001Y-93295793D01*
X44571494Y-93331400D01*
X44575001Y-93367007D01*
X44585492Y-93473525D01*
X44590992Y-93491656D01*
X44591397Y-93492990D01*
X44500954Y-93475000D01*
X44299046Y-93475000D01*
X44242682Y-93486211D01*
X44197183Y-93401089D01*
X44119080Y-93305920D01*
X44023911Y-93227817D01*
X43915334Y-93169781D01*
X43797521Y-93134043D01*
X43675000Y-93121976D01*
X43125000Y-93121976D01*
X43002479Y-93134043D01*
X43000303Y-93134703D01*
X42999333Y-93134406D01*
X42881250Y-93125000D01*
X42781125Y-93225125D01*
X42776089Y-93227817D01*
X42680920Y-93305920D01*
X42602817Y-93401089D01*
X42600000Y-93406359D01*
X42597183Y-93401089D01*
X42519080Y-93305920D01*
X42423911Y-93227817D01*
X42418875Y-93225125D01*
X42318750Y-93125000D01*
X42200667Y-93134406D01*
X42199697Y-93134703D01*
X42197521Y-93134043D01*
X42122878Y-93126692D01*
X42196170Y-93053400D01*
X42308344Y-92885520D01*
X42385610Y-92698982D01*
X42425000Y-92500954D01*
X42425000Y-92299046D01*
X42385610Y-92101018D01*
X42308344Y-91914480D01*
X42196170Y-91746600D01*
X42053400Y-91603830D01*
X41885520Y-91491656D01*
X41698982Y-91414390D01*
X41500954Y-91375000D01*
X41299046Y-91375000D01*
X41101018Y-91414390D01*
X40914480Y-91491656D01*
X40746600Y-91603830D01*
X40603830Y-91746600D01*
X40491656Y-91914480D01*
X40414390Y-92101018D01*
X40400000Y-92173362D01*
X40385610Y-92101018D01*
X40308344Y-91914480D01*
X40196170Y-91746600D01*
X40053400Y-91603830D01*
X39885520Y-91491656D01*
X39698982Y-91414390D01*
X39500954Y-91375000D01*
X39299046Y-91375000D01*
X39101018Y-91414390D01*
X38914480Y-91491656D01*
X38746600Y-91603830D01*
X38603830Y-91746600D01*
X38491656Y-91914480D01*
X38414390Y-92101018D01*
X38375000Y-92299046D01*
X38375000Y-92399696D01*
X38112523Y-92662173D01*
X38084869Y-92684868D01*
X38062173Y-92712523D01*
X38062170Y-92712526D01*
X37994269Y-92795264D01*
X37926947Y-92921213D01*
X37904477Y-92995290D01*
X37885492Y-93057875D01*
X37881343Y-93100000D01*
X37879179Y-93121976D01*
X37525000Y-93121976D01*
X37402479Y-93134043D01*
X37400000Y-93134795D01*
X37397521Y-93134043D01*
X37275000Y-93121976D01*
X36725000Y-93121976D01*
X36602479Y-93134043D01*
X36600303Y-93134703D01*
X36599333Y-93134406D01*
X36481250Y-93125000D01*
X36381125Y-93225125D01*
X36376089Y-93227817D01*
X36325002Y-93269743D01*
X36325002Y-93125000D01*
X36226528Y-93125000D01*
X36228990Y-93100000D01*
X36225000Y-93059487D01*
X36225000Y-93059479D01*
X36213062Y-92938272D01*
X36165888Y-92782759D01*
X36089281Y-92639437D01*
X35986185Y-92513815D01*
X35954705Y-92487980D01*
X35812021Y-92345296D01*
X35786185Y-92313815D01*
X35660563Y-92210719D01*
X35517241Y-92134112D01*
X35361728Y-92086938D01*
X35240521Y-92075000D01*
X35240513Y-92075000D01*
X35200000Y-92071010D01*
X35159487Y-92075000D01*
X34340521Y-92075000D01*
X34300000Y-92071009D01*
X34259479Y-92075000D01*
X32190513Y-92075000D01*
X32150000Y-92071010D01*
X32109487Y-92075000D01*
X32109479Y-92075000D01*
X31988272Y-92086938D01*
X31832759Y-92134112D01*
X31689437Y-92210719D01*
X31563815Y-92313815D01*
X31537983Y-92345291D01*
X30945291Y-92937984D01*
X30913816Y-92963815D01*
X30810720Y-93089437D01*
X30749092Y-93204736D01*
X30734113Y-93232759D01*
X30686938Y-93388272D01*
X30684819Y-93409788D01*
X30651089Y-93427817D01*
X30650000Y-93428711D01*
X30650000Y-70650000D01*
X51422508Y-70650000D01*
X51425000Y-71118750D01*
G36*
X30725000Y-112297247D02*
G01*
X30721494Y-112332844D01*
X30725000Y-112368441D01*
X30725000Y-112368450D01*
X30735491Y-112474968D01*
X30776947Y-112611631D01*
X30844269Y-112737580D01*
X30934868Y-112847975D01*
X30962524Y-112870672D01*
X32035968Y-113944116D01*
X31946600Y-114003830D01*
X31803830Y-114146600D01*
X31691656Y-114314480D01*
X31614390Y-114501018D01*
X31575000Y-114699046D01*
X31575000Y-114900954D01*
X31599283Y-115023032D01*
X31440000Y-115021976D01*
X31317479Y-115034043D01*
X31199666Y-115069781D01*
X31091089Y-115127817D01*
X30995920Y-115205920D01*
X30917817Y-115301089D01*
X30859781Y-115409666D01*
X30824043Y-115527479D01*
X30811976Y-115650000D01*
X30815000Y-116418750D01*
X30971250Y-116575000D01*
X32052500Y-116575000D01*
X32052500Y-116555000D01*
X32302500Y-116555000D01*
X32302500Y-116575000D01*
X32322500Y-116575000D01*
X32322500Y-116825000D01*
X32302500Y-116825000D01*
X32302500Y-116845000D01*
X32052500Y-116845000D01*
X32052500Y-116825000D01*
X30971250Y-116825000D01*
X30815000Y-116981250D01*
X30813263Y-117422879D01*
X30650000Y-117422335D01*
X30650000Y-112053024D01*
X30725000Y-112053024D01*
X30725000Y-112297247D01*
X30725000Y-112297247D01*
G37*
X30725000Y-112297247D02*
X30721494Y-112332844D01*
X30725000Y-112368441D01*
X30725000Y-112368450D01*
X30735491Y-112474968D01*
X30776947Y-112611631D01*
X30844269Y-112737580D01*
X30934868Y-112847975D01*
X30962524Y-112870672D01*
X32035968Y-113944116D01*
X31946600Y-114003830D01*
X31803830Y-114146600D01*
X31691656Y-114314480D01*
X31614390Y-114501018D01*
X31575000Y-114699046D01*
X31575000Y-114900954D01*
X31599283Y-115023032D01*
X31440000Y-115021976D01*
X31317479Y-115034043D01*
X31199666Y-115069781D01*
X31091089Y-115127817D01*
X30995920Y-115205920D01*
X30917817Y-115301089D01*
X30859781Y-115409666D01*
X30824043Y-115527479D01*
X30811976Y-115650000D01*
X30815000Y-116418750D01*
X30971250Y-116575000D01*
X32052500Y-116575000D01*
X32052500Y-116555000D01*
X32302500Y-116555000D01*
X32302500Y-116575000D01*
X32322500Y-116575000D01*
X32322500Y-116825000D01*
X32302500Y-116825000D01*
X32302500Y-116845000D01*
X32052500Y-116845000D01*
X32052500Y-116825000D01*
X30971250Y-116825000D01*
X30815000Y-116981250D01*
X30813263Y-117422879D01*
X30650000Y-117422335D01*
X30650000Y-112053024D01*
X30725000Y-112053024D01*
X30725000Y-112297247D01*
G36*
X43171494Y-114500000D02*
G01*
X43175001Y-114535607D01*
X43175000Y-115864403D01*
X43171494Y-115900000D01*
X43175000Y-115935597D01*
X43175000Y-115935606D01*
X43185491Y-116042124D01*
X43217362Y-116147189D01*
X43226947Y-116178787D01*
X43294269Y-116304736D01*
X43352431Y-116375606D01*
X43384868Y-116415131D01*
X43412524Y-116437828D01*
X43899696Y-116925000D01*
X43350305Y-116925000D01*
X42625000Y-116199696D01*
X42625000Y-114475000D01*
X43173956Y-114475000D01*
X43171494Y-114500000D01*
X43171494Y-114500000D01*
G37*
X43171494Y-114500000D02*
X43175001Y-114535607D01*
X43175000Y-115864403D01*
X43171494Y-115900000D01*
X43175000Y-115935597D01*
X43175000Y-115935606D01*
X43185491Y-116042124D01*
X43217362Y-116147189D01*
X43226947Y-116178787D01*
X43294269Y-116304736D01*
X43352431Y-116375606D01*
X43384868Y-116415131D01*
X43412524Y-116437828D01*
X43899696Y-116925000D01*
X43350305Y-116925000D01*
X42625000Y-116199696D01*
X42625000Y-114475000D01*
X43173956Y-114475000D01*
X43171494Y-114500000D01*
G36*
X37227500Y-116575000D02*
G01*
X37247500Y-116575000D01*
X37247500Y-116825000D01*
X37227500Y-116825000D01*
X37227500Y-116845000D01*
X36977500Y-116845000D01*
X36977500Y-116825000D01*
X36957500Y-116825000D01*
X36957500Y-116575000D01*
X36977500Y-116575000D01*
X36977500Y-116555000D01*
X37227500Y-116555000D01*
X37227500Y-116575000D01*
X37227500Y-116575000D01*
G37*
X37227500Y-116575000D02*
X37247500Y-116575000D01*
X37247500Y-116825000D01*
X37227500Y-116825000D01*
X37227500Y-116845000D01*
X36977500Y-116845000D01*
X36977500Y-116825000D01*
X36957500Y-116825000D01*
X36957500Y-116575000D01*
X36977500Y-116575000D01*
X36977500Y-116555000D01*
X37227500Y-116555000D01*
X37227500Y-116575000D01*
G36*
X36001089Y-114297183D02*
G01*
X36109666Y-114355219D01*
X36227479Y-114390957D01*
X36350000Y-114403024D01*
X36506250Y-114400000D01*
X36662498Y-114243752D01*
X36662498Y-114400000D01*
X36775000Y-114400000D01*
X36775000Y-114500954D01*
X36814390Y-114698982D01*
X36891656Y-114885520D01*
X36984854Y-115025000D01*
X36977498Y-115025000D01*
X36977498Y-115181248D01*
X36821250Y-115025000D01*
X36365000Y-115021976D01*
X36261671Y-115032153D01*
X36196250Y-115025000D01*
X36163140Y-115058110D01*
X36124666Y-115069781D01*
X36016089Y-115127817D01*
X35940000Y-115190261D01*
X35863911Y-115127817D01*
X35755334Y-115069781D01*
X35716860Y-115058110D01*
X35683750Y-115025000D01*
X35618329Y-115032153D01*
X35515000Y-115021976D01*
X35310789Y-115021976D01*
X35245731Y-114900262D01*
X35240000Y-114893279D01*
X35240000Y-114867752D01*
X35243506Y-114832155D01*
X35240000Y-114796558D01*
X35240000Y-114796550D01*
X35229509Y-114690032D01*
X35188053Y-114553368D01*
X35120731Y-114427419D01*
X35112282Y-114417124D01*
X35100711Y-114403024D01*
X35431250Y-114403024D01*
X35596447Y-114386753D01*
X35755296Y-114338567D01*
X35901692Y-114260317D01*
X35928930Y-114237964D01*
X36001089Y-114297183D01*
X36001089Y-114297183D01*
G37*
X36001089Y-114297183D02*
X36109666Y-114355219D01*
X36227479Y-114390957D01*
X36350000Y-114403024D01*
X36506250Y-114400000D01*
X36662498Y-114243752D01*
X36662498Y-114400000D01*
X36775000Y-114400000D01*
X36775000Y-114500954D01*
X36814390Y-114698982D01*
X36891656Y-114885520D01*
X36984854Y-115025000D01*
X36977498Y-115025000D01*
X36977498Y-115181248D01*
X36821250Y-115025000D01*
X36365000Y-115021976D01*
X36261671Y-115032153D01*
X36196250Y-115025000D01*
X36163140Y-115058110D01*
X36124666Y-115069781D01*
X36016089Y-115127817D01*
X35940000Y-115190261D01*
X35863911Y-115127817D01*
X35755334Y-115069781D01*
X35716860Y-115058110D01*
X35683750Y-115025000D01*
X35618329Y-115032153D01*
X35515000Y-115021976D01*
X35310789Y-115021976D01*
X35245731Y-114900262D01*
X35240000Y-114893279D01*
X35240000Y-114867752D01*
X35243506Y-114832155D01*
X35240000Y-114796558D01*
X35240000Y-114796550D01*
X35229509Y-114690032D01*
X35188053Y-114553368D01*
X35120731Y-114427419D01*
X35112282Y-114417124D01*
X35100711Y-114403024D01*
X35431250Y-114403024D01*
X35596447Y-114386753D01*
X35755296Y-114338567D01*
X35901692Y-114260317D01*
X35928930Y-114237964D01*
X36001089Y-114297183D01*
G36*
X39321976Y-109797280D02*
G01*
X39321976Y-111800000D01*
X39334043Y-111922521D01*
X39369781Y-112040334D01*
X39427817Y-112148911D01*
X39505920Y-112244080D01*
X39601089Y-112322183D01*
X39709666Y-112380219D01*
X39827479Y-112415957D01*
X39950000Y-112428024D01*
X43450000Y-112428024D01*
X43572521Y-112415957D01*
X43637738Y-112396174D01*
X43644990Y-112405010D01*
X43773308Y-112510317D01*
X43919704Y-112588567D01*
X44078553Y-112636753D01*
X44243750Y-112653024D01*
X44721672Y-112653024D01*
X44304973Y-113069723D01*
X44192125Y-113035491D01*
X44085607Y-113025000D01*
X41550941Y-113025000D01*
X41523911Y-113002817D01*
X41415334Y-112944781D01*
X41297521Y-112909043D01*
X41175000Y-112896976D01*
X39725000Y-112896976D01*
X39602479Y-112909043D01*
X39484666Y-112944781D01*
X39376089Y-113002817D01*
X39280920Y-113080920D01*
X39202817Y-113176089D01*
X39144781Y-113284666D01*
X39109043Y-113402479D01*
X39096976Y-113525000D01*
X39096976Y-113975000D01*
X39106825Y-114075000D01*
X39096976Y-114175000D01*
X39096976Y-114325000D01*
X38825000Y-114325000D01*
X38825000Y-114299046D01*
X38785610Y-114101018D01*
X38708344Y-113914480D01*
X38596170Y-113746600D01*
X38453400Y-113603830D01*
X38285520Y-113491656D01*
X38098982Y-113414390D01*
X37900954Y-113375000D01*
X37699046Y-113375000D01*
X37501018Y-113414390D01*
X37475403Y-113425000D01*
X36912500Y-113425000D01*
X36912500Y-113445000D01*
X36662500Y-113445000D01*
X36662500Y-113425000D01*
X36642500Y-113425000D01*
X36642500Y-113175000D01*
X36662500Y-113175000D01*
X36662500Y-113155000D01*
X36912500Y-113155000D01*
X36912500Y-113175000D01*
X37693750Y-113175000D01*
X37850000Y-113018750D01*
X37853024Y-112825000D01*
X37840957Y-112702479D01*
X37805219Y-112584666D01*
X37747183Y-112476089D01*
X37707737Y-112428024D01*
X38250000Y-112428024D01*
X38372521Y-112415957D01*
X38490334Y-112380219D01*
X38598911Y-112322183D01*
X38694080Y-112244080D01*
X38772183Y-112148911D01*
X38830219Y-112040334D01*
X38865957Y-111922521D01*
X38878024Y-111800000D01*
X38878024Y-109797281D01*
X39087477Y-109587828D01*
X39101234Y-109576538D01*
X39321976Y-109797280D01*
X39321976Y-109797280D01*
G37*
X39321976Y-109797280D02*
X39321976Y-111800000D01*
X39334043Y-111922521D01*
X39369781Y-112040334D01*
X39427817Y-112148911D01*
X39505920Y-112244080D01*
X39601089Y-112322183D01*
X39709666Y-112380219D01*
X39827479Y-112415957D01*
X39950000Y-112428024D01*
X43450000Y-112428024D01*
X43572521Y-112415957D01*
X43637738Y-112396174D01*
X43644990Y-112405010D01*
X43773308Y-112510317D01*
X43919704Y-112588567D01*
X44078553Y-112636753D01*
X44243750Y-112653024D01*
X44721672Y-112653024D01*
X44304973Y-113069723D01*
X44192125Y-113035491D01*
X44085607Y-113025000D01*
X41550941Y-113025000D01*
X41523911Y-113002817D01*
X41415334Y-112944781D01*
X41297521Y-112909043D01*
X41175000Y-112896976D01*
X39725000Y-112896976D01*
X39602479Y-112909043D01*
X39484666Y-112944781D01*
X39376089Y-113002817D01*
X39280920Y-113080920D01*
X39202817Y-113176089D01*
X39144781Y-113284666D01*
X39109043Y-113402479D01*
X39096976Y-113525000D01*
X39096976Y-113975000D01*
X39106825Y-114075000D01*
X39096976Y-114175000D01*
X39096976Y-114325000D01*
X38825000Y-114325000D01*
X38825000Y-114299046D01*
X38785610Y-114101018D01*
X38708344Y-113914480D01*
X38596170Y-113746600D01*
X38453400Y-113603830D01*
X38285520Y-113491656D01*
X38098982Y-113414390D01*
X37900954Y-113375000D01*
X37699046Y-113375000D01*
X37501018Y-113414390D01*
X37475403Y-113425000D01*
X36912500Y-113425000D01*
X36912500Y-113445000D01*
X36662500Y-113445000D01*
X36662500Y-113425000D01*
X36642500Y-113425000D01*
X36642500Y-113175000D01*
X36662500Y-113175000D01*
X36662500Y-113155000D01*
X36912500Y-113155000D01*
X36912500Y-113175000D01*
X37693750Y-113175000D01*
X37850000Y-113018750D01*
X37853024Y-112825000D01*
X37840957Y-112702479D01*
X37805219Y-112584666D01*
X37747183Y-112476089D01*
X37707737Y-112428024D01*
X38250000Y-112428024D01*
X38372521Y-112415957D01*
X38490334Y-112380219D01*
X38598911Y-112322183D01*
X38694080Y-112244080D01*
X38772183Y-112148911D01*
X38830219Y-112040334D01*
X38865957Y-111922521D01*
X38878024Y-111800000D01*
X38878024Y-109797281D01*
X39087477Y-109587828D01*
X39101234Y-109576538D01*
X39321976Y-109797280D01*
G36*
X33994990Y-108655010D02*
G01*
X34123308Y-108760317D01*
X34269704Y-108838567D01*
X34400551Y-108878259D01*
X34305920Y-108955920D01*
X34227817Y-109051089D01*
X34169781Y-109159666D01*
X34134043Y-109277479D01*
X34121976Y-109400000D01*
X34121976Y-111800000D01*
X34134043Y-111922521D01*
X34169781Y-112040334D01*
X34227817Y-112148911D01*
X34305920Y-112244080D01*
X34401089Y-112322183D01*
X34487501Y-112368371D01*
X34487501Y-112369069D01*
X34394990Y-112444990D01*
X34289683Y-112573308D01*
X34211433Y-112719704D01*
X34163247Y-112878553D01*
X34146976Y-113043750D01*
X34146976Y-113438827D01*
X32751764Y-112043616D01*
X32821447Y-112036753D01*
X32980296Y-111988567D01*
X33126692Y-111910317D01*
X33255010Y-111805010D01*
X33360317Y-111676692D01*
X33438567Y-111530296D01*
X33486753Y-111371447D01*
X33503024Y-111206250D01*
X33503024Y-110768750D01*
X33486753Y-110603553D01*
X33438567Y-110444704D01*
X33360317Y-110298308D01*
X33279638Y-110200000D01*
X33360317Y-110101692D01*
X33438567Y-109955296D01*
X33486753Y-109796447D01*
X33503024Y-109631250D01*
X33503024Y-109193750D01*
X33486753Y-109028553D01*
X33438567Y-108869704D01*
X33403744Y-108804554D01*
X33498982Y-108785610D01*
X33685520Y-108708344D01*
X33853400Y-108596170D01*
X33904646Y-108544924D01*
X33994990Y-108655010D01*
X33994990Y-108655010D01*
G37*
X33994990Y-108655010D02*
X34123308Y-108760317D01*
X34269704Y-108838567D01*
X34400551Y-108878259D01*
X34305920Y-108955920D01*
X34227817Y-109051089D01*
X34169781Y-109159666D01*
X34134043Y-109277479D01*
X34121976Y-109400000D01*
X34121976Y-111800000D01*
X34134043Y-111922521D01*
X34169781Y-112040334D01*
X34227817Y-112148911D01*
X34305920Y-112244080D01*
X34401089Y-112322183D01*
X34487501Y-112368371D01*
X34487501Y-112369069D01*
X34394990Y-112444990D01*
X34289683Y-112573308D01*
X34211433Y-112719704D01*
X34163247Y-112878553D01*
X34146976Y-113043750D01*
X34146976Y-113438827D01*
X32751764Y-112043616D01*
X32821447Y-112036753D01*
X32980296Y-111988567D01*
X33126692Y-111910317D01*
X33255010Y-111805010D01*
X33360317Y-111676692D01*
X33438567Y-111530296D01*
X33486753Y-111371447D01*
X33503024Y-111206250D01*
X33503024Y-110768750D01*
X33486753Y-110603553D01*
X33438567Y-110444704D01*
X33360317Y-110298308D01*
X33279638Y-110200000D01*
X33360317Y-110101692D01*
X33438567Y-109955296D01*
X33486753Y-109796447D01*
X33503024Y-109631250D01*
X33503024Y-109193750D01*
X33486753Y-109028553D01*
X33438567Y-108869704D01*
X33403744Y-108804554D01*
X33498982Y-108785610D01*
X33685520Y-108708344D01*
X33853400Y-108596170D01*
X33904646Y-108544924D01*
X33994990Y-108655010D01*
G36*
X48821976Y-111350000D02*
G01*
X48822220Y-111352475D01*
X47612523Y-112562173D01*
X47584869Y-112584868D01*
X47562173Y-112612523D01*
X47562170Y-112612526D01*
X47494269Y-112695264D01*
X47426947Y-112821213D01*
X47385492Y-112957876D01*
X47383240Y-112980736D01*
X47306570Y-112941228D01*
X47188232Y-112907268D01*
X47065543Y-112897047D01*
X46631250Y-112900000D01*
X46475002Y-113056248D01*
X46475002Y-112950302D01*
X48821976Y-110603329D01*
X48821976Y-111350000D01*
X48821976Y-111350000D01*
G37*
X48821976Y-111350000D02*
X48822220Y-111352475D01*
X47612523Y-112562173D01*
X47584869Y-112584868D01*
X47562173Y-112612523D01*
X47562170Y-112612526D01*
X47494269Y-112695264D01*
X47426947Y-112821213D01*
X47385492Y-112957876D01*
X47383240Y-112980736D01*
X47306570Y-112941228D01*
X47188232Y-112907268D01*
X47065543Y-112897047D01*
X46631250Y-112900000D01*
X46475002Y-113056248D01*
X46475002Y-112950302D01*
X48821976Y-110603329D01*
X48821976Y-111350000D01*
G36*
X45603024Y-111771672D02*
G01*
X45603024Y-111368750D01*
X45586753Y-111203553D01*
X45538567Y-111044704D01*
X45460317Y-110898308D01*
X45437964Y-110871070D01*
X45497183Y-110798911D01*
X45555219Y-110690334D01*
X45590957Y-110572521D01*
X45603024Y-110450000D01*
X45600000Y-110293750D01*
X45443750Y-110137500D01*
X44625000Y-110137500D01*
X44625000Y-110157500D01*
X44375000Y-110157500D01*
X44375000Y-110137500D01*
X44355000Y-110137500D01*
X44355000Y-109887500D01*
X44375000Y-109887500D01*
X44375000Y-109867500D01*
X44625000Y-109867500D01*
X44625000Y-109887500D01*
X45443750Y-109887500D01*
X45600000Y-109731250D01*
X45603024Y-109575000D01*
X45590957Y-109452479D01*
X45575038Y-109400000D01*
X47974695Y-109400000D01*
X45603024Y-111771672D01*
X45603024Y-111771672D01*
G37*
X45603024Y-111771672D02*
X45603024Y-111368750D01*
X45586753Y-111203553D01*
X45538567Y-111044704D01*
X45460317Y-110898308D01*
X45437964Y-110871070D01*
X45497183Y-110798911D01*
X45555219Y-110690334D01*
X45590957Y-110572521D01*
X45603024Y-110450000D01*
X45600000Y-110293750D01*
X45443750Y-110137500D01*
X44625000Y-110137500D01*
X44625000Y-110157500D01*
X44375000Y-110157500D01*
X44375000Y-110137500D01*
X44355000Y-110137500D01*
X44355000Y-109887500D01*
X44375000Y-109887500D01*
X44375000Y-109867500D01*
X44625000Y-109867500D01*
X44625000Y-109887500D01*
X45443750Y-109887500D01*
X45600000Y-109731250D01*
X45603024Y-109575000D01*
X45590957Y-109452479D01*
X45575038Y-109400000D01*
X47974695Y-109400000D01*
X45603024Y-111771672D01*
G36*
X37802817Y-106998911D02*
G01*
X37875000Y-107086867D01*
X37875001Y-108749694D01*
X37852719Y-108771976D01*
X37054879Y-108771976D01*
X37076692Y-108760317D01*
X37205010Y-108655010D01*
X37310317Y-108526692D01*
X37388567Y-108380296D01*
X37436753Y-108221447D01*
X37453024Y-108056250D01*
X37453024Y-107759781D01*
X37487482Y-107725323D01*
X37515131Y-107702632D01*
X37537823Y-107674982D01*
X37537830Y-107674975D01*
X37605731Y-107592237D01*
X37673053Y-107466288D01*
X37676255Y-107455731D01*
X37714509Y-107329625D01*
X37725000Y-107223107D01*
X37725000Y-107223097D01*
X37728506Y-107187500D01*
X37725000Y-107151903D01*
X37725000Y-107086866D01*
X37797183Y-106998911D01*
X37800000Y-106993641D01*
X37802817Y-106998911D01*
X37802817Y-106998911D01*
G37*
X37802817Y-106998911D02*
X37875000Y-107086867D01*
X37875001Y-108749694D01*
X37852719Y-108771976D01*
X37054879Y-108771976D01*
X37076692Y-108760317D01*
X37205010Y-108655010D01*
X37310317Y-108526692D01*
X37388567Y-108380296D01*
X37436753Y-108221447D01*
X37453024Y-108056250D01*
X37453024Y-107759781D01*
X37487482Y-107725323D01*
X37515131Y-107702632D01*
X37537823Y-107674982D01*
X37537830Y-107674975D01*
X37605731Y-107592237D01*
X37673053Y-107466288D01*
X37676255Y-107455731D01*
X37714509Y-107329625D01*
X37725000Y-107223107D01*
X37725000Y-107223097D01*
X37728506Y-107187500D01*
X37725000Y-107151903D01*
X37725000Y-107086866D01*
X37797183Y-106998911D01*
X37800000Y-106993641D01*
X37802817Y-106998911D01*
G36*
X43825125Y-104018875D02*
G01*
X43827817Y-104023911D01*
X43905920Y-104119080D01*
X44001089Y-104197183D01*
X44109666Y-104255219D01*
X44227479Y-104290957D01*
X44350000Y-104303024D01*
X45245000Y-104303024D01*
X45245000Y-104325000D01*
X45225000Y-104325000D01*
X45225000Y-104345000D01*
X44975000Y-104345000D01*
X44975000Y-104325000D01*
X43881250Y-104325000D01*
X43725000Y-104481250D01*
X43728665Y-104527261D01*
X43675000Y-104521976D01*
X43253328Y-104521976D01*
X43790777Y-103984527D01*
X43825125Y-104018875D01*
X43825125Y-104018875D01*
G37*
X43825125Y-104018875D02*
X43827817Y-104023911D01*
X43905920Y-104119080D01*
X44001089Y-104197183D01*
X44109666Y-104255219D01*
X44227479Y-104290957D01*
X44350000Y-104303024D01*
X45245000Y-104303024D01*
X45245000Y-104325000D01*
X45225000Y-104325000D01*
X45225000Y-104345000D01*
X44975000Y-104345000D01*
X44975000Y-104325000D01*
X43881250Y-104325000D01*
X43725000Y-104481250D01*
X43728665Y-104527261D01*
X43675000Y-104521976D01*
X43253328Y-104521976D01*
X43790777Y-103984527D01*
X43825125Y-104018875D01*
G36*
X35994269Y-97904736D02*
G01*
X36062170Y-97987474D01*
X36062171Y-97987475D01*
X36084869Y-98015132D01*
X36112523Y-98037827D01*
X36375000Y-98300304D01*
X36375000Y-98400954D01*
X36414390Y-98598982D01*
X36491656Y-98785520D01*
X36603830Y-98953400D01*
X36746600Y-99096170D01*
X36914480Y-99208344D01*
X37101018Y-99285610D01*
X37299046Y-99325000D01*
X37500954Y-99325000D01*
X37698982Y-99285610D01*
X37885520Y-99208344D01*
X38053400Y-99096170D01*
X38196170Y-98953400D01*
X38308344Y-98785520D01*
X38385610Y-98598982D01*
X38400000Y-98526638D01*
X38414390Y-98598982D01*
X38491656Y-98785520D01*
X38603830Y-98953400D01*
X38746600Y-99096170D01*
X38914480Y-99208344D01*
X39101018Y-99285610D01*
X39173362Y-99300000D01*
X39101018Y-99314390D01*
X38914480Y-99391656D01*
X38746600Y-99503830D01*
X38603830Y-99646600D01*
X38491656Y-99814480D01*
X38414390Y-100001018D01*
X38375000Y-100199046D01*
X38375000Y-100400954D01*
X38414390Y-100598982D01*
X38491656Y-100785520D01*
X38603830Y-100953400D01*
X38746600Y-101096170D01*
X38914480Y-101208344D01*
X39101018Y-101285610D01*
X39173362Y-101300000D01*
X39101018Y-101314390D01*
X38914480Y-101391656D01*
X38746600Y-101503830D01*
X38603830Y-101646600D01*
X38491656Y-101814480D01*
X38414390Y-102001018D01*
X38400000Y-102073362D01*
X38385610Y-102001018D01*
X38308344Y-101814480D01*
X38196170Y-101646600D01*
X38053400Y-101503830D01*
X37885520Y-101391656D01*
X37698982Y-101314390D01*
X37500954Y-101275000D01*
X37299046Y-101275000D01*
X37101018Y-101314390D01*
X36914480Y-101391656D01*
X36746600Y-101503830D01*
X36603830Y-101646600D01*
X36491656Y-101814480D01*
X36414390Y-102001018D01*
X36375000Y-102199046D01*
X36375000Y-102400954D01*
X36414390Y-102598982D01*
X36491656Y-102785520D01*
X36530717Y-102843979D01*
X36203924Y-103170771D01*
X36085520Y-103091656D01*
X35969529Y-103043611D01*
X36008344Y-102985520D01*
X36085610Y-102798982D01*
X36125000Y-102600954D01*
X36125000Y-102399046D01*
X36085610Y-102201018D01*
X36008344Y-102014480D01*
X35929229Y-101896076D01*
X36000304Y-101825000D01*
X36100954Y-101825000D01*
X36298982Y-101785610D01*
X36485520Y-101708344D01*
X36653400Y-101596170D01*
X36796170Y-101453400D01*
X36908344Y-101285520D01*
X36985610Y-101098982D01*
X37025000Y-100900954D01*
X37025000Y-100699046D01*
X36985610Y-100501018D01*
X36908344Y-100314480D01*
X36796170Y-100146600D01*
X36653400Y-100003830D01*
X36485520Y-99891656D01*
X36298982Y-99814390D01*
X36100954Y-99775000D01*
X35981964Y-99775000D01*
X35896170Y-99646600D01*
X35753400Y-99503830D01*
X35585520Y-99391656D01*
X35398982Y-99314390D01*
X35200954Y-99275000D01*
X35075000Y-99275000D01*
X35075000Y-99274998D01*
X34930257Y-99274998D01*
X34972183Y-99223911D01*
X34974875Y-99218875D01*
X35075000Y-99118750D01*
X35065594Y-99000667D01*
X35065297Y-98999697D01*
X35065957Y-98997521D01*
X35078024Y-98875000D01*
X35078024Y-98325000D01*
X35068175Y-98225000D01*
X35200954Y-98225000D01*
X35398982Y-98185610D01*
X35585520Y-98108344D01*
X35753400Y-97996170D01*
X35896170Y-97853400D01*
X35935426Y-97794650D01*
X35994269Y-97904736D01*
X35994269Y-97904736D01*
G37*
X35994269Y-97904736D02*
X36062170Y-97987474D01*
X36062171Y-97987475D01*
X36084869Y-98015132D01*
X36112523Y-98037827D01*
X36375000Y-98300304D01*
X36375000Y-98400954D01*
X36414390Y-98598982D01*
X36491656Y-98785520D01*
X36603830Y-98953400D01*
X36746600Y-99096170D01*
X36914480Y-99208344D01*
X37101018Y-99285610D01*
X37299046Y-99325000D01*
X37500954Y-99325000D01*
X37698982Y-99285610D01*
X37885520Y-99208344D01*
X38053400Y-99096170D01*
X38196170Y-98953400D01*
X38308344Y-98785520D01*
X38385610Y-98598982D01*
X38400000Y-98526638D01*
X38414390Y-98598982D01*
X38491656Y-98785520D01*
X38603830Y-98953400D01*
X38746600Y-99096170D01*
X38914480Y-99208344D01*
X39101018Y-99285610D01*
X39173362Y-99300000D01*
X39101018Y-99314390D01*
X38914480Y-99391656D01*
X38746600Y-99503830D01*
X38603830Y-99646600D01*
X38491656Y-99814480D01*
X38414390Y-100001018D01*
X38375000Y-100199046D01*
X38375000Y-100400954D01*
X38414390Y-100598982D01*
X38491656Y-100785520D01*
X38603830Y-100953400D01*
X38746600Y-101096170D01*
X38914480Y-101208344D01*
X39101018Y-101285610D01*
X39173362Y-101300000D01*
X39101018Y-101314390D01*
X38914480Y-101391656D01*
X38746600Y-101503830D01*
X38603830Y-101646600D01*
X38491656Y-101814480D01*
X38414390Y-102001018D01*
X38400000Y-102073362D01*
X38385610Y-102001018D01*
X38308344Y-101814480D01*
X38196170Y-101646600D01*
X38053400Y-101503830D01*
X37885520Y-101391656D01*
X37698982Y-101314390D01*
X37500954Y-101275000D01*
X37299046Y-101275000D01*
X37101018Y-101314390D01*
X36914480Y-101391656D01*
X36746600Y-101503830D01*
X36603830Y-101646600D01*
X36491656Y-101814480D01*
X36414390Y-102001018D01*
X36375000Y-102199046D01*
X36375000Y-102400954D01*
X36414390Y-102598982D01*
X36491656Y-102785520D01*
X36530717Y-102843979D01*
X36203924Y-103170771D01*
X36085520Y-103091656D01*
X35969529Y-103043611D01*
X36008344Y-102985520D01*
X36085610Y-102798982D01*
X36125000Y-102600954D01*
X36125000Y-102399046D01*
X36085610Y-102201018D01*
X36008344Y-102014480D01*
X35929229Y-101896076D01*
X36000304Y-101825000D01*
X36100954Y-101825000D01*
X36298982Y-101785610D01*
X36485520Y-101708344D01*
X36653400Y-101596170D01*
X36796170Y-101453400D01*
X36908344Y-101285520D01*
X36985610Y-101098982D01*
X37025000Y-100900954D01*
X37025000Y-100699046D01*
X36985610Y-100501018D01*
X36908344Y-100314480D01*
X36796170Y-100146600D01*
X36653400Y-100003830D01*
X36485520Y-99891656D01*
X36298982Y-99814390D01*
X36100954Y-99775000D01*
X35981964Y-99775000D01*
X35896170Y-99646600D01*
X35753400Y-99503830D01*
X35585520Y-99391656D01*
X35398982Y-99314390D01*
X35200954Y-99275000D01*
X35075000Y-99275000D01*
X35075000Y-99274998D01*
X34930257Y-99274998D01*
X34972183Y-99223911D01*
X34974875Y-99218875D01*
X35075000Y-99118750D01*
X35065594Y-99000667D01*
X35065297Y-98999697D01*
X35065957Y-98997521D01*
X35078024Y-98875000D01*
X35078024Y-98325000D01*
X35068175Y-98225000D01*
X35200954Y-98225000D01*
X35398982Y-98185610D01*
X35585520Y-98108344D01*
X35753400Y-97996170D01*
X35896170Y-97853400D01*
X35935426Y-97794650D01*
X35994269Y-97904736D01*
G36*
X32025000Y-99587500D02*
G01*
X32045000Y-99587500D01*
X32045000Y-99750835D01*
X31938335Y-99857500D01*
X31775000Y-99857500D01*
X31775000Y-99837500D01*
X31755000Y-99837500D01*
X31755000Y-99587500D01*
X31775000Y-99587500D01*
X31775000Y-99567500D01*
X32025000Y-99567500D01*
X32025000Y-99587500D01*
X32025000Y-99587500D01*
G37*
X32025000Y-99587500D02*
X32045000Y-99587500D01*
X32045000Y-99750835D01*
X31938335Y-99857500D01*
X31775000Y-99857500D01*
X31775000Y-99837500D01*
X31755000Y-99837500D01*
X31755000Y-99587500D01*
X31775000Y-99587500D01*
X31775000Y-99567500D01*
X32025000Y-99567500D01*
X32025000Y-99587500D01*
G36*
X35800667Y-95865594D02*
G01*
X35884076Y-95872238D01*
X35875000Y-95964394D01*
X35875000Y-95964403D01*
X35871494Y-96000000D01*
X35875000Y-96035597D01*
X35875000Y-96525430D01*
X35753400Y-96403830D01*
X35585520Y-96291656D01*
X35398982Y-96214390D01*
X35200954Y-96175000D01*
X35078024Y-96175000D01*
X35078024Y-95925000D01*
X35072892Y-95872892D01*
X35125000Y-95878024D01*
X35675000Y-95878024D01*
X35797521Y-95865957D01*
X35799697Y-95865297D01*
X35800667Y-95865594D01*
X35800667Y-95865594D01*
G37*
X35800667Y-95865594D02*
X35884076Y-95872238D01*
X35875000Y-95964394D01*
X35875000Y-95964403D01*
X35871494Y-96000000D01*
X35875000Y-96035597D01*
X35875000Y-96525430D01*
X35753400Y-96403830D01*
X35585520Y-96291656D01*
X35398982Y-96214390D01*
X35200954Y-96175000D01*
X35078024Y-96175000D01*
X35078024Y-95925000D01*
X35072892Y-95872892D01*
X35125000Y-95878024D01*
X35675000Y-95878024D01*
X35797521Y-95865957D01*
X35799697Y-95865297D01*
X35800667Y-95865594D01*
G36*
X48037500Y-86975000D02*
G01*
X48057500Y-86975000D01*
X48057500Y-87225000D01*
X48037500Y-87225000D01*
X48037500Y-88043750D01*
X48193750Y-88200000D01*
X48350000Y-88203024D01*
X48444278Y-88193739D01*
X48434043Y-88227479D01*
X48421976Y-88350000D01*
X48421976Y-88889911D01*
X48394080Y-88855920D01*
X48298911Y-88777817D01*
X48190334Y-88719781D01*
X48072521Y-88684043D01*
X47950000Y-88671976D01*
X47781250Y-88675000D01*
X47625000Y-88831250D01*
X47625000Y-89575000D01*
X48418750Y-89575000D01*
X48516330Y-89477420D01*
X48527817Y-89498911D01*
X48605920Y-89594080D01*
X48701089Y-89672183D01*
X48753131Y-89700000D01*
X48701089Y-89727817D01*
X48605920Y-89805920D01*
X48527817Y-89901089D01*
X48516330Y-89922580D01*
X48418750Y-89825000D01*
X47625000Y-89825000D01*
X47625000Y-90568750D01*
X47781250Y-90725000D01*
X47950000Y-90728024D01*
X48072521Y-90715957D01*
X48190334Y-90680219D01*
X48298911Y-90622183D01*
X48394080Y-90544080D01*
X48421976Y-90510089D01*
X48421976Y-91050000D01*
X48434043Y-91172521D01*
X48444278Y-91206261D01*
X48350000Y-91196976D01*
X48193750Y-91200000D01*
X48037500Y-91356250D01*
X48037500Y-92175000D01*
X48057500Y-92175000D01*
X48057500Y-92425000D01*
X48037500Y-92425000D01*
X48037500Y-92445000D01*
X47787500Y-92445000D01*
X47787500Y-92425000D01*
X47767500Y-92425000D01*
X47767500Y-92175000D01*
X47787500Y-92175000D01*
X47787500Y-91356250D01*
X47631250Y-91200000D01*
X47475000Y-91196976D01*
X47352479Y-91209043D01*
X47234666Y-91244781D01*
X47225000Y-91249948D01*
X47225000Y-90718750D01*
X47375000Y-90568750D01*
X47375000Y-89825000D01*
X47355000Y-89825000D01*
X47355000Y-89575000D01*
X47375000Y-89575000D01*
X47375000Y-88831250D01*
X47225000Y-88681250D01*
X47225000Y-88150052D01*
X47234666Y-88155219D01*
X47352479Y-88190957D01*
X47475000Y-88203024D01*
X47631250Y-88200000D01*
X47787500Y-88043750D01*
X47787500Y-87225000D01*
X47767500Y-87225000D01*
X47767500Y-86975000D01*
X47787500Y-86975000D01*
X47787500Y-86955000D01*
X48037500Y-86955000D01*
X48037500Y-86975000D01*
X48037500Y-86975000D01*
G37*
X48037500Y-86975000D02*
X48057500Y-86975000D01*
X48057500Y-87225000D01*
X48037500Y-87225000D01*
X48037500Y-88043750D01*
X48193750Y-88200000D01*
X48350000Y-88203024D01*
X48444278Y-88193739D01*
X48434043Y-88227479D01*
X48421976Y-88350000D01*
X48421976Y-88889911D01*
X48394080Y-88855920D01*
X48298911Y-88777817D01*
X48190334Y-88719781D01*
X48072521Y-88684043D01*
X47950000Y-88671976D01*
X47781250Y-88675000D01*
X47625000Y-88831250D01*
X47625000Y-89575000D01*
X48418750Y-89575000D01*
X48516330Y-89477420D01*
X48527817Y-89498911D01*
X48605920Y-89594080D01*
X48701089Y-89672183D01*
X48753131Y-89700000D01*
X48701089Y-89727817D01*
X48605920Y-89805920D01*
X48527817Y-89901089D01*
X48516330Y-89922580D01*
X48418750Y-89825000D01*
X47625000Y-89825000D01*
X47625000Y-90568750D01*
X47781250Y-90725000D01*
X47950000Y-90728024D01*
X48072521Y-90715957D01*
X48190334Y-90680219D01*
X48298911Y-90622183D01*
X48394080Y-90544080D01*
X48421976Y-90510089D01*
X48421976Y-91050000D01*
X48434043Y-91172521D01*
X48444278Y-91206261D01*
X48350000Y-91196976D01*
X48193750Y-91200000D01*
X48037500Y-91356250D01*
X48037500Y-92175000D01*
X48057500Y-92175000D01*
X48057500Y-92425000D01*
X48037500Y-92425000D01*
X48037500Y-92445000D01*
X47787500Y-92445000D01*
X47787500Y-92425000D01*
X47767500Y-92425000D01*
X47767500Y-92175000D01*
X47787500Y-92175000D01*
X47787500Y-91356250D01*
X47631250Y-91200000D01*
X47475000Y-91196976D01*
X47352479Y-91209043D01*
X47234666Y-91244781D01*
X47225000Y-91249948D01*
X47225000Y-90718750D01*
X47375000Y-90568750D01*
X47375000Y-89825000D01*
X47355000Y-89825000D01*
X47355000Y-89575000D01*
X47375000Y-89575000D01*
X47375000Y-88831250D01*
X47225000Y-88681250D01*
X47225000Y-88150052D01*
X47234666Y-88155219D01*
X47352479Y-88190957D01*
X47475000Y-88203024D01*
X47631250Y-88200000D01*
X47787500Y-88043750D01*
X47787500Y-87225000D01*
X47767500Y-87225000D01*
X47767500Y-86975000D01*
X47787500Y-86975000D01*
X47787500Y-86955000D01*
X48037500Y-86955000D01*
X48037500Y-86975000D01*
M02*
