G04 #@! TF.GenerationSoftware,KiCad,Pcbnew,(5.1.2)-2*
G04 #@! TF.CreationDate,2019-07-11T09:04:51+02:00*
G04 #@! TF.ProjectId,ATM32U4_backpack,41544d33-3255-4345-9f62-61636b706163,rev?*
G04 #@! TF.SameCoordinates,Original*
G04 #@! TF.FileFunction,Soldermask,Bot*
G04 #@! TF.FilePolarity,Negative*
%FSLAX46Y46*%
G04 Gerber Fmt 4.6, Leading zero omitted, Abs format (unit mm)*
G04 Created by KiCad (PCBNEW (5.1.2)-2) date 2019-07-11 09:04:51*
%MOMM*%
%LPD*%
G04 APERTURE LIST*
%ADD10C,0.010000*%
%ADD11C,0.100000*%
G04 APERTURE END LIST*
D10*
G36*
X35712081Y-71512640D02*
G01*
X34766183Y-71825473D01*
X34482103Y-71950277D01*
X33838274Y-72313902D01*
X33336729Y-72747037D01*
X32958545Y-73267376D01*
X32850895Y-73475333D01*
X32757421Y-73687867D01*
X32694816Y-73883714D01*
X32657001Y-74105008D01*
X32637894Y-74393888D01*
X32631417Y-74792488D01*
X32631000Y-74999333D01*
X32643245Y-75590491D01*
X32690667Y-76075422D01*
X32789295Y-76485255D01*
X32955156Y-76851121D01*
X33204281Y-77204150D01*
X33552699Y-77575471D01*
X34016437Y-77996215D01*
X34297282Y-78235456D01*
X34575640Y-78501906D01*
X34816008Y-78788996D01*
X34950630Y-79003020D01*
X35076806Y-79351007D01*
X35123085Y-79680932D01*
X35087282Y-79946732D01*
X35001667Y-80079333D01*
X34885386Y-80217107D01*
X34929727Y-80302538D01*
X35133759Y-80334024D01*
X35149833Y-80334160D01*
X35382875Y-80370896D01*
X35682378Y-80464176D01*
X35869500Y-80541932D01*
X36314000Y-80748876D01*
X36314000Y-80529447D01*
X36322154Y-80405307D01*
X36374077Y-80346079D01*
X36510963Y-80337194D01*
X36774002Y-80364083D01*
X36779667Y-80364749D01*
X37085494Y-80382497D01*
X37238396Y-80350446D01*
X37244759Y-80276196D01*
X37110964Y-80167347D01*
X36843398Y-80031499D01*
X36448443Y-79876252D01*
X36336669Y-79837379D01*
X35679000Y-79613666D01*
X35653731Y-79082089D01*
X35646429Y-78781290D01*
X35672045Y-78588641D01*
X35748374Y-78443637D01*
X35885753Y-78293221D01*
X36153068Y-78102804D01*
X36400460Y-78070999D01*
X36615812Y-78187266D01*
X36787008Y-78441062D01*
X36901929Y-78821848D01*
X36945395Y-79215035D01*
X36966800Y-79698333D01*
X37291802Y-79751171D01*
X37637841Y-79885425D01*
X37811648Y-80047504D01*
X38006492Y-80291000D01*
X38006913Y-80010127D01*
X38020114Y-79822971D01*
X38081632Y-79764741D01*
X38197833Y-79787025D01*
X38402793Y-79887971D01*
X38578833Y-80019156D01*
X38769333Y-80193517D01*
X38769333Y-80015921D01*
X38692981Y-79766871D01*
X38491163Y-79525469D01*
X38204735Y-79331145D01*
X37967577Y-79242147D01*
X37785863Y-79193428D01*
X37664624Y-79134764D01*
X37584353Y-79032372D01*
X37525540Y-78852469D01*
X37468676Y-78561271D01*
X37424406Y-78301541D01*
X37387918Y-77986404D01*
X37407293Y-77811178D01*
X37428699Y-77784660D01*
X37534890Y-77754500D01*
X37780513Y-77701391D01*
X38138060Y-77630762D01*
X38580024Y-77548042D01*
X39078898Y-77458660D01*
X39093117Y-77456167D01*
X40035837Y-77281097D01*
X40827053Y-77111267D01*
X41484263Y-76941284D01*
X42024961Y-76765755D01*
X42466645Y-76579289D01*
X42826810Y-76376494D01*
X43002667Y-76251269D01*
X43198961Y-76055169D01*
X43387785Y-75796924D01*
X43532019Y-75535106D01*
X43594540Y-75328285D01*
X43594900Y-75316833D01*
X43656784Y-75198638D01*
X43815467Y-75168666D01*
X44046367Y-75095691D01*
X44313063Y-74890870D01*
X44334037Y-74870230D01*
X44509949Y-74679764D01*
X44591494Y-74521632D01*
X44604413Y-74330024D01*
X44497187Y-74330024D01*
X44396292Y-74633192D01*
X44210837Y-74872767D01*
X43969574Y-75026685D01*
X43701252Y-75072883D01*
X43434623Y-74989295D01*
X43307659Y-74888689D01*
X43152999Y-74714080D01*
X43057508Y-74571189D01*
X43002415Y-74491335D01*
X42947826Y-74571189D01*
X42770052Y-74821103D01*
X42518274Y-75007797D01*
X42256995Y-75083919D01*
X42249237Y-75084000D01*
X41943607Y-75012585D01*
X41711692Y-74823742D01*
X41560248Y-74555575D01*
X41496026Y-74246186D01*
X41525780Y-73933679D01*
X41656263Y-73656155D01*
X41894229Y-73451719D01*
X41954869Y-73423141D01*
X42276120Y-73357522D01*
X42565173Y-73450749D01*
X42833704Y-73701843D01*
X42975884Y-73844384D01*
X43057015Y-73848853D01*
X43063167Y-73836299D01*
X43237970Y-73569682D01*
X43509691Y-73382756D01*
X43643423Y-73341087D01*
X43913700Y-73366958D01*
X44178915Y-73517878D01*
X44389138Y-73755613D01*
X44484772Y-73985328D01*
X44497187Y-74330024D01*
X44604413Y-74330024D01*
X44605088Y-74320027D01*
X44590448Y-74134425D01*
X44539910Y-73832176D01*
X44436931Y-73622132D01*
X44282209Y-73459195D01*
X44052173Y-73312143D01*
X43791512Y-73228325D01*
X43554943Y-73217069D01*
X43397185Y-73287708D01*
X43383677Y-73305982D01*
X43293683Y-73307174D01*
X43118465Y-73211292D01*
X42989159Y-73115482D01*
X42842416Y-73001958D01*
X42710832Y-72923600D01*
X42558119Y-72872300D01*
X42347985Y-72839947D01*
X42044140Y-72818432D01*
X41610294Y-72799645D01*
X41568435Y-72798000D01*
X40489913Y-72755666D01*
X40031790Y-72405289D01*
X39242518Y-71900826D01*
X38409902Y-71558836D01*
X37539951Y-71379814D01*
X36638674Y-71364251D01*
X35712081Y-71512640D01*
X35712081Y-71512640D01*
G37*
X35712081Y-71512640D02*
X34766183Y-71825473D01*
X34482103Y-71950277D01*
X33838274Y-72313902D01*
X33336729Y-72747037D01*
X32958545Y-73267376D01*
X32850895Y-73475333D01*
X32757421Y-73687867D01*
X32694816Y-73883714D01*
X32657001Y-74105008D01*
X32637894Y-74393888D01*
X32631417Y-74792488D01*
X32631000Y-74999333D01*
X32643245Y-75590491D01*
X32690667Y-76075422D01*
X32789295Y-76485255D01*
X32955156Y-76851121D01*
X33204281Y-77204150D01*
X33552699Y-77575471D01*
X34016437Y-77996215D01*
X34297282Y-78235456D01*
X34575640Y-78501906D01*
X34816008Y-78788996D01*
X34950630Y-79003020D01*
X35076806Y-79351007D01*
X35123085Y-79680932D01*
X35087282Y-79946732D01*
X35001667Y-80079333D01*
X34885386Y-80217107D01*
X34929727Y-80302538D01*
X35133759Y-80334024D01*
X35149833Y-80334160D01*
X35382875Y-80370896D01*
X35682378Y-80464176D01*
X35869500Y-80541932D01*
X36314000Y-80748876D01*
X36314000Y-80529447D01*
X36322154Y-80405307D01*
X36374077Y-80346079D01*
X36510963Y-80337194D01*
X36774002Y-80364083D01*
X36779667Y-80364749D01*
X37085494Y-80382497D01*
X37238396Y-80350446D01*
X37244759Y-80276196D01*
X37110964Y-80167347D01*
X36843398Y-80031499D01*
X36448443Y-79876252D01*
X36336669Y-79837379D01*
X35679000Y-79613666D01*
X35653731Y-79082089D01*
X35646429Y-78781290D01*
X35672045Y-78588641D01*
X35748374Y-78443637D01*
X35885753Y-78293221D01*
X36153068Y-78102804D01*
X36400460Y-78070999D01*
X36615812Y-78187266D01*
X36787008Y-78441062D01*
X36901929Y-78821848D01*
X36945395Y-79215035D01*
X36966800Y-79698333D01*
X37291802Y-79751171D01*
X37637841Y-79885425D01*
X37811648Y-80047504D01*
X38006492Y-80291000D01*
X38006913Y-80010127D01*
X38020114Y-79822971D01*
X38081632Y-79764741D01*
X38197833Y-79787025D01*
X38402793Y-79887971D01*
X38578833Y-80019156D01*
X38769333Y-80193517D01*
X38769333Y-80015921D01*
X38692981Y-79766871D01*
X38491163Y-79525469D01*
X38204735Y-79331145D01*
X37967577Y-79242147D01*
X37785863Y-79193428D01*
X37664624Y-79134764D01*
X37584353Y-79032372D01*
X37525540Y-78852469D01*
X37468676Y-78561271D01*
X37424406Y-78301541D01*
X37387918Y-77986404D01*
X37407293Y-77811178D01*
X37428699Y-77784660D01*
X37534890Y-77754500D01*
X37780513Y-77701391D01*
X38138060Y-77630762D01*
X38580024Y-77548042D01*
X39078898Y-77458660D01*
X39093117Y-77456167D01*
X40035837Y-77281097D01*
X40827053Y-77111267D01*
X41484263Y-76941284D01*
X42024961Y-76765755D01*
X42466645Y-76579289D01*
X42826810Y-76376494D01*
X43002667Y-76251269D01*
X43198961Y-76055169D01*
X43387785Y-75796924D01*
X43532019Y-75535106D01*
X43594540Y-75328285D01*
X43594900Y-75316833D01*
X43656784Y-75198638D01*
X43815467Y-75168666D01*
X44046367Y-75095691D01*
X44313063Y-74890870D01*
X44334037Y-74870230D01*
X44509949Y-74679764D01*
X44591494Y-74521632D01*
X44604413Y-74330024D01*
X44497187Y-74330024D01*
X44396292Y-74633192D01*
X44210837Y-74872767D01*
X43969574Y-75026685D01*
X43701252Y-75072883D01*
X43434623Y-74989295D01*
X43307659Y-74888689D01*
X43152999Y-74714080D01*
X43057508Y-74571189D01*
X43002415Y-74491335D01*
X42947826Y-74571189D01*
X42770052Y-74821103D01*
X42518274Y-75007797D01*
X42256995Y-75083919D01*
X42249237Y-75084000D01*
X41943607Y-75012585D01*
X41711692Y-74823742D01*
X41560248Y-74555575D01*
X41496026Y-74246186D01*
X41525780Y-73933679D01*
X41656263Y-73656155D01*
X41894229Y-73451719D01*
X41954869Y-73423141D01*
X42276120Y-73357522D01*
X42565173Y-73450749D01*
X42833704Y-73701843D01*
X42975884Y-73844384D01*
X43057015Y-73848853D01*
X43063167Y-73836299D01*
X43237970Y-73569682D01*
X43509691Y-73382756D01*
X43643423Y-73341087D01*
X43913700Y-73366958D01*
X44178915Y-73517878D01*
X44389138Y-73755613D01*
X44484772Y-73985328D01*
X44497187Y-74330024D01*
X44604413Y-74330024D01*
X44605088Y-74320027D01*
X44590448Y-74134425D01*
X44539910Y-73832176D01*
X44436931Y-73622132D01*
X44282209Y-73459195D01*
X44052173Y-73312143D01*
X43791512Y-73228325D01*
X43554943Y-73217069D01*
X43397185Y-73287708D01*
X43383677Y-73305982D01*
X43293683Y-73307174D01*
X43118465Y-73211292D01*
X42989159Y-73115482D01*
X42842416Y-73001958D01*
X42710832Y-72923600D01*
X42558119Y-72872300D01*
X42347985Y-72839947D01*
X42044140Y-72818432D01*
X41610294Y-72799645D01*
X41568435Y-72798000D01*
X40489913Y-72755666D01*
X40031790Y-72405289D01*
X39242518Y-71900826D01*
X38409902Y-71558836D01*
X37539951Y-71379814D01*
X36638674Y-71364251D01*
X35712081Y-71512640D01*
G36*
X43418523Y-74046842D02*
G01*
X43267994Y-74190593D01*
X43177302Y-74344418D01*
X43172000Y-74379044D01*
X43235490Y-74506230D01*
X43378999Y-74647052D01*
X43532091Y-74737457D01*
X43574786Y-74745333D01*
X43704510Y-74690710D01*
X43800953Y-74612285D01*
X43908906Y-74456386D01*
X43934000Y-74364333D01*
X43868279Y-74200494D01*
X43719133Y-74049034D01*
X43560075Y-73983333D01*
X43418523Y-74046842D01*
X43418523Y-74046842D01*
G37*
X43418523Y-74046842D02*
X43267994Y-74190593D01*
X43177302Y-74344418D01*
X43172000Y-74379044D01*
X43235490Y-74506230D01*
X43378999Y-74647052D01*
X43532091Y-74737457D01*
X43574786Y-74745333D01*
X43704510Y-74690710D01*
X43800953Y-74612285D01*
X43908906Y-74456386D01*
X43934000Y-74364333D01*
X43868279Y-74200494D01*
X43719133Y-74049034D01*
X43560075Y-73983333D01*
X43418523Y-74046842D01*
G36*
X42293852Y-74035709D02*
G01*
X42142325Y-74185617D01*
X42104409Y-74286409D01*
X42109965Y-74524006D01*
X42230403Y-74683970D01*
X42419581Y-74741067D01*
X42631360Y-74670063D01*
X42700286Y-74612285D01*
X42812314Y-74468433D01*
X42805969Y-74335259D01*
X42679911Y-74151290D01*
X42490351Y-74020204D01*
X42293852Y-74035709D01*
X42293852Y-74035709D01*
G37*
X42293852Y-74035709D02*
X42142325Y-74185617D01*
X42104409Y-74286409D01*
X42109965Y-74524006D01*
X42230403Y-74683970D01*
X42419581Y-74741067D01*
X42631360Y-74670063D01*
X42700286Y-74612285D01*
X42812314Y-74468433D01*
X42805969Y-74335259D01*
X42679911Y-74151290D01*
X42490351Y-74020204D01*
X42293852Y-74035709D01*
D11*
G36*
X53741000Y-119041000D02*
G01*
X51939000Y-119041000D01*
X51939000Y-117239000D01*
X53741000Y-117239000D01*
X53741000Y-119041000D01*
X53741000Y-119041000D01*
G37*
G36*
X52950442Y-114685518D02*
G01*
X53016627Y-114692037D01*
X53186466Y-114743557D01*
X53342991Y-114827222D01*
X53378729Y-114856552D01*
X53480186Y-114939814D01*
X53563448Y-115041271D01*
X53592778Y-115077009D01*
X53676443Y-115233534D01*
X53727963Y-115403373D01*
X53745359Y-115580000D01*
X53727963Y-115756627D01*
X53676443Y-115926466D01*
X53592778Y-116082991D01*
X53563448Y-116118729D01*
X53480186Y-116220186D01*
X53378729Y-116303448D01*
X53342991Y-116332778D01*
X53186466Y-116416443D01*
X53016627Y-116467963D01*
X52950442Y-116474482D01*
X52884260Y-116481000D01*
X52795740Y-116481000D01*
X52729558Y-116474482D01*
X52663373Y-116467963D01*
X52493534Y-116416443D01*
X52337009Y-116332778D01*
X52301271Y-116303448D01*
X52199814Y-116220186D01*
X52116552Y-116118729D01*
X52087222Y-116082991D01*
X52003557Y-115926466D01*
X51952037Y-115756627D01*
X51934641Y-115580000D01*
X51952037Y-115403373D01*
X52003557Y-115233534D01*
X52087222Y-115077009D01*
X52116552Y-115041271D01*
X52199814Y-114939814D01*
X52301271Y-114856552D01*
X52337009Y-114827222D01*
X52493534Y-114743557D01*
X52663373Y-114692037D01*
X52729558Y-114685518D01*
X52795740Y-114679000D01*
X52884260Y-114679000D01*
X52950442Y-114685518D01*
X52950442Y-114685518D01*
G37*
G36*
X50410442Y-114685518D02*
G01*
X50476627Y-114692037D01*
X50646466Y-114743557D01*
X50802991Y-114827222D01*
X50838729Y-114856552D01*
X50940186Y-114939814D01*
X51023448Y-115041271D01*
X51052778Y-115077009D01*
X51136443Y-115233534D01*
X51187963Y-115403373D01*
X51205359Y-115580000D01*
X51187963Y-115756627D01*
X51136443Y-115926466D01*
X51052778Y-116082991D01*
X51023448Y-116118729D01*
X50940186Y-116220186D01*
X50838729Y-116303448D01*
X50802991Y-116332778D01*
X50646466Y-116416443D01*
X50476627Y-116467963D01*
X50410442Y-116474482D01*
X50344260Y-116481000D01*
X50255740Y-116481000D01*
X50189558Y-116474482D01*
X50123373Y-116467963D01*
X49953534Y-116416443D01*
X49797009Y-116332778D01*
X49761271Y-116303448D01*
X49659814Y-116220186D01*
X49576552Y-116118729D01*
X49547222Y-116082991D01*
X49463557Y-115926466D01*
X49412037Y-115756627D01*
X49394641Y-115580000D01*
X49412037Y-115403373D01*
X49463557Y-115233534D01*
X49547222Y-115077009D01*
X49576552Y-115041271D01*
X49659814Y-114939814D01*
X49761271Y-114856552D01*
X49797009Y-114827222D01*
X49953534Y-114743557D01*
X50123373Y-114692037D01*
X50189558Y-114685518D01*
X50255740Y-114679000D01*
X50344260Y-114679000D01*
X50410442Y-114685518D01*
X50410442Y-114685518D01*
G37*
G36*
X52950443Y-112145519D02*
G01*
X53016627Y-112152037D01*
X53186466Y-112203557D01*
X53342991Y-112287222D01*
X53378729Y-112316552D01*
X53480186Y-112399814D01*
X53563448Y-112501271D01*
X53592778Y-112537009D01*
X53676443Y-112693534D01*
X53727963Y-112863373D01*
X53745359Y-113040000D01*
X53727963Y-113216627D01*
X53676443Y-113386466D01*
X53592778Y-113542991D01*
X53563448Y-113578729D01*
X53480186Y-113680186D01*
X53378729Y-113763448D01*
X53342991Y-113792778D01*
X53186466Y-113876443D01*
X53016627Y-113927963D01*
X52950442Y-113934482D01*
X52884260Y-113941000D01*
X52795740Y-113941000D01*
X52729558Y-113934482D01*
X52663373Y-113927963D01*
X52493534Y-113876443D01*
X52337009Y-113792778D01*
X52301271Y-113763448D01*
X52199814Y-113680186D01*
X52116552Y-113578729D01*
X52087222Y-113542991D01*
X52003557Y-113386466D01*
X51952037Y-113216627D01*
X51934641Y-113040000D01*
X51952037Y-112863373D01*
X52003557Y-112693534D01*
X52087222Y-112537009D01*
X52116552Y-112501271D01*
X52199814Y-112399814D01*
X52301271Y-112316552D01*
X52337009Y-112287222D01*
X52493534Y-112203557D01*
X52663373Y-112152037D01*
X52729557Y-112145519D01*
X52795740Y-112139000D01*
X52884260Y-112139000D01*
X52950443Y-112145519D01*
X52950443Y-112145519D01*
G37*
G36*
X50410443Y-112145519D02*
G01*
X50476627Y-112152037D01*
X50646466Y-112203557D01*
X50802991Y-112287222D01*
X50838729Y-112316552D01*
X50940186Y-112399814D01*
X51023448Y-112501271D01*
X51052778Y-112537009D01*
X51136443Y-112693534D01*
X51187963Y-112863373D01*
X51205359Y-113040000D01*
X51187963Y-113216627D01*
X51136443Y-113386466D01*
X51052778Y-113542991D01*
X51023448Y-113578729D01*
X50940186Y-113680186D01*
X50838729Y-113763448D01*
X50802991Y-113792778D01*
X50646466Y-113876443D01*
X50476627Y-113927963D01*
X50410442Y-113934482D01*
X50344260Y-113941000D01*
X50255740Y-113941000D01*
X50189558Y-113934482D01*
X50123373Y-113927963D01*
X49953534Y-113876443D01*
X49797009Y-113792778D01*
X49761271Y-113763448D01*
X49659814Y-113680186D01*
X49576552Y-113578729D01*
X49547222Y-113542991D01*
X49463557Y-113386466D01*
X49412037Y-113216627D01*
X49394641Y-113040000D01*
X49412037Y-112863373D01*
X49463557Y-112693534D01*
X49547222Y-112537009D01*
X49576552Y-112501271D01*
X49659814Y-112399814D01*
X49761271Y-112316552D01*
X49797009Y-112287222D01*
X49953534Y-112203557D01*
X50123373Y-112152037D01*
X50189557Y-112145519D01*
X50255740Y-112139000D01*
X50344260Y-112139000D01*
X50410443Y-112145519D01*
X50410443Y-112145519D01*
G37*
G36*
X51201000Y-111401000D02*
G01*
X49399000Y-111401000D01*
X49399000Y-109599000D01*
X51201000Y-109599000D01*
X51201000Y-111401000D01*
X51201000Y-111401000D01*
G37*
G36*
X52950442Y-109605518D02*
G01*
X53016627Y-109612037D01*
X53186466Y-109663557D01*
X53342991Y-109747222D01*
X53378729Y-109776552D01*
X53480186Y-109859814D01*
X53563448Y-109961271D01*
X53592778Y-109997009D01*
X53676443Y-110153534D01*
X53727963Y-110323373D01*
X53745359Y-110500000D01*
X53727963Y-110676627D01*
X53676443Y-110846466D01*
X53592778Y-111002991D01*
X53563448Y-111038729D01*
X53480186Y-111140186D01*
X53378729Y-111223448D01*
X53342991Y-111252778D01*
X53186466Y-111336443D01*
X53016627Y-111387963D01*
X52950443Y-111394481D01*
X52884260Y-111401000D01*
X52795740Y-111401000D01*
X52729557Y-111394481D01*
X52663373Y-111387963D01*
X52493534Y-111336443D01*
X52337009Y-111252778D01*
X52301271Y-111223448D01*
X52199814Y-111140186D01*
X52116552Y-111038729D01*
X52087222Y-111002991D01*
X52003557Y-110846466D01*
X51952037Y-110676627D01*
X51934641Y-110500000D01*
X51952037Y-110323373D01*
X52003557Y-110153534D01*
X52087222Y-109997009D01*
X52116552Y-109961271D01*
X52199814Y-109859814D01*
X52301271Y-109776552D01*
X52337009Y-109747222D01*
X52493534Y-109663557D01*
X52663373Y-109612037D01*
X52729558Y-109605518D01*
X52795740Y-109599000D01*
X52884260Y-109599000D01*
X52950442Y-109605518D01*
X52950442Y-109605518D01*
G37*
G36*
X53010443Y-106785519D02*
G01*
X53076627Y-106792037D01*
X53246466Y-106843557D01*
X53402991Y-106927222D01*
X53438729Y-106956552D01*
X53540186Y-107039814D01*
X53623448Y-107141271D01*
X53652778Y-107177009D01*
X53736443Y-107333534D01*
X53787963Y-107503373D01*
X53805359Y-107680000D01*
X53787963Y-107856627D01*
X53736443Y-108026466D01*
X53652778Y-108182991D01*
X53623448Y-108218729D01*
X53540186Y-108320186D01*
X53438729Y-108403448D01*
X53402991Y-108432778D01*
X53246466Y-108516443D01*
X53076627Y-108567963D01*
X53010442Y-108574482D01*
X52944260Y-108581000D01*
X52855740Y-108581000D01*
X52789558Y-108574482D01*
X52723373Y-108567963D01*
X52553534Y-108516443D01*
X52397009Y-108432778D01*
X52361271Y-108403448D01*
X52259814Y-108320186D01*
X52176552Y-108218729D01*
X52147222Y-108182991D01*
X52063557Y-108026466D01*
X52012037Y-107856627D01*
X51994641Y-107680000D01*
X52012037Y-107503373D01*
X52063557Y-107333534D01*
X52147222Y-107177009D01*
X52176552Y-107141271D01*
X52259814Y-107039814D01*
X52361271Y-106956552D01*
X52397009Y-106927222D01*
X52553534Y-106843557D01*
X52723373Y-106792037D01*
X52789557Y-106785519D01*
X52855740Y-106779000D01*
X52944260Y-106779000D01*
X53010443Y-106785519D01*
X53010443Y-106785519D01*
G37*
G36*
X53010443Y-104245519D02*
G01*
X53076627Y-104252037D01*
X53246466Y-104303557D01*
X53402991Y-104387222D01*
X53438729Y-104416552D01*
X53540186Y-104499814D01*
X53623448Y-104601271D01*
X53652778Y-104637009D01*
X53736443Y-104793534D01*
X53787963Y-104963373D01*
X53805359Y-105140000D01*
X53787963Y-105316627D01*
X53736443Y-105486466D01*
X53652778Y-105642991D01*
X53623448Y-105678729D01*
X53540186Y-105780186D01*
X53438729Y-105863448D01*
X53402991Y-105892778D01*
X53246466Y-105976443D01*
X53076627Y-106027963D01*
X53010443Y-106034481D01*
X52944260Y-106041000D01*
X52855740Y-106041000D01*
X52789557Y-106034481D01*
X52723373Y-106027963D01*
X52553534Y-105976443D01*
X52397009Y-105892778D01*
X52361271Y-105863448D01*
X52259814Y-105780186D01*
X52176552Y-105678729D01*
X52147222Y-105642991D01*
X52063557Y-105486466D01*
X52012037Y-105316627D01*
X51994641Y-105140000D01*
X52012037Y-104963373D01*
X52063557Y-104793534D01*
X52147222Y-104637009D01*
X52176552Y-104601271D01*
X52259814Y-104499814D01*
X52361271Y-104416552D01*
X52397009Y-104387222D01*
X52553534Y-104303557D01*
X52723373Y-104252037D01*
X52789558Y-104245518D01*
X52855740Y-104239000D01*
X52944260Y-104239000D01*
X53010443Y-104245519D01*
X53010443Y-104245519D01*
G37*
G36*
X39951000Y-104851000D02*
G01*
X38849000Y-104851000D01*
X38849000Y-103749000D01*
X39951000Y-103749000D01*
X39951000Y-104851000D01*
X39951000Y-104851000D01*
G37*
G36*
X41951000Y-104851000D02*
G01*
X40849000Y-104851000D01*
X40849000Y-103749000D01*
X41951000Y-103749000D01*
X41951000Y-104851000D01*
X41951000Y-104851000D01*
G37*
G36*
X53801000Y-103501000D02*
G01*
X51999000Y-103501000D01*
X51999000Y-101699000D01*
X53801000Y-101699000D01*
X53801000Y-103501000D01*
X53801000Y-103501000D01*
G37*
G36*
X37951000Y-102851000D02*
G01*
X36849000Y-102851000D01*
X36849000Y-101749000D01*
X37951000Y-101749000D01*
X37951000Y-102851000D01*
X37951000Y-102851000D01*
G37*
G36*
X39951000Y-102851000D02*
G01*
X38849000Y-102851000D01*
X38849000Y-101749000D01*
X39951000Y-101749000D01*
X39951000Y-102851000D01*
X39951000Y-102851000D01*
G37*
G36*
X41951000Y-102851000D02*
G01*
X40849000Y-102851000D01*
X40849000Y-101749000D01*
X41951000Y-101749000D01*
X41951000Y-102851000D01*
X41951000Y-102851000D01*
G37*
G36*
X41951000Y-100851000D02*
G01*
X40849000Y-100851000D01*
X40849000Y-99749000D01*
X41951000Y-99749000D01*
X41951000Y-100851000D01*
X41951000Y-100851000D01*
G37*
G36*
X39951000Y-100851000D02*
G01*
X38849000Y-100851000D01*
X38849000Y-99749000D01*
X39951000Y-99749000D01*
X39951000Y-100851000D01*
X39951000Y-100851000D01*
G37*
G36*
X53010443Y-98925519D02*
G01*
X53076627Y-98932037D01*
X53246466Y-98983557D01*
X53402991Y-99067222D01*
X53438729Y-99096552D01*
X53540186Y-99179814D01*
X53623448Y-99281271D01*
X53652778Y-99317009D01*
X53736443Y-99473534D01*
X53787963Y-99643373D01*
X53805359Y-99820000D01*
X53787963Y-99996627D01*
X53736443Y-100166466D01*
X53652778Y-100322991D01*
X53623448Y-100358729D01*
X53540186Y-100460186D01*
X53438729Y-100543448D01*
X53402991Y-100572778D01*
X53246466Y-100656443D01*
X53076627Y-100707963D01*
X53010443Y-100714481D01*
X52944260Y-100721000D01*
X52855740Y-100721000D01*
X52789558Y-100714482D01*
X52723373Y-100707963D01*
X52553534Y-100656443D01*
X52397009Y-100572778D01*
X52361271Y-100543448D01*
X52259814Y-100460186D01*
X52176552Y-100358729D01*
X52147222Y-100322991D01*
X52063557Y-100166466D01*
X52012037Y-99996627D01*
X51994641Y-99820000D01*
X52012037Y-99643373D01*
X52063557Y-99473534D01*
X52147222Y-99317009D01*
X52176552Y-99281271D01*
X52259814Y-99179814D01*
X52361271Y-99096552D01*
X52397009Y-99067222D01*
X52553534Y-98983557D01*
X52723373Y-98932037D01*
X52789557Y-98925519D01*
X52855740Y-98919000D01*
X52944260Y-98919000D01*
X53010443Y-98925519D01*
X53010443Y-98925519D01*
G37*
G36*
X39951000Y-98851000D02*
G01*
X38849000Y-98851000D01*
X38849000Y-97749000D01*
X39951000Y-97749000D01*
X39951000Y-98851000D01*
X39951000Y-98851000D01*
G37*
G36*
X37951000Y-98851000D02*
G01*
X36849000Y-98851000D01*
X36849000Y-97749000D01*
X37951000Y-97749000D01*
X37951000Y-98851000D01*
X37951000Y-98851000D01*
G37*
G36*
X41951000Y-98851000D02*
G01*
X40849000Y-98851000D01*
X40849000Y-97749000D01*
X41951000Y-97749000D01*
X41951000Y-98851000D01*
X41951000Y-98851000D01*
G37*
G36*
X53010442Y-96385518D02*
G01*
X53076627Y-96392037D01*
X53246466Y-96443557D01*
X53402991Y-96527222D01*
X53438729Y-96556552D01*
X53540186Y-96639814D01*
X53623448Y-96741271D01*
X53652778Y-96777009D01*
X53736443Y-96933534D01*
X53787963Y-97103373D01*
X53805359Y-97280000D01*
X53787963Y-97456627D01*
X53736443Y-97626466D01*
X53652778Y-97782991D01*
X53623448Y-97818729D01*
X53540186Y-97920186D01*
X53438729Y-98003448D01*
X53402991Y-98032778D01*
X53246466Y-98116443D01*
X53076627Y-98167963D01*
X53010442Y-98174482D01*
X52944260Y-98181000D01*
X52855740Y-98181000D01*
X52789558Y-98174482D01*
X52723373Y-98167963D01*
X52553534Y-98116443D01*
X52397009Y-98032778D01*
X52361271Y-98003448D01*
X52259814Y-97920186D01*
X52176552Y-97818729D01*
X52147222Y-97782991D01*
X52063557Y-97626466D01*
X52012037Y-97456627D01*
X51994641Y-97280000D01*
X52012037Y-97103373D01*
X52063557Y-96933534D01*
X52147222Y-96777009D01*
X52176552Y-96741271D01*
X52259814Y-96639814D01*
X52361271Y-96556552D01*
X52397009Y-96527222D01*
X52553534Y-96443557D01*
X52723373Y-96392037D01*
X52789558Y-96385518D01*
X52855740Y-96379000D01*
X52944260Y-96379000D01*
X53010442Y-96385518D01*
X53010442Y-96385518D01*
G37*
G36*
X41951000Y-96851000D02*
G01*
X40849000Y-96851000D01*
X40849000Y-95749000D01*
X41951000Y-95749000D01*
X41951000Y-96851000D01*
X41951000Y-96851000D01*
G37*
G36*
X39951000Y-96851000D02*
G01*
X38849000Y-96851000D01*
X38849000Y-95749000D01*
X39951000Y-95749000D01*
X39951000Y-96851000D01*
X39951000Y-96851000D01*
G37*
G36*
X37951000Y-96851000D02*
G01*
X36849000Y-96851000D01*
X36849000Y-95749000D01*
X37951000Y-95749000D01*
X37951000Y-96851000D01*
X37951000Y-96851000D01*
G37*
G36*
X53010442Y-93845518D02*
G01*
X53076627Y-93852037D01*
X53246466Y-93903557D01*
X53402991Y-93987222D01*
X53438729Y-94016552D01*
X53540186Y-94099814D01*
X53623448Y-94201271D01*
X53652778Y-94237009D01*
X53736443Y-94393534D01*
X53787963Y-94563373D01*
X53805359Y-94740000D01*
X53787963Y-94916627D01*
X53736443Y-95086466D01*
X53652778Y-95242991D01*
X53623448Y-95278729D01*
X53540186Y-95380186D01*
X53438729Y-95463448D01*
X53402991Y-95492778D01*
X53246466Y-95576443D01*
X53076627Y-95627963D01*
X53010442Y-95634482D01*
X52944260Y-95641000D01*
X52855740Y-95641000D01*
X52789558Y-95634482D01*
X52723373Y-95627963D01*
X52553534Y-95576443D01*
X52397009Y-95492778D01*
X52361271Y-95463448D01*
X52259814Y-95380186D01*
X52176552Y-95278729D01*
X52147222Y-95242991D01*
X52063557Y-95086466D01*
X52012037Y-94916627D01*
X51994641Y-94740000D01*
X52012037Y-94563373D01*
X52063557Y-94393534D01*
X52147222Y-94237009D01*
X52176552Y-94201271D01*
X52259814Y-94099814D01*
X52361271Y-94016552D01*
X52397009Y-93987222D01*
X52553534Y-93903557D01*
X52723373Y-93852037D01*
X52789558Y-93845518D01*
X52855740Y-93839000D01*
X52944260Y-93839000D01*
X53010442Y-93845518D01*
X53010442Y-93845518D01*
G37*
G36*
X53801000Y-93101000D02*
G01*
X51999000Y-93101000D01*
X51999000Y-91299000D01*
X53801000Y-91299000D01*
X53801000Y-93101000D01*
X53801000Y-93101000D01*
G37*
G36*
X41951000Y-92951000D02*
G01*
X40849000Y-92951000D01*
X40849000Y-91849000D01*
X41951000Y-91849000D01*
X41951000Y-92951000D01*
X41951000Y-92951000D01*
G37*
G36*
X39951000Y-92951000D02*
G01*
X38849000Y-92951000D01*
X38849000Y-91849000D01*
X39951000Y-91849000D01*
X39951000Y-92951000D01*
X39951000Y-92951000D01*
G37*
G36*
X53010443Y-88525519D02*
G01*
X53076627Y-88532037D01*
X53246466Y-88583557D01*
X53402991Y-88667222D01*
X53438729Y-88696552D01*
X53540186Y-88779814D01*
X53623448Y-88881271D01*
X53652778Y-88917009D01*
X53736443Y-89073534D01*
X53787963Y-89243373D01*
X53805359Y-89420000D01*
X53787963Y-89596627D01*
X53736443Y-89766466D01*
X53652778Y-89922991D01*
X53623448Y-89958729D01*
X53540186Y-90060186D01*
X53438729Y-90143448D01*
X53402991Y-90172778D01*
X53246466Y-90256443D01*
X53076627Y-90307963D01*
X53010442Y-90314482D01*
X52944260Y-90321000D01*
X52855740Y-90321000D01*
X52789558Y-90314482D01*
X52723373Y-90307963D01*
X52553534Y-90256443D01*
X52397009Y-90172778D01*
X52361271Y-90143448D01*
X52259814Y-90060186D01*
X52176552Y-89958729D01*
X52147222Y-89922991D01*
X52063557Y-89766466D01*
X52012037Y-89596627D01*
X51994641Y-89420000D01*
X52012037Y-89243373D01*
X52063557Y-89073534D01*
X52147222Y-88917009D01*
X52176552Y-88881271D01*
X52259814Y-88779814D01*
X52361271Y-88696552D01*
X52397009Y-88667222D01*
X52553534Y-88583557D01*
X52723373Y-88532037D01*
X52789557Y-88525519D01*
X52855740Y-88519000D01*
X52944260Y-88519000D01*
X53010443Y-88525519D01*
X53010443Y-88525519D01*
G37*
G36*
X53010442Y-85985518D02*
G01*
X53076627Y-85992037D01*
X53246466Y-86043557D01*
X53402991Y-86127222D01*
X53438729Y-86156552D01*
X53540186Y-86239814D01*
X53623448Y-86341271D01*
X53652778Y-86377009D01*
X53736443Y-86533534D01*
X53787963Y-86703373D01*
X53805359Y-86880000D01*
X53787963Y-87056627D01*
X53736443Y-87226466D01*
X53652778Y-87382991D01*
X53623448Y-87418729D01*
X53540186Y-87520186D01*
X53438729Y-87603448D01*
X53402991Y-87632778D01*
X53246466Y-87716443D01*
X53076627Y-87767963D01*
X53010443Y-87774481D01*
X52944260Y-87781000D01*
X52855740Y-87781000D01*
X52789557Y-87774481D01*
X52723373Y-87767963D01*
X52553534Y-87716443D01*
X52397009Y-87632778D01*
X52361271Y-87603448D01*
X52259814Y-87520186D01*
X52176552Y-87418729D01*
X52147222Y-87382991D01*
X52063557Y-87226466D01*
X52012037Y-87056627D01*
X51994641Y-86880000D01*
X52012037Y-86703373D01*
X52063557Y-86533534D01*
X52147222Y-86377009D01*
X52176552Y-86341271D01*
X52259814Y-86239814D01*
X52361271Y-86156552D01*
X52397009Y-86127222D01*
X52553534Y-86043557D01*
X52723373Y-85992037D01*
X52789558Y-85985518D01*
X52855740Y-85979000D01*
X52944260Y-85979000D01*
X53010442Y-85985518D01*
X53010442Y-85985518D01*
G37*
G36*
X53010442Y-83445518D02*
G01*
X53076627Y-83452037D01*
X53246466Y-83503557D01*
X53402991Y-83587222D01*
X53438729Y-83616552D01*
X53540186Y-83699814D01*
X53623448Y-83801271D01*
X53652778Y-83837009D01*
X53736443Y-83993534D01*
X53787963Y-84163373D01*
X53805359Y-84340000D01*
X53787963Y-84516627D01*
X53736443Y-84686466D01*
X53652778Y-84842991D01*
X53623448Y-84878729D01*
X53540186Y-84980186D01*
X53438729Y-85063448D01*
X53402991Y-85092778D01*
X53246466Y-85176443D01*
X53076627Y-85227963D01*
X53010442Y-85234482D01*
X52944260Y-85241000D01*
X52855740Y-85241000D01*
X52789558Y-85234482D01*
X52723373Y-85227963D01*
X52553534Y-85176443D01*
X52397009Y-85092778D01*
X52361271Y-85063448D01*
X52259814Y-84980186D01*
X52176552Y-84878729D01*
X52147222Y-84842991D01*
X52063557Y-84686466D01*
X52012037Y-84516627D01*
X51994641Y-84340000D01*
X52012037Y-84163373D01*
X52063557Y-83993534D01*
X52147222Y-83837009D01*
X52176552Y-83801271D01*
X52259814Y-83699814D01*
X52361271Y-83616552D01*
X52397009Y-83587222D01*
X52553534Y-83503557D01*
X52723373Y-83452037D01*
X52789558Y-83445518D01*
X52855740Y-83439000D01*
X52944260Y-83439000D01*
X53010442Y-83445518D01*
X53010442Y-83445518D01*
G37*
G36*
X53801000Y-82701000D02*
G01*
X51999000Y-82701000D01*
X51999000Y-80899000D01*
X53801000Y-80899000D01*
X53801000Y-82701000D01*
X53801000Y-82701000D01*
G37*
G36*
X53010442Y-78125518D02*
G01*
X53076627Y-78132037D01*
X53246466Y-78183557D01*
X53402991Y-78267222D01*
X53438729Y-78296552D01*
X53540186Y-78379814D01*
X53623448Y-78481271D01*
X53652778Y-78517009D01*
X53736443Y-78673534D01*
X53787963Y-78843373D01*
X53805359Y-79020000D01*
X53787963Y-79196627D01*
X53736443Y-79366466D01*
X53652778Y-79522991D01*
X53623448Y-79558729D01*
X53540186Y-79660186D01*
X53438729Y-79743448D01*
X53402991Y-79772778D01*
X53246466Y-79856443D01*
X53076627Y-79907963D01*
X53010443Y-79914481D01*
X52944260Y-79921000D01*
X52855740Y-79921000D01*
X52789557Y-79914481D01*
X52723373Y-79907963D01*
X52553534Y-79856443D01*
X52397009Y-79772778D01*
X52361271Y-79743448D01*
X52259814Y-79660186D01*
X52176552Y-79558729D01*
X52147222Y-79522991D01*
X52063557Y-79366466D01*
X52012037Y-79196627D01*
X51994641Y-79020000D01*
X52012037Y-78843373D01*
X52063557Y-78673534D01*
X52147222Y-78517009D01*
X52176552Y-78481271D01*
X52259814Y-78379814D01*
X52361271Y-78296552D01*
X52397009Y-78267222D01*
X52553534Y-78183557D01*
X52723373Y-78132037D01*
X52789558Y-78125518D01*
X52855740Y-78119000D01*
X52944260Y-78119000D01*
X53010442Y-78125518D01*
X53010442Y-78125518D01*
G37*
G36*
X53010442Y-75585518D02*
G01*
X53076627Y-75592037D01*
X53246466Y-75643557D01*
X53402991Y-75727222D01*
X53438729Y-75756552D01*
X53540186Y-75839814D01*
X53623448Y-75941271D01*
X53652778Y-75977009D01*
X53736443Y-76133534D01*
X53787963Y-76303373D01*
X53805359Y-76480000D01*
X53787963Y-76656627D01*
X53736443Y-76826466D01*
X53652778Y-76982991D01*
X53623448Y-77018729D01*
X53540186Y-77120186D01*
X53438729Y-77203448D01*
X53402991Y-77232778D01*
X53246466Y-77316443D01*
X53076627Y-77367963D01*
X53010443Y-77374481D01*
X52944260Y-77381000D01*
X52855740Y-77381000D01*
X52789557Y-77374481D01*
X52723373Y-77367963D01*
X52553534Y-77316443D01*
X52397009Y-77232778D01*
X52361271Y-77203448D01*
X52259814Y-77120186D01*
X52176552Y-77018729D01*
X52147222Y-76982991D01*
X52063557Y-76826466D01*
X52012037Y-76656627D01*
X51994641Y-76480000D01*
X52012037Y-76303373D01*
X52063557Y-76133534D01*
X52147222Y-75977009D01*
X52176552Y-75941271D01*
X52259814Y-75839814D01*
X52361271Y-75756552D01*
X52397009Y-75727222D01*
X52553534Y-75643557D01*
X52723373Y-75592037D01*
X52789558Y-75585518D01*
X52855740Y-75579000D01*
X52944260Y-75579000D01*
X53010442Y-75585518D01*
X53010442Y-75585518D01*
G37*
G36*
X53010443Y-73045519D02*
G01*
X53076627Y-73052037D01*
X53246466Y-73103557D01*
X53402991Y-73187222D01*
X53438729Y-73216552D01*
X53540186Y-73299814D01*
X53623448Y-73401271D01*
X53652778Y-73437009D01*
X53736443Y-73593534D01*
X53787963Y-73763373D01*
X53805359Y-73940000D01*
X53787963Y-74116627D01*
X53736443Y-74286466D01*
X53652778Y-74442991D01*
X53623448Y-74478729D01*
X53540186Y-74580186D01*
X53438729Y-74663448D01*
X53402991Y-74692778D01*
X53246466Y-74776443D01*
X53076627Y-74827963D01*
X53010442Y-74834482D01*
X52944260Y-74841000D01*
X52855740Y-74841000D01*
X52789558Y-74834482D01*
X52723373Y-74827963D01*
X52553534Y-74776443D01*
X52397009Y-74692778D01*
X52361271Y-74663448D01*
X52259814Y-74580186D01*
X52176552Y-74478729D01*
X52147222Y-74442991D01*
X52063557Y-74286466D01*
X52012037Y-74116627D01*
X51994641Y-73940000D01*
X52012037Y-73763373D01*
X52063557Y-73593534D01*
X52147222Y-73437009D01*
X52176552Y-73401271D01*
X52259814Y-73299814D01*
X52361271Y-73216552D01*
X52397009Y-73187222D01*
X52553534Y-73103557D01*
X52723373Y-73052037D01*
X52789557Y-73045519D01*
X52855740Y-73039000D01*
X52944260Y-73039000D01*
X53010443Y-73045519D01*
X53010443Y-73045519D01*
G37*
G36*
X53801000Y-72301000D02*
G01*
X51999000Y-72301000D01*
X51999000Y-70499000D01*
X53801000Y-70499000D01*
X53801000Y-72301000D01*
X53801000Y-72301000D01*
G37*
M02*
