G04 #@! TF.GenerationSoftware,KiCad,Pcbnew,(5.1.2)-2*
G04 #@! TF.CreationDate,2019-07-11T02:06:11+02:00*
G04 #@! TF.ProjectId,ATM32U4_backpack,41544d33-3255-4345-9f62-61636b706163,rev?*
G04 #@! TF.SameCoordinates,Original*
G04 #@! TF.FileFunction,Copper,L1,Top*
G04 #@! TF.FilePolarity,Positive*
%FSLAX46Y46*%
G04 Gerber Fmt 4.6, Leading zero omitted, Abs format (unit mm)*
G04 Created by KiCad (PCBNEW (5.1.2)-2) date 2019-07-11 02:06:11*
%MOMM*%
%LPD*%
G04 APERTURE LIST*
%ADD10C,0.100000*%
%ADD11C,0.875000*%
%ADD12R,1.000000X1.000000*%
%ADD13R,1.700000X1.700000*%
%ADD14O,1.700000X1.700000*%
%ADD15R,0.450000X1.380000*%
%ADD16R,1.475000X2.100000*%
%ADD17R,2.375000X1.900000*%
%ADD18R,1.175000X1.900000*%
%ADD19R,0.400000X0.650000*%
%ADD20R,1.500000X0.550000*%
%ADD21R,0.550000X1.500000*%
%ADD22R,3.500000X2.400000*%
%ADD23R,0.900000X0.800000*%
%ADD24C,0.800000*%
%ADD25C,0.400000*%
%ADD26C,1.000000*%
%ADD27C,0.200000*%
%ADD28C,0.250000*%
G04 APERTURE END LIST*
D10*
G36*
X47327691Y-84826053D02*
G01*
X47348926Y-84829203D01*
X47369750Y-84834419D01*
X47389962Y-84841651D01*
X47409368Y-84850830D01*
X47427781Y-84861866D01*
X47445024Y-84874654D01*
X47460930Y-84889070D01*
X47475346Y-84904976D01*
X47488134Y-84922219D01*
X47499170Y-84940632D01*
X47508349Y-84960038D01*
X47515581Y-84980250D01*
X47520797Y-85001074D01*
X47523947Y-85022309D01*
X47525000Y-85043750D01*
X47525000Y-85556250D01*
X47523947Y-85577691D01*
X47520797Y-85598926D01*
X47515581Y-85619750D01*
X47508349Y-85639962D01*
X47499170Y-85659368D01*
X47488134Y-85677781D01*
X47475346Y-85695024D01*
X47460930Y-85710930D01*
X47445024Y-85725346D01*
X47427781Y-85738134D01*
X47409368Y-85749170D01*
X47389962Y-85758349D01*
X47369750Y-85765581D01*
X47348926Y-85770797D01*
X47327691Y-85773947D01*
X47306250Y-85775000D01*
X46868750Y-85775000D01*
X46847309Y-85773947D01*
X46826074Y-85770797D01*
X46805250Y-85765581D01*
X46785038Y-85758349D01*
X46765632Y-85749170D01*
X46747219Y-85738134D01*
X46729976Y-85725346D01*
X46714070Y-85710930D01*
X46699654Y-85695024D01*
X46686866Y-85677781D01*
X46675830Y-85659368D01*
X46666651Y-85639962D01*
X46659419Y-85619750D01*
X46654203Y-85598926D01*
X46651053Y-85577691D01*
X46650000Y-85556250D01*
X46650000Y-85043750D01*
X46651053Y-85022309D01*
X46654203Y-85001074D01*
X46659419Y-84980250D01*
X46666651Y-84960038D01*
X46675830Y-84940632D01*
X46686866Y-84922219D01*
X46699654Y-84904976D01*
X46714070Y-84889070D01*
X46729976Y-84874654D01*
X46747219Y-84861866D01*
X46765632Y-84850830D01*
X46785038Y-84841651D01*
X46805250Y-84834419D01*
X46826074Y-84829203D01*
X46847309Y-84826053D01*
X46868750Y-84825000D01*
X47306250Y-84825000D01*
X47327691Y-84826053D01*
X47327691Y-84826053D01*
G37*
D11*
X47087500Y-85300000D03*
D10*
G36*
X45752691Y-84826053D02*
G01*
X45773926Y-84829203D01*
X45794750Y-84834419D01*
X45814962Y-84841651D01*
X45834368Y-84850830D01*
X45852781Y-84861866D01*
X45870024Y-84874654D01*
X45885930Y-84889070D01*
X45900346Y-84904976D01*
X45913134Y-84922219D01*
X45924170Y-84940632D01*
X45933349Y-84960038D01*
X45940581Y-84980250D01*
X45945797Y-85001074D01*
X45948947Y-85022309D01*
X45950000Y-85043750D01*
X45950000Y-85556250D01*
X45948947Y-85577691D01*
X45945797Y-85598926D01*
X45940581Y-85619750D01*
X45933349Y-85639962D01*
X45924170Y-85659368D01*
X45913134Y-85677781D01*
X45900346Y-85695024D01*
X45885930Y-85710930D01*
X45870024Y-85725346D01*
X45852781Y-85738134D01*
X45834368Y-85749170D01*
X45814962Y-85758349D01*
X45794750Y-85765581D01*
X45773926Y-85770797D01*
X45752691Y-85773947D01*
X45731250Y-85775000D01*
X45293750Y-85775000D01*
X45272309Y-85773947D01*
X45251074Y-85770797D01*
X45230250Y-85765581D01*
X45210038Y-85758349D01*
X45190632Y-85749170D01*
X45172219Y-85738134D01*
X45154976Y-85725346D01*
X45139070Y-85710930D01*
X45124654Y-85695024D01*
X45111866Y-85677781D01*
X45100830Y-85659368D01*
X45091651Y-85639962D01*
X45084419Y-85619750D01*
X45079203Y-85598926D01*
X45076053Y-85577691D01*
X45075000Y-85556250D01*
X45075000Y-85043750D01*
X45076053Y-85022309D01*
X45079203Y-85001074D01*
X45084419Y-84980250D01*
X45091651Y-84960038D01*
X45100830Y-84940632D01*
X45111866Y-84922219D01*
X45124654Y-84904976D01*
X45139070Y-84889070D01*
X45154976Y-84874654D01*
X45172219Y-84861866D01*
X45190632Y-84850830D01*
X45210038Y-84841651D01*
X45230250Y-84834419D01*
X45251074Y-84829203D01*
X45272309Y-84826053D01*
X45293750Y-84825000D01*
X45731250Y-84825000D01*
X45752691Y-84826053D01*
X45752691Y-84826053D01*
G37*
D11*
X45512500Y-85300000D03*
D10*
G36*
X45752691Y-90026053D02*
G01*
X45773926Y-90029203D01*
X45794750Y-90034419D01*
X45814962Y-90041651D01*
X45834368Y-90050830D01*
X45852781Y-90061866D01*
X45870024Y-90074654D01*
X45885930Y-90089070D01*
X45900346Y-90104976D01*
X45913134Y-90122219D01*
X45924170Y-90140632D01*
X45933349Y-90160038D01*
X45940581Y-90180250D01*
X45945797Y-90201074D01*
X45948947Y-90222309D01*
X45950000Y-90243750D01*
X45950000Y-90756250D01*
X45948947Y-90777691D01*
X45945797Y-90798926D01*
X45940581Y-90819750D01*
X45933349Y-90839962D01*
X45924170Y-90859368D01*
X45913134Y-90877781D01*
X45900346Y-90895024D01*
X45885930Y-90910930D01*
X45870024Y-90925346D01*
X45852781Y-90938134D01*
X45834368Y-90949170D01*
X45814962Y-90958349D01*
X45794750Y-90965581D01*
X45773926Y-90970797D01*
X45752691Y-90973947D01*
X45731250Y-90975000D01*
X45293750Y-90975000D01*
X45272309Y-90973947D01*
X45251074Y-90970797D01*
X45230250Y-90965581D01*
X45210038Y-90958349D01*
X45190632Y-90949170D01*
X45172219Y-90938134D01*
X45154976Y-90925346D01*
X45139070Y-90910930D01*
X45124654Y-90895024D01*
X45111866Y-90877781D01*
X45100830Y-90859368D01*
X45091651Y-90839962D01*
X45084419Y-90819750D01*
X45079203Y-90798926D01*
X45076053Y-90777691D01*
X45075000Y-90756250D01*
X45075000Y-90243750D01*
X45076053Y-90222309D01*
X45079203Y-90201074D01*
X45084419Y-90180250D01*
X45091651Y-90160038D01*
X45100830Y-90140632D01*
X45111866Y-90122219D01*
X45124654Y-90104976D01*
X45139070Y-90089070D01*
X45154976Y-90074654D01*
X45172219Y-90061866D01*
X45190632Y-90050830D01*
X45210038Y-90041651D01*
X45230250Y-90034419D01*
X45251074Y-90029203D01*
X45272309Y-90026053D01*
X45293750Y-90025000D01*
X45731250Y-90025000D01*
X45752691Y-90026053D01*
X45752691Y-90026053D01*
G37*
D11*
X45512500Y-90500000D03*
D10*
G36*
X47327691Y-90026053D02*
G01*
X47348926Y-90029203D01*
X47369750Y-90034419D01*
X47389962Y-90041651D01*
X47409368Y-90050830D01*
X47427781Y-90061866D01*
X47445024Y-90074654D01*
X47460930Y-90089070D01*
X47475346Y-90104976D01*
X47488134Y-90122219D01*
X47499170Y-90140632D01*
X47508349Y-90160038D01*
X47515581Y-90180250D01*
X47520797Y-90201074D01*
X47523947Y-90222309D01*
X47525000Y-90243750D01*
X47525000Y-90756250D01*
X47523947Y-90777691D01*
X47520797Y-90798926D01*
X47515581Y-90819750D01*
X47508349Y-90839962D01*
X47499170Y-90859368D01*
X47488134Y-90877781D01*
X47475346Y-90895024D01*
X47460930Y-90910930D01*
X47445024Y-90925346D01*
X47427781Y-90938134D01*
X47409368Y-90949170D01*
X47389962Y-90958349D01*
X47369750Y-90965581D01*
X47348926Y-90970797D01*
X47327691Y-90973947D01*
X47306250Y-90975000D01*
X46868750Y-90975000D01*
X46847309Y-90973947D01*
X46826074Y-90970797D01*
X46805250Y-90965581D01*
X46785038Y-90958349D01*
X46765632Y-90949170D01*
X46747219Y-90938134D01*
X46729976Y-90925346D01*
X46714070Y-90910930D01*
X46699654Y-90895024D01*
X46686866Y-90877781D01*
X46675830Y-90859368D01*
X46666651Y-90839962D01*
X46659419Y-90819750D01*
X46654203Y-90798926D01*
X46651053Y-90777691D01*
X46650000Y-90756250D01*
X46650000Y-90243750D01*
X46651053Y-90222309D01*
X46654203Y-90201074D01*
X46659419Y-90180250D01*
X46666651Y-90160038D01*
X46675830Y-90140632D01*
X46686866Y-90122219D01*
X46699654Y-90104976D01*
X46714070Y-90089070D01*
X46729976Y-90074654D01*
X46747219Y-90061866D01*
X46765632Y-90050830D01*
X46785038Y-90041651D01*
X46805250Y-90034419D01*
X46826074Y-90029203D01*
X46847309Y-90026053D01*
X46868750Y-90025000D01*
X47306250Y-90025000D01*
X47327691Y-90026053D01*
X47327691Y-90026053D01*
G37*
D11*
X47087500Y-90500000D03*
D10*
G36*
X43227691Y-112826053D02*
G01*
X43248926Y-112829203D01*
X43269750Y-112834419D01*
X43289962Y-112841651D01*
X43309368Y-112850830D01*
X43327781Y-112861866D01*
X43345024Y-112874654D01*
X43360930Y-112889070D01*
X43375346Y-112904976D01*
X43388134Y-112922219D01*
X43399170Y-112940632D01*
X43408349Y-112960038D01*
X43415581Y-112980250D01*
X43420797Y-113001074D01*
X43423947Y-113022309D01*
X43425000Y-113043750D01*
X43425000Y-113556250D01*
X43423947Y-113577691D01*
X43420797Y-113598926D01*
X43415581Y-113619750D01*
X43408349Y-113639962D01*
X43399170Y-113659368D01*
X43388134Y-113677781D01*
X43375346Y-113695024D01*
X43360930Y-113710930D01*
X43345024Y-113725346D01*
X43327781Y-113738134D01*
X43309368Y-113749170D01*
X43289962Y-113758349D01*
X43269750Y-113765581D01*
X43248926Y-113770797D01*
X43227691Y-113773947D01*
X43206250Y-113775000D01*
X42768750Y-113775000D01*
X42747309Y-113773947D01*
X42726074Y-113770797D01*
X42705250Y-113765581D01*
X42685038Y-113758349D01*
X42665632Y-113749170D01*
X42647219Y-113738134D01*
X42629976Y-113725346D01*
X42614070Y-113710930D01*
X42599654Y-113695024D01*
X42586866Y-113677781D01*
X42575830Y-113659368D01*
X42566651Y-113639962D01*
X42559419Y-113619750D01*
X42554203Y-113598926D01*
X42551053Y-113577691D01*
X42550000Y-113556250D01*
X42550000Y-113043750D01*
X42551053Y-113022309D01*
X42554203Y-113001074D01*
X42559419Y-112980250D01*
X42566651Y-112960038D01*
X42575830Y-112940632D01*
X42586866Y-112922219D01*
X42599654Y-112904976D01*
X42614070Y-112889070D01*
X42629976Y-112874654D01*
X42647219Y-112861866D01*
X42665632Y-112850830D01*
X42685038Y-112841651D01*
X42705250Y-112834419D01*
X42726074Y-112829203D01*
X42747309Y-112826053D01*
X42768750Y-112825000D01*
X43206250Y-112825000D01*
X43227691Y-112826053D01*
X43227691Y-112826053D01*
G37*
D11*
X42987500Y-113300000D03*
D10*
G36*
X41652691Y-112826053D02*
G01*
X41673926Y-112829203D01*
X41694750Y-112834419D01*
X41714962Y-112841651D01*
X41734368Y-112850830D01*
X41752781Y-112861866D01*
X41770024Y-112874654D01*
X41785930Y-112889070D01*
X41800346Y-112904976D01*
X41813134Y-112922219D01*
X41824170Y-112940632D01*
X41833349Y-112960038D01*
X41840581Y-112980250D01*
X41845797Y-113001074D01*
X41848947Y-113022309D01*
X41850000Y-113043750D01*
X41850000Y-113556250D01*
X41848947Y-113577691D01*
X41845797Y-113598926D01*
X41840581Y-113619750D01*
X41833349Y-113639962D01*
X41824170Y-113659368D01*
X41813134Y-113677781D01*
X41800346Y-113695024D01*
X41785930Y-113710930D01*
X41770024Y-113725346D01*
X41752781Y-113738134D01*
X41734368Y-113749170D01*
X41714962Y-113758349D01*
X41694750Y-113765581D01*
X41673926Y-113770797D01*
X41652691Y-113773947D01*
X41631250Y-113775000D01*
X41193750Y-113775000D01*
X41172309Y-113773947D01*
X41151074Y-113770797D01*
X41130250Y-113765581D01*
X41110038Y-113758349D01*
X41090632Y-113749170D01*
X41072219Y-113738134D01*
X41054976Y-113725346D01*
X41039070Y-113710930D01*
X41024654Y-113695024D01*
X41011866Y-113677781D01*
X41000830Y-113659368D01*
X40991651Y-113639962D01*
X40984419Y-113619750D01*
X40979203Y-113598926D01*
X40976053Y-113577691D01*
X40975000Y-113556250D01*
X40975000Y-113043750D01*
X40976053Y-113022309D01*
X40979203Y-113001074D01*
X40984419Y-112980250D01*
X40991651Y-112960038D01*
X41000830Y-112940632D01*
X41011866Y-112922219D01*
X41024654Y-112904976D01*
X41039070Y-112889070D01*
X41054976Y-112874654D01*
X41072219Y-112861866D01*
X41090632Y-112850830D01*
X41110038Y-112841651D01*
X41130250Y-112834419D01*
X41151074Y-112829203D01*
X41172309Y-112826053D01*
X41193750Y-112825000D01*
X41631250Y-112825000D01*
X41652691Y-112826053D01*
X41652691Y-112826053D01*
G37*
D11*
X41412500Y-113300000D03*
D10*
G36*
X35452691Y-112826053D02*
G01*
X35473926Y-112829203D01*
X35494750Y-112834419D01*
X35514962Y-112841651D01*
X35534368Y-112850830D01*
X35552781Y-112861866D01*
X35570024Y-112874654D01*
X35585930Y-112889070D01*
X35600346Y-112904976D01*
X35613134Y-112922219D01*
X35624170Y-112940632D01*
X35633349Y-112960038D01*
X35640581Y-112980250D01*
X35645797Y-113001074D01*
X35648947Y-113022309D01*
X35650000Y-113043750D01*
X35650000Y-113556250D01*
X35648947Y-113577691D01*
X35645797Y-113598926D01*
X35640581Y-113619750D01*
X35633349Y-113639962D01*
X35624170Y-113659368D01*
X35613134Y-113677781D01*
X35600346Y-113695024D01*
X35585930Y-113710930D01*
X35570024Y-113725346D01*
X35552781Y-113738134D01*
X35534368Y-113749170D01*
X35514962Y-113758349D01*
X35494750Y-113765581D01*
X35473926Y-113770797D01*
X35452691Y-113773947D01*
X35431250Y-113775000D01*
X34993750Y-113775000D01*
X34972309Y-113773947D01*
X34951074Y-113770797D01*
X34930250Y-113765581D01*
X34910038Y-113758349D01*
X34890632Y-113749170D01*
X34872219Y-113738134D01*
X34854976Y-113725346D01*
X34839070Y-113710930D01*
X34824654Y-113695024D01*
X34811866Y-113677781D01*
X34800830Y-113659368D01*
X34791651Y-113639962D01*
X34784419Y-113619750D01*
X34779203Y-113598926D01*
X34776053Y-113577691D01*
X34775000Y-113556250D01*
X34775000Y-113043750D01*
X34776053Y-113022309D01*
X34779203Y-113001074D01*
X34784419Y-112980250D01*
X34791651Y-112960038D01*
X34800830Y-112940632D01*
X34811866Y-112922219D01*
X34824654Y-112904976D01*
X34839070Y-112889070D01*
X34854976Y-112874654D01*
X34872219Y-112861866D01*
X34890632Y-112850830D01*
X34910038Y-112841651D01*
X34930250Y-112834419D01*
X34951074Y-112829203D01*
X34972309Y-112826053D01*
X34993750Y-112825000D01*
X35431250Y-112825000D01*
X35452691Y-112826053D01*
X35452691Y-112826053D01*
G37*
D11*
X35212500Y-113300000D03*
D10*
G36*
X37027691Y-112826053D02*
G01*
X37048926Y-112829203D01*
X37069750Y-112834419D01*
X37089962Y-112841651D01*
X37109368Y-112850830D01*
X37127781Y-112861866D01*
X37145024Y-112874654D01*
X37160930Y-112889070D01*
X37175346Y-112904976D01*
X37188134Y-112922219D01*
X37199170Y-112940632D01*
X37208349Y-112960038D01*
X37215581Y-112980250D01*
X37220797Y-113001074D01*
X37223947Y-113022309D01*
X37225000Y-113043750D01*
X37225000Y-113556250D01*
X37223947Y-113577691D01*
X37220797Y-113598926D01*
X37215581Y-113619750D01*
X37208349Y-113639962D01*
X37199170Y-113659368D01*
X37188134Y-113677781D01*
X37175346Y-113695024D01*
X37160930Y-113710930D01*
X37145024Y-113725346D01*
X37127781Y-113738134D01*
X37109368Y-113749170D01*
X37089962Y-113758349D01*
X37069750Y-113765581D01*
X37048926Y-113770797D01*
X37027691Y-113773947D01*
X37006250Y-113775000D01*
X36568750Y-113775000D01*
X36547309Y-113773947D01*
X36526074Y-113770797D01*
X36505250Y-113765581D01*
X36485038Y-113758349D01*
X36465632Y-113749170D01*
X36447219Y-113738134D01*
X36429976Y-113725346D01*
X36414070Y-113710930D01*
X36399654Y-113695024D01*
X36386866Y-113677781D01*
X36375830Y-113659368D01*
X36366651Y-113639962D01*
X36359419Y-113619750D01*
X36354203Y-113598926D01*
X36351053Y-113577691D01*
X36350000Y-113556250D01*
X36350000Y-113043750D01*
X36351053Y-113022309D01*
X36354203Y-113001074D01*
X36359419Y-112980250D01*
X36366651Y-112960038D01*
X36375830Y-112940632D01*
X36386866Y-112922219D01*
X36399654Y-112904976D01*
X36414070Y-112889070D01*
X36429976Y-112874654D01*
X36447219Y-112861866D01*
X36465632Y-112850830D01*
X36485038Y-112841651D01*
X36505250Y-112834419D01*
X36526074Y-112829203D01*
X36547309Y-112826053D01*
X36568750Y-112825000D01*
X37006250Y-112825000D01*
X37027691Y-112826053D01*
X37027691Y-112826053D01*
G37*
D11*
X36787500Y-113300000D03*
D10*
G36*
X32177691Y-100851053D02*
G01*
X32198926Y-100854203D01*
X32219750Y-100859419D01*
X32239962Y-100866651D01*
X32259368Y-100875830D01*
X32277781Y-100886866D01*
X32295024Y-100899654D01*
X32310930Y-100914070D01*
X32325346Y-100929976D01*
X32338134Y-100947219D01*
X32349170Y-100965632D01*
X32358349Y-100985038D01*
X32365581Y-101005250D01*
X32370797Y-101026074D01*
X32373947Y-101047309D01*
X32375000Y-101068750D01*
X32375000Y-101506250D01*
X32373947Y-101527691D01*
X32370797Y-101548926D01*
X32365581Y-101569750D01*
X32358349Y-101589962D01*
X32349170Y-101609368D01*
X32338134Y-101627781D01*
X32325346Y-101645024D01*
X32310930Y-101660930D01*
X32295024Y-101675346D01*
X32277781Y-101688134D01*
X32259368Y-101699170D01*
X32239962Y-101708349D01*
X32219750Y-101715581D01*
X32198926Y-101720797D01*
X32177691Y-101723947D01*
X32156250Y-101725000D01*
X31643750Y-101725000D01*
X31622309Y-101723947D01*
X31601074Y-101720797D01*
X31580250Y-101715581D01*
X31560038Y-101708349D01*
X31540632Y-101699170D01*
X31522219Y-101688134D01*
X31504976Y-101675346D01*
X31489070Y-101660930D01*
X31474654Y-101645024D01*
X31461866Y-101627781D01*
X31450830Y-101609368D01*
X31441651Y-101589962D01*
X31434419Y-101569750D01*
X31429203Y-101548926D01*
X31426053Y-101527691D01*
X31425000Y-101506250D01*
X31425000Y-101068750D01*
X31426053Y-101047309D01*
X31429203Y-101026074D01*
X31434419Y-101005250D01*
X31441651Y-100985038D01*
X31450830Y-100965632D01*
X31461866Y-100947219D01*
X31474654Y-100929976D01*
X31489070Y-100914070D01*
X31504976Y-100899654D01*
X31522219Y-100886866D01*
X31540632Y-100875830D01*
X31560038Y-100866651D01*
X31580250Y-100859419D01*
X31601074Y-100854203D01*
X31622309Y-100851053D01*
X31643750Y-100850000D01*
X32156250Y-100850000D01*
X32177691Y-100851053D01*
X32177691Y-100851053D01*
G37*
D11*
X31900000Y-101287500D03*
D10*
G36*
X32177691Y-99276053D02*
G01*
X32198926Y-99279203D01*
X32219750Y-99284419D01*
X32239962Y-99291651D01*
X32259368Y-99300830D01*
X32277781Y-99311866D01*
X32295024Y-99324654D01*
X32310930Y-99339070D01*
X32325346Y-99354976D01*
X32338134Y-99372219D01*
X32349170Y-99390632D01*
X32358349Y-99410038D01*
X32365581Y-99430250D01*
X32370797Y-99451074D01*
X32373947Y-99472309D01*
X32375000Y-99493750D01*
X32375000Y-99931250D01*
X32373947Y-99952691D01*
X32370797Y-99973926D01*
X32365581Y-99994750D01*
X32358349Y-100014962D01*
X32349170Y-100034368D01*
X32338134Y-100052781D01*
X32325346Y-100070024D01*
X32310930Y-100085930D01*
X32295024Y-100100346D01*
X32277781Y-100113134D01*
X32259368Y-100124170D01*
X32239962Y-100133349D01*
X32219750Y-100140581D01*
X32198926Y-100145797D01*
X32177691Y-100148947D01*
X32156250Y-100150000D01*
X31643750Y-100150000D01*
X31622309Y-100148947D01*
X31601074Y-100145797D01*
X31580250Y-100140581D01*
X31560038Y-100133349D01*
X31540632Y-100124170D01*
X31522219Y-100113134D01*
X31504976Y-100100346D01*
X31489070Y-100085930D01*
X31474654Y-100070024D01*
X31461866Y-100052781D01*
X31450830Y-100034368D01*
X31441651Y-100014962D01*
X31434419Y-99994750D01*
X31429203Y-99973926D01*
X31426053Y-99952691D01*
X31425000Y-99931250D01*
X31425000Y-99493750D01*
X31426053Y-99472309D01*
X31429203Y-99451074D01*
X31434419Y-99430250D01*
X31441651Y-99410038D01*
X31450830Y-99390632D01*
X31461866Y-99372219D01*
X31474654Y-99354976D01*
X31489070Y-99339070D01*
X31504976Y-99324654D01*
X31522219Y-99311866D01*
X31540632Y-99300830D01*
X31560038Y-99291651D01*
X31580250Y-99284419D01*
X31601074Y-99279203D01*
X31622309Y-99276053D01*
X31643750Y-99275000D01*
X32156250Y-99275000D01*
X32177691Y-99276053D01*
X32177691Y-99276053D01*
G37*
D11*
X31900000Y-99712500D03*
D12*
X31500000Y-94450000D03*
X31500000Y-96950000D03*
D13*
X50300000Y-110500000D03*
D14*
X52840000Y-110500000D03*
X50300000Y-113040000D03*
X52840000Y-113040000D03*
X50300000Y-115580000D03*
X52840000Y-115580000D03*
D15*
X33340000Y-116340000D03*
X33990000Y-116340000D03*
X34640000Y-116340000D03*
X35290000Y-116340000D03*
X35940000Y-116340000D03*
D16*
X32177500Y-116700000D03*
X37102500Y-116700000D03*
D17*
X31730000Y-119000000D03*
X37550000Y-119000000D03*
D18*
X33800000Y-119000000D03*
X35480000Y-119000000D03*
D10*
G36*
X35052691Y-107326053D02*
G01*
X35073926Y-107329203D01*
X35094750Y-107334419D01*
X35114962Y-107341651D01*
X35134368Y-107350830D01*
X35152781Y-107361866D01*
X35170024Y-107374654D01*
X35185930Y-107389070D01*
X35200346Y-107404976D01*
X35213134Y-107422219D01*
X35224170Y-107440632D01*
X35233349Y-107460038D01*
X35240581Y-107480250D01*
X35245797Y-107501074D01*
X35248947Y-107522309D01*
X35250000Y-107543750D01*
X35250000Y-108056250D01*
X35248947Y-108077691D01*
X35245797Y-108098926D01*
X35240581Y-108119750D01*
X35233349Y-108139962D01*
X35224170Y-108159368D01*
X35213134Y-108177781D01*
X35200346Y-108195024D01*
X35185930Y-108210930D01*
X35170024Y-108225346D01*
X35152781Y-108238134D01*
X35134368Y-108249170D01*
X35114962Y-108258349D01*
X35094750Y-108265581D01*
X35073926Y-108270797D01*
X35052691Y-108273947D01*
X35031250Y-108275000D01*
X34593750Y-108275000D01*
X34572309Y-108273947D01*
X34551074Y-108270797D01*
X34530250Y-108265581D01*
X34510038Y-108258349D01*
X34490632Y-108249170D01*
X34472219Y-108238134D01*
X34454976Y-108225346D01*
X34439070Y-108210930D01*
X34424654Y-108195024D01*
X34411866Y-108177781D01*
X34400830Y-108159368D01*
X34391651Y-108139962D01*
X34384419Y-108119750D01*
X34379203Y-108098926D01*
X34376053Y-108077691D01*
X34375000Y-108056250D01*
X34375000Y-107543750D01*
X34376053Y-107522309D01*
X34379203Y-107501074D01*
X34384419Y-107480250D01*
X34391651Y-107460038D01*
X34400830Y-107440632D01*
X34411866Y-107422219D01*
X34424654Y-107404976D01*
X34439070Y-107389070D01*
X34454976Y-107374654D01*
X34472219Y-107361866D01*
X34490632Y-107350830D01*
X34510038Y-107341651D01*
X34530250Y-107334419D01*
X34551074Y-107329203D01*
X34572309Y-107326053D01*
X34593750Y-107325000D01*
X35031250Y-107325000D01*
X35052691Y-107326053D01*
X35052691Y-107326053D01*
G37*
D11*
X34812500Y-107800000D03*
D10*
G36*
X36627691Y-107326053D02*
G01*
X36648926Y-107329203D01*
X36669750Y-107334419D01*
X36689962Y-107341651D01*
X36709368Y-107350830D01*
X36727781Y-107361866D01*
X36745024Y-107374654D01*
X36760930Y-107389070D01*
X36775346Y-107404976D01*
X36788134Y-107422219D01*
X36799170Y-107440632D01*
X36808349Y-107460038D01*
X36815581Y-107480250D01*
X36820797Y-107501074D01*
X36823947Y-107522309D01*
X36825000Y-107543750D01*
X36825000Y-108056250D01*
X36823947Y-108077691D01*
X36820797Y-108098926D01*
X36815581Y-108119750D01*
X36808349Y-108139962D01*
X36799170Y-108159368D01*
X36788134Y-108177781D01*
X36775346Y-108195024D01*
X36760930Y-108210930D01*
X36745024Y-108225346D01*
X36727781Y-108238134D01*
X36709368Y-108249170D01*
X36689962Y-108258349D01*
X36669750Y-108265581D01*
X36648926Y-108270797D01*
X36627691Y-108273947D01*
X36606250Y-108275000D01*
X36168750Y-108275000D01*
X36147309Y-108273947D01*
X36126074Y-108270797D01*
X36105250Y-108265581D01*
X36085038Y-108258349D01*
X36065632Y-108249170D01*
X36047219Y-108238134D01*
X36029976Y-108225346D01*
X36014070Y-108210930D01*
X35999654Y-108195024D01*
X35986866Y-108177781D01*
X35975830Y-108159368D01*
X35966651Y-108139962D01*
X35959419Y-108119750D01*
X35954203Y-108098926D01*
X35951053Y-108077691D01*
X35950000Y-108056250D01*
X35950000Y-107543750D01*
X35951053Y-107522309D01*
X35954203Y-107501074D01*
X35959419Y-107480250D01*
X35966651Y-107460038D01*
X35975830Y-107440632D01*
X35986866Y-107422219D01*
X35999654Y-107404976D01*
X36014070Y-107389070D01*
X36029976Y-107374654D01*
X36047219Y-107361866D01*
X36065632Y-107350830D01*
X36085038Y-107341651D01*
X36105250Y-107334419D01*
X36126074Y-107329203D01*
X36147309Y-107326053D01*
X36168750Y-107325000D01*
X36606250Y-107325000D01*
X36627691Y-107326053D01*
X36627691Y-107326053D01*
G37*
D11*
X36387500Y-107800000D03*
D10*
G36*
X32677691Y-108976053D02*
G01*
X32698926Y-108979203D01*
X32719750Y-108984419D01*
X32739962Y-108991651D01*
X32759368Y-109000830D01*
X32777781Y-109011866D01*
X32795024Y-109024654D01*
X32810930Y-109039070D01*
X32825346Y-109054976D01*
X32838134Y-109072219D01*
X32849170Y-109090632D01*
X32858349Y-109110038D01*
X32865581Y-109130250D01*
X32870797Y-109151074D01*
X32873947Y-109172309D01*
X32875000Y-109193750D01*
X32875000Y-109631250D01*
X32873947Y-109652691D01*
X32870797Y-109673926D01*
X32865581Y-109694750D01*
X32858349Y-109714962D01*
X32849170Y-109734368D01*
X32838134Y-109752781D01*
X32825346Y-109770024D01*
X32810930Y-109785930D01*
X32795024Y-109800346D01*
X32777781Y-109813134D01*
X32759368Y-109824170D01*
X32739962Y-109833349D01*
X32719750Y-109840581D01*
X32698926Y-109845797D01*
X32677691Y-109848947D01*
X32656250Y-109850000D01*
X32143750Y-109850000D01*
X32122309Y-109848947D01*
X32101074Y-109845797D01*
X32080250Y-109840581D01*
X32060038Y-109833349D01*
X32040632Y-109824170D01*
X32022219Y-109813134D01*
X32004976Y-109800346D01*
X31989070Y-109785930D01*
X31974654Y-109770024D01*
X31961866Y-109752781D01*
X31950830Y-109734368D01*
X31941651Y-109714962D01*
X31934419Y-109694750D01*
X31929203Y-109673926D01*
X31926053Y-109652691D01*
X31925000Y-109631250D01*
X31925000Y-109193750D01*
X31926053Y-109172309D01*
X31929203Y-109151074D01*
X31934419Y-109130250D01*
X31941651Y-109110038D01*
X31950830Y-109090632D01*
X31961866Y-109072219D01*
X31974654Y-109054976D01*
X31989070Y-109039070D01*
X32004976Y-109024654D01*
X32022219Y-109011866D01*
X32040632Y-109000830D01*
X32060038Y-108991651D01*
X32080250Y-108984419D01*
X32101074Y-108979203D01*
X32122309Y-108976053D01*
X32143750Y-108975000D01*
X32656250Y-108975000D01*
X32677691Y-108976053D01*
X32677691Y-108976053D01*
G37*
D11*
X32400000Y-109412500D03*
D10*
G36*
X32677691Y-110551053D02*
G01*
X32698926Y-110554203D01*
X32719750Y-110559419D01*
X32739962Y-110566651D01*
X32759368Y-110575830D01*
X32777781Y-110586866D01*
X32795024Y-110599654D01*
X32810930Y-110614070D01*
X32825346Y-110629976D01*
X32838134Y-110647219D01*
X32849170Y-110665632D01*
X32858349Y-110685038D01*
X32865581Y-110705250D01*
X32870797Y-110726074D01*
X32873947Y-110747309D01*
X32875000Y-110768750D01*
X32875000Y-111206250D01*
X32873947Y-111227691D01*
X32870797Y-111248926D01*
X32865581Y-111269750D01*
X32858349Y-111289962D01*
X32849170Y-111309368D01*
X32838134Y-111327781D01*
X32825346Y-111345024D01*
X32810930Y-111360930D01*
X32795024Y-111375346D01*
X32777781Y-111388134D01*
X32759368Y-111399170D01*
X32739962Y-111408349D01*
X32719750Y-111415581D01*
X32698926Y-111420797D01*
X32677691Y-111423947D01*
X32656250Y-111425000D01*
X32143750Y-111425000D01*
X32122309Y-111423947D01*
X32101074Y-111420797D01*
X32080250Y-111415581D01*
X32060038Y-111408349D01*
X32040632Y-111399170D01*
X32022219Y-111388134D01*
X32004976Y-111375346D01*
X31989070Y-111360930D01*
X31974654Y-111345024D01*
X31961866Y-111327781D01*
X31950830Y-111309368D01*
X31941651Y-111289962D01*
X31934419Y-111269750D01*
X31929203Y-111248926D01*
X31926053Y-111227691D01*
X31925000Y-111206250D01*
X31925000Y-110768750D01*
X31926053Y-110747309D01*
X31929203Y-110726074D01*
X31934419Y-110705250D01*
X31941651Y-110685038D01*
X31950830Y-110665632D01*
X31961866Y-110647219D01*
X31974654Y-110629976D01*
X31989070Y-110614070D01*
X32004976Y-110599654D01*
X32022219Y-110586866D01*
X32040632Y-110575830D01*
X32060038Y-110566651D01*
X32080250Y-110559419D01*
X32101074Y-110554203D01*
X32122309Y-110551053D01*
X32143750Y-110550000D01*
X32656250Y-110550000D01*
X32677691Y-110551053D01*
X32677691Y-110551053D01*
G37*
D11*
X32400000Y-110987500D03*
D10*
G36*
X31177691Y-110551053D02*
G01*
X31198926Y-110554203D01*
X31219750Y-110559419D01*
X31239962Y-110566651D01*
X31259368Y-110575830D01*
X31277781Y-110586866D01*
X31295024Y-110599654D01*
X31310930Y-110614070D01*
X31325346Y-110629976D01*
X31338134Y-110647219D01*
X31349170Y-110665632D01*
X31358349Y-110685038D01*
X31365581Y-110705250D01*
X31370797Y-110726074D01*
X31373947Y-110747309D01*
X31375000Y-110768750D01*
X31375000Y-111206250D01*
X31373947Y-111227691D01*
X31370797Y-111248926D01*
X31365581Y-111269750D01*
X31358349Y-111289962D01*
X31349170Y-111309368D01*
X31338134Y-111327781D01*
X31325346Y-111345024D01*
X31310930Y-111360930D01*
X31295024Y-111375346D01*
X31277781Y-111388134D01*
X31259368Y-111399170D01*
X31239962Y-111408349D01*
X31219750Y-111415581D01*
X31198926Y-111420797D01*
X31177691Y-111423947D01*
X31156250Y-111425000D01*
X30643750Y-111425000D01*
X30622309Y-111423947D01*
X30601074Y-111420797D01*
X30580250Y-111415581D01*
X30560038Y-111408349D01*
X30540632Y-111399170D01*
X30522219Y-111388134D01*
X30504976Y-111375346D01*
X30489070Y-111360930D01*
X30474654Y-111345024D01*
X30461866Y-111327781D01*
X30450830Y-111309368D01*
X30441651Y-111289962D01*
X30434419Y-111269750D01*
X30429203Y-111248926D01*
X30426053Y-111227691D01*
X30425000Y-111206250D01*
X30425000Y-110768750D01*
X30426053Y-110747309D01*
X30429203Y-110726074D01*
X30434419Y-110705250D01*
X30441651Y-110685038D01*
X30450830Y-110665632D01*
X30461866Y-110647219D01*
X30474654Y-110629976D01*
X30489070Y-110614070D01*
X30504976Y-110599654D01*
X30522219Y-110586866D01*
X30540632Y-110575830D01*
X30560038Y-110566651D01*
X30580250Y-110559419D01*
X30601074Y-110554203D01*
X30622309Y-110551053D01*
X30643750Y-110550000D01*
X31156250Y-110550000D01*
X31177691Y-110551053D01*
X31177691Y-110551053D01*
G37*
D11*
X30900000Y-110987500D03*
D10*
G36*
X31177691Y-108976053D02*
G01*
X31198926Y-108979203D01*
X31219750Y-108984419D01*
X31239962Y-108991651D01*
X31259368Y-109000830D01*
X31277781Y-109011866D01*
X31295024Y-109024654D01*
X31310930Y-109039070D01*
X31325346Y-109054976D01*
X31338134Y-109072219D01*
X31349170Y-109090632D01*
X31358349Y-109110038D01*
X31365581Y-109130250D01*
X31370797Y-109151074D01*
X31373947Y-109172309D01*
X31375000Y-109193750D01*
X31375000Y-109631250D01*
X31373947Y-109652691D01*
X31370797Y-109673926D01*
X31365581Y-109694750D01*
X31358349Y-109714962D01*
X31349170Y-109734368D01*
X31338134Y-109752781D01*
X31325346Y-109770024D01*
X31310930Y-109785930D01*
X31295024Y-109800346D01*
X31277781Y-109813134D01*
X31259368Y-109824170D01*
X31239962Y-109833349D01*
X31219750Y-109840581D01*
X31198926Y-109845797D01*
X31177691Y-109848947D01*
X31156250Y-109850000D01*
X30643750Y-109850000D01*
X30622309Y-109848947D01*
X30601074Y-109845797D01*
X30580250Y-109840581D01*
X30560038Y-109833349D01*
X30540632Y-109824170D01*
X30522219Y-109813134D01*
X30504976Y-109800346D01*
X30489070Y-109785930D01*
X30474654Y-109770024D01*
X30461866Y-109752781D01*
X30450830Y-109734368D01*
X30441651Y-109714962D01*
X30434419Y-109694750D01*
X30429203Y-109673926D01*
X30426053Y-109652691D01*
X30425000Y-109631250D01*
X30425000Y-109193750D01*
X30426053Y-109172309D01*
X30429203Y-109151074D01*
X30434419Y-109130250D01*
X30441651Y-109110038D01*
X30450830Y-109090632D01*
X30461866Y-109072219D01*
X30474654Y-109054976D01*
X30489070Y-109039070D01*
X30504976Y-109024654D01*
X30522219Y-109011866D01*
X30540632Y-109000830D01*
X30560038Y-108991651D01*
X30580250Y-108984419D01*
X30601074Y-108979203D01*
X30622309Y-108976053D01*
X30643750Y-108975000D01*
X31156250Y-108975000D01*
X31177691Y-108976053D01*
X31177691Y-108976053D01*
G37*
D11*
X30900000Y-109412500D03*
D10*
G36*
X49077691Y-97851053D02*
G01*
X49098926Y-97854203D01*
X49119750Y-97859419D01*
X49139962Y-97866651D01*
X49159368Y-97875830D01*
X49177781Y-97886866D01*
X49195024Y-97899654D01*
X49210930Y-97914070D01*
X49225346Y-97929976D01*
X49238134Y-97947219D01*
X49249170Y-97965632D01*
X49258349Y-97985038D01*
X49265581Y-98005250D01*
X49270797Y-98026074D01*
X49273947Y-98047309D01*
X49275000Y-98068750D01*
X49275000Y-98506250D01*
X49273947Y-98527691D01*
X49270797Y-98548926D01*
X49265581Y-98569750D01*
X49258349Y-98589962D01*
X49249170Y-98609368D01*
X49238134Y-98627781D01*
X49225346Y-98645024D01*
X49210930Y-98660930D01*
X49195024Y-98675346D01*
X49177781Y-98688134D01*
X49159368Y-98699170D01*
X49139962Y-98708349D01*
X49119750Y-98715581D01*
X49098926Y-98720797D01*
X49077691Y-98723947D01*
X49056250Y-98725000D01*
X48543750Y-98725000D01*
X48522309Y-98723947D01*
X48501074Y-98720797D01*
X48480250Y-98715581D01*
X48460038Y-98708349D01*
X48440632Y-98699170D01*
X48422219Y-98688134D01*
X48404976Y-98675346D01*
X48389070Y-98660930D01*
X48374654Y-98645024D01*
X48361866Y-98627781D01*
X48350830Y-98609368D01*
X48341651Y-98589962D01*
X48334419Y-98569750D01*
X48329203Y-98548926D01*
X48326053Y-98527691D01*
X48325000Y-98506250D01*
X48325000Y-98068750D01*
X48326053Y-98047309D01*
X48329203Y-98026074D01*
X48334419Y-98005250D01*
X48341651Y-97985038D01*
X48350830Y-97965632D01*
X48361866Y-97947219D01*
X48374654Y-97929976D01*
X48389070Y-97914070D01*
X48404976Y-97899654D01*
X48422219Y-97886866D01*
X48440632Y-97875830D01*
X48460038Y-97866651D01*
X48480250Y-97859419D01*
X48501074Y-97854203D01*
X48522309Y-97851053D01*
X48543750Y-97850000D01*
X49056250Y-97850000D01*
X49077691Y-97851053D01*
X49077691Y-97851053D01*
G37*
D11*
X48800000Y-98287500D03*
D10*
G36*
X49077691Y-96276053D02*
G01*
X49098926Y-96279203D01*
X49119750Y-96284419D01*
X49139962Y-96291651D01*
X49159368Y-96300830D01*
X49177781Y-96311866D01*
X49195024Y-96324654D01*
X49210930Y-96339070D01*
X49225346Y-96354976D01*
X49238134Y-96372219D01*
X49249170Y-96390632D01*
X49258349Y-96410038D01*
X49265581Y-96430250D01*
X49270797Y-96451074D01*
X49273947Y-96472309D01*
X49275000Y-96493750D01*
X49275000Y-96931250D01*
X49273947Y-96952691D01*
X49270797Y-96973926D01*
X49265581Y-96994750D01*
X49258349Y-97014962D01*
X49249170Y-97034368D01*
X49238134Y-97052781D01*
X49225346Y-97070024D01*
X49210930Y-97085930D01*
X49195024Y-97100346D01*
X49177781Y-97113134D01*
X49159368Y-97124170D01*
X49139962Y-97133349D01*
X49119750Y-97140581D01*
X49098926Y-97145797D01*
X49077691Y-97148947D01*
X49056250Y-97150000D01*
X48543750Y-97150000D01*
X48522309Y-97148947D01*
X48501074Y-97145797D01*
X48480250Y-97140581D01*
X48460038Y-97133349D01*
X48440632Y-97124170D01*
X48422219Y-97113134D01*
X48404976Y-97100346D01*
X48389070Y-97085930D01*
X48374654Y-97070024D01*
X48361866Y-97052781D01*
X48350830Y-97034368D01*
X48341651Y-97014962D01*
X48334419Y-96994750D01*
X48329203Y-96973926D01*
X48326053Y-96952691D01*
X48325000Y-96931250D01*
X48325000Y-96493750D01*
X48326053Y-96472309D01*
X48329203Y-96451074D01*
X48334419Y-96430250D01*
X48341651Y-96410038D01*
X48350830Y-96390632D01*
X48361866Y-96372219D01*
X48374654Y-96354976D01*
X48389070Y-96339070D01*
X48404976Y-96324654D01*
X48422219Y-96311866D01*
X48440632Y-96300830D01*
X48460038Y-96291651D01*
X48480250Y-96284419D01*
X48501074Y-96279203D01*
X48522309Y-96276053D01*
X48543750Y-96275000D01*
X49056250Y-96275000D01*
X49077691Y-96276053D01*
X49077691Y-96276053D01*
G37*
D11*
X48800000Y-96712500D03*
D10*
G36*
X50577691Y-96276053D02*
G01*
X50598926Y-96279203D01*
X50619750Y-96284419D01*
X50639962Y-96291651D01*
X50659368Y-96300830D01*
X50677781Y-96311866D01*
X50695024Y-96324654D01*
X50710930Y-96339070D01*
X50725346Y-96354976D01*
X50738134Y-96372219D01*
X50749170Y-96390632D01*
X50758349Y-96410038D01*
X50765581Y-96430250D01*
X50770797Y-96451074D01*
X50773947Y-96472309D01*
X50775000Y-96493750D01*
X50775000Y-96931250D01*
X50773947Y-96952691D01*
X50770797Y-96973926D01*
X50765581Y-96994750D01*
X50758349Y-97014962D01*
X50749170Y-97034368D01*
X50738134Y-97052781D01*
X50725346Y-97070024D01*
X50710930Y-97085930D01*
X50695024Y-97100346D01*
X50677781Y-97113134D01*
X50659368Y-97124170D01*
X50639962Y-97133349D01*
X50619750Y-97140581D01*
X50598926Y-97145797D01*
X50577691Y-97148947D01*
X50556250Y-97150000D01*
X50043750Y-97150000D01*
X50022309Y-97148947D01*
X50001074Y-97145797D01*
X49980250Y-97140581D01*
X49960038Y-97133349D01*
X49940632Y-97124170D01*
X49922219Y-97113134D01*
X49904976Y-97100346D01*
X49889070Y-97085930D01*
X49874654Y-97070024D01*
X49861866Y-97052781D01*
X49850830Y-97034368D01*
X49841651Y-97014962D01*
X49834419Y-96994750D01*
X49829203Y-96973926D01*
X49826053Y-96952691D01*
X49825000Y-96931250D01*
X49825000Y-96493750D01*
X49826053Y-96472309D01*
X49829203Y-96451074D01*
X49834419Y-96430250D01*
X49841651Y-96410038D01*
X49850830Y-96390632D01*
X49861866Y-96372219D01*
X49874654Y-96354976D01*
X49889070Y-96339070D01*
X49904976Y-96324654D01*
X49922219Y-96311866D01*
X49940632Y-96300830D01*
X49960038Y-96291651D01*
X49980250Y-96284419D01*
X50001074Y-96279203D01*
X50022309Y-96276053D01*
X50043750Y-96275000D01*
X50556250Y-96275000D01*
X50577691Y-96276053D01*
X50577691Y-96276053D01*
G37*
D11*
X50300000Y-96712500D03*
D10*
G36*
X50577691Y-97851053D02*
G01*
X50598926Y-97854203D01*
X50619750Y-97859419D01*
X50639962Y-97866651D01*
X50659368Y-97875830D01*
X50677781Y-97886866D01*
X50695024Y-97899654D01*
X50710930Y-97914070D01*
X50725346Y-97929976D01*
X50738134Y-97947219D01*
X50749170Y-97965632D01*
X50758349Y-97985038D01*
X50765581Y-98005250D01*
X50770797Y-98026074D01*
X50773947Y-98047309D01*
X50775000Y-98068750D01*
X50775000Y-98506250D01*
X50773947Y-98527691D01*
X50770797Y-98548926D01*
X50765581Y-98569750D01*
X50758349Y-98589962D01*
X50749170Y-98609368D01*
X50738134Y-98627781D01*
X50725346Y-98645024D01*
X50710930Y-98660930D01*
X50695024Y-98675346D01*
X50677781Y-98688134D01*
X50659368Y-98699170D01*
X50639962Y-98708349D01*
X50619750Y-98715581D01*
X50598926Y-98720797D01*
X50577691Y-98723947D01*
X50556250Y-98725000D01*
X50043750Y-98725000D01*
X50022309Y-98723947D01*
X50001074Y-98720797D01*
X49980250Y-98715581D01*
X49960038Y-98708349D01*
X49940632Y-98699170D01*
X49922219Y-98688134D01*
X49904976Y-98675346D01*
X49889070Y-98660930D01*
X49874654Y-98645024D01*
X49861866Y-98627781D01*
X49850830Y-98609368D01*
X49841651Y-98589962D01*
X49834419Y-98569750D01*
X49829203Y-98548926D01*
X49826053Y-98527691D01*
X49825000Y-98506250D01*
X49825000Y-98068750D01*
X49826053Y-98047309D01*
X49829203Y-98026074D01*
X49834419Y-98005250D01*
X49841651Y-97985038D01*
X49850830Y-97965632D01*
X49861866Y-97947219D01*
X49874654Y-97929976D01*
X49889070Y-97914070D01*
X49904976Y-97899654D01*
X49922219Y-97886866D01*
X49940632Y-97875830D01*
X49960038Y-97866651D01*
X49980250Y-97859419D01*
X50001074Y-97854203D01*
X50022309Y-97851053D01*
X50043750Y-97850000D01*
X50556250Y-97850000D01*
X50577691Y-97851053D01*
X50577691Y-97851053D01*
G37*
D11*
X50300000Y-98287500D03*
D10*
G36*
X49577691Y-74451053D02*
G01*
X49598926Y-74454203D01*
X49619750Y-74459419D01*
X49639962Y-74466651D01*
X49659368Y-74475830D01*
X49677781Y-74486866D01*
X49695024Y-74499654D01*
X49710930Y-74514070D01*
X49725346Y-74529976D01*
X49738134Y-74547219D01*
X49749170Y-74565632D01*
X49758349Y-74585038D01*
X49765581Y-74605250D01*
X49770797Y-74626074D01*
X49773947Y-74647309D01*
X49775000Y-74668750D01*
X49775000Y-75106250D01*
X49773947Y-75127691D01*
X49770797Y-75148926D01*
X49765581Y-75169750D01*
X49758349Y-75189962D01*
X49749170Y-75209368D01*
X49738134Y-75227781D01*
X49725346Y-75245024D01*
X49710930Y-75260930D01*
X49695024Y-75275346D01*
X49677781Y-75288134D01*
X49659368Y-75299170D01*
X49639962Y-75308349D01*
X49619750Y-75315581D01*
X49598926Y-75320797D01*
X49577691Y-75323947D01*
X49556250Y-75325000D01*
X49043750Y-75325000D01*
X49022309Y-75323947D01*
X49001074Y-75320797D01*
X48980250Y-75315581D01*
X48960038Y-75308349D01*
X48940632Y-75299170D01*
X48922219Y-75288134D01*
X48904976Y-75275346D01*
X48889070Y-75260930D01*
X48874654Y-75245024D01*
X48861866Y-75227781D01*
X48850830Y-75209368D01*
X48841651Y-75189962D01*
X48834419Y-75169750D01*
X48829203Y-75148926D01*
X48826053Y-75127691D01*
X48825000Y-75106250D01*
X48825000Y-74668750D01*
X48826053Y-74647309D01*
X48829203Y-74626074D01*
X48834419Y-74605250D01*
X48841651Y-74585038D01*
X48850830Y-74565632D01*
X48861866Y-74547219D01*
X48874654Y-74529976D01*
X48889070Y-74514070D01*
X48904976Y-74499654D01*
X48922219Y-74486866D01*
X48940632Y-74475830D01*
X48960038Y-74466651D01*
X48980250Y-74459419D01*
X49001074Y-74454203D01*
X49022309Y-74451053D01*
X49043750Y-74450000D01*
X49556250Y-74450000D01*
X49577691Y-74451053D01*
X49577691Y-74451053D01*
G37*
D11*
X49300000Y-74887500D03*
D10*
G36*
X49577691Y-72876053D02*
G01*
X49598926Y-72879203D01*
X49619750Y-72884419D01*
X49639962Y-72891651D01*
X49659368Y-72900830D01*
X49677781Y-72911866D01*
X49695024Y-72924654D01*
X49710930Y-72939070D01*
X49725346Y-72954976D01*
X49738134Y-72972219D01*
X49749170Y-72990632D01*
X49758349Y-73010038D01*
X49765581Y-73030250D01*
X49770797Y-73051074D01*
X49773947Y-73072309D01*
X49775000Y-73093750D01*
X49775000Y-73531250D01*
X49773947Y-73552691D01*
X49770797Y-73573926D01*
X49765581Y-73594750D01*
X49758349Y-73614962D01*
X49749170Y-73634368D01*
X49738134Y-73652781D01*
X49725346Y-73670024D01*
X49710930Y-73685930D01*
X49695024Y-73700346D01*
X49677781Y-73713134D01*
X49659368Y-73724170D01*
X49639962Y-73733349D01*
X49619750Y-73740581D01*
X49598926Y-73745797D01*
X49577691Y-73748947D01*
X49556250Y-73750000D01*
X49043750Y-73750000D01*
X49022309Y-73748947D01*
X49001074Y-73745797D01*
X48980250Y-73740581D01*
X48960038Y-73733349D01*
X48940632Y-73724170D01*
X48922219Y-73713134D01*
X48904976Y-73700346D01*
X48889070Y-73685930D01*
X48874654Y-73670024D01*
X48861866Y-73652781D01*
X48850830Y-73634368D01*
X48841651Y-73614962D01*
X48834419Y-73594750D01*
X48829203Y-73573926D01*
X48826053Y-73552691D01*
X48825000Y-73531250D01*
X48825000Y-73093750D01*
X48826053Y-73072309D01*
X48829203Y-73051074D01*
X48834419Y-73030250D01*
X48841651Y-73010038D01*
X48850830Y-72990632D01*
X48861866Y-72972219D01*
X48874654Y-72954976D01*
X48889070Y-72939070D01*
X48904976Y-72924654D01*
X48922219Y-72911866D01*
X48940632Y-72900830D01*
X48960038Y-72891651D01*
X48980250Y-72884419D01*
X49001074Y-72879203D01*
X49022309Y-72876053D01*
X49043750Y-72875000D01*
X49556250Y-72875000D01*
X49577691Y-72876053D01*
X49577691Y-72876053D01*
G37*
D11*
X49300000Y-73312500D03*
D10*
G36*
X49577691Y-75876053D02*
G01*
X49598926Y-75879203D01*
X49619750Y-75884419D01*
X49639962Y-75891651D01*
X49659368Y-75900830D01*
X49677781Y-75911866D01*
X49695024Y-75924654D01*
X49710930Y-75939070D01*
X49725346Y-75954976D01*
X49738134Y-75972219D01*
X49749170Y-75990632D01*
X49758349Y-76010038D01*
X49765581Y-76030250D01*
X49770797Y-76051074D01*
X49773947Y-76072309D01*
X49775000Y-76093750D01*
X49775000Y-76531250D01*
X49773947Y-76552691D01*
X49770797Y-76573926D01*
X49765581Y-76594750D01*
X49758349Y-76614962D01*
X49749170Y-76634368D01*
X49738134Y-76652781D01*
X49725346Y-76670024D01*
X49710930Y-76685930D01*
X49695024Y-76700346D01*
X49677781Y-76713134D01*
X49659368Y-76724170D01*
X49639962Y-76733349D01*
X49619750Y-76740581D01*
X49598926Y-76745797D01*
X49577691Y-76748947D01*
X49556250Y-76750000D01*
X49043750Y-76750000D01*
X49022309Y-76748947D01*
X49001074Y-76745797D01*
X48980250Y-76740581D01*
X48960038Y-76733349D01*
X48940632Y-76724170D01*
X48922219Y-76713134D01*
X48904976Y-76700346D01*
X48889070Y-76685930D01*
X48874654Y-76670024D01*
X48861866Y-76652781D01*
X48850830Y-76634368D01*
X48841651Y-76614962D01*
X48834419Y-76594750D01*
X48829203Y-76573926D01*
X48826053Y-76552691D01*
X48825000Y-76531250D01*
X48825000Y-76093750D01*
X48826053Y-76072309D01*
X48829203Y-76051074D01*
X48834419Y-76030250D01*
X48841651Y-76010038D01*
X48850830Y-75990632D01*
X48861866Y-75972219D01*
X48874654Y-75954976D01*
X48889070Y-75939070D01*
X48904976Y-75924654D01*
X48922219Y-75911866D01*
X48940632Y-75900830D01*
X48960038Y-75891651D01*
X48980250Y-75884419D01*
X49001074Y-75879203D01*
X49022309Y-75876053D01*
X49043750Y-75875000D01*
X49556250Y-75875000D01*
X49577691Y-75876053D01*
X49577691Y-75876053D01*
G37*
D11*
X49300000Y-76312500D03*
D10*
G36*
X49577691Y-77451053D02*
G01*
X49598926Y-77454203D01*
X49619750Y-77459419D01*
X49639962Y-77466651D01*
X49659368Y-77475830D01*
X49677781Y-77486866D01*
X49695024Y-77499654D01*
X49710930Y-77514070D01*
X49725346Y-77529976D01*
X49738134Y-77547219D01*
X49749170Y-77565632D01*
X49758349Y-77585038D01*
X49765581Y-77605250D01*
X49770797Y-77626074D01*
X49773947Y-77647309D01*
X49775000Y-77668750D01*
X49775000Y-78106250D01*
X49773947Y-78127691D01*
X49770797Y-78148926D01*
X49765581Y-78169750D01*
X49758349Y-78189962D01*
X49749170Y-78209368D01*
X49738134Y-78227781D01*
X49725346Y-78245024D01*
X49710930Y-78260930D01*
X49695024Y-78275346D01*
X49677781Y-78288134D01*
X49659368Y-78299170D01*
X49639962Y-78308349D01*
X49619750Y-78315581D01*
X49598926Y-78320797D01*
X49577691Y-78323947D01*
X49556250Y-78325000D01*
X49043750Y-78325000D01*
X49022309Y-78323947D01*
X49001074Y-78320797D01*
X48980250Y-78315581D01*
X48960038Y-78308349D01*
X48940632Y-78299170D01*
X48922219Y-78288134D01*
X48904976Y-78275346D01*
X48889070Y-78260930D01*
X48874654Y-78245024D01*
X48861866Y-78227781D01*
X48850830Y-78209368D01*
X48841651Y-78189962D01*
X48834419Y-78169750D01*
X48829203Y-78148926D01*
X48826053Y-78127691D01*
X48825000Y-78106250D01*
X48825000Y-77668750D01*
X48826053Y-77647309D01*
X48829203Y-77626074D01*
X48834419Y-77605250D01*
X48841651Y-77585038D01*
X48850830Y-77565632D01*
X48861866Y-77547219D01*
X48874654Y-77529976D01*
X48889070Y-77514070D01*
X48904976Y-77499654D01*
X48922219Y-77486866D01*
X48940632Y-77475830D01*
X48960038Y-77466651D01*
X48980250Y-77459419D01*
X49001074Y-77454203D01*
X49022309Y-77451053D01*
X49043750Y-77450000D01*
X49556250Y-77450000D01*
X49577691Y-77451053D01*
X49577691Y-77451053D01*
G37*
D11*
X49300000Y-77887500D03*
D19*
X49924999Y-89175001D03*
X48624999Y-89175001D03*
X49274999Y-91075001D03*
X49274999Y-89175001D03*
X48624999Y-91075001D03*
X49924999Y-91075001D03*
D20*
X33700000Y-96200000D03*
X33700000Y-97000000D03*
X33700000Y-97800000D03*
X33700000Y-98600000D03*
X33700000Y-99400000D03*
X33700000Y-100200000D03*
X33700000Y-101000000D03*
X33700000Y-101800000D03*
X33700000Y-102600000D03*
X33700000Y-103400000D03*
X33700000Y-104200000D03*
D21*
X35400000Y-105900000D03*
X36200000Y-105900000D03*
X37000000Y-105900000D03*
X37800000Y-105900000D03*
X38600000Y-105900000D03*
X39400000Y-105900000D03*
X40200000Y-105900000D03*
X41000000Y-105900000D03*
X41800000Y-105900000D03*
X42600000Y-105900000D03*
X43400000Y-105900000D03*
D20*
X45100000Y-104200000D03*
X45100000Y-103400000D03*
X45100000Y-102600000D03*
X45100000Y-101800000D03*
X45100000Y-101000000D03*
X45100000Y-100200000D03*
X45100000Y-99400000D03*
X45100000Y-98600000D03*
X45100000Y-97800000D03*
X45100000Y-97000000D03*
X45100000Y-96200000D03*
D21*
X43400000Y-94500000D03*
X42600000Y-94500000D03*
X41800000Y-94500000D03*
X41000000Y-94500000D03*
X40200000Y-94500000D03*
X39400000Y-94500000D03*
X38600000Y-94500000D03*
X37800000Y-94500000D03*
X37000000Y-94500000D03*
X36200000Y-94500000D03*
X35400000Y-94500000D03*
D22*
X41700000Y-110600000D03*
X36500000Y-110600000D03*
D13*
X52900000Y-102600000D03*
D14*
X52900000Y-105140000D03*
X52900000Y-107680000D03*
X52900000Y-89420000D03*
X52900000Y-86880000D03*
X52900000Y-84340000D03*
D13*
X52900000Y-81800000D03*
X52900000Y-92200000D03*
D14*
X52900000Y-94740000D03*
X52900000Y-97280000D03*
X52900000Y-99820000D03*
D13*
X52900000Y-71400000D03*
D14*
X52900000Y-73940000D03*
X52900000Y-76480000D03*
X52900000Y-79020000D03*
D23*
X47100000Y-88850000D03*
X47100000Y-86950000D03*
X45100000Y-87900000D03*
D24*
X43300000Y-92900000D03*
X46800000Y-92200000D03*
X38100000Y-113300000D03*
X37800000Y-107800054D03*
X33900000Y-109300000D03*
X33900000Y-110200000D03*
X33900000Y-111100000D03*
X48800000Y-101300000D03*
X50450000Y-95350000D03*
X51600000Y-88200000D03*
X50050000Y-87100000D03*
X43600000Y-104400000D03*
X48700000Y-114250000D03*
X47600000Y-113550000D03*
X45300000Y-109950000D03*
X44400000Y-94500000D03*
X34300000Y-94400000D03*
X54400000Y-75200000D03*
X48300000Y-85300000D03*
X37200000Y-104300000D03*
X47600000Y-103400000D03*
X35100000Y-97200000D03*
X35100000Y-100300000D03*
X32600000Y-114800000D03*
X33900000Y-105500000D03*
X35200000Y-103500000D03*
X46800000Y-109700000D03*
X33200000Y-106300000D03*
X33200000Y-107800000D03*
X48800000Y-86700000D03*
X46700000Y-107400000D03*
X47800000Y-95500000D03*
X49600000Y-107800000D03*
X47800000Y-106700000D03*
X49300000Y-95500000D03*
X37400000Y-100300000D03*
X41400000Y-102300000D03*
X39400000Y-100300000D03*
X37400000Y-98300000D03*
X41400000Y-100300000D03*
X37400000Y-102300000D03*
X39400000Y-104300000D03*
X39400000Y-102300000D03*
X41400000Y-104300000D03*
X41400000Y-98300000D03*
X37400000Y-96300000D03*
X39400000Y-92400000D03*
X39400000Y-96300000D03*
X39400000Y-98300000D03*
X41400000Y-92400000D03*
X41400000Y-96300000D03*
X33300000Y-95200000D03*
X48100000Y-108900000D03*
D25*
X36200000Y-93900000D02*
X36200000Y-95050000D01*
X36200000Y-95650000D02*
X36000000Y-95850000D01*
X36200000Y-94500000D02*
X36200000Y-95650000D01*
X36000000Y-95850000D02*
X36000000Y-98800000D01*
X36000000Y-98800000D02*
X35400000Y-99400000D01*
X33700000Y-99400000D02*
X35400000Y-99400000D01*
X32212500Y-99400000D02*
X33700000Y-99400000D01*
X31900000Y-99712500D02*
X32212500Y-99400000D01*
X31730000Y-119000000D02*
X33800000Y-119000000D01*
X33800000Y-119000000D02*
X35480000Y-119000000D01*
X35480000Y-119000000D02*
X37550000Y-119000000D01*
X37102500Y-116700000D02*
X37102500Y-115250000D01*
X36787500Y-113300000D02*
X41412500Y-113300000D01*
X36787500Y-114935000D02*
X36787500Y-113300000D01*
X37102500Y-115250000D02*
X36787500Y-114935000D01*
X36265000Y-114935000D02*
X35940000Y-115260000D01*
X36787500Y-114935000D02*
X36265000Y-114935000D01*
X35940000Y-115260000D02*
X35940000Y-116340000D01*
D26*
X54120000Y-115580000D02*
X52840000Y-115580000D01*
X55700000Y-114000000D02*
X54120000Y-115580000D01*
X52900000Y-71400000D02*
X54750000Y-71400000D01*
X54750000Y-71400000D02*
X55700000Y-72350000D01*
X55400000Y-102600000D02*
X52900000Y-102600000D01*
X55700000Y-102900000D02*
X55400000Y-102600000D01*
X55700000Y-102900000D02*
X55700000Y-114000000D01*
D25*
X45100000Y-87900000D02*
X45100000Y-88800000D01*
X45512500Y-89212500D02*
X45512500Y-90500000D01*
X45100000Y-88800000D02*
X45512500Y-89212500D01*
X45512500Y-85300000D02*
X45512500Y-86487500D01*
X45100000Y-86900000D02*
X45100000Y-87900000D01*
X45512500Y-86487500D02*
X45100000Y-86900000D01*
D26*
X52900000Y-92200000D02*
X55700000Y-92200000D01*
X55700000Y-92200000D02*
X55700000Y-102900000D01*
D25*
X42600000Y-94500000D02*
X42600000Y-93600000D01*
X42600000Y-93600000D02*
X43300000Y-92900000D01*
D26*
X55600000Y-81800000D02*
X55700000Y-81700000D01*
X52900000Y-81800000D02*
X55600000Y-81800000D01*
X55700000Y-72350000D02*
X55700000Y-81700000D01*
D27*
X49274999Y-89175001D02*
X49274999Y-88425001D01*
X49274999Y-88425001D02*
X49500000Y-88200000D01*
X55300000Y-88200000D02*
X55700000Y-87800000D01*
X49500000Y-88200000D02*
X51600000Y-88200000D01*
D26*
X55700000Y-81700000D02*
X55700000Y-87800000D01*
X55700000Y-87800000D02*
X55700000Y-92200000D01*
D25*
X43300000Y-92300000D02*
X43300000Y-92900000D01*
X41800000Y-90800000D02*
X43300000Y-92300000D01*
X37300000Y-90800000D02*
X41800000Y-90800000D01*
X36200000Y-91900000D02*
X37300000Y-90800000D01*
X36200000Y-94500000D02*
X36200000Y-91900000D01*
X45512500Y-90912500D02*
X46800000Y-92200000D01*
X45512500Y-90500000D02*
X45512500Y-90912500D01*
X51300000Y-104200000D02*
X52900000Y-102600000D01*
X45100000Y-104200000D02*
X51300000Y-104200000D01*
D26*
X37550000Y-119000000D02*
X54100000Y-119000000D01*
X55700000Y-117400000D02*
X55700000Y-114000000D01*
X54100000Y-119000000D02*
X55700000Y-117400000D01*
X31730000Y-119000000D02*
X37550000Y-119000000D01*
X32177500Y-118552500D02*
X31730000Y-119000000D01*
X32177500Y-116700000D02*
X32177500Y-118552500D01*
X37102500Y-118552500D02*
X37550000Y-119000000D01*
X37102500Y-116700000D02*
X37102500Y-118552500D01*
D25*
X37800000Y-105900000D02*
X37800000Y-107800054D01*
D27*
X51600000Y-88200000D02*
X55300000Y-88200000D01*
D25*
X31500000Y-93550000D02*
X32150000Y-92900000D01*
X31500000Y-94450000D02*
X31500000Y-93550000D01*
X35400000Y-93100000D02*
X35400000Y-94500000D01*
X35200000Y-92900000D02*
X35400000Y-93100000D01*
X43400000Y-94500000D02*
X44400000Y-94500000D01*
X34300000Y-92900000D02*
X34300000Y-94400000D01*
X32150000Y-92900000D02*
X34300000Y-92900000D01*
X34300000Y-92900000D02*
X35200000Y-92900000D01*
D27*
X47125001Y-86924999D02*
X47100000Y-86950000D01*
D25*
X47087500Y-86937500D02*
X47100000Y-86950000D01*
X47087500Y-85300000D02*
X47087500Y-86937500D01*
D27*
X37000000Y-107187500D02*
X37000000Y-105900000D01*
X36387500Y-107800000D02*
X37000000Y-107187500D01*
X51244999Y-91075001D02*
X52900000Y-89420000D01*
X49924999Y-91075001D02*
X51244999Y-91075001D01*
D25*
X47087500Y-85300000D02*
X48300000Y-85300000D01*
X46250000Y-103400000D02*
X47600000Y-102050000D01*
X45100000Y-103400000D02*
X46250000Y-103400000D01*
X47600000Y-102050000D02*
X47600000Y-97912500D01*
X47600000Y-97912500D02*
X48800000Y-96712500D01*
X48800000Y-96712500D02*
X49787500Y-96712500D01*
X50300000Y-96712500D02*
X49787500Y-96712500D01*
X50927500Y-96712500D02*
X52900000Y-94740000D01*
X50300000Y-96712500D02*
X50927500Y-96712500D01*
X37000000Y-105900000D02*
X37000000Y-104500000D01*
X37000000Y-104500000D02*
X37200000Y-104300000D01*
X46250000Y-103400000D02*
X47600000Y-103400000D01*
D27*
X49300000Y-75600000D02*
X51100000Y-75600000D01*
X49300000Y-76312500D02*
X49300000Y-75600000D01*
X49300000Y-75600000D02*
X49300000Y-74887500D01*
X51500000Y-75200000D02*
X54400000Y-75200000D01*
X51100000Y-75600000D02*
X51500000Y-75200000D01*
X49274999Y-91075001D02*
X49274999Y-90225001D01*
X49274999Y-90225001D02*
X49400000Y-90100000D01*
X49400000Y-90100000D02*
X49800000Y-90100000D01*
X49924999Y-89975001D02*
X49924999Y-89175001D01*
X49800000Y-90100000D02*
X49924999Y-89975001D01*
D25*
X47087500Y-88862500D02*
X47100000Y-88850000D01*
X47087500Y-90500000D02*
X47087500Y-88862500D01*
D27*
X49950000Y-89150000D02*
X49924999Y-89175001D01*
X48025000Y-90100000D02*
X49400000Y-90100000D01*
X47625000Y-90500000D02*
X48025000Y-90100000D01*
X47087500Y-90500000D02*
X47625000Y-90500000D01*
X41150000Y-110600000D02*
X41700000Y-110600000D01*
X39400000Y-108850000D02*
X41150000Y-110600000D01*
X39400000Y-105900000D02*
X39400000Y-108850000D01*
X42987500Y-111887500D02*
X41700000Y-110600000D01*
X42987500Y-113300000D02*
X42987500Y-111887500D01*
D25*
X32361612Y-100825888D02*
X31900000Y-101287500D01*
X32361612Y-100600948D02*
X32361612Y-100825888D01*
X32762560Y-100200000D02*
X32361612Y-100600948D01*
X33700000Y-100200000D02*
X32762560Y-100200000D01*
X33700000Y-97000000D02*
X34900000Y-97000000D01*
X34900000Y-97000000D02*
X35100000Y-97200000D01*
X34850000Y-101000000D02*
X33700000Y-101000000D01*
X34965685Y-101000000D02*
X34850000Y-101000000D01*
X35100000Y-100865685D02*
X34965685Y-101000000D01*
X35100000Y-100300000D02*
X35100000Y-100865685D01*
X32890000Y-114800000D02*
X32600000Y-114800000D01*
X33340000Y-116340000D02*
X33340000Y-115250000D01*
X33340000Y-115250000D02*
X32890000Y-114800000D01*
X31550000Y-97000000D02*
X31500000Y-96950000D01*
X33700000Y-97000000D02*
X31550000Y-97000000D01*
D27*
X33900000Y-104400000D02*
X33700000Y-104200000D01*
X33900000Y-105500000D02*
X33900000Y-104400000D01*
X34650000Y-102600000D02*
X33700000Y-102600000D01*
X34865685Y-102600000D02*
X34650000Y-102600000D01*
X35200000Y-102934315D02*
X34865685Y-102600000D01*
X35200000Y-103500000D02*
X35200000Y-102934315D01*
X46960000Y-109700000D02*
X46800000Y-109700000D01*
X50300000Y-113040000D02*
X46960000Y-109700000D01*
X33200000Y-105734315D02*
X32500000Y-105034315D01*
X33200000Y-106300000D02*
X33200000Y-105734315D01*
X32750000Y-103400000D02*
X33700000Y-103400000D01*
X32500000Y-103650000D02*
X32750000Y-103400000D01*
X32500000Y-105034315D02*
X32500000Y-103650000D01*
X35274112Y-107338388D02*
X34812500Y-107800000D01*
X35526614Y-107338388D02*
X35274112Y-107338388D01*
X36200000Y-106665002D02*
X35526614Y-107338388D01*
X36200000Y-105900000D02*
X36200000Y-106665002D01*
X33200000Y-107800000D02*
X34812500Y-107800000D01*
X48600000Y-89150002D02*
X48624999Y-89175001D01*
X48624999Y-89175001D02*
X48624999Y-86875001D01*
X48624999Y-86875001D02*
X48800000Y-86700000D01*
X41800000Y-105900000D02*
X41800000Y-106850000D01*
X41800000Y-106850000D02*
X42650011Y-107700011D01*
X42650011Y-107700011D02*
X46399989Y-107700011D01*
X46399989Y-107700011D02*
X46700000Y-107400000D01*
X51697919Y-86880000D02*
X48717919Y-83900000D01*
X52900000Y-86880000D02*
X51697919Y-86880000D01*
X44700000Y-83900000D02*
X44100000Y-84500000D01*
X47800000Y-94600000D02*
X47800000Y-95500000D01*
X44100000Y-84500000D02*
X44100000Y-90900000D01*
X48717919Y-83900000D02*
X44700000Y-83900000D01*
X44100000Y-90900000D02*
X47800000Y-94600000D01*
X51697919Y-99820000D02*
X52900000Y-99820000D01*
X49795000Y-99820000D02*
X51697919Y-99820000D01*
X48800000Y-98825000D02*
X49795000Y-99820000D01*
X48800000Y-98287500D02*
X48800000Y-98825000D01*
X42349999Y-108199999D02*
X49200001Y-108199999D01*
X41000000Y-105900000D02*
X41000000Y-106850000D01*
X49200001Y-108199999D02*
X49600000Y-107800000D01*
X41000000Y-106850000D02*
X42349999Y-108199999D01*
X34115000Y-115179999D02*
X34115000Y-114997844D01*
X33990000Y-115304999D02*
X34115000Y-115179999D01*
X33990000Y-116340000D02*
X33990000Y-115304999D01*
X31450000Y-111537500D02*
X30900000Y-110987500D01*
X31450000Y-112332844D02*
X31450000Y-111537500D01*
X34115000Y-114997844D02*
X31450000Y-112332844D01*
X31450000Y-108862500D02*
X31450000Y-103932844D01*
X30900000Y-109412500D02*
X31450000Y-108862500D01*
X31450000Y-103932844D02*
X30600000Y-103082844D01*
X30600000Y-103082844D02*
X30600000Y-98817156D01*
X32374999Y-98000000D02*
X32574999Y-97800000D01*
X30600000Y-98817156D02*
X31417156Y-98000000D01*
X32574999Y-97800000D02*
X33700000Y-97800000D01*
X31417156Y-98000000D02*
X32374999Y-98000000D01*
X32400000Y-109412500D02*
X31850000Y-108862500D01*
X31850000Y-108862500D02*
X31850000Y-103767156D01*
X31850000Y-103767156D02*
X31000000Y-102917156D01*
X31000000Y-102917156D02*
X31000000Y-98982844D01*
X31582844Y-98400000D02*
X32374999Y-98400000D01*
X31000000Y-98982844D02*
X31582844Y-98400000D01*
X32374999Y-98400000D02*
X32574999Y-98600000D01*
X32574999Y-98600000D02*
X33700000Y-98600000D01*
X34515000Y-115179999D02*
X34515000Y-114832156D01*
X34640000Y-116340000D02*
X34640000Y-115304999D01*
X34640000Y-115304999D02*
X34515000Y-115179999D01*
X31850000Y-111537500D02*
X32400000Y-110987500D01*
X34515000Y-114832156D02*
X31850000Y-112167156D01*
X31850000Y-112167156D02*
X31850000Y-111537500D01*
X42600000Y-105900000D02*
X42600000Y-106850000D01*
X42600000Y-106850000D02*
X43050000Y-107300000D01*
X44100000Y-107300000D02*
X44600000Y-107300000D01*
X43050000Y-107300000D02*
X44100000Y-107300000D01*
X45200000Y-106700000D02*
X47800000Y-106700000D01*
X45050000Y-106850000D02*
X45200000Y-106700000D01*
X44600000Y-107300000D02*
X45050000Y-106850000D01*
X48624999Y-94824999D02*
X48624999Y-93275001D01*
X49300000Y-95500000D02*
X48624999Y-94824999D01*
X48624999Y-91075001D02*
X48624999Y-93275001D01*
X48624999Y-93275001D02*
X48624999Y-94675001D01*
X37050000Y-110600000D02*
X36500000Y-110600000D01*
X38600000Y-109050000D02*
X37050000Y-110600000D01*
X38600000Y-105900000D02*
X38600000Y-109050000D01*
X35212500Y-111887500D02*
X36500000Y-110600000D01*
X35212500Y-113300000D02*
X35212500Y-111887500D01*
X33700000Y-101800000D02*
X35900000Y-101800000D01*
X35900000Y-101800000D02*
X37400000Y-100300000D01*
X42050000Y-102300000D02*
X42000000Y-102300000D01*
X44150000Y-100200000D02*
X42050000Y-102300000D01*
X45100000Y-100200000D02*
X44150000Y-100200000D01*
X42000000Y-102300000D02*
X41400000Y-102300000D01*
X44150000Y-99400000D02*
X42450000Y-101100000D01*
X45100000Y-99400000D02*
X44150000Y-99400000D01*
X42450000Y-101100000D02*
X40200000Y-101100000D01*
X40200000Y-101100000D02*
X39400000Y-100300000D01*
X37000000Y-94500000D02*
X37000000Y-95600000D01*
X37000000Y-95600000D02*
X36600000Y-96000000D01*
X36600000Y-96000000D02*
X36600000Y-97500000D01*
X36600000Y-97500000D02*
X37400000Y-98300000D01*
X45100000Y-98600000D02*
X43100000Y-98600000D01*
X43100000Y-98600000D02*
X41400000Y-100300000D01*
X35400000Y-105900000D02*
X35400000Y-104300000D01*
X35400000Y-104300000D02*
X37400000Y-102300000D01*
X44150000Y-101800000D02*
X42450000Y-103500000D01*
X45100000Y-101800000D02*
X44150000Y-101800000D01*
X42450000Y-103500000D02*
X40200000Y-103500000D01*
X40200000Y-103500000D02*
X39400000Y-104300000D01*
X44150000Y-101000000D02*
X42050000Y-103100000D01*
X45100000Y-101000000D02*
X44150000Y-101000000D01*
X42050000Y-103100000D02*
X40200000Y-103100000D01*
X40200000Y-103100000D02*
X39400000Y-102300000D01*
X42450000Y-104300000D02*
X41400000Y-104300000D01*
X44150000Y-102600000D02*
X42450000Y-104300000D01*
X45100000Y-102600000D02*
X44150000Y-102600000D01*
X45100000Y-96200000D02*
X43500000Y-96200000D01*
X43500000Y-96200000D02*
X41400000Y-98300000D01*
X37800000Y-94500000D02*
X37800000Y-95900000D01*
X37800000Y-95900000D02*
X37400000Y-96300000D01*
X38600000Y-94500000D02*
X38600000Y-93200000D01*
X38600000Y-93200000D02*
X39400000Y-92400000D01*
X39400000Y-94500000D02*
X39400000Y-96300000D01*
X40200000Y-97500000D02*
X39400000Y-98300000D01*
X40200000Y-94500000D02*
X40200000Y-97500000D01*
X41000000Y-94500000D02*
X41000000Y-92800000D01*
X41000000Y-92800000D02*
X41400000Y-92400000D01*
X41800000Y-94500000D02*
X41800000Y-95900000D01*
X41800000Y-95900000D02*
X41400000Y-96300000D01*
X33700000Y-96200000D02*
X33700000Y-95600000D01*
X33700000Y-95600000D02*
X33300000Y-95200000D01*
X51492500Y-77887500D02*
X52900000Y-76480000D01*
X49300000Y-77887500D02*
X51492500Y-77887500D01*
X52140000Y-105900000D02*
X52900000Y-105140000D01*
X43400000Y-105900000D02*
X52140000Y-105900000D01*
X48980000Y-79020000D02*
X49480000Y-79020000D01*
X43700000Y-84300000D02*
X48980000Y-79020000D01*
X43700000Y-91100000D02*
X43700000Y-84300000D01*
X52900000Y-79020000D02*
X49480000Y-79020000D01*
X45100000Y-97800000D02*
X46500000Y-97800000D01*
X46500000Y-97800000D02*
X47000000Y-97300000D01*
X47000000Y-94400000D02*
X43700000Y-91100000D01*
X47000000Y-97300000D02*
X47000000Y-94400000D01*
X52272500Y-73312500D02*
X52900000Y-73940000D01*
X50200000Y-73312500D02*
X52272500Y-73312500D01*
X45100000Y-97000000D02*
X46050000Y-97000000D01*
X46050000Y-97000000D02*
X46100000Y-97000000D01*
X46050000Y-97000000D02*
X46400000Y-97000000D01*
X46400000Y-97000000D02*
X46600000Y-96800000D01*
X46600000Y-96800000D02*
X46600000Y-94600000D01*
X46600000Y-94600000D02*
X43300000Y-91300000D01*
X43300000Y-91300000D02*
X43300000Y-84000000D01*
X48150000Y-79150000D02*
X48150000Y-73750000D01*
X43300000Y-84000000D02*
X48150000Y-79150000D01*
X48587500Y-73312500D02*
X49300000Y-73312500D01*
X48150000Y-73750000D02*
X48587500Y-73312500D01*
X49300000Y-73312500D02*
X49912500Y-73312500D01*
X49625000Y-73312500D02*
X49912500Y-73312500D01*
X49912500Y-73312500D02*
X50200000Y-73312500D01*
X51892500Y-98287500D02*
X52900000Y-97280000D01*
X50300000Y-98287500D02*
X51892500Y-98287500D01*
X47534315Y-108900000D02*
X48100000Y-108900000D01*
X40200000Y-106850000D02*
X42250000Y-108900000D01*
X42250000Y-108900000D02*
X47534315Y-108900000D01*
X40200000Y-105900000D02*
X40200000Y-106850000D01*
D28*
G36*
X51425000Y-71118750D02*
G01*
X51581250Y-71275000D01*
X52775000Y-71275000D01*
X52775000Y-71255000D01*
X53025000Y-71255000D01*
X53025000Y-71275000D01*
X54218750Y-71275000D01*
X54375000Y-71118750D01*
X54377492Y-70650000D01*
X56350000Y-70650000D01*
X56350001Y-119850000D01*
X39365072Y-119850000D01*
X39362500Y-119281250D01*
X39206250Y-119125000D01*
X37675000Y-119125000D01*
X37675000Y-119145000D01*
X37425000Y-119145000D01*
X37425000Y-119125000D01*
X35605000Y-119125000D01*
X35605000Y-119145000D01*
X35355000Y-119145000D01*
X35355000Y-119125000D01*
X33925000Y-119125000D01*
X33925000Y-119145000D01*
X33675000Y-119145000D01*
X33675000Y-119125000D01*
X31855000Y-119125000D01*
X31855000Y-119145000D01*
X31605000Y-119145000D01*
X31605000Y-119125000D01*
X31585000Y-119125000D01*
X31585000Y-118875000D01*
X31605000Y-118875000D01*
X31605000Y-118855000D01*
X31855000Y-118855000D01*
X31855000Y-118875000D01*
X33675000Y-118875000D01*
X33675000Y-118855000D01*
X33925000Y-118855000D01*
X33925000Y-118875000D01*
X35355000Y-118875000D01*
X35355000Y-118855000D01*
X35605000Y-118855000D01*
X35605000Y-118875000D01*
X37425000Y-118875000D01*
X37425000Y-118855000D01*
X37675000Y-118855000D01*
X37675000Y-118875000D01*
X39206250Y-118875000D01*
X39362500Y-118718750D01*
X39365524Y-118050000D01*
X39353457Y-117927479D01*
X39317719Y-117809666D01*
X39259683Y-117701089D01*
X39181580Y-117605920D01*
X39086411Y-117527817D01*
X38977834Y-117469781D01*
X38860021Y-117434043D01*
X38737500Y-117421976D01*
X38466737Y-117422879D01*
X38465000Y-116981250D01*
X38308750Y-116825000D01*
X37227500Y-116825000D01*
X37227500Y-116845000D01*
X36977500Y-116845000D01*
X36977500Y-116825000D01*
X36957500Y-116825000D01*
X36957500Y-116575000D01*
X36977500Y-116575000D01*
X36977500Y-115181250D01*
X37227500Y-115181250D01*
X37227500Y-116575000D01*
X38308750Y-116575000D01*
X38465000Y-116418750D01*
X38468024Y-115650000D01*
X38455957Y-115527479D01*
X38420219Y-115409666D01*
X38362183Y-115301089D01*
X38284080Y-115205920D01*
X38188911Y-115127817D01*
X38080334Y-115069781D01*
X37962521Y-115034043D01*
X37840000Y-115021976D01*
X37383750Y-115025000D01*
X37227500Y-115181250D01*
X36977500Y-115181250D01*
X36821250Y-115025000D01*
X36365000Y-115021976D01*
X36261671Y-115032153D01*
X36196250Y-115025000D01*
X36163140Y-115058110D01*
X36124666Y-115069781D01*
X36016089Y-115127817D01*
X35940000Y-115190261D01*
X35863911Y-115127817D01*
X35755334Y-115069781D01*
X35716860Y-115058110D01*
X35683750Y-115025000D01*
X35618329Y-115032153D01*
X35515000Y-115021976D01*
X35310789Y-115021976D01*
X35245731Y-114900262D01*
X35240000Y-114893279D01*
X35240000Y-114867752D01*
X35243506Y-114832155D01*
X35240000Y-114796558D01*
X35240000Y-114796550D01*
X35229509Y-114690032D01*
X35188053Y-114553368D01*
X35120731Y-114427419D01*
X35115470Y-114421009D01*
X35100711Y-114403024D01*
X35431250Y-114403024D01*
X35596447Y-114386753D01*
X35755296Y-114338567D01*
X35901692Y-114260317D01*
X35928930Y-114237964D01*
X36001089Y-114297183D01*
X36109666Y-114355219D01*
X36227479Y-114390957D01*
X36350000Y-114403024D01*
X36506250Y-114400000D01*
X36662500Y-114243750D01*
X36662500Y-113425000D01*
X36912500Y-113425000D01*
X36912500Y-114243750D01*
X37068750Y-114400000D01*
X37225000Y-114403024D01*
X37347521Y-114390957D01*
X37465334Y-114355219D01*
X37573911Y-114297183D01*
X37669080Y-114219080D01*
X37747183Y-114123911D01*
X37805219Y-114015334D01*
X37840957Y-113897521D01*
X37853024Y-113775000D01*
X40346976Y-113775000D01*
X40359043Y-113897521D01*
X40394781Y-114015334D01*
X40452817Y-114123911D01*
X40530920Y-114219080D01*
X40626089Y-114297183D01*
X40734666Y-114355219D01*
X40852479Y-114390957D01*
X40975000Y-114403024D01*
X41131250Y-114400000D01*
X41287500Y-114243750D01*
X41287500Y-113425000D01*
X40506250Y-113425000D01*
X40350000Y-113581250D01*
X40346976Y-113775000D01*
X37853024Y-113775000D01*
X37850000Y-113581250D01*
X37693750Y-113425000D01*
X36912500Y-113425000D01*
X36662500Y-113425000D01*
X36642500Y-113425000D01*
X36642500Y-113175000D01*
X36662500Y-113175000D01*
X36662500Y-113155000D01*
X36912500Y-113155000D01*
X36912500Y-113175000D01*
X37693750Y-113175000D01*
X37850000Y-113018750D01*
X37853024Y-112825000D01*
X37840957Y-112702479D01*
X37805219Y-112584666D01*
X37747183Y-112476089D01*
X37707737Y-112428024D01*
X38250000Y-112428024D01*
X38372521Y-112415957D01*
X38490334Y-112380219D01*
X38598911Y-112322183D01*
X38694080Y-112244080D01*
X38772183Y-112148911D01*
X38830219Y-112040334D01*
X38865957Y-111922521D01*
X38878024Y-111800000D01*
X38878024Y-109797281D01*
X39087477Y-109587828D01*
X39101234Y-109576538D01*
X39321976Y-109797280D01*
X39321976Y-111800000D01*
X39334043Y-111922521D01*
X39369781Y-112040334D01*
X39427817Y-112148911D01*
X39505920Y-112244080D01*
X39601089Y-112322183D01*
X39709666Y-112380219D01*
X39827479Y-112415957D01*
X39950000Y-112428024D01*
X40492263Y-112428024D01*
X40452817Y-112476089D01*
X40394781Y-112584666D01*
X40359043Y-112702479D01*
X40346976Y-112825000D01*
X40350000Y-113018750D01*
X40506250Y-113175000D01*
X41287500Y-113175000D01*
X41287500Y-113155000D01*
X41537500Y-113155000D01*
X41537500Y-113175000D01*
X41557500Y-113175000D01*
X41557500Y-113425000D01*
X41537500Y-113425000D01*
X41537500Y-114243750D01*
X41693750Y-114400000D01*
X41850000Y-114403024D01*
X41972521Y-114390957D01*
X42090334Y-114355219D01*
X42198911Y-114297183D01*
X42271070Y-114237964D01*
X42298308Y-114260317D01*
X42444704Y-114338567D01*
X42603553Y-114386753D01*
X42768750Y-114403024D01*
X43206250Y-114403024D01*
X43371447Y-114386753D01*
X43530296Y-114338567D01*
X43676692Y-114260317D01*
X43805010Y-114155010D01*
X43910317Y-114026692D01*
X43988567Y-113880296D01*
X44036753Y-113721447D01*
X44053024Y-113556250D01*
X44053024Y-113043750D01*
X44036753Y-112878553D01*
X43988567Y-112719704D01*
X43910317Y-112573308D01*
X43805010Y-112444990D01*
X43712500Y-112369070D01*
X43712500Y-112368371D01*
X43798911Y-112322183D01*
X43894080Y-112244080D01*
X43972183Y-112148911D01*
X44030219Y-112040334D01*
X44065957Y-111922521D01*
X44078024Y-111800000D01*
X44078024Y-109625000D01*
X45775000Y-109625000D01*
X45775000Y-109800954D01*
X45814390Y-109998982D01*
X45891656Y-110185520D01*
X46003830Y-110353400D01*
X46146600Y-110496170D01*
X46314480Y-110608344D01*
X46501018Y-110685610D01*
X46699046Y-110725000D01*
X46900954Y-110725000D01*
X46949950Y-110715254D01*
X48878741Y-112644046D01*
X48846343Y-112750850D01*
X48817864Y-113040000D01*
X48846343Y-113329150D01*
X48930685Y-113607189D01*
X49067649Y-113863431D01*
X49251972Y-114088028D01*
X49476569Y-114272351D01*
X49547005Y-114310000D01*
X49476569Y-114347649D01*
X49251972Y-114531972D01*
X49067649Y-114756569D01*
X48930685Y-115012811D01*
X48846343Y-115290850D01*
X48817864Y-115580000D01*
X48846343Y-115869150D01*
X48930685Y-116147189D01*
X49067649Y-116403431D01*
X49251972Y-116628028D01*
X49476569Y-116812351D01*
X49732811Y-116949315D01*
X50010850Y-117033657D01*
X50227548Y-117055000D01*
X50372452Y-117055000D01*
X50589150Y-117033657D01*
X50867189Y-116949315D01*
X51123431Y-116812351D01*
X51348028Y-116628028D01*
X51532351Y-116403431D01*
X51571513Y-116330164D01*
X51577515Y-116342740D01*
X51750577Y-116574383D01*
X51965504Y-116767812D01*
X52214038Y-116915594D01*
X52486627Y-117012050D01*
X52715000Y-116893449D01*
X52715000Y-115705000D01*
X52965000Y-115705000D01*
X52965000Y-116893449D01*
X53193373Y-117012050D01*
X53465962Y-116915594D01*
X53714496Y-116767812D01*
X53929423Y-116574383D01*
X54102485Y-116342740D01*
X54227030Y-116081786D01*
X54272045Y-115933372D01*
X54152812Y-115705000D01*
X52965000Y-115705000D01*
X52715000Y-115705000D01*
X52695000Y-115705000D01*
X52695000Y-115455000D01*
X52715000Y-115455000D01*
X52715000Y-115435000D01*
X52965000Y-115435000D01*
X52965000Y-115455000D01*
X54152812Y-115455000D01*
X54272045Y-115226628D01*
X54227030Y-115078214D01*
X54102485Y-114817260D01*
X53929423Y-114585617D01*
X53714496Y-114392188D01*
X53584190Y-114314706D01*
X53663431Y-114272351D01*
X53888028Y-114088028D01*
X54072351Y-113863431D01*
X54209315Y-113607189D01*
X54293657Y-113329150D01*
X54322136Y-113040000D01*
X54293657Y-112750850D01*
X54209315Y-112472811D01*
X54072351Y-112216569D01*
X53888028Y-111991972D01*
X53663431Y-111807649D01*
X53592995Y-111770000D01*
X53663431Y-111732351D01*
X53888028Y-111548028D01*
X54072351Y-111323431D01*
X54209315Y-111067189D01*
X54293657Y-110789150D01*
X54322136Y-110500000D01*
X54293657Y-110210850D01*
X54209315Y-109932811D01*
X54072351Y-109676569D01*
X53888028Y-109451972D01*
X53663431Y-109267649D01*
X53407189Y-109130685D01*
X53303068Y-109099100D01*
X53467189Y-109049315D01*
X53723431Y-108912351D01*
X53948028Y-108728028D01*
X54132351Y-108503431D01*
X54269315Y-108247189D01*
X54353657Y-107969150D01*
X54382136Y-107680000D01*
X54353657Y-107390850D01*
X54269315Y-107112811D01*
X54132351Y-106856569D01*
X53948028Y-106631972D01*
X53723431Y-106447649D01*
X53652995Y-106410000D01*
X53723431Y-106372351D01*
X53948028Y-106188028D01*
X54132351Y-105963431D01*
X54269315Y-105707189D01*
X54353657Y-105429150D01*
X54382136Y-105140000D01*
X54353657Y-104850850D01*
X54269315Y-104572811D01*
X54132351Y-104316569D01*
X53948028Y-104091972D01*
X53904506Y-104056254D01*
X53990334Y-104030219D01*
X54098911Y-103972183D01*
X54194080Y-103894080D01*
X54272183Y-103798911D01*
X54330219Y-103690334D01*
X54365957Y-103572521D01*
X54378024Y-103450000D01*
X54375000Y-102881250D01*
X54218750Y-102725000D01*
X53025000Y-102725000D01*
X53025000Y-102745000D01*
X52775000Y-102745000D01*
X52775000Y-102725000D01*
X51581250Y-102725000D01*
X51425000Y-102881250D01*
X51421976Y-103450000D01*
X51434043Y-103572521D01*
X51469781Y-103690334D01*
X51527817Y-103798911D01*
X51605920Y-103894080D01*
X51701089Y-103972183D01*
X51809666Y-104030219D01*
X51895494Y-104056254D01*
X51851972Y-104091972D01*
X51667649Y-104316569D01*
X51530685Y-104572811D01*
X51446343Y-104850850D01*
X51417864Y-105140000D01*
X51421311Y-105175000D01*
X44303024Y-105175000D01*
X44303024Y-105150000D01*
X44297889Y-105097867D01*
X44351847Y-105103021D01*
X44818750Y-105100000D01*
X44975000Y-104943750D01*
X44975000Y-104325000D01*
X43881250Y-104325000D01*
X43725000Y-104481250D01*
X43728665Y-104527261D01*
X43675000Y-104521976D01*
X43253328Y-104521976D01*
X43790777Y-103984527D01*
X43825125Y-104018875D01*
X43827817Y-104023911D01*
X43905920Y-104119080D01*
X44001089Y-104197183D01*
X44109666Y-104255219D01*
X44227479Y-104290957D01*
X44350000Y-104303024D01*
X45245000Y-104303024D01*
X45245000Y-104325000D01*
X45225000Y-104325000D01*
X45225000Y-104943750D01*
X45381250Y-105100000D01*
X45848153Y-105103021D01*
X45970709Y-105091314D01*
X46088627Y-105055923D01*
X46197374Y-104998207D01*
X46292772Y-104920384D01*
X46371154Y-104825446D01*
X46429509Y-104717040D01*
X46465594Y-104599333D01*
X46475000Y-104481250D01*
X46318752Y-104325002D01*
X46475000Y-104325002D01*
X46475000Y-104225000D01*
X46989747Y-104225000D01*
X47114480Y-104308344D01*
X47301018Y-104385610D01*
X47499046Y-104425000D01*
X47700954Y-104425000D01*
X47898982Y-104385610D01*
X48085520Y-104308344D01*
X48253400Y-104196170D01*
X48396170Y-104053400D01*
X48508344Y-103885520D01*
X48585610Y-103698982D01*
X48625000Y-103500954D01*
X48625000Y-103299046D01*
X48585610Y-103101018D01*
X48508344Y-102914480D01*
X48396170Y-102746600D01*
X48253400Y-102603830D01*
X48227139Y-102586283D01*
X48289281Y-102510563D01*
X48365888Y-102367241D01*
X48413062Y-102211728D01*
X48425000Y-102090521D01*
X48425000Y-102090514D01*
X48428990Y-102050001D01*
X48425000Y-102009488D01*
X48425000Y-99475304D01*
X49257172Y-100307477D01*
X49279868Y-100335132D01*
X49307523Y-100357828D01*
X49307525Y-100357830D01*
X49360072Y-100400954D01*
X49390263Y-100425731D01*
X49516212Y-100493053D01*
X49652875Y-100534509D01*
X49759393Y-100545000D01*
X49759402Y-100545000D01*
X49794999Y-100548506D01*
X49830596Y-100545000D01*
X51615037Y-100545000D01*
X51667649Y-100643431D01*
X51851972Y-100868028D01*
X52076569Y-101052351D01*
X52208404Y-101122818D01*
X52050000Y-101121976D01*
X51927479Y-101134043D01*
X51809666Y-101169781D01*
X51701089Y-101227817D01*
X51605920Y-101305920D01*
X51527817Y-101401089D01*
X51469781Y-101509666D01*
X51434043Y-101627479D01*
X51421976Y-101750000D01*
X51425000Y-102318750D01*
X51581250Y-102475000D01*
X52775000Y-102475000D01*
X52775000Y-102455000D01*
X53025000Y-102455000D01*
X53025000Y-102475000D01*
X54218750Y-102475000D01*
X54375000Y-102318750D01*
X54378024Y-101750000D01*
X54365957Y-101627479D01*
X54330219Y-101509666D01*
X54272183Y-101401089D01*
X54194080Y-101305920D01*
X54098911Y-101227817D01*
X53990334Y-101169781D01*
X53872521Y-101134043D01*
X53750000Y-101121976D01*
X53591596Y-101122818D01*
X53723431Y-101052351D01*
X53948028Y-100868028D01*
X54132351Y-100643431D01*
X54269315Y-100387189D01*
X54353657Y-100109150D01*
X54382136Y-99820000D01*
X54353657Y-99530850D01*
X54269315Y-99252811D01*
X54132351Y-98996569D01*
X53948028Y-98771972D01*
X53723431Y-98587649D01*
X53652995Y-98550000D01*
X53723431Y-98512351D01*
X53948028Y-98328028D01*
X54132351Y-98103431D01*
X54269315Y-97847189D01*
X54353657Y-97569150D01*
X54382136Y-97280000D01*
X54353657Y-96990850D01*
X54269315Y-96712811D01*
X54132351Y-96456569D01*
X53948028Y-96231972D01*
X53723431Y-96047649D01*
X53652995Y-96010000D01*
X53723431Y-95972351D01*
X53948028Y-95788028D01*
X54132351Y-95563431D01*
X54269315Y-95307189D01*
X54353657Y-95029150D01*
X54382136Y-94740000D01*
X54353657Y-94450850D01*
X54269315Y-94172811D01*
X54132351Y-93916569D01*
X53948028Y-93691972D01*
X53904506Y-93656254D01*
X53990334Y-93630219D01*
X54098911Y-93572183D01*
X54194080Y-93494080D01*
X54272183Y-93398911D01*
X54330219Y-93290334D01*
X54365957Y-93172521D01*
X54378024Y-93050000D01*
X54375000Y-92481250D01*
X54218750Y-92325000D01*
X53025000Y-92325000D01*
X53025000Y-92345000D01*
X52775000Y-92345000D01*
X52775000Y-92325000D01*
X51581250Y-92325000D01*
X51425000Y-92481250D01*
X51421976Y-93050000D01*
X51434043Y-93172521D01*
X51469781Y-93290334D01*
X51527817Y-93398911D01*
X51605920Y-93494080D01*
X51701089Y-93572183D01*
X51809666Y-93630219D01*
X51895494Y-93656254D01*
X51851972Y-93691972D01*
X51667649Y-93916569D01*
X51530685Y-94172811D01*
X51446343Y-94450850D01*
X51417864Y-94740000D01*
X51446144Y-95027130D01*
X50789411Y-95683864D01*
X50721447Y-95663247D01*
X50556250Y-95646976D01*
X50315846Y-95646976D01*
X50325000Y-95600954D01*
X50325000Y-95399046D01*
X50285610Y-95201018D01*
X50208344Y-95014480D01*
X50096170Y-94846600D01*
X49953400Y-94703830D01*
X49785520Y-94591656D01*
X49598982Y-94514390D01*
X49400954Y-94475000D01*
X49349999Y-94475000D01*
X49349999Y-92028025D01*
X49474999Y-92028025D01*
X49597520Y-92015958D01*
X49599999Y-92015206D01*
X49602478Y-92015958D01*
X49724999Y-92028025D01*
X50124999Y-92028025D01*
X50247520Y-92015958D01*
X50365333Y-91980220D01*
X50473910Y-91922184D01*
X50569079Y-91844081D01*
X50605254Y-91800001D01*
X51209402Y-91800001D01*
X51244999Y-91803507D01*
X51280596Y-91800001D01*
X51280606Y-91800001D01*
X51387124Y-91789510D01*
X51424253Y-91778247D01*
X51425000Y-91918750D01*
X51581250Y-92075000D01*
X52775000Y-92075000D01*
X52775000Y-92055000D01*
X53025000Y-92055000D01*
X53025000Y-92075000D01*
X54218750Y-92075000D01*
X54375000Y-91918750D01*
X54378024Y-91350000D01*
X54365957Y-91227479D01*
X54330219Y-91109666D01*
X54272183Y-91001089D01*
X54194080Y-90905920D01*
X54098911Y-90827817D01*
X53990334Y-90769781D01*
X53872521Y-90734043D01*
X53750000Y-90721976D01*
X53591596Y-90722818D01*
X53723431Y-90652351D01*
X53948028Y-90468028D01*
X54132351Y-90243431D01*
X54269315Y-89987189D01*
X54353657Y-89709150D01*
X54382136Y-89420000D01*
X54353657Y-89130850D01*
X54269315Y-88852811D01*
X54132351Y-88596569D01*
X53948028Y-88371972D01*
X53723431Y-88187649D01*
X53652995Y-88150000D01*
X53723431Y-88112351D01*
X53948028Y-87928028D01*
X54132351Y-87703431D01*
X54269315Y-87447189D01*
X54353657Y-87169150D01*
X54382136Y-86880000D01*
X54353657Y-86590850D01*
X54269315Y-86312811D01*
X54132351Y-86056569D01*
X53948028Y-85831972D01*
X53723431Y-85647649D01*
X53652995Y-85610000D01*
X53723431Y-85572351D01*
X53948028Y-85388028D01*
X54132351Y-85163431D01*
X54269315Y-84907189D01*
X54353657Y-84629150D01*
X54382136Y-84340000D01*
X54353657Y-84050850D01*
X54269315Y-83772811D01*
X54132351Y-83516569D01*
X53948028Y-83291972D01*
X53904506Y-83256254D01*
X53990334Y-83230219D01*
X54098911Y-83172183D01*
X54194080Y-83094080D01*
X54272183Y-82998911D01*
X54330219Y-82890334D01*
X54365957Y-82772521D01*
X54378024Y-82650000D01*
X54375000Y-82081250D01*
X54218750Y-81925000D01*
X53025000Y-81925000D01*
X53025000Y-81945000D01*
X52775000Y-81945000D01*
X52775000Y-81925000D01*
X51581250Y-81925000D01*
X51425000Y-82081250D01*
X51421976Y-82650000D01*
X51434043Y-82772521D01*
X51469781Y-82890334D01*
X51527817Y-82998911D01*
X51605920Y-83094080D01*
X51701089Y-83172183D01*
X51809666Y-83230219D01*
X51895494Y-83256254D01*
X51851972Y-83291972D01*
X51667649Y-83516569D01*
X51530685Y-83772811D01*
X51446343Y-84050850D01*
X51417864Y-84340000D01*
X51446343Y-84629150D01*
X51530685Y-84907189D01*
X51667649Y-85163431D01*
X51851972Y-85388028D01*
X52076569Y-85572351D01*
X52147005Y-85610000D01*
X52076569Y-85647649D01*
X51851972Y-85831972D01*
X51772289Y-85929065D01*
X49255751Y-83412528D01*
X49233051Y-83384868D01*
X49122656Y-83294269D01*
X48996707Y-83226947D01*
X48860044Y-83185491D01*
X48753526Y-83175000D01*
X48753516Y-83175000D01*
X48717919Y-83171494D01*
X48682322Y-83175000D01*
X45850304Y-83175000D01*
X49280305Y-79745000D01*
X51615037Y-79745000D01*
X51667649Y-79843431D01*
X51851972Y-80068028D01*
X52076569Y-80252351D01*
X52208404Y-80322818D01*
X52050000Y-80321976D01*
X51927479Y-80334043D01*
X51809666Y-80369781D01*
X51701089Y-80427817D01*
X51605920Y-80505920D01*
X51527817Y-80601089D01*
X51469781Y-80709666D01*
X51434043Y-80827479D01*
X51421976Y-80950000D01*
X51425000Y-81518750D01*
X51581250Y-81675000D01*
X52775000Y-81675000D01*
X52775000Y-81655000D01*
X53025000Y-81655000D01*
X53025000Y-81675000D01*
X54218750Y-81675000D01*
X54375000Y-81518750D01*
X54378024Y-80950000D01*
X54365957Y-80827479D01*
X54330219Y-80709666D01*
X54272183Y-80601089D01*
X54194080Y-80505920D01*
X54098911Y-80427817D01*
X53990334Y-80369781D01*
X53872521Y-80334043D01*
X53750000Y-80321976D01*
X53591596Y-80322818D01*
X53723431Y-80252351D01*
X53948028Y-80068028D01*
X54132351Y-79843431D01*
X54269315Y-79587189D01*
X54353657Y-79309150D01*
X54382136Y-79020000D01*
X54353657Y-78730850D01*
X54269315Y-78452811D01*
X54132351Y-78196569D01*
X53948028Y-77971972D01*
X53723431Y-77787649D01*
X53652995Y-77750000D01*
X53723431Y-77712351D01*
X53948028Y-77528028D01*
X54132351Y-77303431D01*
X54269315Y-77047189D01*
X54353657Y-76769150D01*
X54382136Y-76480000D01*
X54357021Y-76225000D01*
X54500954Y-76225000D01*
X54698982Y-76185610D01*
X54885520Y-76108344D01*
X55053400Y-75996170D01*
X55196170Y-75853400D01*
X55308344Y-75685520D01*
X55385610Y-75498982D01*
X55425000Y-75300954D01*
X55425000Y-75099046D01*
X55385610Y-74901018D01*
X55308344Y-74714480D01*
X55196170Y-74546600D01*
X55053400Y-74403830D01*
X54885520Y-74291656D01*
X54698982Y-74214390D01*
X54500954Y-74175000D01*
X54358990Y-74175000D01*
X54382136Y-73940000D01*
X54353657Y-73650850D01*
X54269315Y-73372811D01*
X54132351Y-73116569D01*
X53948028Y-72891972D01*
X53904506Y-72856254D01*
X53990334Y-72830219D01*
X54098911Y-72772183D01*
X54194080Y-72694080D01*
X54272183Y-72598911D01*
X54330219Y-72490334D01*
X54365957Y-72372521D01*
X54378024Y-72250000D01*
X54375000Y-71681250D01*
X54218750Y-71525000D01*
X53025000Y-71525000D01*
X53025000Y-71545000D01*
X52775000Y-71545000D01*
X52775000Y-71525000D01*
X51581250Y-71525000D01*
X51425000Y-71681250D01*
X51421976Y-72250000D01*
X51434043Y-72372521D01*
X51469781Y-72490334D01*
X51521718Y-72587500D01*
X50230930Y-72587500D01*
X50155010Y-72494990D01*
X50026692Y-72389683D01*
X49880296Y-72311433D01*
X49721447Y-72263247D01*
X49556250Y-72246976D01*
X49043750Y-72246976D01*
X48878553Y-72263247D01*
X48719704Y-72311433D01*
X48573308Y-72389683D01*
X48444990Y-72494990D01*
X48339683Y-72623308D01*
X48335381Y-72631357D01*
X48308712Y-72639447D01*
X48182763Y-72706769D01*
X48072368Y-72797368D01*
X48049668Y-72825028D01*
X47662524Y-73212172D01*
X47634869Y-73234868D01*
X47612173Y-73262523D01*
X47612170Y-73262526D01*
X47544269Y-73345264D01*
X47476947Y-73471213D01*
X47435492Y-73607876D01*
X47421494Y-73750000D01*
X47425001Y-73785607D01*
X47425000Y-78849695D01*
X42812523Y-83462173D01*
X42784869Y-83484868D01*
X42762173Y-83512523D01*
X42762170Y-83512526D01*
X42694269Y-83595264D01*
X42626947Y-83721213D01*
X42585492Y-83857876D01*
X42571494Y-84000000D01*
X42575001Y-84035607D01*
X42575000Y-91264403D01*
X42571494Y-91300000D01*
X42575000Y-91335597D01*
X42575000Y-91335606D01*
X42585491Y-91442124D01*
X42626947Y-91578787D01*
X42694269Y-91704736D01*
X42784868Y-91815131D01*
X42812524Y-91837828D01*
X44449695Y-93475000D01*
X44299046Y-93475000D01*
X44242682Y-93486211D01*
X44197183Y-93401089D01*
X44119080Y-93305920D01*
X44023911Y-93227817D01*
X43915334Y-93169781D01*
X43797521Y-93134043D01*
X43675000Y-93121976D01*
X43125000Y-93121976D01*
X43002479Y-93134043D01*
X43000303Y-93134703D01*
X42999333Y-93134406D01*
X42881250Y-93125000D01*
X42781125Y-93225125D01*
X42776089Y-93227817D01*
X42680920Y-93305920D01*
X42602817Y-93401089D01*
X42600000Y-93406359D01*
X42597183Y-93401089D01*
X42519080Y-93305920D01*
X42423911Y-93227817D01*
X42418875Y-93225125D01*
X42318750Y-93125000D01*
X42200667Y-93134406D01*
X42199697Y-93134703D01*
X42197521Y-93134043D01*
X42122878Y-93126692D01*
X42196170Y-93053400D01*
X42308344Y-92885520D01*
X42385610Y-92698982D01*
X42425000Y-92500954D01*
X42425000Y-92299046D01*
X42385610Y-92101018D01*
X42308344Y-91914480D01*
X42196170Y-91746600D01*
X42053400Y-91603830D01*
X41885520Y-91491656D01*
X41698982Y-91414390D01*
X41500954Y-91375000D01*
X41299046Y-91375000D01*
X41101018Y-91414390D01*
X40914480Y-91491656D01*
X40746600Y-91603830D01*
X40603830Y-91746600D01*
X40491656Y-91914480D01*
X40414390Y-92101018D01*
X40400000Y-92173362D01*
X40385610Y-92101018D01*
X40308344Y-91914480D01*
X40196170Y-91746600D01*
X40053400Y-91603830D01*
X39885520Y-91491656D01*
X39698982Y-91414390D01*
X39500954Y-91375000D01*
X39299046Y-91375000D01*
X39101018Y-91414390D01*
X38914480Y-91491656D01*
X38746600Y-91603830D01*
X38603830Y-91746600D01*
X38491656Y-91914480D01*
X38414390Y-92101018D01*
X38375000Y-92299046D01*
X38375000Y-92399696D01*
X38112523Y-92662173D01*
X38084869Y-92684868D01*
X38062173Y-92712523D01*
X38062170Y-92712526D01*
X37994269Y-92795264D01*
X37926947Y-92921213D01*
X37898067Y-93016420D01*
X37885492Y-93057875D01*
X37882383Y-93089438D01*
X37879179Y-93121976D01*
X37525000Y-93121976D01*
X37402479Y-93134043D01*
X37400000Y-93134795D01*
X37397521Y-93134043D01*
X37275000Y-93121976D01*
X36725000Y-93121976D01*
X36602479Y-93134043D01*
X36600303Y-93134703D01*
X36599333Y-93134406D01*
X36481250Y-93125000D01*
X36381125Y-93225125D01*
X36376089Y-93227817D01*
X36325002Y-93269743D01*
X36325002Y-93125000D01*
X36226528Y-93125000D01*
X36228990Y-93100000D01*
X36225000Y-93059487D01*
X36225000Y-93059479D01*
X36213062Y-92938272D01*
X36165888Y-92782759D01*
X36089281Y-92639437D01*
X35986185Y-92513815D01*
X35954705Y-92487980D01*
X35812021Y-92345296D01*
X35786185Y-92313815D01*
X35660563Y-92210719D01*
X35517241Y-92134112D01*
X35361728Y-92086938D01*
X35240521Y-92075000D01*
X35240513Y-92075000D01*
X35200000Y-92071010D01*
X35159487Y-92075000D01*
X34340521Y-92075000D01*
X34300000Y-92071009D01*
X34259479Y-92075000D01*
X32190513Y-92075000D01*
X32150000Y-92071010D01*
X32109487Y-92075000D01*
X32109479Y-92075000D01*
X31988272Y-92086938D01*
X31832759Y-92134112D01*
X31689437Y-92210719D01*
X31563815Y-92313815D01*
X31537983Y-92345291D01*
X30945291Y-92937984D01*
X30913816Y-92963815D01*
X30810720Y-93089437D01*
X30767396Y-93170491D01*
X30734113Y-93232759D01*
X30686938Y-93388272D01*
X30684819Y-93409788D01*
X30651089Y-93427817D01*
X30650000Y-93428711D01*
X30650000Y-70650000D01*
X51422508Y-70650000D01*
X51425000Y-71118750D01*
X51425000Y-71118750D01*
G37*
X51425000Y-71118750D02*
X51581250Y-71275000D01*
X52775000Y-71275000D01*
X52775000Y-71255000D01*
X53025000Y-71255000D01*
X53025000Y-71275000D01*
X54218750Y-71275000D01*
X54375000Y-71118750D01*
X54377492Y-70650000D01*
X56350000Y-70650000D01*
X56350001Y-119850000D01*
X39365072Y-119850000D01*
X39362500Y-119281250D01*
X39206250Y-119125000D01*
X37675000Y-119125000D01*
X37675000Y-119145000D01*
X37425000Y-119145000D01*
X37425000Y-119125000D01*
X35605000Y-119125000D01*
X35605000Y-119145000D01*
X35355000Y-119145000D01*
X35355000Y-119125000D01*
X33925000Y-119125000D01*
X33925000Y-119145000D01*
X33675000Y-119145000D01*
X33675000Y-119125000D01*
X31855000Y-119125000D01*
X31855000Y-119145000D01*
X31605000Y-119145000D01*
X31605000Y-119125000D01*
X31585000Y-119125000D01*
X31585000Y-118875000D01*
X31605000Y-118875000D01*
X31605000Y-118855000D01*
X31855000Y-118855000D01*
X31855000Y-118875000D01*
X33675000Y-118875000D01*
X33675000Y-118855000D01*
X33925000Y-118855000D01*
X33925000Y-118875000D01*
X35355000Y-118875000D01*
X35355000Y-118855000D01*
X35605000Y-118855000D01*
X35605000Y-118875000D01*
X37425000Y-118875000D01*
X37425000Y-118855000D01*
X37675000Y-118855000D01*
X37675000Y-118875000D01*
X39206250Y-118875000D01*
X39362500Y-118718750D01*
X39365524Y-118050000D01*
X39353457Y-117927479D01*
X39317719Y-117809666D01*
X39259683Y-117701089D01*
X39181580Y-117605920D01*
X39086411Y-117527817D01*
X38977834Y-117469781D01*
X38860021Y-117434043D01*
X38737500Y-117421976D01*
X38466737Y-117422879D01*
X38465000Y-116981250D01*
X38308750Y-116825000D01*
X37227500Y-116825000D01*
X37227500Y-116845000D01*
X36977500Y-116845000D01*
X36977500Y-116825000D01*
X36957500Y-116825000D01*
X36957500Y-116575000D01*
X36977500Y-116575000D01*
X36977500Y-115181250D01*
X37227500Y-115181250D01*
X37227500Y-116575000D01*
X38308750Y-116575000D01*
X38465000Y-116418750D01*
X38468024Y-115650000D01*
X38455957Y-115527479D01*
X38420219Y-115409666D01*
X38362183Y-115301089D01*
X38284080Y-115205920D01*
X38188911Y-115127817D01*
X38080334Y-115069781D01*
X37962521Y-115034043D01*
X37840000Y-115021976D01*
X37383750Y-115025000D01*
X37227500Y-115181250D01*
X36977500Y-115181250D01*
X36821250Y-115025000D01*
X36365000Y-115021976D01*
X36261671Y-115032153D01*
X36196250Y-115025000D01*
X36163140Y-115058110D01*
X36124666Y-115069781D01*
X36016089Y-115127817D01*
X35940000Y-115190261D01*
X35863911Y-115127817D01*
X35755334Y-115069781D01*
X35716860Y-115058110D01*
X35683750Y-115025000D01*
X35618329Y-115032153D01*
X35515000Y-115021976D01*
X35310789Y-115021976D01*
X35245731Y-114900262D01*
X35240000Y-114893279D01*
X35240000Y-114867752D01*
X35243506Y-114832155D01*
X35240000Y-114796558D01*
X35240000Y-114796550D01*
X35229509Y-114690032D01*
X35188053Y-114553368D01*
X35120731Y-114427419D01*
X35115470Y-114421009D01*
X35100711Y-114403024D01*
X35431250Y-114403024D01*
X35596447Y-114386753D01*
X35755296Y-114338567D01*
X35901692Y-114260317D01*
X35928930Y-114237964D01*
X36001089Y-114297183D01*
X36109666Y-114355219D01*
X36227479Y-114390957D01*
X36350000Y-114403024D01*
X36506250Y-114400000D01*
X36662500Y-114243750D01*
X36662500Y-113425000D01*
X36912500Y-113425000D01*
X36912500Y-114243750D01*
X37068750Y-114400000D01*
X37225000Y-114403024D01*
X37347521Y-114390957D01*
X37465334Y-114355219D01*
X37573911Y-114297183D01*
X37669080Y-114219080D01*
X37747183Y-114123911D01*
X37805219Y-114015334D01*
X37840957Y-113897521D01*
X37853024Y-113775000D01*
X40346976Y-113775000D01*
X40359043Y-113897521D01*
X40394781Y-114015334D01*
X40452817Y-114123911D01*
X40530920Y-114219080D01*
X40626089Y-114297183D01*
X40734666Y-114355219D01*
X40852479Y-114390957D01*
X40975000Y-114403024D01*
X41131250Y-114400000D01*
X41287500Y-114243750D01*
X41287500Y-113425000D01*
X40506250Y-113425000D01*
X40350000Y-113581250D01*
X40346976Y-113775000D01*
X37853024Y-113775000D01*
X37850000Y-113581250D01*
X37693750Y-113425000D01*
X36912500Y-113425000D01*
X36662500Y-113425000D01*
X36642500Y-113425000D01*
X36642500Y-113175000D01*
X36662500Y-113175000D01*
X36662500Y-113155000D01*
X36912500Y-113155000D01*
X36912500Y-113175000D01*
X37693750Y-113175000D01*
X37850000Y-113018750D01*
X37853024Y-112825000D01*
X37840957Y-112702479D01*
X37805219Y-112584666D01*
X37747183Y-112476089D01*
X37707737Y-112428024D01*
X38250000Y-112428024D01*
X38372521Y-112415957D01*
X38490334Y-112380219D01*
X38598911Y-112322183D01*
X38694080Y-112244080D01*
X38772183Y-112148911D01*
X38830219Y-112040334D01*
X38865957Y-111922521D01*
X38878024Y-111800000D01*
X38878024Y-109797281D01*
X39087477Y-109587828D01*
X39101234Y-109576538D01*
X39321976Y-109797280D01*
X39321976Y-111800000D01*
X39334043Y-111922521D01*
X39369781Y-112040334D01*
X39427817Y-112148911D01*
X39505920Y-112244080D01*
X39601089Y-112322183D01*
X39709666Y-112380219D01*
X39827479Y-112415957D01*
X39950000Y-112428024D01*
X40492263Y-112428024D01*
X40452817Y-112476089D01*
X40394781Y-112584666D01*
X40359043Y-112702479D01*
X40346976Y-112825000D01*
X40350000Y-113018750D01*
X40506250Y-113175000D01*
X41287500Y-113175000D01*
X41287500Y-113155000D01*
X41537500Y-113155000D01*
X41537500Y-113175000D01*
X41557500Y-113175000D01*
X41557500Y-113425000D01*
X41537500Y-113425000D01*
X41537500Y-114243750D01*
X41693750Y-114400000D01*
X41850000Y-114403024D01*
X41972521Y-114390957D01*
X42090334Y-114355219D01*
X42198911Y-114297183D01*
X42271070Y-114237964D01*
X42298308Y-114260317D01*
X42444704Y-114338567D01*
X42603553Y-114386753D01*
X42768750Y-114403024D01*
X43206250Y-114403024D01*
X43371447Y-114386753D01*
X43530296Y-114338567D01*
X43676692Y-114260317D01*
X43805010Y-114155010D01*
X43910317Y-114026692D01*
X43988567Y-113880296D01*
X44036753Y-113721447D01*
X44053024Y-113556250D01*
X44053024Y-113043750D01*
X44036753Y-112878553D01*
X43988567Y-112719704D01*
X43910317Y-112573308D01*
X43805010Y-112444990D01*
X43712500Y-112369070D01*
X43712500Y-112368371D01*
X43798911Y-112322183D01*
X43894080Y-112244080D01*
X43972183Y-112148911D01*
X44030219Y-112040334D01*
X44065957Y-111922521D01*
X44078024Y-111800000D01*
X44078024Y-109625000D01*
X45775000Y-109625000D01*
X45775000Y-109800954D01*
X45814390Y-109998982D01*
X45891656Y-110185520D01*
X46003830Y-110353400D01*
X46146600Y-110496170D01*
X46314480Y-110608344D01*
X46501018Y-110685610D01*
X46699046Y-110725000D01*
X46900954Y-110725000D01*
X46949950Y-110715254D01*
X48878741Y-112644046D01*
X48846343Y-112750850D01*
X48817864Y-113040000D01*
X48846343Y-113329150D01*
X48930685Y-113607189D01*
X49067649Y-113863431D01*
X49251972Y-114088028D01*
X49476569Y-114272351D01*
X49547005Y-114310000D01*
X49476569Y-114347649D01*
X49251972Y-114531972D01*
X49067649Y-114756569D01*
X48930685Y-115012811D01*
X48846343Y-115290850D01*
X48817864Y-115580000D01*
X48846343Y-115869150D01*
X48930685Y-116147189D01*
X49067649Y-116403431D01*
X49251972Y-116628028D01*
X49476569Y-116812351D01*
X49732811Y-116949315D01*
X50010850Y-117033657D01*
X50227548Y-117055000D01*
X50372452Y-117055000D01*
X50589150Y-117033657D01*
X50867189Y-116949315D01*
X51123431Y-116812351D01*
X51348028Y-116628028D01*
X51532351Y-116403431D01*
X51571513Y-116330164D01*
X51577515Y-116342740D01*
X51750577Y-116574383D01*
X51965504Y-116767812D01*
X52214038Y-116915594D01*
X52486627Y-117012050D01*
X52715000Y-116893449D01*
X52715000Y-115705000D01*
X52965000Y-115705000D01*
X52965000Y-116893449D01*
X53193373Y-117012050D01*
X53465962Y-116915594D01*
X53714496Y-116767812D01*
X53929423Y-116574383D01*
X54102485Y-116342740D01*
X54227030Y-116081786D01*
X54272045Y-115933372D01*
X54152812Y-115705000D01*
X52965000Y-115705000D01*
X52715000Y-115705000D01*
X52695000Y-115705000D01*
X52695000Y-115455000D01*
X52715000Y-115455000D01*
X52715000Y-115435000D01*
X52965000Y-115435000D01*
X52965000Y-115455000D01*
X54152812Y-115455000D01*
X54272045Y-115226628D01*
X54227030Y-115078214D01*
X54102485Y-114817260D01*
X53929423Y-114585617D01*
X53714496Y-114392188D01*
X53584190Y-114314706D01*
X53663431Y-114272351D01*
X53888028Y-114088028D01*
X54072351Y-113863431D01*
X54209315Y-113607189D01*
X54293657Y-113329150D01*
X54322136Y-113040000D01*
X54293657Y-112750850D01*
X54209315Y-112472811D01*
X54072351Y-112216569D01*
X53888028Y-111991972D01*
X53663431Y-111807649D01*
X53592995Y-111770000D01*
X53663431Y-111732351D01*
X53888028Y-111548028D01*
X54072351Y-111323431D01*
X54209315Y-111067189D01*
X54293657Y-110789150D01*
X54322136Y-110500000D01*
X54293657Y-110210850D01*
X54209315Y-109932811D01*
X54072351Y-109676569D01*
X53888028Y-109451972D01*
X53663431Y-109267649D01*
X53407189Y-109130685D01*
X53303068Y-109099100D01*
X53467189Y-109049315D01*
X53723431Y-108912351D01*
X53948028Y-108728028D01*
X54132351Y-108503431D01*
X54269315Y-108247189D01*
X54353657Y-107969150D01*
X54382136Y-107680000D01*
X54353657Y-107390850D01*
X54269315Y-107112811D01*
X54132351Y-106856569D01*
X53948028Y-106631972D01*
X53723431Y-106447649D01*
X53652995Y-106410000D01*
X53723431Y-106372351D01*
X53948028Y-106188028D01*
X54132351Y-105963431D01*
X54269315Y-105707189D01*
X54353657Y-105429150D01*
X54382136Y-105140000D01*
X54353657Y-104850850D01*
X54269315Y-104572811D01*
X54132351Y-104316569D01*
X53948028Y-104091972D01*
X53904506Y-104056254D01*
X53990334Y-104030219D01*
X54098911Y-103972183D01*
X54194080Y-103894080D01*
X54272183Y-103798911D01*
X54330219Y-103690334D01*
X54365957Y-103572521D01*
X54378024Y-103450000D01*
X54375000Y-102881250D01*
X54218750Y-102725000D01*
X53025000Y-102725000D01*
X53025000Y-102745000D01*
X52775000Y-102745000D01*
X52775000Y-102725000D01*
X51581250Y-102725000D01*
X51425000Y-102881250D01*
X51421976Y-103450000D01*
X51434043Y-103572521D01*
X51469781Y-103690334D01*
X51527817Y-103798911D01*
X51605920Y-103894080D01*
X51701089Y-103972183D01*
X51809666Y-104030219D01*
X51895494Y-104056254D01*
X51851972Y-104091972D01*
X51667649Y-104316569D01*
X51530685Y-104572811D01*
X51446343Y-104850850D01*
X51417864Y-105140000D01*
X51421311Y-105175000D01*
X44303024Y-105175000D01*
X44303024Y-105150000D01*
X44297889Y-105097867D01*
X44351847Y-105103021D01*
X44818750Y-105100000D01*
X44975000Y-104943750D01*
X44975000Y-104325000D01*
X43881250Y-104325000D01*
X43725000Y-104481250D01*
X43728665Y-104527261D01*
X43675000Y-104521976D01*
X43253328Y-104521976D01*
X43790777Y-103984527D01*
X43825125Y-104018875D01*
X43827817Y-104023911D01*
X43905920Y-104119080D01*
X44001089Y-104197183D01*
X44109666Y-104255219D01*
X44227479Y-104290957D01*
X44350000Y-104303024D01*
X45245000Y-104303024D01*
X45245000Y-104325000D01*
X45225000Y-104325000D01*
X45225000Y-104943750D01*
X45381250Y-105100000D01*
X45848153Y-105103021D01*
X45970709Y-105091314D01*
X46088627Y-105055923D01*
X46197374Y-104998207D01*
X46292772Y-104920384D01*
X46371154Y-104825446D01*
X46429509Y-104717040D01*
X46465594Y-104599333D01*
X46475000Y-104481250D01*
X46318752Y-104325002D01*
X46475000Y-104325002D01*
X46475000Y-104225000D01*
X46989747Y-104225000D01*
X47114480Y-104308344D01*
X47301018Y-104385610D01*
X47499046Y-104425000D01*
X47700954Y-104425000D01*
X47898982Y-104385610D01*
X48085520Y-104308344D01*
X48253400Y-104196170D01*
X48396170Y-104053400D01*
X48508344Y-103885520D01*
X48585610Y-103698982D01*
X48625000Y-103500954D01*
X48625000Y-103299046D01*
X48585610Y-103101018D01*
X48508344Y-102914480D01*
X48396170Y-102746600D01*
X48253400Y-102603830D01*
X48227139Y-102586283D01*
X48289281Y-102510563D01*
X48365888Y-102367241D01*
X48413062Y-102211728D01*
X48425000Y-102090521D01*
X48425000Y-102090514D01*
X48428990Y-102050001D01*
X48425000Y-102009488D01*
X48425000Y-99475304D01*
X49257172Y-100307477D01*
X49279868Y-100335132D01*
X49307523Y-100357828D01*
X49307525Y-100357830D01*
X49360072Y-100400954D01*
X49390263Y-100425731D01*
X49516212Y-100493053D01*
X49652875Y-100534509D01*
X49759393Y-100545000D01*
X49759402Y-100545000D01*
X49794999Y-100548506D01*
X49830596Y-100545000D01*
X51615037Y-100545000D01*
X51667649Y-100643431D01*
X51851972Y-100868028D01*
X52076569Y-101052351D01*
X52208404Y-101122818D01*
X52050000Y-101121976D01*
X51927479Y-101134043D01*
X51809666Y-101169781D01*
X51701089Y-101227817D01*
X51605920Y-101305920D01*
X51527817Y-101401089D01*
X51469781Y-101509666D01*
X51434043Y-101627479D01*
X51421976Y-101750000D01*
X51425000Y-102318750D01*
X51581250Y-102475000D01*
X52775000Y-102475000D01*
X52775000Y-102455000D01*
X53025000Y-102455000D01*
X53025000Y-102475000D01*
X54218750Y-102475000D01*
X54375000Y-102318750D01*
X54378024Y-101750000D01*
X54365957Y-101627479D01*
X54330219Y-101509666D01*
X54272183Y-101401089D01*
X54194080Y-101305920D01*
X54098911Y-101227817D01*
X53990334Y-101169781D01*
X53872521Y-101134043D01*
X53750000Y-101121976D01*
X53591596Y-101122818D01*
X53723431Y-101052351D01*
X53948028Y-100868028D01*
X54132351Y-100643431D01*
X54269315Y-100387189D01*
X54353657Y-100109150D01*
X54382136Y-99820000D01*
X54353657Y-99530850D01*
X54269315Y-99252811D01*
X54132351Y-98996569D01*
X53948028Y-98771972D01*
X53723431Y-98587649D01*
X53652995Y-98550000D01*
X53723431Y-98512351D01*
X53948028Y-98328028D01*
X54132351Y-98103431D01*
X54269315Y-97847189D01*
X54353657Y-97569150D01*
X54382136Y-97280000D01*
X54353657Y-96990850D01*
X54269315Y-96712811D01*
X54132351Y-96456569D01*
X53948028Y-96231972D01*
X53723431Y-96047649D01*
X53652995Y-96010000D01*
X53723431Y-95972351D01*
X53948028Y-95788028D01*
X54132351Y-95563431D01*
X54269315Y-95307189D01*
X54353657Y-95029150D01*
X54382136Y-94740000D01*
X54353657Y-94450850D01*
X54269315Y-94172811D01*
X54132351Y-93916569D01*
X53948028Y-93691972D01*
X53904506Y-93656254D01*
X53990334Y-93630219D01*
X54098911Y-93572183D01*
X54194080Y-93494080D01*
X54272183Y-93398911D01*
X54330219Y-93290334D01*
X54365957Y-93172521D01*
X54378024Y-93050000D01*
X54375000Y-92481250D01*
X54218750Y-92325000D01*
X53025000Y-92325000D01*
X53025000Y-92345000D01*
X52775000Y-92345000D01*
X52775000Y-92325000D01*
X51581250Y-92325000D01*
X51425000Y-92481250D01*
X51421976Y-93050000D01*
X51434043Y-93172521D01*
X51469781Y-93290334D01*
X51527817Y-93398911D01*
X51605920Y-93494080D01*
X51701089Y-93572183D01*
X51809666Y-93630219D01*
X51895494Y-93656254D01*
X51851972Y-93691972D01*
X51667649Y-93916569D01*
X51530685Y-94172811D01*
X51446343Y-94450850D01*
X51417864Y-94740000D01*
X51446144Y-95027130D01*
X50789411Y-95683864D01*
X50721447Y-95663247D01*
X50556250Y-95646976D01*
X50315846Y-95646976D01*
X50325000Y-95600954D01*
X50325000Y-95399046D01*
X50285610Y-95201018D01*
X50208344Y-95014480D01*
X50096170Y-94846600D01*
X49953400Y-94703830D01*
X49785520Y-94591656D01*
X49598982Y-94514390D01*
X49400954Y-94475000D01*
X49349999Y-94475000D01*
X49349999Y-92028025D01*
X49474999Y-92028025D01*
X49597520Y-92015958D01*
X49599999Y-92015206D01*
X49602478Y-92015958D01*
X49724999Y-92028025D01*
X50124999Y-92028025D01*
X50247520Y-92015958D01*
X50365333Y-91980220D01*
X50473910Y-91922184D01*
X50569079Y-91844081D01*
X50605254Y-91800001D01*
X51209402Y-91800001D01*
X51244999Y-91803507D01*
X51280596Y-91800001D01*
X51280606Y-91800001D01*
X51387124Y-91789510D01*
X51424253Y-91778247D01*
X51425000Y-91918750D01*
X51581250Y-92075000D01*
X52775000Y-92075000D01*
X52775000Y-92055000D01*
X53025000Y-92055000D01*
X53025000Y-92075000D01*
X54218750Y-92075000D01*
X54375000Y-91918750D01*
X54378024Y-91350000D01*
X54365957Y-91227479D01*
X54330219Y-91109666D01*
X54272183Y-91001089D01*
X54194080Y-90905920D01*
X54098911Y-90827817D01*
X53990334Y-90769781D01*
X53872521Y-90734043D01*
X53750000Y-90721976D01*
X53591596Y-90722818D01*
X53723431Y-90652351D01*
X53948028Y-90468028D01*
X54132351Y-90243431D01*
X54269315Y-89987189D01*
X54353657Y-89709150D01*
X54382136Y-89420000D01*
X54353657Y-89130850D01*
X54269315Y-88852811D01*
X54132351Y-88596569D01*
X53948028Y-88371972D01*
X53723431Y-88187649D01*
X53652995Y-88150000D01*
X53723431Y-88112351D01*
X53948028Y-87928028D01*
X54132351Y-87703431D01*
X54269315Y-87447189D01*
X54353657Y-87169150D01*
X54382136Y-86880000D01*
X54353657Y-86590850D01*
X54269315Y-86312811D01*
X54132351Y-86056569D01*
X53948028Y-85831972D01*
X53723431Y-85647649D01*
X53652995Y-85610000D01*
X53723431Y-85572351D01*
X53948028Y-85388028D01*
X54132351Y-85163431D01*
X54269315Y-84907189D01*
X54353657Y-84629150D01*
X54382136Y-84340000D01*
X54353657Y-84050850D01*
X54269315Y-83772811D01*
X54132351Y-83516569D01*
X53948028Y-83291972D01*
X53904506Y-83256254D01*
X53990334Y-83230219D01*
X54098911Y-83172183D01*
X54194080Y-83094080D01*
X54272183Y-82998911D01*
X54330219Y-82890334D01*
X54365957Y-82772521D01*
X54378024Y-82650000D01*
X54375000Y-82081250D01*
X54218750Y-81925000D01*
X53025000Y-81925000D01*
X53025000Y-81945000D01*
X52775000Y-81945000D01*
X52775000Y-81925000D01*
X51581250Y-81925000D01*
X51425000Y-82081250D01*
X51421976Y-82650000D01*
X51434043Y-82772521D01*
X51469781Y-82890334D01*
X51527817Y-82998911D01*
X51605920Y-83094080D01*
X51701089Y-83172183D01*
X51809666Y-83230219D01*
X51895494Y-83256254D01*
X51851972Y-83291972D01*
X51667649Y-83516569D01*
X51530685Y-83772811D01*
X51446343Y-84050850D01*
X51417864Y-84340000D01*
X51446343Y-84629150D01*
X51530685Y-84907189D01*
X51667649Y-85163431D01*
X51851972Y-85388028D01*
X52076569Y-85572351D01*
X52147005Y-85610000D01*
X52076569Y-85647649D01*
X51851972Y-85831972D01*
X51772289Y-85929065D01*
X49255751Y-83412528D01*
X49233051Y-83384868D01*
X49122656Y-83294269D01*
X48996707Y-83226947D01*
X48860044Y-83185491D01*
X48753526Y-83175000D01*
X48753516Y-83175000D01*
X48717919Y-83171494D01*
X48682322Y-83175000D01*
X45850304Y-83175000D01*
X49280305Y-79745000D01*
X51615037Y-79745000D01*
X51667649Y-79843431D01*
X51851972Y-80068028D01*
X52076569Y-80252351D01*
X52208404Y-80322818D01*
X52050000Y-80321976D01*
X51927479Y-80334043D01*
X51809666Y-80369781D01*
X51701089Y-80427817D01*
X51605920Y-80505920D01*
X51527817Y-80601089D01*
X51469781Y-80709666D01*
X51434043Y-80827479D01*
X51421976Y-80950000D01*
X51425000Y-81518750D01*
X51581250Y-81675000D01*
X52775000Y-81675000D01*
X52775000Y-81655000D01*
X53025000Y-81655000D01*
X53025000Y-81675000D01*
X54218750Y-81675000D01*
X54375000Y-81518750D01*
X54378024Y-80950000D01*
X54365957Y-80827479D01*
X54330219Y-80709666D01*
X54272183Y-80601089D01*
X54194080Y-80505920D01*
X54098911Y-80427817D01*
X53990334Y-80369781D01*
X53872521Y-80334043D01*
X53750000Y-80321976D01*
X53591596Y-80322818D01*
X53723431Y-80252351D01*
X53948028Y-80068028D01*
X54132351Y-79843431D01*
X54269315Y-79587189D01*
X54353657Y-79309150D01*
X54382136Y-79020000D01*
X54353657Y-78730850D01*
X54269315Y-78452811D01*
X54132351Y-78196569D01*
X53948028Y-77971972D01*
X53723431Y-77787649D01*
X53652995Y-77750000D01*
X53723431Y-77712351D01*
X53948028Y-77528028D01*
X54132351Y-77303431D01*
X54269315Y-77047189D01*
X54353657Y-76769150D01*
X54382136Y-76480000D01*
X54357021Y-76225000D01*
X54500954Y-76225000D01*
X54698982Y-76185610D01*
X54885520Y-76108344D01*
X55053400Y-75996170D01*
X55196170Y-75853400D01*
X55308344Y-75685520D01*
X55385610Y-75498982D01*
X55425000Y-75300954D01*
X55425000Y-75099046D01*
X55385610Y-74901018D01*
X55308344Y-74714480D01*
X55196170Y-74546600D01*
X55053400Y-74403830D01*
X54885520Y-74291656D01*
X54698982Y-74214390D01*
X54500954Y-74175000D01*
X54358990Y-74175000D01*
X54382136Y-73940000D01*
X54353657Y-73650850D01*
X54269315Y-73372811D01*
X54132351Y-73116569D01*
X53948028Y-72891972D01*
X53904506Y-72856254D01*
X53990334Y-72830219D01*
X54098911Y-72772183D01*
X54194080Y-72694080D01*
X54272183Y-72598911D01*
X54330219Y-72490334D01*
X54365957Y-72372521D01*
X54378024Y-72250000D01*
X54375000Y-71681250D01*
X54218750Y-71525000D01*
X53025000Y-71525000D01*
X53025000Y-71545000D01*
X52775000Y-71545000D01*
X52775000Y-71525000D01*
X51581250Y-71525000D01*
X51425000Y-71681250D01*
X51421976Y-72250000D01*
X51434043Y-72372521D01*
X51469781Y-72490334D01*
X51521718Y-72587500D01*
X50230930Y-72587500D01*
X50155010Y-72494990D01*
X50026692Y-72389683D01*
X49880296Y-72311433D01*
X49721447Y-72263247D01*
X49556250Y-72246976D01*
X49043750Y-72246976D01*
X48878553Y-72263247D01*
X48719704Y-72311433D01*
X48573308Y-72389683D01*
X48444990Y-72494990D01*
X48339683Y-72623308D01*
X48335381Y-72631357D01*
X48308712Y-72639447D01*
X48182763Y-72706769D01*
X48072368Y-72797368D01*
X48049668Y-72825028D01*
X47662524Y-73212172D01*
X47634869Y-73234868D01*
X47612173Y-73262523D01*
X47612170Y-73262526D01*
X47544269Y-73345264D01*
X47476947Y-73471213D01*
X47435492Y-73607876D01*
X47421494Y-73750000D01*
X47425001Y-73785607D01*
X47425000Y-78849695D01*
X42812523Y-83462173D01*
X42784869Y-83484868D01*
X42762173Y-83512523D01*
X42762170Y-83512526D01*
X42694269Y-83595264D01*
X42626947Y-83721213D01*
X42585492Y-83857876D01*
X42571494Y-84000000D01*
X42575001Y-84035607D01*
X42575000Y-91264403D01*
X42571494Y-91300000D01*
X42575000Y-91335597D01*
X42575000Y-91335606D01*
X42585491Y-91442124D01*
X42626947Y-91578787D01*
X42694269Y-91704736D01*
X42784868Y-91815131D01*
X42812524Y-91837828D01*
X44449695Y-93475000D01*
X44299046Y-93475000D01*
X44242682Y-93486211D01*
X44197183Y-93401089D01*
X44119080Y-93305920D01*
X44023911Y-93227817D01*
X43915334Y-93169781D01*
X43797521Y-93134043D01*
X43675000Y-93121976D01*
X43125000Y-93121976D01*
X43002479Y-93134043D01*
X43000303Y-93134703D01*
X42999333Y-93134406D01*
X42881250Y-93125000D01*
X42781125Y-93225125D01*
X42776089Y-93227817D01*
X42680920Y-93305920D01*
X42602817Y-93401089D01*
X42600000Y-93406359D01*
X42597183Y-93401089D01*
X42519080Y-93305920D01*
X42423911Y-93227817D01*
X42418875Y-93225125D01*
X42318750Y-93125000D01*
X42200667Y-93134406D01*
X42199697Y-93134703D01*
X42197521Y-93134043D01*
X42122878Y-93126692D01*
X42196170Y-93053400D01*
X42308344Y-92885520D01*
X42385610Y-92698982D01*
X42425000Y-92500954D01*
X42425000Y-92299046D01*
X42385610Y-92101018D01*
X42308344Y-91914480D01*
X42196170Y-91746600D01*
X42053400Y-91603830D01*
X41885520Y-91491656D01*
X41698982Y-91414390D01*
X41500954Y-91375000D01*
X41299046Y-91375000D01*
X41101018Y-91414390D01*
X40914480Y-91491656D01*
X40746600Y-91603830D01*
X40603830Y-91746600D01*
X40491656Y-91914480D01*
X40414390Y-92101018D01*
X40400000Y-92173362D01*
X40385610Y-92101018D01*
X40308344Y-91914480D01*
X40196170Y-91746600D01*
X40053400Y-91603830D01*
X39885520Y-91491656D01*
X39698982Y-91414390D01*
X39500954Y-91375000D01*
X39299046Y-91375000D01*
X39101018Y-91414390D01*
X38914480Y-91491656D01*
X38746600Y-91603830D01*
X38603830Y-91746600D01*
X38491656Y-91914480D01*
X38414390Y-92101018D01*
X38375000Y-92299046D01*
X38375000Y-92399696D01*
X38112523Y-92662173D01*
X38084869Y-92684868D01*
X38062173Y-92712523D01*
X38062170Y-92712526D01*
X37994269Y-92795264D01*
X37926947Y-92921213D01*
X37898067Y-93016420D01*
X37885492Y-93057875D01*
X37882383Y-93089438D01*
X37879179Y-93121976D01*
X37525000Y-93121976D01*
X37402479Y-93134043D01*
X37400000Y-93134795D01*
X37397521Y-93134043D01*
X37275000Y-93121976D01*
X36725000Y-93121976D01*
X36602479Y-93134043D01*
X36600303Y-93134703D01*
X36599333Y-93134406D01*
X36481250Y-93125000D01*
X36381125Y-93225125D01*
X36376089Y-93227817D01*
X36325002Y-93269743D01*
X36325002Y-93125000D01*
X36226528Y-93125000D01*
X36228990Y-93100000D01*
X36225000Y-93059487D01*
X36225000Y-93059479D01*
X36213062Y-92938272D01*
X36165888Y-92782759D01*
X36089281Y-92639437D01*
X35986185Y-92513815D01*
X35954705Y-92487980D01*
X35812021Y-92345296D01*
X35786185Y-92313815D01*
X35660563Y-92210719D01*
X35517241Y-92134112D01*
X35361728Y-92086938D01*
X35240521Y-92075000D01*
X35240513Y-92075000D01*
X35200000Y-92071010D01*
X35159487Y-92075000D01*
X34340521Y-92075000D01*
X34300000Y-92071009D01*
X34259479Y-92075000D01*
X32190513Y-92075000D01*
X32150000Y-92071010D01*
X32109487Y-92075000D01*
X32109479Y-92075000D01*
X31988272Y-92086938D01*
X31832759Y-92134112D01*
X31689437Y-92210719D01*
X31563815Y-92313815D01*
X31537983Y-92345291D01*
X30945291Y-92937984D01*
X30913816Y-92963815D01*
X30810720Y-93089437D01*
X30767396Y-93170491D01*
X30734113Y-93232759D01*
X30686938Y-93388272D01*
X30684819Y-93409788D01*
X30651089Y-93427817D01*
X30650000Y-93428711D01*
X30650000Y-70650000D01*
X51422508Y-70650000D01*
X51425000Y-71118750D01*
G36*
X30725000Y-112297247D02*
G01*
X30721494Y-112332844D01*
X30725000Y-112368441D01*
X30725000Y-112368450D01*
X30735491Y-112474968D01*
X30776947Y-112611631D01*
X30844269Y-112737580D01*
X30934868Y-112847975D01*
X30962524Y-112870672D01*
X32035968Y-113944116D01*
X31946600Y-114003830D01*
X31803830Y-114146600D01*
X31691656Y-114314480D01*
X31614390Y-114501018D01*
X31575000Y-114699046D01*
X31575000Y-114900954D01*
X31599283Y-115023032D01*
X31440000Y-115021976D01*
X31317479Y-115034043D01*
X31199666Y-115069781D01*
X31091089Y-115127817D01*
X30995920Y-115205920D01*
X30917817Y-115301089D01*
X30859781Y-115409666D01*
X30824043Y-115527479D01*
X30811976Y-115650000D01*
X30815000Y-116418750D01*
X30971250Y-116575000D01*
X32052500Y-116575000D01*
X32052500Y-116555000D01*
X32302500Y-116555000D01*
X32302500Y-116575000D01*
X32322500Y-116575000D01*
X32322500Y-116825000D01*
X32302500Y-116825000D01*
X32302500Y-116845000D01*
X32052500Y-116845000D01*
X32052500Y-116825000D01*
X30971250Y-116825000D01*
X30815000Y-116981250D01*
X30813263Y-117422879D01*
X30650000Y-117422335D01*
X30650000Y-112053024D01*
X30725000Y-112053024D01*
X30725000Y-112297247D01*
X30725000Y-112297247D01*
G37*
X30725000Y-112297247D02*
X30721494Y-112332844D01*
X30725000Y-112368441D01*
X30725000Y-112368450D01*
X30735491Y-112474968D01*
X30776947Y-112611631D01*
X30844269Y-112737580D01*
X30934868Y-112847975D01*
X30962524Y-112870672D01*
X32035968Y-113944116D01*
X31946600Y-114003830D01*
X31803830Y-114146600D01*
X31691656Y-114314480D01*
X31614390Y-114501018D01*
X31575000Y-114699046D01*
X31575000Y-114900954D01*
X31599283Y-115023032D01*
X31440000Y-115021976D01*
X31317479Y-115034043D01*
X31199666Y-115069781D01*
X31091089Y-115127817D01*
X30995920Y-115205920D01*
X30917817Y-115301089D01*
X30859781Y-115409666D01*
X30824043Y-115527479D01*
X30811976Y-115650000D01*
X30815000Y-116418750D01*
X30971250Y-116575000D01*
X32052500Y-116575000D01*
X32052500Y-116555000D01*
X32302500Y-116555000D01*
X32302500Y-116575000D01*
X32322500Y-116575000D01*
X32322500Y-116825000D01*
X32302500Y-116825000D01*
X32302500Y-116845000D01*
X32052500Y-116845000D01*
X32052500Y-116825000D01*
X30971250Y-116825000D01*
X30815000Y-116981250D01*
X30813263Y-117422879D01*
X30650000Y-117422335D01*
X30650000Y-112053024D01*
X30725000Y-112053024D01*
X30725000Y-112297247D01*
G36*
X33994990Y-108655010D02*
G01*
X34123308Y-108760317D01*
X34269704Y-108838567D01*
X34400551Y-108878259D01*
X34305920Y-108955920D01*
X34227817Y-109051089D01*
X34169781Y-109159666D01*
X34134043Y-109277479D01*
X34121976Y-109400000D01*
X34121976Y-111800000D01*
X34134043Y-111922521D01*
X34169781Y-112040334D01*
X34227817Y-112148911D01*
X34305920Y-112244080D01*
X34401089Y-112322183D01*
X34487501Y-112368371D01*
X34487501Y-112369069D01*
X34394990Y-112444990D01*
X34289683Y-112573308D01*
X34211433Y-112719704D01*
X34163247Y-112878553D01*
X34146976Y-113043750D01*
X34146976Y-113438827D01*
X32751764Y-112043616D01*
X32821447Y-112036753D01*
X32980296Y-111988567D01*
X33126692Y-111910317D01*
X33255010Y-111805010D01*
X33360317Y-111676692D01*
X33438567Y-111530296D01*
X33486753Y-111371447D01*
X33503024Y-111206250D01*
X33503024Y-110768750D01*
X33486753Y-110603553D01*
X33438567Y-110444704D01*
X33360317Y-110298308D01*
X33279638Y-110200000D01*
X33360317Y-110101692D01*
X33438567Y-109955296D01*
X33486753Y-109796447D01*
X33503024Y-109631250D01*
X33503024Y-109193750D01*
X33486753Y-109028553D01*
X33438567Y-108869704D01*
X33403744Y-108804554D01*
X33498982Y-108785610D01*
X33685520Y-108708344D01*
X33853400Y-108596170D01*
X33904646Y-108544924D01*
X33994990Y-108655010D01*
X33994990Y-108655010D01*
G37*
X33994990Y-108655010D02*
X34123308Y-108760317D01*
X34269704Y-108838567D01*
X34400551Y-108878259D01*
X34305920Y-108955920D01*
X34227817Y-109051089D01*
X34169781Y-109159666D01*
X34134043Y-109277479D01*
X34121976Y-109400000D01*
X34121976Y-111800000D01*
X34134043Y-111922521D01*
X34169781Y-112040334D01*
X34227817Y-112148911D01*
X34305920Y-112244080D01*
X34401089Y-112322183D01*
X34487501Y-112368371D01*
X34487501Y-112369069D01*
X34394990Y-112444990D01*
X34289683Y-112573308D01*
X34211433Y-112719704D01*
X34163247Y-112878553D01*
X34146976Y-113043750D01*
X34146976Y-113438827D01*
X32751764Y-112043616D01*
X32821447Y-112036753D01*
X32980296Y-111988567D01*
X33126692Y-111910317D01*
X33255010Y-111805010D01*
X33360317Y-111676692D01*
X33438567Y-111530296D01*
X33486753Y-111371447D01*
X33503024Y-111206250D01*
X33503024Y-110768750D01*
X33486753Y-110603553D01*
X33438567Y-110444704D01*
X33360317Y-110298308D01*
X33279638Y-110200000D01*
X33360317Y-110101692D01*
X33438567Y-109955296D01*
X33486753Y-109796447D01*
X33503024Y-109631250D01*
X33503024Y-109193750D01*
X33486753Y-109028553D01*
X33438567Y-108869704D01*
X33403744Y-108804554D01*
X33498982Y-108785610D01*
X33685520Y-108708344D01*
X33853400Y-108596170D01*
X33904646Y-108544924D01*
X33994990Y-108655010D01*
G36*
X37802817Y-106998911D02*
G01*
X37875000Y-107086867D01*
X37875001Y-108749694D01*
X37852719Y-108771976D01*
X37054879Y-108771976D01*
X37076692Y-108760317D01*
X37205010Y-108655010D01*
X37310317Y-108526692D01*
X37388567Y-108380296D01*
X37436753Y-108221447D01*
X37453024Y-108056250D01*
X37453024Y-107759781D01*
X37487482Y-107725323D01*
X37515131Y-107702632D01*
X37537823Y-107674982D01*
X37537830Y-107674975D01*
X37605731Y-107592237D01*
X37673053Y-107466288D01*
X37693161Y-107400000D01*
X37714509Y-107329625D01*
X37725000Y-107223107D01*
X37725000Y-107223097D01*
X37728506Y-107187500D01*
X37725000Y-107151903D01*
X37725000Y-107086866D01*
X37797183Y-106998911D01*
X37800000Y-106993641D01*
X37802817Y-106998911D01*
X37802817Y-106998911D01*
G37*
X37802817Y-106998911D02*
X37875000Y-107086867D01*
X37875001Y-108749694D01*
X37852719Y-108771976D01*
X37054879Y-108771976D01*
X37076692Y-108760317D01*
X37205010Y-108655010D01*
X37310317Y-108526692D01*
X37388567Y-108380296D01*
X37436753Y-108221447D01*
X37453024Y-108056250D01*
X37453024Y-107759781D01*
X37487482Y-107725323D01*
X37515131Y-107702632D01*
X37537823Y-107674982D01*
X37537830Y-107674975D01*
X37605731Y-107592237D01*
X37673053Y-107466288D01*
X37693161Y-107400000D01*
X37714509Y-107329625D01*
X37725000Y-107223107D01*
X37725000Y-107223097D01*
X37728506Y-107187500D01*
X37725000Y-107151903D01*
X37725000Y-107086866D01*
X37797183Y-106998911D01*
X37800000Y-106993641D01*
X37802817Y-106998911D01*
G36*
X35994269Y-97904736D02*
G01*
X36062170Y-97987474D01*
X36062171Y-97987475D01*
X36084869Y-98015132D01*
X36112523Y-98037827D01*
X36375000Y-98300304D01*
X36375000Y-98400954D01*
X36414390Y-98598982D01*
X36491656Y-98785520D01*
X36603830Y-98953400D01*
X36746600Y-99096170D01*
X36914480Y-99208344D01*
X37101018Y-99285610D01*
X37173362Y-99300000D01*
X37101018Y-99314390D01*
X36914480Y-99391656D01*
X36746600Y-99503830D01*
X36603830Y-99646600D01*
X36491656Y-99814480D01*
X36414390Y-100001018D01*
X36375000Y-100199046D01*
X36375000Y-100299695D01*
X36088067Y-100586628D01*
X36125000Y-100400954D01*
X36125000Y-100199046D01*
X36085610Y-100001018D01*
X36008344Y-99814480D01*
X35896170Y-99646600D01*
X35753400Y-99503830D01*
X35585520Y-99391656D01*
X35398982Y-99314390D01*
X35200954Y-99275000D01*
X35075000Y-99275000D01*
X35075000Y-99274998D01*
X34930257Y-99274998D01*
X34972183Y-99223911D01*
X34974875Y-99218875D01*
X35075000Y-99118750D01*
X35065594Y-99000667D01*
X35065297Y-98999697D01*
X35065957Y-98997521D01*
X35078024Y-98875000D01*
X35078024Y-98325000D01*
X35068175Y-98225000D01*
X35200954Y-98225000D01*
X35398982Y-98185610D01*
X35585520Y-98108344D01*
X35753400Y-97996170D01*
X35896170Y-97853400D01*
X35935426Y-97794650D01*
X35994269Y-97904736D01*
X35994269Y-97904736D01*
G37*
X35994269Y-97904736D02*
X36062170Y-97987474D01*
X36062171Y-97987475D01*
X36084869Y-98015132D01*
X36112523Y-98037827D01*
X36375000Y-98300304D01*
X36375000Y-98400954D01*
X36414390Y-98598982D01*
X36491656Y-98785520D01*
X36603830Y-98953400D01*
X36746600Y-99096170D01*
X36914480Y-99208344D01*
X37101018Y-99285610D01*
X37173362Y-99300000D01*
X37101018Y-99314390D01*
X36914480Y-99391656D01*
X36746600Y-99503830D01*
X36603830Y-99646600D01*
X36491656Y-99814480D01*
X36414390Y-100001018D01*
X36375000Y-100199046D01*
X36375000Y-100299695D01*
X36088067Y-100586628D01*
X36125000Y-100400954D01*
X36125000Y-100199046D01*
X36085610Y-100001018D01*
X36008344Y-99814480D01*
X35896170Y-99646600D01*
X35753400Y-99503830D01*
X35585520Y-99391656D01*
X35398982Y-99314390D01*
X35200954Y-99275000D01*
X35075000Y-99275000D01*
X35075000Y-99274998D01*
X34930257Y-99274998D01*
X34972183Y-99223911D01*
X34974875Y-99218875D01*
X35075000Y-99118750D01*
X35065594Y-99000667D01*
X35065297Y-98999697D01*
X35065957Y-98997521D01*
X35078024Y-98875000D01*
X35078024Y-98325000D01*
X35068175Y-98225000D01*
X35200954Y-98225000D01*
X35398982Y-98185610D01*
X35585520Y-98108344D01*
X35753400Y-97996170D01*
X35896170Y-97853400D01*
X35935426Y-97794650D01*
X35994269Y-97904736D01*
G36*
X32025000Y-99587500D02*
G01*
X32045000Y-99587500D01*
X32045000Y-99750835D01*
X31938335Y-99857500D01*
X31775000Y-99857500D01*
X31775000Y-99837500D01*
X31755000Y-99837500D01*
X31755000Y-99587500D01*
X31775000Y-99587500D01*
X31775000Y-99567500D01*
X32025000Y-99567500D01*
X32025000Y-99587500D01*
X32025000Y-99587500D01*
G37*
X32025000Y-99587500D02*
X32045000Y-99587500D01*
X32045000Y-99750835D01*
X31938335Y-99857500D01*
X31775000Y-99857500D01*
X31775000Y-99837500D01*
X31755000Y-99837500D01*
X31755000Y-99587500D01*
X31775000Y-99587500D01*
X31775000Y-99567500D01*
X32025000Y-99567500D01*
X32025000Y-99587500D01*
G36*
X35800667Y-95865594D02*
G01*
X35884076Y-95872238D01*
X35875000Y-95964394D01*
X35875000Y-95964403D01*
X35871494Y-96000000D01*
X35875000Y-96035597D01*
X35875000Y-96525430D01*
X35753400Y-96403830D01*
X35585520Y-96291656D01*
X35398982Y-96214390D01*
X35200954Y-96175000D01*
X35078024Y-96175000D01*
X35078024Y-95925000D01*
X35072892Y-95872892D01*
X35125000Y-95878024D01*
X35675000Y-95878024D01*
X35797521Y-95865957D01*
X35799697Y-95865297D01*
X35800667Y-95865594D01*
X35800667Y-95865594D01*
G37*
X35800667Y-95865594D02*
X35884076Y-95872238D01*
X35875000Y-95964394D01*
X35875000Y-95964403D01*
X35871494Y-96000000D01*
X35875000Y-96035597D01*
X35875000Y-96525430D01*
X35753400Y-96403830D01*
X35585520Y-96291656D01*
X35398982Y-96214390D01*
X35200954Y-96175000D01*
X35078024Y-96175000D01*
X35078024Y-95925000D01*
X35072892Y-95872892D01*
X35125000Y-95878024D01*
X35675000Y-95878024D01*
X35797521Y-95865957D01*
X35799697Y-95865297D01*
X35800667Y-95865594D01*
G36*
X46398308Y-91460317D02*
G01*
X46544704Y-91538567D01*
X46703553Y-91586753D01*
X46868750Y-91603024D01*
X47306250Y-91603024D01*
X47471447Y-91586753D01*
X47630296Y-91538567D01*
X47776692Y-91460317D01*
X47800954Y-91440406D01*
X47809042Y-91522522D01*
X47844780Y-91640335D01*
X47899999Y-91743642D01*
X47900000Y-93239385D01*
X47899999Y-93239395D01*
X47899999Y-93674694D01*
X45825927Y-91600623D01*
X45950000Y-91603024D01*
X46072521Y-91590957D01*
X46190334Y-91555219D01*
X46298911Y-91497183D01*
X46371070Y-91437964D01*
X46398308Y-91460317D01*
X46398308Y-91460317D01*
G37*
X46398308Y-91460317D02*
X46544704Y-91538567D01*
X46703553Y-91586753D01*
X46868750Y-91603024D01*
X47306250Y-91603024D01*
X47471447Y-91586753D01*
X47630296Y-91538567D01*
X47776692Y-91460317D01*
X47800954Y-91440406D01*
X47809042Y-91522522D01*
X47844780Y-91640335D01*
X47899999Y-91743642D01*
X47900000Y-93239385D01*
X47899999Y-93239395D01*
X47899999Y-93674694D01*
X45825927Y-91600623D01*
X45950000Y-91603024D01*
X46072521Y-91590957D01*
X46190334Y-91555219D01*
X46298911Y-91497183D01*
X46371070Y-91437964D01*
X46398308Y-91460317D01*
G36*
X45637500Y-85175000D02*
G01*
X45657500Y-85175000D01*
X45657500Y-85425000D01*
X45637500Y-85425000D01*
X45637500Y-86243750D01*
X45793750Y-86400000D01*
X45950000Y-86403024D01*
X46044278Y-86393739D01*
X46034043Y-86427479D01*
X46021976Y-86550000D01*
X46021976Y-87089911D01*
X45994080Y-87055920D01*
X45898911Y-86977817D01*
X45790334Y-86919781D01*
X45672521Y-86884043D01*
X45550000Y-86871976D01*
X45381250Y-86875000D01*
X45225000Y-87031250D01*
X45225000Y-87775000D01*
X46018750Y-87775000D01*
X46116330Y-87677420D01*
X46127817Y-87698911D01*
X46205920Y-87794080D01*
X46301089Y-87872183D01*
X46353131Y-87900000D01*
X46301089Y-87927817D01*
X46205920Y-88005920D01*
X46127817Y-88101089D01*
X46116330Y-88122580D01*
X46018750Y-88025000D01*
X45225000Y-88025000D01*
X45225000Y-88768750D01*
X45381250Y-88925000D01*
X45550000Y-88928024D01*
X45672521Y-88915957D01*
X45790334Y-88880219D01*
X45898911Y-88822183D01*
X45994080Y-88744080D01*
X46021976Y-88710089D01*
X46021976Y-89250000D01*
X46034043Y-89372521D01*
X46044278Y-89406261D01*
X45950000Y-89396976D01*
X45793750Y-89400000D01*
X45637500Y-89556250D01*
X45637500Y-90375000D01*
X45657500Y-90375000D01*
X45657500Y-90625000D01*
X45637500Y-90625000D01*
X45637500Y-90645000D01*
X45387500Y-90645000D01*
X45387500Y-90625000D01*
X45367500Y-90625000D01*
X45367500Y-90375000D01*
X45387500Y-90375000D01*
X45387500Y-89556250D01*
X45231250Y-89400000D01*
X45075000Y-89396976D01*
X44952479Y-89409043D01*
X44834666Y-89444781D01*
X44825000Y-89449948D01*
X44825000Y-88918750D01*
X44975000Y-88768750D01*
X44975000Y-88025000D01*
X44955000Y-88025000D01*
X44955000Y-87775000D01*
X44975000Y-87775000D01*
X44975000Y-87031250D01*
X44825000Y-86881250D01*
X44825000Y-86350052D01*
X44834666Y-86355219D01*
X44952479Y-86390957D01*
X45075000Y-86403024D01*
X45231250Y-86400000D01*
X45387500Y-86243750D01*
X45387500Y-85425000D01*
X45367500Y-85425000D01*
X45367500Y-85175000D01*
X45387500Y-85175000D01*
X45387500Y-85155000D01*
X45637500Y-85155000D01*
X45637500Y-85175000D01*
X45637500Y-85175000D01*
G37*
X45637500Y-85175000D02*
X45657500Y-85175000D01*
X45657500Y-85425000D01*
X45637500Y-85425000D01*
X45637500Y-86243750D01*
X45793750Y-86400000D01*
X45950000Y-86403024D01*
X46044278Y-86393739D01*
X46034043Y-86427479D01*
X46021976Y-86550000D01*
X46021976Y-87089911D01*
X45994080Y-87055920D01*
X45898911Y-86977817D01*
X45790334Y-86919781D01*
X45672521Y-86884043D01*
X45550000Y-86871976D01*
X45381250Y-86875000D01*
X45225000Y-87031250D01*
X45225000Y-87775000D01*
X46018750Y-87775000D01*
X46116330Y-87677420D01*
X46127817Y-87698911D01*
X46205920Y-87794080D01*
X46301089Y-87872183D01*
X46353131Y-87900000D01*
X46301089Y-87927817D01*
X46205920Y-88005920D01*
X46127817Y-88101089D01*
X46116330Y-88122580D01*
X46018750Y-88025000D01*
X45225000Y-88025000D01*
X45225000Y-88768750D01*
X45381250Y-88925000D01*
X45550000Y-88928024D01*
X45672521Y-88915957D01*
X45790334Y-88880219D01*
X45898911Y-88822183D01*
X45994080Y-88744080D01*
X46021976Y-88710089D01*
X46021976Y-89250000D01*
X46034043Y-89372521D01*
X46044278Y-89406261D01*
X45950000Y-89396976D01*
X45793750Y-89400000D01*
X45637500Y-89556250D01*
X45637500Y-90375000D01*
X45657500Y-90375000D01*
X45657500Y-90625000D01*
X45637500Y-90625000D01*
X45637500Y-90645000D01*
X45387500Y-90645000D01*
X45387500Y-90625000D01*
X45367500Y-90625000D01*
X45367500Y-90375000D01*
X45387500Y-90375000D01*
X45387500Y-89556250D01*
X45231250Y-89400000D01*
X45075000Y-89396976D01*
X44952479Y-89409043D01*
X44834666Y-89444781D01*
X44825000Y-89449948D01*
X44825000Y-88918750D01*
X44975000Y-88768750D01*
X44975000Y-88025000D01*
X44955000Y-88025000D01*
X44955000Y-87775000D01*
X44975000Y-87775000D01*
X44975000Y-87031250D01*
X44825000Y-86881250D01*
X44825000Y-86350052D01*
X44834666Y-86355219D01*
X44952479Y-86390957D01*
X45075000Y-86403024D01*
X45231250Y-86400000D01*
X45387500Y-86243750D01*
X45387500Y-85425000D01*
X45367500Y-85425000D01*
X45367500Y-85175000D01*
X45387500Y-85175000D01*
X45387500Y-85155000D01*
X45637500Y-85155000D01*
X45637500Y-85175000D01*
G36*
X51160091Y-87367477D02*
G01*
X51182787Y-87395132D01*
X51210442Y-87417828D01*
X51210444Y-87417830D01*
X51287091Y-87480732D01*
X51293182Y-87485731D01*
X51419131Y-87553053D01*
X51555794Y-87594509D01*
X51612410Y-87600085D01*
X51667649Y-87703431D01*
X51851972Y-87928028D01*
X52076569Y-88112351D01*
X52147005Y-88150000D01*
X52076569Y-88187649D01*
X51851972Y-88371972D01*
X51667649Y-88596569D01*
X51530685Y-88852811D01*
X51446343Y-89130850D01*
X51417864Y-89420000D01*
X51446343Y-89709150D01*
X51478742Y-89815954D01*
X50944695Y-90350001D01*
X50605254Y-90350001D01*
X50569750Y-90306738D01*
X50598052Y-90253789D01*
X50639508Y-90117126D01*
X50649999Y-90010608D01*
X50649999Y-90010599D01*
X50653505Y-89975002D01*
X50649999Y-89939405D01*
X50649999Y-89843642D01*
X50705218Y-89740335D01*
X50740956Y-89622522D01*
X50753023Y-89500001D01*
X50753023Y-88850001D01*
X50740956Y-88727480D01*
X50705218Y-88609667D01*
X50647182Y-88501090D01*
X50569079Y-88405921D01*
X50473910Y-88327818D01*
X50365333Y-88269782D01*
X50247520Y-88234044D01*
X50124999Y-88221977D01*
X49724999Y-88221977D01*
X49602478Y-88234044D01*
X49597637Y-88235513D01*
X49506249Y-88225001D01*
X49434831Y-88296419D01*
X49400001Y-88315036D01*
X49400001Y-88225001D01*
X49349999Y-88225001D01*
X49349999Y-87565260D01*
X49453400Y-87496170D01*
X49596170Y-87353400D01*
X49708344Y-87185520D01*
X49785610Y-86998982D01*
X49825000Y-86800954D01*
X49825000Y-86599046D01*
X49785610Y-86401018D01*
X49708344Y-86214480D01*
X49596170Y-86046600D01*
X49453400Y-85903830D01*
X49285520Y-85791656D01*
X49217477Y-85763472D01*
X49285610Y-85598982D01*
X49303194Y-85510580D01*
X51160091Y-87367477D01*
X51160091Y-87367477D01*
G37*
X51160091Y-87367477D02*
X51182787Y-87395132D01*
X51210442Y-87417828D01*
X51210444Y-87417830D01*
X51287091Y-87480732D01*
X51293182Y-87485731D01*
X51419131Y-87553053D01*
X51555794Y-87594509D01*
X51612410Y-87600085D01*
X51667649Y-87703431D01*
X51851972Y-87928028D01*
X52076569Y-88112351D01*
X52147005Y-88150000D01*
X52076569Y-88187649D01*
X51851972Y-88371972D01*
X51667649Y-88596569D01*
X51530685Y-88852811D01*
X51446343Y-89130850D01*
X51417864Y-89420000D01*
X51446343Y-89709150D01*
X51478742Y-89815954D01*
X50944695Y-90350001D01*
X50605254Y-90350001D01*
X50569750Y-90306738D01*
X50598052Y-90253789D01*
X50639508Y-90117126D01*
X50649999Y-90010608D01*
X50649999Y-90010599D01*
X50653505Y-89975002D01*
X50649999Y-89939405D01*
X50649999Y-89843642D01*
X50705218Y-89740335D01*
X50740956Y-89622522D01*
X50753023Y-89500001D01*
X50753023Y-88850001D01*
X50740956Y-88727480D01*
X50705218Y-88609667D01*
X50647182Y-88501090D01*
X50569079Y-88405921D01*
X50473910Y-88327818D01*
X50365333Y-88269782D01*
X50247520Y-88234044D01*
X50124999Y-88221977D01*
X49724999Y-88221977D01*
X49602478Y-88234044D01*
X49597637Y-88235513D01*
X49506249Y-88225001D01*
X49434831Y-88296419D01*
X49400001Y-88315036D01*
X49400001Y-88225001D01*
X49349999Y-88225001D01*
X49349999Y-87565260D01*
X49453400Y-87496170D01*
X49596170Y-87353400D01*
X49708344Y-87185520D01*
X49785610Y-86998982D01*
X49825000Y-86800954D01*
X49825000Y-86599046D01*
X49785610Y-86401018D01*
X49708344Y-86214480D01*
X49596170Y-86046600D01*
X49453400Y-85903830D01*
X49285520Y-85791656D01*
X49217477Y-85763472D01*
X49285610Y-85598982D01*
X49303194Y-85510580D01*
X51160091Y-87367477D01*
M02*
