G04 #@! TF.GenerationSoftware,KiCad,Pcbnew,(5.1.2)-2*
G04 #@! TF.CreationDate,2019-07-11T02:00:36+02:00*
G04 #@! TF.ProjectId,ATM32U4_backpack,41544d33-3255-4345-9f62-61636b706163,rev?*
G04 #@! TF.SameCoordinates,Original*
G04 #@! TF.FileFunction,Legend,Top*
G04 #@! TF.FilePolarity,Positive*
%FSLAX46Y46*%
G04 Gerber Fmt 4.6, Leading zero omitted, Abs format (unit mm)*
G04 Created by KiCad (PCBNEW (5.1.2)-2) date 2019-07-11 02:00:36*
%MOMM*%
%LPD*%
G04 APERTURE LIST*
%ADD10C,0.250000*%
%ADD11C,0.150000*%
%ADD12C,0.120000*%
G04 APERTURE END LIST*
D10*
X31816666Y-93189880D02*
X31816666Y-92570833D01*
X32188095Y-93313690D02*
X30888095Y-92880357D01*
X32188095Y-92447023D01*
X30888095Y-92199404D02*
X30888095Y-91456547D01*
X32188095Y-91827976D02*
X30888095Y-91827976D01*
X32188095Y-91023214D02*
X30888095Y-91023214D01*
X31816666Y-90589880D01*
X30888095Y-90156547D01*
X32188095Y-90156547D01*
X32126190Y-89042261D02*
X32188095Y-89166071D01*
X32188095Y-89413690D01*
X32126190Y-89537500D01*
X32002380Y-89599404D01*
X31507142Y-89599404D01*
X31383333Y-89537500D01*
X31321428Y-89413690D01*
X31321428Y-89166071D01*
X31383333Y-89042261D01*
X31507142Y-88980357D01*
X31630952Y-88980357D01*
X31754761Y-89599404D01*
X31321428Y-87866071D02*
X32373809Y-87866071D01*
X32497619Y-87927976D01*
X32559523Y-87989880D01*
X32621428Y-88113690D01*
X32621428Y-88299404D01*
X32559523Y-88423214D01*
X32126190Y-87866071D02*
X32188095Y-87989880D01*
X32188095Y-88237500D01*
X32126190Y-88361309D01*
X32064285Y-88423214D01*
X31940476Y-88485119D01*
X31569047Y-88485119D01*
X31445238Y-88423214D01*
X31383333Y-88361309D01*
X31321428Y-88237500D01*
X31321428Y-87989880D01*
X31383333Y-87866071D01*
X32188095Y-86689880D02*
X31507142Y-86689880D01*
X31383333Y-86751785D01*
X31321428Y-86875595D01*
X31321428Y-87123214D01*
X31383333Y-87247023D01*
X32126190Y-86689880D02*
X32188095Y-86813690D01*
X32188095Y-87123214D01*
X32126190Y-87247023D01*
X32002380Y-87308928D01*
X31878571Y-87308928D01*
X31754761Y-87247023D01*
X31692857Y-87123214D01*
X31692857Y-86813690D01*
X31630952Y-86689880D01*
X30888095Y-86194642D02*
X30888095Y-85389880D01*
X31383333Y-85823214D01*
X31383333Y-85637500D01*
X31445238Y-85513690D01*
X31507142Y-85451785D01*
X31630952Y-85389880D01*
X31940476Y-85389880D01*
X32064285Y-85451785D01*
X32126190Y-85513690D01*
X32188095Y-85637500D01*
X32188095Y-86008928D01*
X32126190Y-86132738D01*
X32064285Y-86194642D01*
X31011904Y-84894642D02*
X30950000Y-84832738D01*
X30888095Y-84708928D01*
X30888095Y-84399404D01*
X30950000Y-84275595D01*
X31011904Y-84213690D01*
X31135714Y-84151785D01*
X31259523Y-84151785D01*
X31445238Y-84213690D01*
X32188095Y-84956547D01*
X32188095Y-84151785D01*
X30888095Y-83594642D02*
X31940476Y-83594642D01*
X32064285Y-83532738D01*
X32126190Y-83470833D01*
X32188095Y-83347023D01*
X32188095Y-83099404D01*
X32126190Y-82975595D01*
X32064285Y-82913690D01*
X31940476Y-82851785D01*
X30888095Y-82851785D01*
X31321428Y-81675595D02*
X32188095Y-81675595D01*
X30826190Y-81985119D02*
X31754761Y-82294642D01*
X31754761Y-81489880D01*
X31507142Y-79570833D02*
X31569047Y-79385119D01*
X31630952Y-79323214D01*
X31754761Y-79261309D01*
X31940476Y-79261309D01*
X32064285Y-79323214D01*
X32126190Y-79385119D01*
X32188095Y-79508928D01*
X32188095Y-80004166D01*
X30888095Y-80004166D01*
X30888095Y-79570833D01*
X30950000Y-79447023D01*
X31011904Y-79385119D01*
X31135714Y-79323214D01*
X31259523Y-79323214D01*
X31383333Y-79385119D01*
X31445238Y-79447023D01*
X31507142Y-79570833D01*
X31507142Y-80004166D01*
X32188095Y-78147023D02*
X31507142Y-78147023D01*
X31383333Y-78208928D01*
X31321428Y-78332738D01*
X31321428Y-78580357D01*
X31383333Y-78704166D01*
X32126190Y-78147023D02*
X32188095Y-78270833D01*
X32188095Y-78580357D01*
X32126190Y-78704166D01*
X32002380Y-78766071D01*
X31878571Y-78766071D01*
X31754761Y-78704166D01*
X31692857Y-78580357D01*
X31692857Y-78270833D01*
X31630952Y-78147023D01*
X32126190Y-76970833D02*
X32188095Y-77094642D01*
X32188095Y-77342261D01*
X32126190Y-77466071D01*
X32064285Y-77527976D01*
X31940476Y-77589880D01*
X31569047Y-77589880D01*
X31445238Y-77527976D01*
X31383333Y-77466071D01*
X31321428Y-77342261D01*
X31321428Y-77094642D01*
X31383333Y-76970833D01*
X32188095Y-76413690D02*
X30888095Y-76413690D01*
X31692857Y-76289880D02*
X32188095Y-75918452D01*
X31321428Y-75918452D02*
X31816666Y-76413690D01*
X32188095Y-75361309D02*
X30888095Y-75361309D01*
X30888095Y-74866071D01*
X30950000Y-74742261D01*
X31011904Y-74680357D01*
X31135714Y-74618452D01*
X31321428Y-74618452D01*
X31445238Y-74680357D01*
X31507142Y-74742261D01*
X31569047Y-74866071D01*
X31569047Y-75361309D01*
X32188095Y-73504166D02*
X31507142Y-73504166D01*
X31383333Y-73566071D01*
X31321428Y-73689880D01*
X31321428Y-73937500D01*
X31383333Y-74061309D01*
X32126190Y-73504166D02*
X32188095Y-73627976D01*
X32188095Y-73937500D01*
X32126190Y-74061309D01*
X32002380Y-74123214D01*
X31878571Y-74123214D01*
X31754761Y-74061309D01*
X31692857Y-73937500D01*
X31692857Y-73627976D01*
X31630952Y-73504166D01*
X32126190Y-72327976D02*
X32188095Y-72451785D01*
X32188095Y-72699404D01*
X32126190Y-72823214D01*
X32064285Y-72885119D01*
X31940476Y-72947023D01*
X31569047Y-72947023D01*
X31445238Y-72885119D01*
X31383333Y-72823214D01*
X31321428Y-72699404D01*
X31321428Y-72451785D01*
X31383333Y-72327976D01*
X32188095Y-71770833D02*
X30888095Y-71770833D01*
X31692857Y-71647023D02*
X32188095Y-71275595D01*
X31321428Y-71275595D02*
X31816666Y-71770833D01*
X34388095Y-92385119D02*
X33769047Y-92818452D01*
X34388095Y-93127976D02*
X33088095Y-93127976D01*
X33088095Y-92632738D01*
X33150000Y-92508928D01*
X33211904Y-92447023D01*
X33335714Y-92385119D01*
X33521428Y-92385119D01*
X33645238Y-92447023D01*
X33707142Y-92508928D01*
X33769047Y-92632738D01*
X33769047Y-93127976D01*
X34326190Y-91332738D02*
X34388095Y-91456547D01*
X34388095Y-91704166D01*
X34326190Y-91827976D01*
X34202380Y-91889880D01*
X33707142Y-91889880D01*
X33583333Y-91827976D01*
X33521428Y-91704166D01*
X33521428Y-91456547D01*
X33583333Y-91332738D01*
X33707142Y-91270833D01*
X33830952Y-91270833D01*
X33954761Y-91889880D01*
X33521428Y-90837500D02*
X34388095Y-90527976D01*
X33521428Y-90218452D01*
X34388095Y-89042261D02*
X34388095Y-89785119D01*
X34388095Y-89413690D02*
X33088095Y-89413690D01*
X33273809Y-89537500D01*
X33397619Y-89661309D01*
X33459523Y-89785119D01*
X34264285Y-88485119D02*
X34326190Y-88423214D01*
X34388095Y-88485119D01*
X34326190Y-88547023D01*
X34264285Y-88485119D01*
X34388095Y-88485119D01*
X33088095Y-87618452D02*
X33088095Y-87494642D01*
X33150000Y-87370833D01*
X33211904Y-87308928D01*
X33335714Y-87247023D01*
X33583333Y-87185119D01*
X33892857Y-87185119D01*
X34140476Y-87247023D01*
X34264285Y-87308928D01*
X34326190Y-87370833D01*
X34388095Y-87494642D01*
X34388095Y-87618452D01*
X34326190Y-87742261D01*
X34264285Y-87804166D01*
X34140476Y-87866071D01*
X33892857Y-87927976D01*
X33583333Y-87927976D01*
X33335714Y-87866071D01*
X33211904Y-87804166D01*
X33150000Y-87742261D01*
X33088095Y-87618452D01*
X34264285Y-86627976D02*
X34326190Y-86566071D01*
X34388095Y-86627976D01*
X34326190Y-86689880D01*
X34264285Y-86627976D01*
X34388095Y-86627976D01*
X33088095Y-85761309D02*
X33088095Y-85637500D01*
X33150000Y-85513690D01*
X33211904Y-85451785D01*
X33335714Y-85389880D01*
X33583333Y-85327976D01*
X33892857Y-85327976D01*
X34140476Y-85389880D01*
X34264285Y-85451785D01*
X34326190Y-85513690D01*
X34388095Y-85637500D01*
X34388095Y-85761309D01*
X34326190Y-85885119D01*
X34264285Y-85947023D01*
X34140476Y-86008928D01*
X33892857Y-86070833D01*
X33583333Y-86070833D01*
X33335714Y-86008928D01*
X33211904Y-85947023D01*
X33150000Y-85885119D01*
X33088095Y-85761309D01*
X35721428Y-92570833D02*
X36773809Y-92570833D01*
X36897619Y-92632738D01*
X36959523Y-92694642D01*
X37021428Y-92818452D01*
X37021428Y-93004166D01*
X36959523Y-93127976D01*
X36526190Y-92570833D02*
X36588095Y-92694642D01*
X36588095Y-92942261D01*
X36526190Y-93066071D01*
X36464285Y-93127976D01*
X36340476Y-93189880D01*
X35969047Y-93189880D01*
X35845238Y-93127976D01*
X35783333Y-93066071D01*
X35721428Y-92942261D01*
X35721428Y-92694642D01*
X35783333Y-92570833D01*
X36588095Y-91951785D02*
X35721428Y-91951785D01*
X35288095Y-91951785D02*
X35350000Y-92013690D01*
X35411904Y-91951785D01*
X35350000Y-91889880D01*
X35288095Y-91951785D01*
X35411904Y-91951785D01*
X35721428Y-91518452D02*
X35721428Y-91023214D01*
X35288095Y-91332738D02*
X36402380Y-91332738D01*
X36526190Y-91270833D01*
X36588095Y-91147023D01*
X36588095Y-91023214D01*
X36464285Y-90589880D02*
X36526190Y-90527976D01*
X36588095Y-90589880D01*
X36526190Y-90651785D01*
X36464285Y-90589880D01*
X36588095Y-90589880D01*
X36588095Y-89970833D02*
X35721428Y-89970833D01*
X35288095Y-89970833D02*
X35350000Y-90032738D01*
X35411904Y-89970833D01*
X35350000Y-89908928D01*
X35288095Y-89970833D01*
X35411904Y-89970833D01*
X36588095Y-89166071D02*
X36526190Y-89289880D01*
X36464285Y-89351785D01*
X36340476Y-89413690D01*
X35969047Y-89413690D01*
X35845238Y-89351785D01*
X35783333Y-89289880D01*
X35721428Y-89166071D01*
X35721428Y-88980357D01*
X35783333Y-88856547D01*
X35845238Y-88794642D01*
X35969047Y-88732738D01*
X36340476Y-88732738D01*
X36464285Y-88794642D01*
X36526190Y-88856547D01*
X36588095Y-88980357D01*
X36588095Y-89166071D01*
X35226190Y-87247023D02*
X36897619Y-88361309D01*
X36216666Y-86875595D02*
X36216666Y-86256547D01*
X36588095Y-86999404D02*
X35288095Y-86566071D01*
X36588095Y-86132738D01*
X35288095Y-85885119D02*
X36588095Y-85451785D01*
X35288095Y-85018452D01*
X36588095Y-83842261D02*
X35969047Y-84275595D01*
X36588095Y-84585119D02*
X35288095Y-84585119D01*
X35288095Y-84089880D01*
X35350000Y-83966071D01*
X35411904Y-83904166D01*
X35535714Y-83842261D01*
X35721428Y-83842261D01*
X35845238Y-83904166D01*
X35907142Y-83966071D01*
X35969047Y-84089880D01*
X35969047Y-84585119D01*
X35907142Y-82851785D02*
X35969047Y-82666071D01*
X36030952Y-82604166D01*
X36154761Y-82542261D01*
X36340476Y-82542261D01*
X36464285Y-82604166D01*
X36526190Y-82666071D01*
X36588095Y-82789880D01*
X36588095Y-83285119D01*
X35288095Y-83285119D01*
X35288095Y-82851785D01*
X35350000Y-82727976D01*
X35411904Y-82666071D01*
X35535714Y-82604166D01*
X35659523Y-82604166D01*
X35783333Y-82666071D01*
X35845238Y-82727976D01*
X35907142Y-82851785D01*
X35907142Y-83285119D01*
X36588095Y-81985119D02*
X35288095Y-81985119D01*
X35288095Y-81489880D01*
X35350000Y-81366071D01*
X35411904Y-81304166D01*
X35535714Y-81242261D01*
X35721428Y-81242261D01*
X35845238Y-81304166D01*
X35907142Y-81366071D01*
X35969047Y-81489880D01*
X35969047Y-81985119D01*
D11*
X48138095Y-115052380D02*
X47661904Y-115052380D01*
X47614285Y-115528571D01*
X47661904Y-115480952D01*
X47757142Y-115433333D01*
X47995238Y-115433333D01*
X48090476Y-115480952D01*
X48138095Y-115528571D01*
X48185714Y-115623809D01*
X48185714Y-115861904D01*
X48138095Y-115957142D01*
X48090476Y-116004761D01*
X47995238Y-116052380D01*
X47757142Y-116052380D01*
X47661904Y-116004761D01*
X47614285Y-115957142D01*
X48185714Y-110952380D02*
X47614285Y-110952380D01*
X47900000Y-110952380D02*
X47900000Y-109952380D01*
X47804761Y-110095238D01*
X47709523Y-110190476D01*
X47614285Y-110238095D01*
D12*
X46462779Y-85810000D02*
X46137221Y-85810000D01*
X46462779Y-84790000D02*
X46137221Y-84790000D01*
X46462779Y-89990000D02*
X46137221Y-89990000D01*
X46462779Y-91010000D02*
X46137221Y-91010000D01*
X42362779Y-113810000D02*
X42037221Y-113810000D01*
X42362779Y-112790000D02*
X42037221Y-112790000D01*
X36162779Y-112790000D02*
X35837221Y-112790000D01*
X36162779Y-113810000D02*
X35837221Y-113810000D01*
X31390000Y-100662779D02*
X31390000Y-100337221D01*
X32410000Y-100662779D02*
X32410000Y-100337221D01*
X32350000Y-93800000D02*
X30650000Y-93800000D01*
X30650000Y-93800000D02*
X30650000Y-96950000D01*
X32350000Y-93800000D02*
X32350000Y-96950000D01*
X54280000Y-109170000D02*
X54280000Y-116910000D01*
X54280000Y-116910000D02*
X56940000Y-116910000D01*
X56940000Y-116910000D02*
X56940000Y-109170000D01*
X56940000Y-109170000D02*
X54280000Y-109170000D01*
X56940000Y-110120000D02*
X62940000Y-110120000D01*
X62940000Y-110120000D02*
X62940000Y-110880000D01*
X62940000Y-110880000D02*
X56940000Y-110880000D01*
X56940000Y-110180000D02*
X62940000Y-110180000D01*
X56940000Y-110300000D02*
X62940000Y-110300000D01*
X56940000Y-110420000D02*
X62940000Y-110420000D01*
X56940000Y-110540000D02*
X62940000Y-110540000D01*
X56940000Y-110660000D02*
X62940000Y-110660000D01*
X56940000Y-110780000D02*
X62940000Y-110780000D01*
X53882929Y-110120000D02*
X54280000Y-110120000D01*
X53882929Y-110880000D02*
X54280000Y-110880000D01*
X51410000Y-110120000D02*
X51797071Y-110120000D01*
X51410000Y-110880000D02*
X51797071Y-110880000D01*
X54280000Y-111770000D02*
X56940000Y-111770000D01*
X56940000Y-112660000D02*
X62940000Y-112660000D01*
X62940000Y-112660000D02*
X62940000Y-113420000D01*
X62940000Y-113420000D02*
X56940000Y-113420000D01*
X53882929Y-112660000D02*
X54280000Y-112660000D01*
X53882929Y-113420000D02*
X54280000Y-113420000D01*
X51342929Y-112660000D02*
X51797071Y-112660000D01*
X51342929Y-113420000D02*
X51797071Y-113420000D01*
X54280000Y-114310000D02*
X56940000Y-114310000D01*
X56940000Y-115200000D02*
X62940000Y-115200000D01*
X62940000Y-115200000D02*
X62940000Y-115960000D01*
X62940000Y-115960000D02*
X56940000Y-115960000D01*
X53882929Y-115200000D02*
X54280000Y-115200000D01*
X53882929Y-115960000D02*
X54280000Y-115960000D01*
X51342929Y-115200000D02*
X51797071Y-115200000D01*
X51342929Y-115960000D02*
X51797071Y-115960000D01*
X49030000Y-110500000D02*
X49030000Y-109230000D01*
X49030000Y-109230000D02*
X50300000Y-109230000D01*
X38450000Y-116090000D02*
X38070000Y-116090000D01*
X38450000Y-120140000D02*
X38450000Y-120400000D01*
X38450000Y-116090000D02*
X38450000Y-117860000D01*
X30830000Y-116090000D02*
X31210000Y-116090000D01*
X30830000Y-117860000D02*
X30830000Y-116090000D01*
X30830000Y-120400000D02*
X30830000Y-120140000D01*
X35762779Y-107290000D02*
X35437221Y-107290000D01*
X35762779Y-108310000D02*
X35437221Y-108310000D01*
X32910000Y-110362779D02*
X32910000Y-110037221D01*
X31890000Y-110362779D02*
X31890000Y-110037221D01*
X30390000Y-110362779D02*
X30390000Y-110037221D01*
X31410000Y-110362779D02*
X31410000Y-110037221D01*
X48290000Y-97337221D02*
X48290000Y-97662779D01*
X49310000Y-97337221D02*
X49310000Y-97662779D01*
X50810000Y-97337221D02*
X50810000Y-97662779D01*
X49790000Y-97337221D02*
X49790000Y-97662779D01*
X48790000Y-74262779D02*
X48790000Y-73937221D01*
X49810000Y-74262779D02*
X49810000Y-73937221D01*
X49810000Y-76937221D02*
X49810000Y-77262779D01*
X48790000Y-76937221D02*
X48790000Y-77262779D01*
X50434999Y-90825001D02*
X50434999Y-88925001D01*
X48114999Y-89425001D02*
X48114999Y-90825001D01*
D11*
X34225000Y-95025000D02*
X34225000Y-95600000D01*
X44575000Y-95025000D02*
X44575000Y-95700000D01*
X44575000Y-105375000D02*
X44575000Y-104700000D01*
X34225000Y-105375000D02*
X34225000Y-104700000D01*
X34225000Y-95025000D02*
X34900000Y-95025000D01*
X34225000Y-105375000D02*
X34900000Y-105375000D01*
X44575000Y-105375000D02*
X43900000Y-105375000D01*
X44575000Y-95025000D02*
X43900000Y-95025000D01*
X34225000Y-95600000D02*
X32950000Y-95600000D01*
D12*
X36400000Y-112400000D02*
X43650000Y-112400000D01*
X43650000Y-112400000D02*
X43650000Y-108800000D01*
X43650000Y-108800000D02*
X36400000Y-108800000D01*
X54340000Y-101270000D02*
X54340000Y-109010000D01*
X54340000Y-109010000D02*
X57000000Y-109010000D01*
X57000000Y-109010000D02*
X57000000Y-101270000D01*
X57000000Y-101270000D02*
X54340000Y-101270000D01*
X57000000Y-102220000D02*
X63000000Y-102220000D01*
X63000000Y-102220000D02*
X63000000Y-102980000D01*
X63000000Y-102980000D02*
X57000000Y-102980000D01*
X57000000Y-102280000D02*
X63000000Y-102280000D01*
X57000000Y-102400000D02*
X63000000Y-102400000D01*
X57000000Y-102520000D02*
X63000000Y-102520000D01*
X57000000Y-102640000D02*
X63000000Y-102640000D01*
X57000000Y-102760000D02*
X63000000Y-102760000D01*
X57000000Y-102880000D02*
X63000000Y-102880000D01*
X54010000Y-102220000D02*
X54340000Y-102220000D01*
X54010000Y-102980000D02*
X54340000Y-102980000D01*
X54340000Y-103870000D02*
X57000000Y-103870000D01*
X57000000Y-104760000D02*
X63000000Y-104760000D01*
X63000000Y-104760000D02*
X63000000Y-105520000D01*
X63000000Y-105520000D02*
X57000000Y-105520000D01*
X53942929Y-104760000D02*
X54340000Y-104760000D01*
X53942929Y-105520000D02*
X54340000Y-105520000D01*
X54340000Y-106410000D02*
X57000000Y-106410000D01*
X57000000Y-107300000D02*
X63000000Y-107300000D01*
X63000000Y-107300000D02*
X63000000Y-108060000D01*
X63000000Y-108060000D02*
X57000000Y-108060000D01*
X53942929Y-107300000D02*
X54340000Y-107300000D01*
X53942929Y-108060000D02*
X54340000Y-108060000D01*
X51630000Y-102600000D02*
X51630000Y-101330000D01*
X51630000Y-101330000D02*
X52900000Y-101330000D01*
X51630000Y-80530000D02*
X52900000Y-80530000D01*
X51630000Y-81800000D02*
X51630000Y-80530000D01*
X53942929Y-89800000D02*
X54340000Y-89800000D01*
X53942929Y-89040000D02*
X54340000Y-89040000D01*
X63000000Y-89800000D02*
X57000000Y-89800000D01*
X63000000Y-89040000D02*
X63000000Y-89800000D01*
X57000000Y-89040000D02*
X63000000Y-89040000D01*
X54340000Y-88150000D02*
X57000000Y-88150000D01*
X53942929Y-87260000D02*
X54340000Y-87260000D01*
X53942929Y-86500000D02*
X54340000Y-86500000D01*
X63000000Y-87260000D02*
X57000000Y-87260000D01*
X63000000Y-86500000D02*
X63000000Y-87260000D01*
X57000000Y-86500000D02*
X63000000Y-86500000D01*
X54340000Y-85610000D02*
X57000000Y-85610000D01*
X53942929Y-84720000D02*
X54340000Y-84720000D01*
X53942929Y-83960000D02*
X54340000Y-83960000D01*
X63000000Y-84720000D02*
X57000000Y-84720000D01*
X63000000Y-83960000D02*
X63000000Y-84720000D01*
X57000000Y-83960000D02*
X63000000Y-83960000D01*
X54340000Y-83070000D02*
X57000000Y-83070000D01*
X54010000Y-82180000D02*
X54340000Y-82180000D01*
X54010000Y-81420000D02*
X54340000Y-81420000D01*
X57000000Y-82080000D02*
X63000000Y-82080000D01*
X57000000Y-81960000D02*
X63000000Y-81960000D01*
X57000000Y-81840000D02*
X63000000Y-81840000D01*
X57000000Y-81720000D02*
X63000000Y-81720000D01*
X57000000Y-81600000D02*
X63000000Y-81600000D01*
X57000000Y-81480000D02*
X63000000Y-81480000D01*
X63000000Y-82180000D02*
X57000000Y-82180000D01*
X63000000Y-81420000D02*
X63000000Y-82180000D01*
X57000000Y-81420000D02*
X63000000Y-81420000D01*
X57000000Y-80470000D02*
X54340000Y-80470000D01*
X57000000Y-90750000D02*
X57000000Y-80470000D01*
X54340000Y-90750000D02*
X57000000Y-90750000D01*
X54340000Y-80470000D02*
X54340000Y-90750000D01*
X54340000Y-90870000D02*
X54340000Y-101150000D01*
X54340000Y-101150000D02*
X57000000Y-101150000D01*
X57000000Y-101150000D02*
X57000000Y-90870000D01*
X57000000Y-90870000D02*
X54340000Y-90870000D01*
X57000000Y-91820000D02*
X63000000Y-91820000D01*
X63000000Y-91820000D02*
X63000000Y-92580000D01*
X63000000Y-92580000D02*
X57000000Y-92580000D01*
X57000000Y-91880000D02*
X63000000Y-91880000D01*
X57000000Y-92000000D02*
X63000000Y-92000000D01*
X57000000Y-92120000D02*
X63000000Y-92120000D01*
X57000000Y-92240000D02*
X63000000Y-92240000D01*
X57000000Y-92360000D02*
X63000000Y-92360000D01*
X57000000Y-92480000D02*
X63000000Y-92480000D01*
X54010000Y-91820000D02*
X54340000Y-91820000D01*
X54010000Y-92580000D02*
X54340000Y-92580000D01*
X54340000Y-93470000D02*
X57000000Y-93470000D01*
X57000000Y-94360000D02*
X63000000Y-94360000D01*
X63000000Y-94360000D02*
X63000000Y-95120000D01*
X63000000Y-95120000D02*
X57000000Y-95120000D01*
X53942929Y-94360000D02*
X54340000Y-94360000D01*
X53942929Y-95120000D02*
X54340000Y-95120000D01*
X54340000Y-96010000D02*
X57000000Y-96010000D01*
X57000000Y-96900000D02*
X63000000Y-96900000D01*
X63000000Y-96900000D02*
X63000000Y-97660000D01*
X63000000Y-97660000D02*
X57000000Y-97660000D01*
X53942929Y-96900000D02*
X54340000Y-96900000D01*
X53942929Y-97660000D02*
X54340000Y-97660000D01*
X54340000Y-98550000D02*
X57000000Y-98550000D01*
X57000000Y-99440000D02*
X63000000Y-99440000D01*
X63000000Y-99440000D02*
X63000000Y-100200000D01*
X63000000Y-100200000D02*
X57000000Y-100200000D01*
X53942929Y-99440000D02*
X54340000Y-99440000D01*
X53942929Y-100200000D02*
X54340000Y-100200000D01*
X51630000Y-92200000D02*
X51630000Y-90930000D01*
X51630000Y-90930000D02*
X52900000Y-90930000D01*
X54340000Y-70070000D02*
X54340000Y-80350000D01*
X54340000Y-80350000D02*
X57000000Y-80350000D01*
X57000000Y-80350000D02*
X57000000Y-70070000D01*
X57000000Y-70070000D02*
X54340000Y-70070000D01*
X57000000Y-71020000D02*
X63000000Y-71020000D01*
X63000000Y-71020000D02*
X63000000Y-71780000D01*
X63000000Y-71780000D02*
X57000000Y-71780000D01*
X57000000Y-71080000D02*
X63000000Y-71080000D01*
X57000000Y-71200000D02*
X63000000Y-71200000D01*
X57000000Y-71320000D02*
X63000000Y-71320000D01*
X57000000Y-71440000D02*
X63000000Y-71440000D01*
X57000000Y-71560000D02*
X63000000Y-71560000D01*
X57000000Y-71680000D02*
X63000000Y-71680000D01*
X54010000Y-71020000D02*
X54340000Y-71020000D01*
X54010000Y-71780000D02*
X54340000Y-71780000D01*
X54340000Y-72670000D02*
X57000000Y-72670000D01*
X57000000Y-73560000D02*
X63000000Y-73560000D01*
X63000000Y-73560000D02*
X63000000Y-74320000D01*
X63000000Y-74320000D02*
X57000000Y-74320000D01*
X53942929Y-73560000D02*
X54340000Y-73560000D01*
X53942929Y-74320000D02*
X54340000Y-74320000D01*
X54340000Y-75210000D02*
X57000000Y-75210000D01*
X57000000Y-76100000D02*
X63000000Y-76100000D01*
X63000000Y-76100000D02*
X63000000Y-76860000D01*
X63000000Y-76860000D02*
X57000000Y-76860000D01*
X53942929Y-76100000D02*
X54340000Y-76100000D01*
X53942929Y-76860000D02*
X54340000Y-76860000D01*
X54340000Y-77750000D02*
X57000000Y-77750000D01*
X57000000Y-78640000D02*
X63000000Y-78640000D01*
X63000000Y-78640000D02*
X63000000Y-79400000D01*
X63000000Y-79400000D02*
X57000000Y-79400000D01*
X53942929Y-78640000D02*
X54340000Y-78640000D01*
X53942929Y-79400000D02*
X54340000Y-79400000D01*
X51630000Y-71400000D02*
X51630000Y-70130000D01*
X51630000Y-70130000D02*
X52900000Y-70130000D01*
X45340000Y-86320000D02*
X45340000Y-87250000D01*
X45340000Y-89480000D02*
X45340000Y-88550000D01*
X45340000Y-89480000D02*
X47500000Y-89480000D01*
X45340000Y-86320000D02*
X46800000Y-86320000D01*
D11*
X46133333Y-84357142D02*
X46085714Y-84404761D01*
X45942857Y-84452380D01*
X45847619Y-84452380D01*
X45704761Y-84404761D01*
X45609523Y-84309523D01*
X45561904Y-84214285D01*
X45514285Y-84023809D01*
X45514285Y-83880952D01*
X45561904Y-83690476D01*
X45609523Y-83595238D01*
X45704761Y-83500000D01*
X45847619Y-83452380D01*
X45942857Y-83452380D01*
X46085714Y-83500000D01*
X46133333Y-83547619D01*
X47085714Y-84452380D02*
X46514285Y-84452380D01*
X46800000Y-84452380D02*
X46800000Y-83452380D01*
X46704761Y-83595238D01*
X46609523Y-83690476D01*
X46514285Y-83738095D01*
X46133333Y-92287142D02*
X46085714Y-92334761D01*
X45942857Y-92382380D01*
X45847619Y-92382380D01*
X45704761Y-92334761D01*
X45609523Y-92239523D01*
X45561904Y-92144285D01*
X45514285Y-91953809D01*
X45514285Y-91810952D01*
X45561904Y-91620476D01*
X45609523Y-91525238D01*
X45704761Y-91430000D01*
X45847619Y-91382380D01*
X45942857Y-91382380D01*
X46085714Y-91430000D01*
X46133333Y-91477619D01*
X46514285Y-91477619D02*
X46561904Y-91430000D01*
X46657142Y-91382380D01*
X46895238Y-91382380D01*
X46990476Y-91430000D01*
X47038095Y-91477619D01*
X47085714Y-91572857D01*
X47085714Y-91668095D01*
X47038095Y-91810952D01*
X46466666Y-92382380D01*
X47085714Y-92382380D01*
X42033333Y-115057142D02*
X41985714Y-115104761D01*
X41842857Y-115152380D01*
X41747619Y-115152380D01*
X41604761Y-115104761D01*
X41509523Y-115009523D01*
X41461904Y-114914285D01*
X41414285Y-114723809D01*
X41414285Y-114580952D01*
X41461904Y-114390476D01*
X41509523Y-114295238D01*
X41604761Y-114200000D01*
X41747619Y-114152380D01*
X41842857Y-114152380D01*
X41985714Y-114200000D01*
X42033333Y-114247619D01*
X42366666Y-114152380D02*
X42985714Y-114152380D01*
X42652380Y-114533333D01*
X42795238Y-114533333D01*
X42890476Y-114580952D01*
X42938095Y-114628571D01*
X42985714Y-114723809D01*
X42985714Y-114961904D01*
X42938095Y-115057142D01*
X42890476Y-115104761D01*
X42795238Y-115152380D01*
X42509523Y-115152380D01*
X42414285Y-115104761D01*
X42366666Y-115057142D01*
X34257142Y-113466666D02*
X34304761Y-113514285D01*
X34352380Y-113657142D01*
X34352380Y-113752380D01*
X34304761Y-113895238D01*
X34209523Y-113990476D01*
X34114285Y-114038095D01*
X33923809Y-114085714D01*
X33780952Y-114085714D01*
X33590476Y-114038095D01*
X33495238Y-113990476D01*
X33400000Y-113895238D01*
X33352380Y-113752380D01*
X33352380Y-113657142D01*
X33400000Y-113514285D01*
X33447619Y-113466666D01*
X33685714Y-112609523D02*
X34352380Y-112609523D01*
X33304761Y-112847619D02*
X34019047Y-113085714D01*
X34019047Y-112466666D01*
X31733333Y-103057142D02*
X31685714Y-103104761D01*
X31542857Y-103152380D01*
X31447619Y-103152380D01*
X31304761Y-103104761D01*
X31209523Y-103009523D01*
X31161904Y-102914285D01*
X31114285Y-102723809D01*
X31114285Y-102580952D01*
X31161904Y-102390476D01*
X31209523Y-102295238D01*
X31304761Y-102200000D01*
X31447619Y-102152380D01*
X31542857Y-102152380D01*
X31685714Y-102200000D01*
X31733333Y-102247619D01*
X32638095Y-102152380D02*
X32161904Y-102152380D01*
X32114285Y-102628571D01*
X32161904Y-102580952D01*
X32257142Y-102533333D01*
X32495238Y-102533333D01*
X32590476Y-102580952D01*
X32638095Y-102628571D01*
X32685714Y-102723809D01*
X32685714Y-102961904D01*
X32638095Y-103057142D01*
X32590476Y-103104761D01*
X32495238Y-103152380D01*
X32257142Y-103152380D01*
X32161904Y-103104761D01*
X32114285Y-103057142D01*
X30761904Y-98852380D02*
X30761904Y-97852380D01*
X31000000Y-97852380D01*
X31142857Y-97900000D01*
X31238095Y-97995238D01*
X31285714Y-98090476D01*
X31333333Y-98280952D01*
X31333333Y-98423809D01*
X31285714Y-98614285D01*
X31238095Y-98709523D01*
X31142857Y-98804761D01*
X31000000Y-98852380D01*
X30761904Y-98852380D01*
X32285714Y-98852380D02*
X31714285Y-98852380D01*
X32000000Y-98852380D02*
X32000000Y-97852380D01*
X31904761Y-97995238D01*
X31809523Y-98090476D01*
X31714285Y-98138095D01*
X54978809Y-118302380D02*
X54978809Y-117302380D01*
X55407380Y-118254761D02*
X55550238Y-118302380D01*
X55788333Y-118302380D01*
X55883571Y-118254761D01*
X55931190Y-118207142D01*
X55978809Y-118111904D01*
X55978809Y-118016666D01*
X55931190Y-117921428D01*
X55883571Y-117873809D01*
X55788333Y-117826190D01*
X55597857Y-117778571D01*
X55502619Y-117730952D01*
X55455000Y-117683333D01*
X55407380Y-117588095D01*
X55407380Y-117492857D01*
X55455000Y-117397619D01*
X55502619Y-117350000D01*
X55597857Y-117302380D01*
X55835952Y-117302380D01*
X55978809Y-117350000D01*
X56407380Y-118302380D02*
X56407380Y-117302380D01*
X56788333Y-117302380D01*
X56883571Y-117350000D01*
X56931190Y-117397619D01*
X56978809Y-117492857D01*
X56978809Y-117635714D01*
X56931190Y-117730952D01*
X56883571Y-117778571D01*
X56788333Y-117826190D01*
X56407380Y-117826190D01*
X33033333Y-108252380D02*
X32700000Y-107776190D01*
X32461904Y-108252380D02*
X32461904Y-107252380D01*
X32842857Y-107252380D01*
X32938095Y-107300000D01*
X32985714Y-107347619D01*
X33033333Y-107442857D01*
X33033333Y-107585714D01*
X32985714Y-107680952D01*
X32938095Y-107728571D01*
X32842857Y-107776190D01*
X32461904Y-107776190D01*
X33985714Y-108252380D02*
X33414285Y-108252380D01*
X33700000Y-108252380D02*
X33700000Y-107252380D01*
X33604761Y-107395238D01*
X33509523Y-107490476D01*
X33414285Y-107538095D01*
X32852380Y-112766666D02*
X32376190Y-113100000D01*
X32852380Y-113338095D02*
X31852380Y-113338095D01*
X31852380Y-112957142D01*
X31900000Y-112861904D01*
X31947619Y-112814285D01*
X32042857Y-112766666D01*
X32185714Y-112766666D01*
X32280952Y-112814285D01*
X32328571Y-112861904D01*
X32376190Y-112957142D01*
X32376190Y-113338095D01*
X31947619Y-112385714D02*
X31900000Y-112338095D01*
X31852380Y-112242857D01*
X31852380Y-112004761D01*
X31900000Y-111909523D01*
X31947619Y-111861904D01*
X32042857Y-111814285D01*
X32138095Y-111814285D01*
X32280952Y-111861904D01*
X32852380Y-112433333D01*
X32852380Y-111814285D01*
X31352380Y-112766666D02*
X30876190Y-113100000D01*
X31352380Y-113338095D02*
X30352380Y-113338095D01*
X30352380Y-112957142D01*
X30400000Y-112861904D01*
X30447619Y-112814285D01*
X30542857Y-112766666D01*
X30685714Y-112766666D01*
X30780952Y-112814285D01*
X30828571Y-112861904D01*
X30876190Y-112957142D01*
X30876190Y-113338095D01*
X30352380Y-112433333D02*
X30352380Y-111814285D01*
X30733333Y-112147619D01*
X30733333Y-112004761D01*
X30780952Y-111909523D01*
X30828571Y-111861904D01*
X30923809Y-111814285D01*
X31161904Y-111814285D01*
X31257142Y-111861904D01*
X31304761Y-111909523D01*
X31352380Y-112004761D01*
X31352380Y-112290476D01*
X31304761Y-112385714D01*
X31257142Y-112433333D01*
X49252380Y-100066666D02*
X48776190Y-100400000D01*
X49252380Y-100638095D02*
X48252380Y-100638095D01*
X48252380Y-100257142D01*
X48300000Y-100161904D01*
X48347619Y-100114285D01*
X48442857Y-100066666D01*
X48585714Y-100066666D01*
X48680952Y-100114285D01*
X48728571Y-100161904D01*
X48776190Y-100257142D01*
X48776190Y-100638095D01*
X48585714Y-99209523D02*
X49252380Y-99209523D01*
X48204761Y-99447619D02*
X48919047Y-99685714D01*
X48919047Y-99066666D01*
X50752380Y-100066666D02*
X50276190Y-100400000D01*
X50752380Y-100638095D02*
X49752380Y-100638095D01*
X49752380Y-100257142D01*
X49800000Y-100161904D01*
X49847619Y-100114285D01*
X49942857Y-100066666D01*
X50085714Y-100066666D01*
X50180952Y-100114285D01*
X50228571Y-100161904D01*
X50276190Y-100257142D01*
X50276190Y-100638095D01*
X49752380Y-99161904D02*
X49752380Y-99638095D01*
X50228571Y-99685714D01*
X50180952Y-99638095D01*
X50133333Y-99542857D01*
X50133333Y-99304761D01*
X50180952Y-99209523D01*
X50228571Y-99161904D01*
X50323809Y-99114285D01*
X50561904Y-99114285D01*
X50657142Y-99161904D01*
X50704761Y-99209523D01*
X50752380Y-99304761D01*
X50752380Y-99542857D01*
X50704761Y-99638095D01*
X50657142Y-99685714D01*
X48322380Y-74266666D02*
X47846190Y-74600000D01*
X48322380Y-74838095D02*
X47322380Y-74838095D01*
X47322380Y-74457142D01*
X47370000Y-74361904D01*
X47417619Y-74314285D01*
X47512857Y-74266666D01*
X47655714Y-74266666D01*
X47750952Y-74314285D01*
X47798571Y-74361904D01*
X47846190Y-74457142D01*
X47846190Y-74838095D01*
X47322380Y-73409523D02*
X47322380Y-73600000D01*
X47370000Y-73695238D01*
X47417619Y-73742857D01*
X47560476Y-73838095D01*
X47750952Y-73885714D01*
X48131904Y-73885714D01*
X48227142Y-73838095D01*
X48274761Y-73790476D01*
X48322380Y-73695238D01*
X48322380Y-73504761D01*
X48274761Y-73409523D01*
X48227142Y-73361904D01*
X48131904Y-73314285D01*
X47893809Y-73314285D01*
X47798571Y-73361904D01*
X47750952Y-73409523D01*
X47703333Y-73504761D01*
X47703333Y-73695238D01*
X47750952Y-73790476D01*
X47798571Y-73838095D01*
X47893809Y-73885714D01*
X48352380Y-77266666D02*
X47876190Y-77600000D01*
X48352380Y-77838095D02*
X47352380Y-77838095D01*
X47352380Y-77457142D01*
X47400000Y-77361904D01*
X47447619Y-77314285D01*
X47542857Y-77266666D01*
X47685714Y-77266666D01*
X47780952Y-77314285D01*
X47828571Y-77361904D01*
X47876190Y-77457142D01*
X47876190Y-77838095D01*
X47352380Y-76933333D02*
X47352380Y-76266666D01*
X48352380Y-76695238D01*
X48538095Y-87452380D02*
X48538095Y-88261904D01*
X48585714Y-88357142D01*
X48633333Y-88404761D01*
X48728571Y-88452380D01*
X48919047Y-88452380D01*
X49014285Y-88404761D01*
X49061904Y-88357142D01*
X49109523Y-88261904D01*
X49109523Y-87452380D01*
X49490476Y-87452380D02*
X50109523Y-87452380D01*
X49776190Y-87833333D01*
X49919047Y-87833333D01*
X50014285Y-87880952D01*
X50061904Y-87928571D01*
X50109523Y-88023809D01*
X50109523Y-88261904D01*
X50061904Y-88357142D01*
X50014285Y-88404761D01*
X49919047Y-88452380D01*
X49633333Y-88452380D01*
X49538095Y-88404761D01*
X49490476Y-88357142D01*
X38638095Y-92202380D02*
X38638095Y-93011904D01*
X38685714Y-93107142D01*
X38733333Y-93154761D01*
X38828571Y-93202380D01*
X39019047Y-93202380D01*
X39114285Y-93154761D01*
X39161904Y-93107142D01*
X39209523Y-93011904D01*
X39209523Y-92202380D01*
X40114285Y-92535714D02*
X40114285Y-93202380D01*
X39876190Y-92154761D02*
X39638095Y-92869047D01*
X40257142Y-92869047D01*
X38623809Y-113376190D02*
X38623809Y-113852380D01*
X38290476Y-112852380D02*
X38623809Y-113376190D01*
X38957142Y-112852380D01*
X39814285Y-113852380D02*
X39242857Y-113852380D01*
X39528571Y-113852380D02*
X39528571Y-112852380D01*
X39433333Y-112995238D01*
X39338095Y-113090476D01*
X39242857Y-113138095D01*
X50352380Y-107909523D02*
X51352380Y-107671428D01*
X50638095Y-107480952D01*
X51352380Y-107290476D01*
X50352380Y-107052380D01*
X51304761Y-106719047D02*
X51352380Y-106576190D01*
X51352380Y-106338095D01*
X51304761Y-106242857D01*
X51257142Y-106195238D01*
X51161904Y-106147619D01*
X51066666Y-106147619D01*
X50971428Y-106195238D01*
X50923809Y-106242857D01*
X50876190Y-106338095D01*
X50828571Y-106528571D01*
X50780952Y-106623809D01*
X50733333Y-106671428D01*
X50638095Y-106719047D01*
X50542857Y-106719047D01*
X50447619Y-106671428D01*
X50400000Y-106623809D01*
X50352380Y-106528571D01*
X50352380Y-106290476D01*
X50400000Y-106147619D01*
X50447619Y-105766666D02*
X50400000Y-105719047D01*
X50352380Y-105623809D01*
X50352380Y-105385714D01*
X50400000Y-105290476D01*
X50447619Y-105242857D01*
X50542857Y-105195238D01*
X50638095Y-105195238D01*
X50780952Y-105242857D01*
X51352380Y-105814285D01*
X51352380Y-105195238D01*
X50780952Y-104623809D02*
X50733333Y-104719047D01*
X50685714Y-104766666D01*
X50590476Y-104814285D01*
X50542857Y-104814285D01*
X50447619Y-104766666D01*
X50400000Y-104719047D01*
X50352380Y-104623809D01*
X50352380Y-104433333D01*
X50400000Y-104338095D01*
X50447619Y-104290476D01*
X50542857Y-104242857D01*
X50590476Y-104242857D01*
X50685714Y-104290476D01*
X50733333Y-104338095D01*
X50780952Y-104433333D01*
X50780952Y-104623809D01*
X50828571Y-104719047D01*
X50876190Y-104766666D01*
X50971428Y-104814285D01*
X51161904Y-104814285D01*
X51257142Y-104766666D01*
X51304761Y-104719047D01*
X51352380Y-104623809D01*
X51352380Y-104433333D01*
X51304761Y-104338095D01*
X51257142Y-104290476D01*
X51161904Y-104242857D01*
X50971428Y-104242857D01*
X50876190Y-104290476D01*
X50828571Y-104338095D01*
X50780952Y-104433333D01*
X51352380Y-103290476D02*
X51352380Y-103861904D01*
X51352380Y-103576190D02*
X50352380Y-103576190D01*
X50495238Y-103671428D01*
X50590476Y-103766666D01*
X50638095Y-103861904D01*
X50447619Y-102909523D02*
X50400000Y-102861904D01*
X50352380Y-102766666D01*
X50352380Y-102528571D01*
X50400000Y-102433333D01*
X50447619Y-102385714D01*
X50542857Y-102338095D01*
X50638095Y-102338095D01*
X50780952Y-102385714D01*
X51352380Y-102957142D01*
X51352380Y-102338095D01*
X50352380Y-87395238D02*
X51161904Y-87395238D01*
X51257142Y-87347619D01*
X51304761Y-87300000D01*
X51352380Y-87204761D01*
X51352380Y-87014285D01*
X51304761Y-86919047D01*
X51257142Y-86871428D01*
X51161904Y-86823809D01*
X50352380Y-86823809D01*
X51066666Y-86395238D02*
X51066666Y-85919047D01*
X51352380Y-86490476D02*
X50352380Y-86157142D01*
X51352380Y-85823809D01*
X51352380Y-84919047D02*
X50876190Y-85252380D01*
X51352380Y-85490476D02*
X50352380Y-85490476D01*
X50352380Y-85109523D01*
X50400000Y-85014285D01*
X50447619Y-84966666D01*
X50542857Y-84919047D01*
X50685714Y-84919047D01*
X50780952Y-84966666D01*
X50828571Y-85014285D01*
X50876190Y-85109523D01*
X50876190Y-85490476D01*
X50352380Y-84633333D02*
X50352380Y-84061904D01*
X51352380Y-84347619D02*
X50352380Y-84347619D01*
X49952380Y-95452380D02*
X49952380Y-95261904D01*
X50000000Y-95166666D01*
X50095238Y-95071428D01*
X50285714Y-95023809D01*
X50619047Y-95023809D01*
X50809523Y-95071428D01*
X50904761Y-95166666D01*
X50952380Y-95261904D01*
X50952380Y-95452380D01*
X50904761Y-95547619D01*
X50809523Y-95642857D01*
X50619047Y-95690476D01*
X50285714Y-95690476D01*
X50095238Y-95642857D01*
X50000000Y-95547619D01*
X49952380Y-95452380D01*
X50952380Y-94119047D02*
X50952380Y-94595238D01*
X49952380Y-94595238D01*
X50428571Y-93785714D02*
X50428571Y-93452380D01*
X50952380Y-93309523D02*
X50952380Y-93785714D01*
X49952380Y-93785714D01*
X49952380Y-93309523D01*
X50952380Y-92880952D02*
X49952380Y-92880952D01*
X49952380Y-92642857D01*
X50000000Y-92500000D01*
X50095238Y-92404761D01*
X50190476Y-92357142D01*
X50380952Y-92309523D01*
X50523809Y-92309523D01*
X50714285Y-92357142D01*
X50809523Y-92404761D01*
X50904761Y-92500000D01*
X50952380Y-92642857D01*
X50952380Y-92880952D01*
X50828571Y-76138095D02*
X50828571Y-75804761D01*
X51352380Y-75661904D02*
X51352380Y-76138095D01*
X50352380Y-76138095D01*
X50352380Y-75661904D01*
X51352380Y-75233333D02*
X50352380Y-75233333D01*
X51352380Y-74661904D01*
X50352380Y-74661904D01*
X51257142Y-73614285D02*
X51304761Y-73661904D01*
X51352380Y-73804761D01*
X51352380Y-73900000D01*
X51304761Y-74042857D01*
X51209523Y-74138095D01*
X51114285Y-74185714D01*
X50923809Y-74233333D01*
X50780952Y-74233333D01*
X50590476Y-74185714D01*
X50495238Y-74138095D01*
X50400000Y-74042857D01*
X50352380Y-73900000D01*
X50352380Y-73804761D01*
X50400000Y-73661904D01*
X50447619Y-73614285D01*
X43252380Y-88661904D02*
X44061904Y-88661904D01*
X44157142Y-88614285D01*
X44204761Y-88566666D01*
X44252380Y-88471428D01*
X44252380Y-88280952D01*
X44204761Y-88185714D01*
X44157142Y-88138095D01*
X44061904Y-88090476D01*
X43252380Y-88090476D01*
X44252380Y-87090476D02*
X44252380Y-87661904D01*
X44252380Y-87376190D02*
X43252380Y-87376190D01*
X43395238Y-87471428D01*
X43490476Y-87566666D01*
X43538095Y-87661904D01*
M02*
