G04 #@! TF.GenerationSoftware,KiCad,Pcbnew,(5.1.2)-2*
G04 #@! TF.CreationDate,2019-07-11T09:04:51+02:00*
G04 #@! TF.ProjectId,ATM32U4_backpack,41544d33-3255-4345-9f62-61636b706163,rev?*
G04 #@! TF.SameCoordinates,Original*
G04 #@! TF.FileFunction,Copper,L2,Bot*
G04 #@! TF.FilePolarity,Positive*
%FSLAX46Y46*%
G04 Gerber Fmt 4.6, Leading zero omitted, Abs format (unit mm)*
G04 Created by KiCad (PCBNEW (5.1.2)-2) date 2019-07-11 09:04:51*
%MOMM*%
%LPD*%
G04 APERTURE LIST*
%ADD10R,1.700000X1.700000*%
%ADD11O,1.700000X1.700000*%
%ADD12R,1.000000X1.000000*%
%ADD13C,0.800000*%
%ADD14C,0.400000*%
%ADD15C,1.000000*%
%ADD16C,0.800000*%
%ADD17C,0.200000*%
%ADD18C,0.250000*%
G04 APERTURE END LIST*
D10*
X52840000Y-118140000D03*
X50300000Y-110500000D03*
D11*
X52840000Y-110500000D03*
X50300000Y-113040000D03*
X52840000Y-113040000D03*
X50300000Y-115580000D03*
X52840000Y-115580000D03*
D10*
X52900000Y-102600000D03*
D11*
X52900000Y-105140000D03*
X52900000Y-107680000D03*
X52900000Y-89420000D03*
X52900000Y-86880000D03*
X52900000Y-84340000D03*
D10*
X52900000Y-81800000D03*
X52900000Y-92200000D03*
D11*
X52900000Y-94740000D03*
X52900000Y-97280000D03*
X52900000Y-99820000D03*
D10*
X52900000Y-71400000D03*
D11*
X52900000Y-73940000D03*
X52900000Y-76480000D03*
X52900000Y-79020000D03*
D12*
X41400000Y-92400000D03*
X41400000Y-102300000D03*
X39400000Y-100300000D03*
X37400000Y-98300000D03*
X41400000Y-100300000D03*
X37400000Y-102300000D03*
X39400000Y-104300000D03*
X39400000Y-102300000D03*
X41400000Y-104300000D03*
X41400000Y-98300000D03*
X37400000Y-96300000D03*
X39400000Y-92400000D03*
X39400000Y-96300000D03*
X39400000Y-98300000D03*
X41400000Y-96300000D03*
D13*
X43300000Y-92900000D03*
X38100000Y-113300000D03*
X33900000Y-109300000D03*
X33900000Y-110200000D03*
X33900000Y-111100000D03*
X48800000Y-101300000D03*
X50450000Y-95350000D03*
X45900000Y-110000000D03*
X37800000Y-108400000D03*
X44400000Y-94500000D03*
X34300000Y-94400000D03*
X54400000Y-75200000D03*
X37200000Y-104300000D03*
X46900000Y-103400000D03*
X35100000Y-97200000D03*
X35100000Y-100300000D03*
X32600000Y-114800000D03*
X33200000Y-106300000D03*
X47700000Y-112000000D03*
X42900000Y-112800000D03*
X43000000Y-115800000D03*
X49000000Y-117900000D03*
X48400000Y-89700000D03*
X42100000Y-117700000D03*
X54500000Y-106200000D03*
X54500000Y-109200000D03*
X54500000Y-116700000D03*
X50800000Y-90800000D03*
X35600000Y-104000000D03*
X33200000Y-107800000D03*
X48500000Y-107400000D03*
X50800000Y-106600000D03*
X49300000Y-106600000D03*
X44900000Y-106800000D03*
X48100000Y-95500000D03*
X48100000Y-94200000D03*
X38700000Y-117100000D03*
X41400000Y-92400000D03*
X41400000Y-102300000D03*
X39400000Y-100300000D03*
X37400000Y-98300000D03*
X41400000Y-100300000D03*
X37400000Y-102300000D03*
X39400000Y-104300000D03*
X39400000Y-102300000D03*
X41400000Y-104300000D03*
X41400000Y-98300000D03*
X37400000Y-96300000D03*
X39400000Y-92400000D03*
X39400000Y-96300000D03*
X39400000Y-98300000D03*
X41400000Y-96300000D03*
X33300000Y-95200000D03*
X50800000Y-107600000D03*
X44700000Y-115200000D03*
X37800000Y-114400000D03*
X36000000Y-100800000D03*
X35100000Y-102500000D03*
X38600000Y-115800000D03*
D14*
X43300000Y-92900000D02*
X44000000Y-92200000D01*
X44000000Y-92200000D02*
X46800000Y-92200000D01*
X37800000Y-113000000D02*
X38100000Y-113300000D01*
X37800000Y-108400000D02*
X37800000Y-113000000D01*
X44400000Y-94500000D02*
X43834315Y-94500000D01*
X43834315Y-94500000D02*
X34400000Y-94500000D01*
X34400000Y-94500000D02*
X34300000Y-94400000D01*
D15*
X54620000Y-107680000D02*
X52900000Y-107680000D01*
X55700000Y-106600000D02*
X54620000Y-107680000D01*
X55700000Y-101417919D02*
X55700000Y-106600000D01*
X52840000Y-107740000D02*
X52900000Y-107680000D01*
D14*
X55660000Y-94740000D02*
X55700000Y-94700000D01*
D16*
X55700000Y-101417919D02*
X55700000Y-94700000D01*
D17*
X54400000Y-75200000D02*
X55200000Y-75200000D01*
X55700000Y-75700000D02*
X55700000Y-85100000D01*
X55200000Y-75200000D02*
X55700000Y-75700000D01*
D16*
X55700000Y-94700000D02*
X55700000Y-89400000D01*
X55700000Y-89400000D02*
X55700000Y-85100000D01*
X55680000Y-89420000D02*
X55700000Y-89400000D01*
X52900000Y-89420000D02*
X55680000Y-89420000D01*
D14*
X37200000Y-104300000D02*
X38300000Y-105400000D01*
X38300000Y-105400000D02*
X46200000Y-105400000D01*
X46200000Y-105400000D02*
X46900000Y-104700000D01*
X46900000Y-104700000D02*
X46900000Y-103400000D01*
X46900000Y-103400000D02*
X46900000Y-102700000D01*
X46900000Y-102700000D02*
X45200000Y-101000000D01*
X45200000Y-95300000D02*
X44400000Y-94500000D01*
X45200000Y-101000000D02*
X45200000Y-95300000D01*
X46900000Y-107500000D02*
X46900000Y-104700000D01*
X48340000Y-108940000D02*
X46900000Y-107500000D01*
X35100000Y-97200000D02*
X35100000Y-100300000D01*
X35100000Y-100300000D02*
X32400000Y-100300000D01*
X32050000Y-114250000D02*
X32600000Y-114800000D01*
X32050000Y-100650000D02*
X32050000Y-114250000D01*
X32400000Y-100300000D02*
X32050000Y-100650000D01*
X48400000Y-90265685D02*
X48400000Y-92200000D01*
X48400000Y-89700000D02*
X48400000Y-90265685D01*
X46800000Y-92200000D02*
X48400000Y-92200000D01*
X48400000Y-92200000D02*
X52900000Y-92200000D01*
X42100000Y-117700000D02*
X43900000Y-119500000D01*
X53900002Y-119500000D02*
X55700000Y-117700002D01*
X43900000Y-119500000D02*
X53900002Y-119500000D01*
X55700000Y-117700002D02*
X55700000Y-106600000D01*
X51640000Y-108940000D02*
X52900000Y-107680000D01*
X51140000Y-108940000D02*
X51640000Y-108940000D01*
X51140000Y-108940000D02*
X48340000Y-108940000D01*
X54700000Y-95337919D02*
X54700000Y-106000000D01*
X54700000Y-106000000D02*
X54500000Y-106200000D01*
X54500000Y-109200000D02*
X54500000Y-109765685D01*
X54500000Y-109765685D02*
X54500000Y-116700000D01*
X54700000Y-95337919D02*
X54700000Y-91300000D01*
X54700000Y-91300000D02*
X54200000Y-90800000D01*
X54200000Y-90800000D02*
X50800000Y-90800000D01*
D17*
X37771271Y-106000000D02*
X35850010Y-104078739D01*
X45700000Y-106000000D02*
X37771271Y-106000000D01*
X46300000Y-106600000D02*
X45700000Y-106000000D01*
X46300000Y-108000000D02*
X46300000Y-106600000D01*
X50300000Y-110500000D02*
X48800000Y-110500000D01*
X48800000Y-110500000D02*
X46300000Y-108000000D01*
X49450001Y-114730001D02*
X49430001Y-114730001D01*
X50300000Y-115580000D02*
X49450001Y-114730001D01*
X49430001Y-114730001D02*
X48600000Y-113900000D01*
X48600000Y-113900000D02*
X40800000Y-113900000D01*
X40800000Y-113900000D02*
X40000000Y-114700000D01*
X40000000Y-114700000D02*
X40000000Y-117000000D01*
X40000000Y-117000000D02*
X39100000Y-117900000D01*
X39100000Y-117900000D02*
X38000000Y-117900000D01*
X38000000Y-117900000D02*
X36200000Y-116100000D01*
X36200000Y-116100000D02*
X36200000Y-108800000D01*
X35200000Y-107800000D02*
X33200000Y-107800000D01*
X36200000Y-108800000D02*
X35200000Y-107800000D01*
X48900000Y-105500000D02*
X48500000Y-105900000D01*
X47400000Y-101800000D02*
X48900000Y-103300000D01*
X47400000Y-96400000D02*
X47400000Y-101800000D01*
X48500000Y-105900000D02*
X48500000Y-107400000D01*
X48900000Y-103300000D02*
X48900000Y-105500000D01*
X52900000Y-99820000D02*
X51380000Y-99820000D01*
X51380000Y-99820000D02*
X50800000Y-100400000D01*
X50800000Y-100400000D02*
X50800000Y-106600000D01*
X47800000Y-101300000D02*
X47800000Y-97000000D01*
X49500000Y-103000000D02*
X47800000Y-101300000D01*
X49500000Y-105834315D02*
X49500000Y-103000000D01*
X49300000Y-106034315D02*
X49500000Y-105834315D01*
X49300000Y-106600000D02*
X49300000Y-106034315D01*
X47800000Y-97000000D02*
X47800000Y-96600000D01*
X47800000Y-96600000D02*
X47800000Y-95800000D01*
X47800000Y-95800000D02*
X48100000Y-95500000D01*
X47400000Y-96400000D02*
X47400000Y-95100000D01*
X47400000Y-94900000D02*
X48100000Y-94200000D01*
X47400000Y-95100000D02*
X47400000Y-94900000D01*
X44900000Y-106800000D02*
X40600000Y-106800000D01*
X40600000Y-106800000D02*
X39500000Y-107900000D01*
X39500000Y-107900000D02*
X39500000Y-116300000D01*
X39500000Y-116300000D02*
X38700000Y-117100000D01*
X51480000Y-77900000D02*
X52900000Y-76480000D01*
X47700000Y-77900000D02*
X51480000Y-77900000D01*
X33300000Y-92300000D02*
X47700000Y-77900000D01*
X33300000Y-95200000D02*
X33300000Y-92300000D01*
X51100000Y-99080000D02*
X52900000Y-97280000D01*
X50200000Y-107600000D02*
X50000000Y-107400000D01*
X50000000Y-107400000D02*
X50000000Y-106300000D01*
X50800000Y-107600000D02*
X50200000Y-107600000D01*
X50000000Y-106300000D02*
X50300000Y-106000000D01*
X50300000Y-106000000D02*
X50300000Y-99880000D01*
X50300000Y-99880000D02*
X51100000Y-99080000D01*
X44700000Y-115200000D02*
X47640000Y-118140000D01*
X51790000Y-118140000D02*
X51130000Y-118800000D01*
X52840000Y-118140000D02*
X51790000Y-118140000D01*
X48300000Y-118800000D02*
X47640000Y-118140000D01*
X51130000Y-118800000D02*
X48300000Y-118800000D01*
X37400001Y-114000001D02*
X37800000Y-114400000D01*
X37100000Y-113700000D02*
X37400001Y-114000001D01*
X37100000Y-106500000D02*
X37100000Y-106700000D01*
X34900000Y-104300000D02*
X37100000Y-106500000D01*
X37100000Y-106700000D02*
X37100000Y-113700000D01*
X35900000Y-100900000D02*
X35900000Y-102700000D01*
X36000000Y-100800000D02*
X35900000Y-100900000D01*
X35900000Y-102700000D02*
X34900000Y-103700000D01*
X34900000Y-103700000D02*
X34900000Y-104300000D01*
X35100000Y-102500000D02*
X34677812Y-102922188D01*
X34677812Y-102922188D02*
X34400000Y-103200000D01*
X34400000Y-103200000D02*
X34400000Y-104400000D01*
X34400000Y-104400000D02*
X36700000Y-106700000D01*
X36700000Y-106700000D02*
X36700000Y-114400000D01*
X36700000Y-114400000D02*
X38100000Y-115800000D01*
X38100000Y-115800000D02*
X38600000Y-115800000D01*
D18*
G36*
X51425000Y-71118750D02*
G01*
X51581250Y-71275000D01*
X52775000Y-71275000D01*
X52775000Y-71255000D01*
X53025000Y-71255000D01*
X53025000Y-71275000D01*
X54218750Y-71275000D01*
X54375000Y-71118750D01*
X54377492Y-70650000D01*
X56350000Y-70650000D01*
X56350000Y-75378084D01*
X56305731Y-75295263D01*
X56266655Y-75247649D01*
X56237830Y-75212525D01*
X56237823Y-75212518D01*
X56215131Y-75184868D01*
X56187482Y-75162177D01*
X55737832Y-74712528D01*
X55715132Y-74684868D01*
X55604737Y-74594269D01*
X55478788Y-74526947D01*
X55342125Y-74485491D01*
X55235607Y-74475000D01*
X55235597Y-74475000D01*
X55200000Y-74471494D01*
X55164403Y-74475000D01*
X55124570Y-74475000D01*
X55053400Y-74403830D01*
X54885520Y-74291656D01*
X54698982Y-74214390D01*
X54500954Y-74175000D01*
X54358990Y-74175000D01*
X54382136Y-73940000D01*
X54353657Y-73650850D01*
X54269315Y-73372811D01*
X54132351Y-73116569D01*
X53948028Y-72891972D01*
X53904506Y-72856254D01*
X53990334Y-72830219D01*
X54098911Y-72772183D01*
X54194080Y-72694080D01*
X54272183Y-72598911D01*
X54330219Y-72490334D01*
X54365957Y-72372521D01*
X54378024Y-72250000D01*
X54375000Y-71681250D01*
X54218750Y-71525000D01*
X53025000Y-71525000D01*
X53025000Y-71545000D01*
X52775000Y-71545000D01*
X52775000Y-71525000D01*
X51581250Y-71525000D01*
X51425000Y-71681250D01*
X51421976Y-72250000D01*
X51434043Y-72372521D01*
X51469781Y-72490334D01*
X51527817Y-72598911D01*
X51605920Y-72694080D01*
X51701089Y-72772183D01*
X51809666Y-72830219D01*
X51895494Y-72856254D01*
X51851972Y-72891972D01*
X51667649Y-73116569D01*
X51530685Y-73372811D01*
X51446343Y-73650850D01*
X51417864Y-73940000D01*
X51446343Y-74229150D01*
X51530685Y-74507189D01*
X51667649Y-74763431D01*
X51851972Y-74988028D01*
X52076569Y-75172351D01*
X52147005Y-75210000D01*
X52076569Y-75247649D01*
X51851972Y-75431972D01*
X51667649Y-75656569D01*
X51530685Y-75912811D01*
X51446343Y-76190850D01*
X51417864Y-76480000D01*
X51446343Y-76769150D01*
X51478742Y-76875954D01*
X51179696Y-77175000D01*
X47735596Y-77175000D01*
X47699999Y-77171494D01*
X47664402Y-77175000D01*
X47664393Y-77175000D01*
X47557875Y-77185491D01*
X47421212Y-77226947D01*
X47295263Y-77294269D01*
X47212525Y-77362170D01*
X47212523Y-77362172D01*
X47184868Y-77384868D01*
X47162172Y-77412523D01*
X32812523Y-91762172D01*
X32784869Y-91784868D01*
X32762173Y-91812523D01*
X32762170Y-91812526D01*
X32694269Y-91895264D01*
X32626947Y-92021213D01*
X32585492Y-92157876D01*
X32571494Y-92300000D01*
X32575001Y-92335607D01*
X32575000Y-94475430D01*
X32503830Y-94546600D01*
X32391656Y-94714480D01*
X32314390Y-94901018D01*
X32275000Y-95099046D01*
X32275000Y-95300954D01*
X32314390Y-95498982D01*
X32391656Y-95685520D01*
X32503830Y-95853400D01*
X32646600Y-95996170D01*
X32814480Y-96108344D01*
X33001018Y-96185610D01*
X33199046Y-96225000D01*
X33400954Y-96225000D01*
X33598982Y-96185610D01*
X33785520Y-96108344D01*
X33953400Y-95996170D01*
X34096170Y-95853400D01*
X34208344Y-95685520D01*
X34285610Y-95498982D01*
X34300326Y-95425000D01*
X34400954Y-95425000D01*
X34598982Y-95385610D01*
X34745309Y-95325000D01*
X36493596Y-95325000D01*
X36455920Y-95355920D01*
X36377817Y-95451089D01*
X36319781Y-95559666D01*
X36284043Y-95677479D01*
X36271976Y-95800000D01*
X36271976Y-96800000D01*
X36284043Y-96922521D01*
X36319781Y-97040334D01*
X36377817Y-97148911D01*
X36455920Y-97244080D01*
X36524059Y-97300000D01*
X36455920Y-97355920D01*
X36377817Y-97451089D01*
X36319781Y-97559666D01*
X36284043Y-97677479D01*
X36271976Y-97800000D01*
X36271976Y-98800000D01*
X36284043Y-98922521D01*
X36319781Y-99040334D01*
X36377817Y-99148911D01*
X36455920Y-99244080D01*
X36551089Y-99322183D01*
X36659666Y-99380219D01*
X36777479Y-99415957D01*
X36900000Y-99428024D01*
X37900000Y-99428024D01*
X38022521Y-99415957D01*
X38140334Y-99380219D01*
X38248911Y-99322183D01*
X38344080Y-99244080D01*
X38400000Y-99175941D01*
X38455920Y-99244080D01*
X38524059Y-99300000D01*
X38455920Y-99355920D01*
X38377817Y-99451089D01*
X38319781Y-99559666D01*
X38284043Y-99677479D01*
X38271976Y-99800000D01*
X38271976Y-100800000D01*
X38284043Y-100922521D01*
X38319781Y-101040334D01*
X38377817Y-101148911D01*
X38455920Y-101244080D01*
X38524059Y-101300000D01*
X38455920Y-101355920D01*
X38400000Y-101424059D01*
X38344080Y-101355920D01*
X38248911Y-101277817D01*
X38140334Y-101219781D01*
X38022521Y-101184043D01*
X37900000Y-101171976D01*
X36955375Y-101171976D01*
X36985610Y-101098982D01*
X37025000Y-100900954D01*
X37025000Y-100699046D01*
X36985610Y-100501018D01*
X36908344Y-100314480D01*
X36796170Y-100146600D01*
X36653400Y-100003830D01*
X36485520Y-99891656D01*
X36298982Y-99814390D01*
X36100954Y-99775000D01*
X35981964Y-99775000D01*
X35925000Y-99689747D01*
X35925000Y-97810253D01*
X36008344Y-97685520D01*
X36085610Y-97498982D01*
X36125000Y-97300954D01*
X36125000Y-97099046D01*
X36085610Y-96901018D01*
X36008344Y-96714480D01*
X35896170Y-96546600D01*
X35753400Y-96403830D01*
X35585520Y-96291656D01*
X35398982Y-96214390D01*
X35200954Y-96175000D01*
X34999046Y-96175000D01*
X34801018Y-96214390D01*
X34614480Y-96291656D01*
X34446600Y-96403830D01*
X34303830Y-96546600D01*
X34191656Y-96714480D01*
X34114390Y-96901018D01*
X34075000Y-97099046D01*
X34075000Y-97300954D01*
X34114390Y-97498982D01*
X34191656Y-97685520D01*
X34275000Y-97810253D01*
X34275001Y-99475000D01*
X32440513Y-99475000D01*
X32400000Y-99471010D01*
X32359487Y-99475000D01*
X32359479Y-99475000D01*
X32238272Y-99486938D01*
X32082758Y-99534112D01*
X32045733Y-99553903D01*
X31939437Y-99610719D01*
X31813815Y-99713815D01*
X31787979Y-99745296D01*
X31495296Y-100037979D01*
X31463815Y-100063815D01*
X31360719Y-100189438D01*
X31284112Y-100332760D01*
X31255910Y-100425731D01*
X31236938Y-100488272D01*
X31236249Y-100495264D01*
X31225000Y-100609480D01*
X31225000Y-100609487D01*
X31221010Y-100650000D01*
X31225000Y-100690513D01*
X31225001Y-114209477D01*
X31221010Y-114250000D01*
X31236938Y-114411728D01*
X31276494Y-114542124D01*
X31284113Y-114567241D01*
X31360720Y-114710563D01*
X31463816Y-114836185D01*
X31495291Y-114862016D01*
X31585123Y-114951848D01*
X31614390Y-115098982D01*
X31691656Y-115285520D01*
X31803830Y-115453400D01*
X31946600Y-115596170D01*
X32114480Y-115708344D01*
X32301018Y-115785610D01*
X32499046Y-115825000D01*
X32700954Y-115825000D01*
X32898982Y-115785610D01*
X33085520Y-115708344D01*
X33253400Y-115596170D01*
X33396170Y-115453400D01*
X33508344Y-115285520D01*
X33585610Y-115098982D01*
X33625000Y-114900954D01*
X33625000Y-114699046D01*
X33585610Y-114501018D01*
X33508344Y-114314480D01*
X33396170Y-114146600D01*
X33253400Y-114003830D01*
X33085520Y-113891656D01*
X32898982Y-113814390D01*
X32875000Y-113809620D01*
X32875000Y-108774833D01*
X32901018Y-108785610D01*
X33099046Y-108825000D01*
X33300954Y-108825000D01*
X33498982Y-108785610D01*
X33685520Y-108708344D01*
X33853400Y-108596170D01*
X33924570Y-108525000D01*
X34899696Y-108525000D01*
X35475001Y-109100306D01*
X35475000Y-116064403D01*
X35471494Y-116100000D01*
X35475000Y-116135597D01*
X35475000Y-116135606D01*
X35485491Y-116242124D01*
X35526947Y-116378787D01*
X35594269Y-116504736D01*
X35613777Y-116528506D01*
X35684868Y-116615131D01*
X35712524Y-116637828D01*
X37462172Y-118387477D01*
X37484868Y-118415132D01*
X37512523Y-118437828D01*
X37512525Y-118437830D01*
X37583613Y-118496170D01*
X37595263Y-118505731D01*
X37721212Y-118573053D01*
X37857875Y-118614509D01*
X37964393Y-118625000D01*
X37964402Y-118625000D01*
X37999999Y-118628506D01*
X38035596Y-118625000D01*
X39064403Y-118625000D01*
X39100000Y-118628506D01*
X39135597Y-118625000D01*
X39135607Y-118625000D01*
X39242125Y-118614509D01*
X39378788Y-118573053D01*
X39504737Y-118505731D01*
X39615132Y-118415132D01*
X39637832Y-118387472D01*
X40487477Y-117537828D01*
X40515132Y-117515132D01*
X40554677Y-117466947D01*
X40605731Y-117404737D01*
X40673053Y-117278788D01*
X40684989Y-117239440D01*
X40714509Y-117142125D01*
X40725000Y-117035607D01*
X40725000Y-117035598D01*
X40728506Y-117000001D01*
X40725000Y-116964404D01*
X40725000Y-115000304D01*
X41100305Y-114625000D01*
X43851445Y-114625000D01*
X43791656Y-114714480D01*
X43714390Y-114901018D01*
X43675000Y-115099046D01*
X43675000Y-115300954D01*
X43714390Y-115498982D01*
X43791656Y-115685520D01*
X43903830Y-115853400D01*
X44046600Y-115996170D01*
X44214480Y-116108344D01*
X44401018Y-116185610D01*
X44599046Y-116225000D01*
X44699696Y-116225000D01*
X47149695Y-118675000D01*
X44241726Y-118675000D01*
X43114876Y-117548151D01*
X43085610Y-117401018D01*
X43008344Y-117214480D01*
X42896170Y-117046600D01*
X42753400Y-116903830D01*
X42585520Y-116791656D01*
X42398982Y-116714390D01*
X42200954Y-116675000D01*
X41999046Y-116675000D01*
X41801018Y-116714390D01*
X41614480Y-116791656D01*
X41446600Y-116903830D01*
X41303830Y-117046600D01*
X41191656Y-117214480D01*
X41114390Y-117401018D01*
X41075000Y-117599046D01*
X41075000Y-117800954D01*
X41114390Y-117998982D01*
X41191656Y-118185520D01*
X41303830Y-118353400D01*
X41446600Y-118496170D01*
X41614480Y-118608344D01*
X41801018Y-118685610D01*
X41948151Y-118714876D01*
X43083274Y-119850000D01*
X30650000Y-119850000D01*
X30650000Y-70650000D01*
X51422508Y-70650000D01*
X51425000Y-71118750D01*
X51425000Y-71118750D01*
G37*
X51425000Y-71118750D02*
X51581250Y-71275000D01*
X52775000Y-71275000D01*
X52775000Y-71255000D01*
X53025000Y-71255000D01*
X53025000Y-71275000D01*
X54218750Y-71275000D01*
X54375000Y-71118750D01*
X54377492Y-70650000D01*
X56350000Y-70650000D01*
X56350000Y-75378084D01*
X56305731Y-75295263D01*
X56266655Y-75247649D01*
X56237830Y-75212525D01*
X56237823Y-75212518D01*
X56215131Y-75184868D01*
X56187482Y-75162177D01*
X55737832Y-74712528D01*
X55715132Y-74684868D01*
X55604737Y-74594269D01*
X55478788Y-74526947D01*
X55342125Y-74485491D01*
X55235607Y-74475000D01*
X55235597Y-74475000D01*
X55200000Y-74471494D01*
X55164403Y-74475000D01*
X55124570Y-74475000D01*
X55053400Y-74403830D01*
X54885520Y-74291656D01*
X54698982Y-74214390D01*
X54500954Y-74175000D01*
X54358990Y-74175000D01*
X54382136Y-73940000D01*
X54353657Y-73650850D01*
X54269315Y-73372811D01*
X54132351Y-73116569D01*
X53948028Y-72891972D01*
X53904506Y-72856254D01*
X53990334Y-72830219D01*
X54098911Y-72772183D01*
X54194080Y-72694080D01*
X54272183Y-72598911D01*
X54330219Y-72490334D01*
X54365957Y-72372521D01*
X54378024Y-72250000D01*
X54375000Y-71681250D01*
X54218750Y-71525000D01*
X53025000Y-71525000D01*
X53025000Y-71545000D01*
X52775000Y-71545000D01*
X52775000Y-71525000D01*
X51581250Y-71525000D01*
X51425000Y-71681250D01*
X51421976Y-72250000D01*
X51434043Y-72372521D01*
X51469781Y-72490334D01*
X51527817Y-72598911D01*
X51605920Y-72694080D01*
X51701089Y-72772183D01*
X51809666Y-72830219D01*
X51895494Y-72856254D01*
X51851972Y-72891972D01*
X51667649Y-73116569D01*
X51530685Y-73372811D01*
X51446343Y-73650850D01*
X51417864Y-73940000D01*
X51446343Y-74229150D01*
X51530685Y-74507189D01*
X51667649Y-74763431D01*
X51851972Y-74988028D01*
X52076569Y-75172351D01*
X52147005Y-75210000D01*
X52076569Y-75247649D01*
X51851972Y-75431972D01*
X51667649Y-75656569D01*
X51530685Y-75912811D01*
X51446343Y-76190850D01*
X51417864Y-76480000D01*
X51446343Y-76769150D01*
X51478742Y-76875954D01*
X51179696Y-77175000D01*
X47735596Y-77175000D01*
X47699999Y-77171494D01*
X47664402Y-77175000D01*
X47664393Y-77175000D01*
X47557875Y-77185491D01*
X47421212Y-77226947D01*
X47295263Y-77294269D01*
X47212525Y-77362170D01*
X47212523Y-77362172D01*
X47184868Y-77384868D01*
X47162172Y-77412523D01*
X32812523Y-91762172D01*
X32784869Y-91784868D01*
X32762173Y-91812523D01*
X32762170Y-91812526D01*
X32694269Y-91895264D01*
X32626947Y-92021213D01*
X32585492Y-92157876D01*
X32571494Y-92300000D01*
X32575001Y-92335607D01*
X32575000Y-94475430D01*
X32503830Y-94546600D01*
X32391656Y-94714480D01*
X32314390Y-94901018D01*
X32275000Y-95099046D01*
X32275000Y-95300954D01*
X32314390Y-95498982D01*
X32391656Y-95685520D01*
X32503830Y-95853400D01*
X32646600Y-95996170D01*
X32814480Y-96108344D01*
X33001018Y-96185610D01*
X33199046Y-96225000D01*
X33400954Y-96225000D01*
X33598982Y-96185610D01*
X33785520Y-96108344D01*
X33953400Y-95996170D01*
X34096170Y-95853400D01*
X34208344Y-95685520D01*
X34285610Y-95498982D01*
X34300326Y-95425000D01*
X34400954Y-95425000D01*
X34598982Y-95385610D01*
X34745309Y-95325000D01*
X36493596Y-95325000D01*
X36455920Y-95355920D01*
X36377817Y-95451089D01*
X36319781Y-95559666D01*
X36284043Y-95677479D01*
X36271976Y-95800000D01*
X36271976Y-96800000D01*
X36284043Y-96922521D01*
X36319781Y-97040334D01*
X36377817Y-97148911D01*
X36455920Y-97244080D01*
X36524059Y-97300000D01*
X36455920Y-97355920D01*
X36377817Y-97451089D01*
X36319781Y-97559666D01*
X36284043Y-97677479D01*
X36271976Y-97800000D01*
X36271976Y-98800000D01*
X36284043Y-98922521D01*
X36319781Y-99040334D01*
X36377817Y-99148911D01*
X36455920Y-99244080D01*
X36551089Y-99322183D01*
X36659666Y-99380219D01*
X36777479Y-99415957D01*
X36900000Y-99428024D01*
X37900000Y-99428024D01*
X38022521Y-99415957D01*
X38140334Y-99380219D01*
X38248911Y-99322183D01*
X38344080Y-99244080D01*
X38400000Y-99175941D01*
X38455920Y-99244080D01*
X38524059Y-99300000D01*
X38455920Y-99355920D01*
X38377817Y-99451089D01*
X38319781Y-99559666D01*
X38284043Y-99677479D01*
X38271976Y-99800000D01*
X38271976Y-100800000D01*
X38284043Y-100922521D01*
X38319781Y-101040334D01*
X38377817Y-101148911D01*
X38455920Y-101244080D01*
X38524059Y-101300000D01*
X38455920Y-101355920D01*
X38400000Y-101424059D01*
X38344080Y-101355920D01*
X38248911Y-101277817D01*
X38140334Y-101219781D01*
X38022521Y-101184043D01*
X37900000Y-101171976D01*
X36955375Y-101171976D01*
X36985610Y-101098982D01*
X37025000Y-100900954D01*
X37025000Y-100699046D01*
X36985610Y-100501018D01*
X36908344Y-100314480D01*
X36796170Y-100146600D01*
X36653400Y-100003830D01*
X36485520Y-99891656D01*
X36298982Y-99814390D01*
X36100954Y-99775000D01*
X35981964Y-99775000D01*
X35925000Y-99689747D01*
X35925000Y-97810253D01*
X36008344Y-97685520D01*
X36085610Y-97498982D01*
X36125000Y-97300954D01*
X36125000Y-97099046D01*
X36085610Y-96901018D01*
X36008344Y-96714480D01*
X35896170Y-96546600D01*
X35753400Y-96403830D01*
X35585520Y-96291656D01*
X35398982Y-96214390D01*
X35200954Y-96175000D01*
X34999046Y-96175000D01*
X34801018Y-96214390D01*
X34614480Y-96291656D01*
X34446600Y-96403830D01*
X34303830Y-96546600D01*
X34191656Y-96714480D01*
X34114390Y-96901018D01*
X34075000Y-97099046D01*
X34075000Y-97300954D01*
X34114390Y-97498982D01*
X34191656Y-97685520D01*
X34275000Y-97810253D01*
X34275001Y-99475000D01*
X32440513Y-99475000D01*
X32400000Y-99471010D01*
X32359487Y-99475000D01*
X32359479Y-99475000D01*
X32238272Y-99486938D01*
X32082758Y-99534112D01*
X32045733Y-99553903D01*
X31939437Y-99610719D01*
X31813815Y-99713815D01*
X31787979Y-99745296D01*
X31495296Y-100037979D01*
X31463815Y-100063815D01*
X31360719Y-100189438D01*
X31284112Y-100332760D01*
X31255910Y-100425731D01*
X31236938Y-100488272D01*
X31236249Y-100495264D01*
X31225000Y-100609480D01*
X31225000Y-100609487D01*
X31221010Y-100650000D01*
X31225000Y-100690513D01*
X31225001Y-114209477D01*
X31221010Y-114250000D01*
X31236938Y-114411728D01*
X31276494Y-114542124D01*
X31284113Y-114567241D01*
X31360720Y-114710563D01*
X31463816Y-114836185D01*
X31495291Y-114862016D01*
X31585123Y-114951848D01*
X31614390Y-115098982D01*
X31691656Y-115285520D01*
X31803830Y-115453400D01*
X31946600Y-115596170D01*
X32114480Y-115708344D01*
X32301018Y-115785610D01*
X32499046Y-115825000D01*
X32700954Y-115825000D01*
X32898982Y-115785610D01*
X33085520Y-115708344D01*
X33253400Y-115596170D01*
X33396170Y-115453400D01*
X33508344Y-115285520D01*
X33585610Y-115098982D01*
X33625000Y-114900954D01*
X33625000Y-114699046D01*
X33585610Y-114501018D01*
X33508344Y-114314480D01*
X33396170Y-114146600D01*
X33253400Y-114003830D01*
X33085520Y-113891656D01*
X32898982Y-113814390D01*
X32875000Y-113809620D01*
X32875000Y-108774833D01*
X32901018Y-108785610D01*
X33099046Y-108825000D01*
X33300954Y-108825000D01*
X33498982Y-108785610D01*
X33685520Y-108708344D01*
X33853400Y-108596170D01*
X33924570Y-108525000D01*
X34899696Y-108525000D01*
X35475001Y-109100306D01*
X35475000Y-116064403D01*
X35471494Y-116100000D01*
X35475000Y-116135597D01*
X35475000Y-116135606D01*
X35485491Y-116242124D01*
X35526947Y-116378787D01*
X35594269Y-116504736D01*
X35613777Y-116528506D01*
X35684868Y-116615131D01*
X35712524Y-116637828D01*
X37462172Y-118387477D01*
X37484868Y-118415132D01*
X37512523Y-118437828D01*
X37512525Y-118437830D01*
X37583613Y-118496170D01*
X37595263Y-118505731D01*
X37721212Y-118573053D01*
X37857875Y-118614509D01*
X37964393Y-118625000D01*
X37964402Y-118625000D01*
X37999999Y-118628506D01*
X38035596Y-118625000D01*
X39064403Y-118625000D01*
X39100000Y-118628506D01*
X39135597Y-118625000D01*
X39135607Y-118625000D01*
X39242125Y-118614509D01*
X39378788Y-118573053D01*
X39504737Y-118505731D01*
X39615132Y-118415132D01*
X39637832Y-118387472D01*
X40487477Y-117537828D01*
X40515132Y-117515132D01*
X40554677Y-117466947D01*
X40605731Y-117404737D01*
X40673053Y-117278788D01*
X40684989Y-117239440D01*
X40714509Y-117142125D01*
X40725000Y-117035607D01*
X40725000Y-117035598D01*
X40728506Y-117000001D01*
X40725000Y-116964404D01*
X40725000Y-115000304D01*
X41100305Y-114625000D01*
X43851445Y-114625000D01*
X43791656Y-114714480D01*
X43714390Y-114901018D01*
X43675000Y-115099046D01*
X43675000Y-115300954D01*
X43714390Y-115498982D01*
X43791656Y-115685520D01*
X43903830Y-115853400D01*
X44046600Y-115996170D01*
X44214480Y-116108344D01*
X44401018Y-116185610D01*
X44599046Y-116225000D01*
X44699696Y-116225000D01*
X47149695Y-118675000D01*
X44241726Y-118675000D01*
X43114876Y-117548151D01*
X43085610Y-117401018D01*
X43008344Y-117214480D01*
X42896170Y-117046600D01*
X42753400Y-116903830D01*
X42585520Y-116791656D01*
X42398982Y-116714390D01*
X42200954Y-116675000D01*
X41999046Y-116675000D01*
X41801018Y-116714390D01*
X41614480Y-116791656D01*
X41446600Y-116903830D01*
X41303830Y-117046600D01*
X41191656Y-117214480D01*
X41114390Y-117401018D01*
X41075000Y-117599046D01*
X41075000Y-117800954D01*
X41114390Y-117998982D01*
X41191656Y-118185520D01*
X41303830Y-118353400D01*
X41446600Y-118496170D01*
X41614480Y-118608344D01*
X41801018Y-118685610D01*
X41948151Y-118714876D01*
X43083274Y-119850000D01*
X30650000Y-119850000D01*
X30650000Y-70650000D01*
X51422508Y-70650000D01*
X51425000Y-71118750D01*
G36*
X48874087Y-115199391D02*
G01*
X48846343Y-115290850D01*
X48817864Y-115580000D01*
X48846343Y-115869150D01*
X48930685Y-116147189D01*
X49067649Y-116403431D01*
X49251972Y-116628028D01*
X49476569Y-116812351D01*
X49732811Y-116949315D01*
X50010850Y-117033657D01*
X50227548Y-117055000D01*
X50372452Y-117055000D01*
X50589150Y-117033657D01*
X50867189Y-116949315D01*
X51123431Y-116812351D01*
X51348028Y-116628028D01*
X51532351Y-116403431D01*
X51571513Y-116330164D01*
X51577515Y-116342740D01*
X51750577Y-116574383D01*
X51862868Y-116675442D01*
X51749666Y-116709781D01*
X51641089Y-116767817D01*
X51545920Y-116845920D01*
X51467817Y-116941089D01*
X51409781Y-117049666D01*
X51374043Y-117167479D01*
X51361976Y-117290000D01*
X51361976Y-117553380D01*
X51302525Y-117602170D01*
X51302523Y-117602172D01*
X51274868Y-117624868D01*
X51252172Y-117652523D01*
X50829696Y-118075000D01*
X48600305Y-118075000D01*
X48177834Y-117652530D01*
X48177830Y-117652525D01*
X45725000Y-115199696D01*
X45725000Y-115099046D01*
X45685610Y-114901018D01*
X45608344Y-114714480D01*
X45548555Y-114625000D01*
X48299696Y-114625000D01*
X48874087Y-115199391D01*
X48874087Y-115199391D01*
G37*
X48874087Y-115199391D02*
X48846343Y-115290850D01*
X48817864Y-115580000D01*
X48846343Y-115869150D01*
X48930685Y-116147189D01*
X49067649Y-116403431D01*
X49251972Y-116628028D01*
X49476569Y-116812351D01*
X49732811Y-116949315D01*
X50010850Y-117033657D01*
X50227548Y-117055000D01*
X50372452Y-117055000D01*
X50589150Y-117033657D01*
X50867189Y-116949315D01*
X51123431Y-116812351D01*
X51348028Y-116628028D01*
X51532351Y-116403431D01*
X51571513Y-116330164D01*
X51577515Y-116342740D01*
X51750577Y-116574383D01*
X51862868Y-116675442D01*
X51749666Y-116709781D01*
X51641089Y-116767817D01*
X51545920Y-116845920D01*
X51467817Y-116941089D01*
X51409781Y-117049666D01*
X51374043Y-117167479D01*
X51361976Y-117290000D01*
X51361976Y-117553380D01*
X51302525Y-117602170D01*
X51302523Y-117602172D01*
X51274868Y-117624868D01*
X51252172Y-117652523D01*
X50829696Y-118075000D01*
X48600305Y-118075000D01*
X48177834Y-117652530D01*
X48177830Y-117652525D01*
X45725000Y-115199696D01*
X45725000Y-115099046D01*
X45685610Y-114901018D01*
X45608344Y-114714480D01*
X45548555Y-114625000D01*
X48299696Y-114625000D01*
X48874087Y-115199391D01*
G36*
X52965000Y-115455000D02*
G01*
X52985000Y-115455000D01*
X52985000Y-115705000D01*
X52965000Y-115705000D01*
X52965000Y-115725000D01*
X52715000Y-115725000D01*
X52715000Y-115705000D01*
X52695000Y-115705000D01*
X52695000Y-115455000D01*
X52715000Y-115455000D01*
X52715000Y-115435000D01*
X52965000Y-115435000D01*
X52965000Y-115455000D01*
X52965000Y-115455000D01*
G37*
X52965000Y-115455000D02*
X52985000Y-115455000D01*
X52985000Y-115705000D01*
X52965000Y-115705000D01*
X52965000Y-115725000D01*
X52715000Y-115725000D01*
X52715000Y-115705000D01*
X52695000Y-115705000D01*
X52695000Y-115455000D01*
X52715000Y-115455000D01*
X52715000Y-115435000D01*
X52965000Y-115435000D01*
X52965000Y-115455000D01*
G36*
X39012524Y-107362172D02*
G01*
X38984868Y-107384869D01*
X38962172Y-107412524D01*
X38962170Y-107412526D01*
X38912497Y-107473053D01*
X38894269Y-107495264D01*
X38826947Y-107621213D01*
X38785491Y-107757876D01*
X38775000Y-107864394D01*
X38775000Y-107864403D01*
X38771494Y-107900000D01*
X38775000Y-107935597D01*
X38775001Y-114075405D01*
X38708344Y-113914480D01*
X38596170Y-113746600D01*
X38453400Y-113603830D01*
X38285520Y-113491656D01*
X38098982Y-113414390D01*
X37900954Y-113375000D01*
X37825000Y-113375000D01*
X37825000Y-106725000D01*
X39649695Y-106725000D01*
X39012524Y-107362172D01*
X39012524Y-107362172D01*
G37*
X39012524Y-107362172D02*
X38984868Y-107384869D01*
X38962172Y-107412524D01*
X38962170Y-107412526D01*
X38912497Y-107473053D01*
X38894269Y-107495264D01*
X38826947Y-107621213D01*
X38785491Y-107757876D01*
X38775000Y-107864394D01*
X38775000Y-107864403D01*
X38771494Y-107900000D01*
X38775000Y-107935597D01*
X38775001Y-114075405D01*
X38708344Y-113914480D01*
X38596170Y-113746600D01*
X38453400Y-113603830D01*
X38285520Y-113491656D01*
X38098982Y-113414390D01*
X37900954Y-113375000D01*
X37825000Y-113375000D01*
X37825000Y-106725000D01*
X39649695Y-106725000D01*
X39012524Y-107362172D01*
G36*
X44246600Y-107596170D02*
G01*
X44414480Y-107708344D01*
X44601018Y-107785610D01*
X44799046Y-107825000D01*
X45000954Y-107825000D01*
X45198982Y-107785610D01*
X45385520Y-107708344D01*
X45553400Y-107596170D01*
X45575000Y-107574570D01*
X45575000Y-107964403D01*
X45571494Y-108000000D01*
X45575000Y-108035597D01*
X45575000Y-108035606D01*
X45585491Y-108142124D01*
X45604786Y-108205731D01*
X45626947Y-108278787D01*
X45694269Y-108404736D01*
X45755575Y-108479437D01*
X45784868Y-108515131D01*
X45812524Y-108537828D01*
X48262172Y-110987477D01*
X48284868Y-111015132D01*
X48312523Y-111037828D01*
X48312525Y-111037830D01*
X48395263Y-111105731D01*
X48521212Y-111173053D01*
X48657875Y-111214509D01*
X48764393Y-111225000D01*
X48764403Y-111225000D01*
X48800000Y-111228506D01*
X48821976Y-111226342D01*
X48821976Y-111350000D01*
X48834043Y-111472521D01*
X48869781Y-111590334D01*
X48927817Y-111698911D01*
X49005920Y-111794080D01*
X49101089Y-111872183D01*
X49209666Y-111930219D01*
X49295494Y-111956254D01*
X49251972Y-111991972D01*
X49067649Y-112216569D01*
X48930685Y-112472811D01*
X48846343Y-112750850D01*
X48817864Y-113040000D01*
X48834968Y-113213654D01*
X48742125Y-113185491D01*
X48635607Y-113175000D01*
X48635597Y-113175000D01*
X48600000Y-113171494D01*
X48564403Y-113175000D01*
X40835597Y-113175000D01*
X40800000Y-113171494D01*
X40764403Y-113175000D01*
X40764393Y-113175000D01*
X40657875Y-113185491D01*
X40521212Y-113226947D01*
X40395263Y-113294269D01*
X40312525Y-113362170D01*
X40312523Y-113362172D01*
X40284868Y-113384868D01*
X40262172Y-113412523D01*
X40225000Y-113449695D01*
X40225000Y-108200304D01*
X40900305Y-107525000D01*
X44175430Y-107525000D01*
X44246600Y-107596170D01*
X44246600Y-107596170D01*
G37*
X44246600Y-107596170D02*
X44414480Y-107708344D01*
X44601018Y-107785610D01*
X44799046Y-107825000D01*
X45000954Y-107825000D01*
X45198982Y-107785610D01*
X45385520Y-107708344D01*
X45553400Y-107596170D01*
X45575000Y-107574570D01*
X45575000Y-107964403D01*
X45571494Y-108000000D01*
X45575000Y-108035597D01*
X45575000Y-108035606D01*
X45585491Y-108142124D01*
X45604786Y-108205731D01*
X45626947Y-108278787D01*
X45694269Y-108404736D01*
X45755575Y-108479437D01*
X45784868Y-108515131D01*
X45812524Y-108537828D01*
X48262172Y-110987477D01*
X48284868Y-111015132D01*
X48312523Y-111037828D01*
X48312525Y-111037830D01*
X48395263Y-111105731D01*
X48521212Y-111173053D01*
X48657875Y-111214509D01*
X48764393Y-111225000D01*
X48764403Y-111225000D01*
X48800000Y-111228506D01*
X48821976Y-111226342D01*
X48821976Y-111350000D01*
X48834043Y-111472521D01*
X48869781Y-111590334D01*
X48927817Y-111698911D01*
X49005920Y-111794080D01*
X49101089Y-111872183D01*
X49209666Y-111930219D01*
X49295494Y-111956254D01*
X49251972Y-111991972D01*
X49067649Y-112216569D01*
X48930685Y-112472811D01*
X48846343Y-112750850D01*
X48817864Y-113040000D01*
X48834968Y-113213654D01*
X48742125Y-113185491D01*
X48635607Y-113175000D01*
X48635597Y-113175000D01*
X48600000Y-113171494D01*
X48564403Y-113175000D01*
X40835597Y-113175000D01*
X40800000Y-113171494D01*
X40764403Y-113175000D01*
X40764393Y-113175000D01*
X40657875Y-113185491D01*
X40521212Y-113226947D01*
X40395263Y-113294269D01*
X40312525Y-113362170D01*
X40312523Y-113362172D01*
X40284868Y-113384868D01*
X40262172Y-113412523D01*
X40225000Y-113449695D01*
X40225000Y-108200304D01*
X40900305Y-107525000D01*
X44175430Y-107525000D01*
X44246600Y-107596170D01*
G36*
X53025000Y-102475000D02*
G01*
X53045000Y-102475000D01*
X53045000Y-102725000D01*
X53025000Y-102725000D01*
X53025000Y-102745000D01*
X52775000Y-102745000D01*
X52775000Y-102725000D01*
X52755000Y-102725000D01*
X52755000Y-102475000D01*
X52775000Y-102475000D01*
X52775000Y-102455000D01*
X53025000Y-102455000D01*
X53025000Y-102475000D01*
X53025000Y-102475000D01*
G37*
X53025000Y-102475000D02*
X53045000Y-102475000D01*
X53045000Y-102725000D01*
X53025000Y-102725000D01*
X53025000Y-102745000D01*
X52775000Y-102745000D01*
X52775000Y-102725000D01*
X52755000Y-102725000D01*
X52755000Y-102475000D01*
X52775000Y-102475000D01*
X52775000Y-102455000D01*
X53025000Y-102455000D01*
X53025000Y-102475000D01*
G36*
X54975001Y-84369008D02*
G01*
X54971710Y-84371709D01*
X54843621Y-84527785D01*
X54748443Y-84705852D01*
X54689832Y-84899065D01*
X54675001Y-85049649D01*
X54675000Y-88395000D01*
X53966927Y-88395000D01*
X53948028Y-88371972D01*
X53723431Y-88187649D01*
X53652995Y-88150000D01*
X53723431Y-88112351D01*
X53948028Y-87928028D01*
X54132351Y-87703431D01*
X54269315Y-87447189D01*
X54353657Y-87169150D01*
X54382136Y-86880000D01*
X54353657Y-86590850D01*
X54269315Y-86312811D01*
X54132351Y-86056569D01*
X53948028Y-85831972D01*
X53723431Y-85647649D01*
X53652995Y-85610000D01*
X53723431Y-85572351D01*
X53948028Y-85388028D01*
X54132351Y-85163431D01*
X54269315Y-84907189D01*
X54353657Y-84629150D01*
X54382136Y-84340000D01*
X54353657Y-84050850D01*
X54269315Y-83772811D01*
X54132351Y-83516569D01*
X53948028Y-83291972D01*
X53904506Y-83256254D01*
X53990334Y-83230219D01*
X54098911Y-83172183D01*
X54194080Y-83094080D01*
X54272183Y-82998911D01*
X54330219Y-82890334D01*
X54365957Y-82772521D01*
X54378024Y-82650000D01*
X54375000Y-82081250D01*
X54218750Y-81925000D01*
X53025000Y-81925000D01*
X53025000Y-81945000D01*
X52775000Y-81945000D01*
X52775000Y-81925000D01*
X51581250Y-81925000D01*
X51425000Y-82081250D01*
X51421976Y-82650000D01*
X51434043Y-82772521D01*
X51469781Y-82890334D01*
X51527817Y-82998911D01*
X51605920Y-83094080D01*
X51701089Y-83172183D01*
X51809666Y-83230219D01*
X51895494Y-83256254D01*
X51851972Y-83291972D01*
X51667649Y-83516569D01*
X51530685Y-83772811D01*
X51446343Y-84050850D01*
X51417864Y-84340000D01*
X51446343Y-84629150D01*
X51530685Y-84907189D01*
X51667649Y-85163431D01*
X51851972Y-85388028D01*
X52076569Y-85572351D01*
X52147005Y-85610000D01*
X52076569Y-85647649D01*
X51851972Y-85831972D01*
X51667649Y-86056569D01*
X51530685Y-86312811D01*
X51446343Y-86590850D01*
X51417864Y-86880000D01*
X51446343Y-87169150D01*
X51530685Y-87447189D01*
X51667649Y-87703431D01*
X51851972Y-87928028D01*
X52076569Y-88112351D01*
X52147005Y-88150000D01*
X52076569Y-88187649D01*
X51851972Y-88371972D01*
X51667649Y-88596569D01*
X51530685Y-88852811D01*
X51446343Y-89130850D01*
X51417864Y-89420000D01*
X51446343Y-89709150D01*
X51526988Y-89975000D01*
X51410253Y-89975000D01*
X51285520Y-89891656D01*
X51098982Y-89814390D01*
X50900954Y-89775000D01*
X50699046Y-89775000D01*
X50501018Y-89814390D01*
X50314480Y-89891656D01*
X50146600Y-90003830D01*
X50003830Y-90146600D01*
X49891656Y-90314480D01*
X49814390Y-90501018D01*
X49775000Y-90699046D01*
X49775000Y-90900954D01*
X49814390Y-91098982D01*
X49891656Y-91285520D01*
X50003830Y-91453400D01*
X50146600Y-91596170D01*
X50314480Y-91708344D01*
X50501018Y-91785610D01*
X50699046Y-91825000D01*
X50900954Y-91825000D01*
X51098982Y-91785610D01*
X51285520Y-91708344D01*
X51410253Y-91625000D01*
X51423438Y-91625000D01*
X51425000Y-91918750D01*
X51581250Y-92075000D01*
X52775000Y-92075000D01*
X52775000Y-92055000D01*
X53025000Y-92055000D01*
X53025000Y-92075000D01*
X53045000Y-92075000D01*
X53045000Y-92325000D01*
X53025000Y-92325000D01*
X53025000Y-92345000D01*
X52775000Y-92345000D01*
X52775000Y-92325000D01*
X51581250Y-92325000D01*
X51425000Y-92481250D01*
X51421976Y-93050000D01*
X51434043Y-93172521D01*
X51469781Y-93290334D01*
X51527817Y-93398911D01*
X51605920Y-93494080D01*
X51701089Y-93572183D01*
X51809666Y-93630219D01*
X51895494Y-93656254D01*
X51851972Y-93691972D01*
X51667649Y-93916569D01*
X51530685Y-94172811D01*
X51446343Y-94450850D01*
X51417864Y-94740000D01*
X51446343Y-95029150D01*
X51530685Y-95307189D01*
X51667649Y-95563431D01*
X51851972Y-95788028D01*
X52076569Y-95972351D01*
X52147005Y-96010000D01*
X52076569Y-96047649D01*
X51851972Y-96231972D01*
X51667649Y-96456569D01*
X51530685Y-96712811D01*
X51446343Y-96990850D01*
X51417864Y-97280000D01*
X51446343Y-97569150D01*
X51478742Y-97675954D01*
X50612530Y-98542166D01*
X50612525Y-98542170D01*
X49812523Y-99342173D01*
X49784869Y-99364868D01*
X49762173Y-99392523D01*
X49762170Y-99392526D01*
X49694269Y-99475264D01*
X49626947Y-99601213D01*
X49603813Y-99677479D01*
X49592791Y-99713815D01*
X49585492Y-99737876D01*
X49571494Y-99880000D01*
X49575001Y-99915607D01*
X49575001Y-102049696D01*
X48525000Y-100999696D01*
X48525000Y-96433412D01*
X48585520Y-96408344D01*
X48753400Y-96296170D01*
X48896170Y-96153400D01*
X49008344Y-95985520D01*
X49085610Y-95798982D01*
X49125000Y-95600954D01*
X49125000Y-95399046D01*
X49085610Y-95201018D01*
X49008344Y-95014480D01*
X48898442Y-94850000D01*
X49008344Y-94685520D01*
X49085610Y-94498982D01*
X49125000Y-94300954D01*
X49125000Y-94099046D01*
X49085610Y-93901018D01*
X49008344Y-93714480D01*
X48896170Y-93546600D01*
X48753400Y-93403830D01*
X48585520Y-93291656D01*
X48398982Y-93214390D01*
X48200954Y-93175000D01*
X47999046Y-93175000D01*
X47801018Y-93214390D01*
X47614480Y-93291656D01*
X47446600Y-93403830D01*
X47303830Y-93546600D01*
X47191656Y-93714480D01*
X47114390Y-93901018D01*
X47075000Y-94099046D01*
X47075000Y-94199696D01*
X46912523Y-94362173D01*
X46884869Y-94384868D01*
X46794269Y-94495263D01*
X46726947Y-94621212D01*
X46685491Y-94757875D01*
X46675000Y-94864393D01*
X46675000Y-94864403D01*
X46671494Y-94900000D01*
X46675000Y-94935597D01*
X46675000Y-95135606D01*
X46675001Y-95135616D01*
X46675000Y-96364393D01*
X46675000Y-96364394D01*
X46675001Y-101308275D01*
X46025000Y-100658275D01*
X46025000Y-95340513D01*
X46028990Y-95300000D01*
X46025000Y-95259487D01*
X46025000Y-95259479D01*
X46013062Y-95138272D01*
X45965888Y-94982759D01*
X45889281Y-94839437D01*
X45786185Y-94713815D01*
X45754709Y-94687983D01*
X45414876Y-94348151D01*
X45385610Y-94201018D01*
X45308344Y-94014480D01*
X45196170Y-93846600D01*
X45053400Y-93703830D01*
X44885520Y-93591656D01*
X44698982Y-93514390D01*
X44500954Y-93475000D01*
X44299046Y-93475000D01*
X44101018Y-93514390D01*
X43914480Y-93591656D01*
X43789747Y-93675000D01*
X35024570Y-93675000D01*
X34953400Y-93603830D01*
X34785520Y-93491656D01*
X34598982Y-93414390D01*
X34400954Y-93375000D01*
X34199046Y-93375000D01*
X34025000Y-93409620D01*
X34025000Y-92600304D01*
X34725304Y-91900000D01*
X38271976Y-91900000D01*
X38271976Y-92900000D01*
X38284043Y-93022521D01*
X38319781Y-93140334D01*
X38377817Y-93248911D01*
X38455920Y-93344080D01*
X38551089Y-93422183D01*
X38659666Y-93480219D01*
X38777479Y-93515957D01*
X38900000Y-93528024D01*
X39900000Y-93528024D01*
X40022521Y-93515957D01*
X40140334Y-93480219D01*
X40248911Y-93422183D01*
X40344080Y-93344080D01*
X40400000Y-93275941D01*
X40455920Y-93344080D01*
X40551089Y-93422183D01*
X40659666Y-93480219D01*
X40777479Y-93515957D01*
X40900000Y-93528024D01*
X41900000Y-93528024D01*
X42022521Y-93515957D01*
X42140334Y-93480219D01*
X42248911Y-93422183D01*
X42344080Y-93344080D01*
X42422183Y-93248911D01*
X42480219Y-93140334D01*
X42515957Y-93022521D01*
X42528024Y-92900000D01*
X42528024Y-91900000D01*
X42515957Y-91777479D01*
X42480219Y-91659666D01*
X42422183Y-91551089D01*
X42344080Y-91455920D01*
X42248911Y-91377817D01*
X42140334Y-91319781D01*
X42022521Y-91284043D01*
X41900000Y-91271976D01*
X40900000Y-91271976D01*
X40777479Y-91284043D01*
X40659666Y-91319781D01*
X40551089Y-91377817D01*
X40455920Y-91455920D01*
X40400000Y-91524059D01*
X40344080Y-91455920D01*
X40248911Y-91377817D01*
X40140334Y-91319781D01*
X40022521Y-91284043D01*
X39900000Y-91271976D01*
X38900000Y-91271976D01*
X38777479Y-91284043D01*
X38659666Y-91319781D01*
X38551089Y-91377817D01*
X38455920Y-91455920D01*
X38377817Y-91551089D01*
X38319781Y-91659666D01*
X38284043Y-91777479D01*
X38271976Y-91900000D01*
X34725304Y-91900000D01*
X48000305Y-78625000D01*
X51444403Y-78625000D01*
X51477464Y-78628256D01*
X51446343Y-78730850D01*
X51417864Y-79020000D01*
X51446343Y-79309150D01*
X51530685Y-79587189D01*
X51667649Y-79843431D01*
X51851972Y-80068028D01*
X52076569Y-80252351D01*
X52208404Y-80322818D01*
X52050000Y-80321976D01*
X51927479Y-80334043D01*
X51809666Y-80369781D01*
X51701089Y-80427817D01*
X51605920Y-80505920D01*
X51527817Y-80601089D01*
X51469781Y-80709666D01*
X51434043Y-80827479D01*
X51421976Y-80950000D01*
X51425000Y-81518750D01*
X51581250Y-81675000D01*
X52775000Y-81675000D01*
X52775000Y-81655000D01*
X53025000Y-81655000D01*
X53025000Y-81675000D01*
X54218750Y-81675000D01*
X54375000Y-81518750D01*
X54378024Y-80950000D01*
X54365957Y-80827479D01*
X54330219Y-80709666D01*
X54272183Y-80601089D01*
X54194080Y-80505920D01*
X54098911Y-80427817D01*
X53990334Y-80369781D01*
X53872521Y-80334043D01*
X53750000Y-80321976D01*
X53591596Y-80322818D01*
X53723431Y-80252351D01*
X53948028Y-80068028D01*
X54132351Y-79843431D01*
X54269315Y-79587189D01*
X54353657Y-79309150D01*
X54382136Y-79020000D01*
X54353657Y-78730850D01*
X54269315Y-78452811D01*
X54132351Y-78196569D01*
X53948028Y-77971972D01*
X53723431Y-77787649D01*
X53652995Y-77750000D01*
X53723431Y-77712351D01*
X53948028Y-77528028D01*
X54132351Y-77303431D01*
X54269315Y-77047189D01*
X54353657Y-76769150D01*
X54382136Y-76480000D01*
X54357021Y-76225000D01*
X54500954Y-76225000D01*
X54698982Y-76185610D01*
X54885520Y-76108344D01*
X54975000Y-76048555D01*
X54975001Y-84369008D01*
X54975001Y-84369008D01*
G37*
X54975001Y-84369008D02*
X54971710Y-84371709D01*
X54843621Y-84527785D01*
X54748443Y-84705852D01*
X54689832Y-84899065D01*
X54675001Y-85049649D01*
X54675000Y-88395000D01*
X53966927Y-88395000D01*
X53948028Y-88371972D01*
X53723431Y-88187649D01*
X53652995Y-88150000D01*
X53723431Y-88112351D01*
X53948028Y-87928028D01*
X54132351Y-87703431D01*
X54269315Y-87447189D01*
X54353657Y-87169150D01*
X54382136Y-86880000D01*
X54353657Y-86590850D01*
X54269315Y-86312811D01*
X54132351Y-86056569D01*
X53948028Y-85831972D01*
X53723431Y-85647649D01*
X53652995Y-85610000D01*
X53723431Y-85572351D01*
X53948028Y-85388028D01*
X54132351Y-85163431D01*
X54269315Y-84907189D01*
X54353657Y-84629150D01*
X54382136Y-84340000D01*
X54353657Y-84050850D01*
X54269315Y-83772811D01*
X54132351Y-83516569D01*
X53948028Y-83291972D01*
X53904506Y-83256254D01*
X53990334Y-83230219D01*
X54098911Y-83172183D01*
X54194080Y-83094080D01*
X54272183Y-82998911D01*
X54330219Y-82890334D01*
X54365957Y-82772521D01*
X54378024Y-82650000D01*
X54375000Y-82081250D01*
X54218750Y-81925000D01*
X53025000Y-81925000D01*
X53025000Y-81945000D01*
X52775000Y-81945000D01*
X52775000Y-81925000D01*
X51581250Y-81925000D01*
X51425000Y-82081250D01*
X51421976Y-82650000D01*
X51434043Y-82772521D01*
X51469781Y-82890334D01*
X51527817Y-82998911D01*
X51605920Y-83094080D01*
X51701089Y-83172183D01*
X51809666Y-83230219D01*
X51895494Y-83256254D01*
X51851972Y-83291972D01*
X51667649Y-83516569D01*
X51530685Y-83772811D01*
X51446343Y-84050850D01*
X51417864Y-84340000D01*
X51446343Y-84629150D01*
X51530685Y-84907189D01*
X51667649Y-85163431D01*
X51851972Y-85388028D01*
X52076569Y-85572351D01*
X52147005Y-85610000D01*
X52076569Y-85647649D01*
X51851972Y-85831972D01*
X51667649Y-86056569D01*
X51530685Y-86312811D01*
X51446343Y-86590850D01*
X51417864Y-86880000D01*
X51446343Y-87169150D01*
X51530685Y-87447189D01*
X51667649Y-87703431D01*
X51851972Y-87928028D01*
X52076569Y-88112351D01*
X52147005Y-88150000D01*
X52076569Y-88187649D01*
X51851972Y-88371972D01*
X51667649Y-88596569D01*
X51530685Y-88852811D01*
X51446343Y-89130850D01*
X51417864Y-89420000D01*
X51446343Y-89709150D01*
X51526988Y-89975000D01*
X51410253Y-89975000D01*
X51285520Y-89891656D01*
X51098982Y-89814390D01*
X50900954Y-89775000D01*
X50699046Y-89775000D01*
X50501018Y-89814390D01*
X50314480Y-89891656D01*
X50146600Y-90003830D01*
X50003830Y-90146600D01*
X49891656Y-90314480D01*
X49814390Y-90501018D01*
X49775000Y-90699046D01*
X49775000Y-90900954D01*
X49814390Y-91098982D01*
X49891656Y-91285520D01*
X50003830Y-91453400D01*
X50146600Y-91596170D01*
X50314480Y-91708344D01*
X50501018Y-91785610D01*
X50699046Y-91825000D01*
X50900954Y-91825000D01*
X51098982Y-91785610D01*
X51285520Y-91708344D01*
X51410253Y-91625000D01*
X51423438Y-91625000D01*
X51425000Y-91918750D01*
X51581250Y-92075000D01*
X52775000Y-92075000D01*
X52775000Y-92055000D01*
X53025000Y-92055000D01*
X53025000Y-92075000D01*
X53045000Y-92075000D01*
X53045000Y-92325000D01*
X53025000Y-92325000D01*
X53025000Y-92345000D01*
X52775000Y-92345000D01*
X52775000Y-92325000D01*
X51581250Y-92325000D01*
X51425000Y-92481250D01*
X51421976Y-93050000D01*
X51434043Y-93172521D01*
X51469781Y-93290334D01*
X51527817Y-93398911D01*
X51605920Y-93494080D01*
X51701089Y-93572183D01*
X51809666Y-93630219D01*
X51895494Y-93656254D01*
X51851972Y-93691972D01*
X51667649Y-93916569D01*
X51530685Y-94172811D01*
X51446343Y-94450850D01*
X51417864Y-94740000D01*
X51446343Y-95029150D01*
X51530685Y-95307189D01*
X51667649Y-95563431D01*
X51851972Y-95788028D01*
X52076569Y-95972351D01*
X52147005Y-96010000D01*
X52076569Y-96047649D01*
X51851972Y-96231972D01*
X51667649Y-96456569D01*
X51530685Y-96712811D01*
X51446343Y-96990850D01*
X51417864Y-97280000D01*
X51446343Y-97569150D01*
X51478742Y-97675954D01*
X50612530Y-98542166D01*
X50612525Y-98542170D01*
X49812523Y-99342173D01*
X49784869Y-99364868D01*
X49762173Y-99392523D01*
X49762170Y-99392526D01*
X49694269Y-99475264D01*
X49626947Y-99601213D01*
X49603813Y-99677479D01*
X49592791Y-99713815D01*
X49585492Y-99737876D01*
X49571494Y-99880000D01*
X49575001Y-99915607D01*
X49575001Y-102049696D01*
X48525000Y-100999696D01*
X48525000Y-96433412D01*
X48585520Y-96408344D01*
X48753400Y-96296170D01*
X48896170Y-96153400D01*
X49008344Y-95985520D01*
X49085610Y-95798982D01*
X49125000Y-95600954D01*
X49125000Y-95399046D01*
X49085610Y-95201018D01*
X49008344Y-95014480D01*
X48898442Y-94850000D01*
X49008344Y-94685520D01*
X49085610Y-94498982D01*
X49125000Y-94300954D01*
X49125000Y-94099046D01*
X49085610Y-93901018D01*
X49008344Y-93714480D01*
X48896170Y-93546600D01*
X48753400Y-93403830D01*
X48585520Y-93291656D01*
X48398982Y-93214390D01*
X48200954Y-93175000D01*
X47999046Y-93175000D01*
X47801018Y-93214390D01*
X47614480Y-93291656D01*
X47446600Y-93403830D01*
X47303830Y-93546600D01*
X47191656Y-93714480D01*
X47114390Y-93901018D01*
X47075000Y-94099046D01*
X47075000Y-94199696D01*
X46912523Y-94362173D01*
X46884869Y-94384868D01*
X46794269Y-94495263D01*
X46726947Y-94621212D01*
X46685491Y-94757875D01*
X46675000Y-94864393D01*
X46675000Y-94864403D01*
X46671494Y-94900000D01*
X46675000Y-94935597D01*
X46675000Y-95135606D01*
X46675001Y-95135616D01*
X46675000Y-96364393D01*
X46675000Y-96364394D01*
X46675001Y-101308275D01*
X46025000Y-100658275D01*
X46025000Y-95340513D01*
X46028990Y-95300000D01*
X46025000Y-95259487D01*
X46025000Y-95259479D01*
X46013062Y-95138272D01*
X45965888Y-94982759D01*
X45889281Y-94839437D01*
X45786185Y-94713815D01*
X45754709Y-94687983D01*
X45414876Y-94348151D01*
X45385610Y-94201018D01*
X45308344Y-94014480D01*
X45196170Y-93846600D01*
X45053400Y-93703830D01*
X44885520Y-93591656D01*
X44698982Y-93514390D01*
X44500954Y-93475000D01*
X44299046Y-93475000D01*
X44101018Y-93514390D01*
X43914480Y-93591656D01*
X43789747Y-93675000D01*
X35024570Y-93675000D01*
X34953400Y-93603830D01*
X34785520Y-93491656D01*
X34598982Y-93414390D01*
X34400954Y-93375000D01*
X34199046Y-93375000D01*
X34025000Y-93409620D01*
X34025000Y-92600304D01*
X34725304Y-91900000D01*
X38271976Y-91900000D01*
X38271976Y-92900000D01*
X38284043Y-93022521D01*
X38319781Y-93140334D01*
X38377817Y-93248911D01*
X38455920Y-93344080D01*
X38551089Y-93422183D01*
X38659666Y-93480219D01*
X38777479Y-93515957D01*
X38900000Y-93528024D01*
X39900000Y-93528024D01*
X40022521Y-93515957D01*
X40140334Y-93480219D01*
X40248911Y-93422183D01*
X40344080Y-93344080D01*
X40400000Y-93275941D01*
X40455920Y-93344080D01*
X40551089Y-93422183D01*
X40659666Y-93480219D01*
X40777479Y-93515957D01*
X40900000Y-93528024D01*
X41900000Y-93528024D01*
X42022521Y-93515957D01*
X42140334Y-93480219D01*
X42248911Y-93422183D01*
X42344080Y-93344080D01*
X42422183Y-93248911D01*
X42480219Y-93140334D01*
X42515957Y-93022521D01*
X42528024Y-92900000D01*
X42528024Y-91900000D01*
X42515957Y-91777479D01*
X42480219Y-91659666D01*
X42422183Y-91551089D01*
X42344080Y-91455920D01*
X42248911Y-91377817D01*
X42140334Y-91319781D01*
X42022521Y-91284043D01*
X41900000Y-91271976D01*
X40900000Y-91271976D01*
X40777479Y-91284043D01*
X40659666Y-91319781D01*
X40551089Y-91377817D01*
X40455920Y-91455920D01*
X40400000Y-91524059D01*
X40344080Y-91455920D01*
X40248911Y-91377817D01*
X40140334Y-91319781D01*
X40022521Y-91284043D01*
X39900000Y-91271976D01*
X38900000Y-91271976D01*
X38777479Y-91284043D01*
X38659666Y-91319781D01*
X38551089Y-91377817D01*
X38455920Y-91455920D01*
X38377817Y-91551089D01*
X38319781Y-91659666D01*
X38284043Y-91777479D01*
X38271976Y-91900000D01*
X34725304Y-91900000D01*
X48000305Y-78625000D01*
X51444403Y-78625000D01*
X51477464Y-78628256D01*
X51446343Y-78730850D01*
X51417864Y-79020000D01*
X51446343Y-79309150D01*
X51530685Y-79587189D01*
X51667649Y-79843431D01*
X51851972Y-80068028D01*
X52076569Y-80252351D01*
X52208404Y-80322818D01*
X52050000Y-80321976D01*
X51927479Y-80334043D01*
X51809666Y-80369781D01*
X51701089Y-80427817D01*
X51605920Y-80505920D01*
X51527817Y-80601089D01*
X51469781Y-80709666D01*
X51434043Y-80827479D01*
X51421976Y-80950000D01*
X51425000Y-81518750D01*
X51581250Y-81675000D01*
X52775000Y-81675000D01*
X52775000Y-81655000D01*
X53025000Y-81655000D01*
X53025000Y-81675000D01*
X54218750Y-81675000D01*
X54375000Y-81518750D01*
X54378024Y-80950000D01*
X54365957Y-80827479D01*
X54330219Y-80709666D01*
X54272183Y-80601089D01*
X54194080Y-80505920D01*
X54098911Y-80427817D01*
X53990334Y-80369781D01*
X53872521Y-80334043D01*
X53750000Y-80321976D01*
X53591596Y-80322818D01*
X53723431Y-80252351D01*
X53948028Y-80068028D01*
X54132351Y-79843431D01*
X54269315Y-79587189D01*
X54353657Y-79309150D01*
X54382136Y-79020000D01*
X54353657Y-78730850D01*
X54269315Y-78452811D01*
X54132351Y-78196569D01*
X53948028Y-77971972D01*
X53723431Y-77787649D01*
X53652995Y-77750000D01*
X53723431Y-77712351D01*
X53948028Y-77528028D01*
X54132351Y-77303431D01*
X54269315Y-77047189D01*
X54353657Y-76769150D01*
X54382136Y-76480000D01*
X54357021Y-76225000D01*
X54500954Y-76225000D01*
X54698982Y-76185610D01*
X54885520Y-76108344D01*
X54975000Y-76048555D01*
X54975001Y-84369008D01*
M02*
