G04 #@! TF.GenerationSoftware,KiCad,Pcbnew,(5.1.2)-2*
G04 #@! TF.CreationDate,2019-07-11T02:00:36+02:00*
G04 #@! TF.ProjectId,ATM32U4_backpack,41544d33-3255-4345-9f62-61636b706163,rev?*
G04 #@! TF.SameCoordinates,Original*
G04 #@! TF.FileFunction,Soldermask,Top*
G04 #@! TF.FilePolarity,Negative*
%FSLAX46Y46*%
G04 Gerber Fmt 4.6, Leading zero omitted, Abs format (unit mm)*
G04 Created by KiCad (PCBNEW (5.1.2)-2) date 2019-07-11 02:00:36*
%MOMM*%
%LPD*%
G04 APERTURE LIST*
%ADD10C,0.010000*%
%ADD11C,0.100000*%
G04 APERTURE END LIST*
D10*
G36*
X34906148Y-74035709D02*
G01*
X35057675Y-74185617D01*
X35095591Y-74286409D01*
X35090035Y-74524006D01*
X34969597Y-74683970D01*
X34780419Y-74741067D01*
X34568640Y-74670063D01*
X34499714Y-74612285D01*
X34387686Y-74468433D01*
X34394031Y-74335259D01*
X34520089Y-74151290D01*
X34709649Y-74020204D01*
X34906148Y-74035709D01*
X34906148Y-74035709D01*
G37*
X34906148Y-74035709D02*
X35057675Y-74185617D01*
X35095591Y-74286409D01*
X35090035Y-74524006D01*
X34969597Y-74683970D01*
X34780419Y-74741067D01*
X34568640Y-74670063D01*
X34499714Y-74612285D01*
X34387686Y-74468433D01*
X34394031Y-74335259D01*
X34520089Y-74151290D01*
X34709649Y-74020204D01*
X34906148Y-74035709D01*
G36*
X33781477Y-74046842D02*
G01*
X33932006Y-74190593D01*
X34022698Y-74344418D01*
X34028000Y-74379044D01*
X33964510Y-74506230D01*
X33821001Y-74647052D01*
X33667909Y-74737457D01*
X33625214Y-74745333D01*
X33495490Y-74690710D01*
X33399047Y-74612285D01*
X33291094Y-74456386D01*
X33266000Y-74364333D01*
X33331721Y-74200494D01*
X33480867Y-74049034D01*
X33639925Y-73983333D01*
X33781477Y-74046842D01*
X33781477Y-74046842D01*
G37*
X33781477Y-74046842D02*
X33932006Y-74190593D01*
X34022698Y-74344418D01*
X34028000Y-74379044D01*
X33964510Y-74506230D01*
X33821001Y-74647052D01*
X33667909Y-74737457D01*
X33625214Y-74745333D01*
X33495490Y-74690710D01*
X33399047Y-74612285D01*
X33291094Y-74456386D01*
X33266000Y-74364333D01*
X33331721Y-74200494D01*
X33480867Y-74049034D01*
X33639925Y-73983333D01*
X33781477Y-74046842D01*
G36*
X41487919Y-71512640D02*
G01*
X42433817Y-71825473D01*
X42717897Y-71950277D01*
X43361726Y-72313902D01*
X43863271Y-72747037D01*
X44241455Y-73267376D01*
X44349105Y-73475333D01*
X44442579Y-73687867D01*
X44505184Y-73883714D01*
X44542999Y-74105008D01*
X44562106Y-74393888D01*
X44568583Y-74792488D01*
X44569000Y-74999333D01*
X44556755Y-75590491D01*
X44509333Y-76075422D01*
X44410705Y-76485255D01*
X44244844Y-76851121D01*
X43995719Y-77204150D01*
X43647301Y-77575471D01*
X43183563Y-77996215D01*
X42902718Y-78235456D01*
X42624360Y-78501906D01*
X42383992Y-78788996D01*
X42249370Y-79003020D01*
X42123194Y-79351007D01*
X42076915Y-79680932D01*
X42112718Y-79946732D01*
X42198333Y-80079333D01*
X42314614Y-80217107D01*
X42270273Y-80302538D01*
X42066241Y-80334024D01*
X42050167Y-80334160D01*
X41817125Y-80370896D01*
X41517622Y-80464176D01*
X41330500Y-80541932D01*
X40886000Y-80748876D01*
X40886000Y-80529447D01*
X40877846Y-80405307D01*
X40825923Y-80346079D01*
X40689037Y-80337194D01*
X40425998Y-80364083D01*
X40420333Y-80364749D01*
X40114506Y-80382497D01*
X39961604Y-80350446D01*
X39955241Y-80276196D01*
X40089036Y-80167347D01*
X40356602Y-80031499D01*
X40751557Y-79876252D01*
X40863331Y-79837379D01*
X41521000Y-79613666D01*
X41546269Y-79082089D01*
X41553571Y-78781290D01*
X41527955Y-78588641D01*
X41451626Y-78443637D01*
X41314247Y-78293221D01*
X41046932Y-78102804D01*
X40799540Y-78070999D01*
X40584188Y-78187266D01*
X40412992Y-78441062D01*
X40298071Y-78821848D01*
X40254605Y-79215035D01*
X40233200Y-79698333D01*
X39908198Y-79751171D01*
X39562159Y-79885425D01*
X39388352Y-80047504D01*
X39193508Y-80291000D01*
X39193087Y-80010127D01*
X39179886Y-79822971D01*
X39118368Y-79764741D01*
X39002167Y-79787025D01*
X38797207Y-79887971D01*
X38621167Y-80019156D01*
X38430667Y-80193517D01*
X38430667Y-80015921D01*
X38507019Y-79766871D01*
X38708837Y-79525469D01*
X38995265Y-79331145D01*
X39232423Y-79242147D01*
X39414137Y-79193428D01*
X39535376Y-79134764D01*
X39615647Y-79032372D01*
X39674460Y-78852469D01*
X39731324Y-78561271D01*
X39775594Y-78301541D01*
X39812082Y-77986404D01*
X39792707Y-77811178D01*
X39771301Y-77784660D01*
X39665110Y-77754500D01*
X39419487Y-77701391D01*
X39061940Y-77630762D01*
X38619976Y-77548042D01*
X38121102Y-77458660D01*
X38106883Y-77456167D01*
X37164163Y-77281097D01*
X36372947Y-77111267D01*
X35715737Y-76941284D01*
X35175039Y-76765755D01*
X34733355Y-76579289D01*
X34373190Y-76376494D01*
X34197333Y-76251269D01*
X34001039Y-76055169D01*
X33812215Y-75796924D01*
X33667981Y-75535106D01*
X33605460Y-75328285D01*
X33605100Y-75316833D01*
X33543216Y-75198638D01*
X33384533Y-75168666D01*
X33153633Y-75095691D01*
X32886937Y-74890870D01*
X32865963Y-74870230D01*
X32690051Y-74679764D01*
X32608506Y-74521632D01*
X32595587Y-74330024D01*
X32702813Y-74330024D01*
X32803708Y-74633192D01*
X32989163Y-74872767D01*
X33230426Y-75026685D01*
X33498748Y-75072883D01*
X33765377Y-74989295D01*
X33892341Y-74888689D01*
X34047001Y-74714080D01*
X34142492Y-74571189D01*
X34197585Y-74491335D01*
X34252174Y-74571189D01*
X34429948Y-74821103D01*
X34681726Y-75007797D01*
X34943005Y-75083919D01*
X34950763Y-75084000D01*
X35256393Y-75012585D01*
X35488308Y-74823742D01*
X35639752Y-74555575D01*
X35703974Y-74246186D01*
X35674220Y-73933679D01*
X35543737Y-73656155D01*
X35305771Y-73451719D01*
X35245131Y-73423141D01*
X34923880Y-73357522D01*
X34634827Y-73450749D01*
X34366296Y-73701843D01*
X34224116Y-73844384D01*
X34142985Y-73848853D01*
X34136833Y-73836299D01*
X33962030Y-73569682D01*
X33690309Y-73382756D01*
X33556577Y-73341087D01*
X33286300Y-73366958D01*
X33021085Y-73517878D01*
X32810862Y-73755613D01*
X32715228Y-73985328D01*
X32702813Y-74330024D01*
X32595587Y-74330024D01*
X32594912Y-74320027D01*
X32609552Y-74134425D01*
X32660090Y-73832176D01*
X32763069Y-73622132D01*
X32917791Y-73459195D01*
X33147827Y-73312143D01*
X33408488Y-73228325D01*
X33645057Y-73217069D01*
X33802815Y-73287708D01*
X33816323Y-73305982D01*
X33906317Y-73307174D01*
X34081535Y-73211292D01*
X34210841Y-73115482D01*
X34357584Y-73001958D01*
X34489168Y-72923600D01*
X34641881Y-72872300D01*
X34852015Y-72839947D01*
X35155860Y-72818432D01*
X35589706Y-72799645D01*
X35631565Y-72798000D01*
X36710087Y-72755666D01*
X37168210Y-72405289D01*
X37957482Y-71900826D01*
X38790098Y-71558836D01*
X39660049Y-71379814D01*
X40561326Y-71364251D01*
X41487919Y-71512640D01*
X41487919Y-71512640D01*
G37*
X41487919Y-71512640D02*
X42433817Y-71825473D01*
X42717897Y-71950277D01*
X43361726Y-72313902D01*
X43863271Y-72747037D01*
X44241455Y-73267376D01*
X44349105Y-73475333D01*
X44442579Y-73687867D01*
X44505184Y-73883714D01*
X44542999Y-74105008D01*
X44562106Y-74393888D01*
X44568583Y-74792488D01*
X44569000Y-74999333D01*
X44556755Y-75590491D01*
X44509333Y-76075422D01*
X44410705Y-76485255D01*
X44244844Y-76851121D01*
X43995719Y-77204150D01*
X43647301Y-77575471D01*
X43183563Y-77996215D01*
X42902718Y-78235456D01*
X42624360Y-78501906D01*
X42383992Y-78788996D01*
X42249370Y-79003020D01*
X42123194Y-79351007D01*
X42076915Y-79680932D01*
X42112718Y-79946732D01*
X42198333Y-80079333D01*
X42314614Y-80217107D01*
X42270273Y-80302538D01*
X42066241Y-80334024D01*
X42050167Y-80334160D01*
X41817125Y-80370896D01*
X41517622Y-80464176D01*
X41330500Y-80541932D01*
X40886000Y-80748876D01*
X40886000Y-80529447D01*
X40877846Y-80405307D01*
X40825923Y-80346079D01*
X40689037Y-80337194D01*
X40425998Y-80364083D01*
X40420333Y-80364749D01*
X40114506Y-80382497D01*
X39961604Y-80350446D01*
X39955241Y-80276196D01*
X40089036Y-80167347D01*
X40356602Y-80031499D01*
X40751557Y-79876252D01*
X40863331Y-79837379D01*
X41521000Y-79613666D01*
X41546269Y-79082089D01*
X41553571Y-78781290D01*
X41527955Y-78588641D01*
X41451626Y-78443637D01*
X41314247Y-78293221D01*
X41046932Y-78102804D01*
X40799540Y-78070999D01*
X40584188Y-78187266D01*
X40412992Y-78441062D01*
X40298071Y-78821848D01*
X40254605Y-79215035D01*
X40233200Y-79698333D01*
X39908198Y-79751171D01*
X39562159Y-79885425D01*
X39388352Y-80047504D01*
X39193508Y-80291000D01*
X39193087Y-80010127D01*
X39179886Y-79822971D01*
X39118368Y-79764741D01*
X39002167Y-79787025D01*
X38797207Y-79887971D01*
X38621167Y-80019156D01*
X38430667Y-80193517D01*
X38430667Y-80015921D01*
X38507019Y-79766871D01*
X38708837Y-79525469D01*
X38995265Y-79331145D01*
X39232423Y-79242147D01*
X39414137Y-79193428D01*
X39535376Y-79134764D01*
X39615647Y-79032372D01*
X39674460Y-78852469D01*
X39731324Y-78561271D01*
X39775594Y-78301541D01*
X39812082Y-77986404D01*
X39792707Y-77811178D01*
X39771301Y-77784660D01*
X39665110Y-77754500D01*
X39419487Y-77701391D01*
X39061940Y-77630762D01*
X38619976Y-77548042D01*
X38121102Y-77458660D01*
X38106883Y-77456167D01*
X37164163Y-77281097D01*
X36372947Y-77111267D01*
X35715737Y-76941284D01*
X35175039Y-76765755D01*
X34733355Y-76579289D01*
X34373190Y-76376494D01*
X34197333Y-76251269D01*
X34001039Y-76055169D01*
X33812215Y-75796924D01*
X33667981Y-75535106D01*
X33605460Y-75328285D01*
X33605100Y-75316833D01*
X33543216Y-75198638D01*
X33384533Y-75168666D01*
X33153633Y-75095691D01*
X32886937Y-74890870D01*
X32865963Y-74870230D01*
X32690051Y-74679764D01*
X32608506Y-74521632D01*
X32595587Y-74330024D01*
X32702813Y-74330024D01*
X32803708Y-74633192D01*
X32989163Y-74872767D01*
X33230426Y-75026685D01*
X33498748Y-75072883D01*
X33765377Y-74989295D01*
X33892341Y-74888689D01*
X34047001Y-74714080D01*
X34142492Y-74571189D01*
X34197585Y-74491335D01*
X34252174Y-74571189D01*
X34429948Y-74821103D01*
X34681726Y-75007797D01*
X34943005Y-75083919D01*
X34950763Y-75084000D01*
X35256393Y-75012585D01*
X35488308Y-74823742D01*
X35639752Y-74555575D01*
X35703974Y-74246186D01*
X35674220Y-73933679D01*
X35543737Y-73656155D01*
X35305771Y-73451719D01*
X35245131Y-73423141D01*
X34923880Y-73357522D01*
X34634827Y-73450749D01*
X34366296Y-73701843D01*
X34224116Y-73844384D01*
X34142985Y-73848853D01*
X34136833Y-73836299D01*
X33962030Y-73569682D01*
X33690309Y-73382756D01*
X33556577Y-73341087D01*
X33286300Y-73366958D01*
X33021085Y-73517878D01*
X32810862Y-73755613D01*
X32715228Y-73985328D01*
X32702813Y-74330024D01*
X32595587Y-74330024D01*
X32594912Y-74320027D01*
X32609552Y-74134425D01*
X32660090Y-73832176D01*
X32763069Y-73622132D01*
X32917791Y-73459195D01*
X33147827Y-73312143D01*
X33408488Y-73228325D01*
X33645057Y-73217069D01*
X33802815Y-73287708D01*
X33816323Y-73305982D01*
X33906317Y-73307174D01*
X34081535Y-73211292D01*
X34210841Y-73115482D01*
X34357584Y-73001958D01*
X34489168Y-72923600D01*
X34641881Y-72872300D01*
X34852015Y-72839947D01*
X35155860Y-72818432D01*
X35589706Y-72799645D01*
X35631565Y-72798000D01*
X36710087Y-72755666D01*
X37168210Y-72405289D01*
X37957482Y-71900826D01*
X38790098Y-71558836D01*
X39660049Y-71379814D01*
X40561326Y-71364251D01*
X41487919Y-71512640D01*
D11*
G36*
X37891000Y-117874001D02*
G01*
X37893402Y-117898387D01*
X37900515Y-117921836D01*
X37912066Y-117943447D01*
X37927611Y-117962389D01*
X37946553Y-117977934D01*
X37968164Y-117989485D01*
X37991613Y-117996598D01*
X38015999Y-117999000D01*
X38788500Y-117999000D01*
X38788500Y-120001000D01*
X34841500Y-120001000D01*
X34841500Y-117999000D01*
X36189001Y-117999000D01*
X36213387Y-117996598D01*
X36236836Y-117989485D01*
X36258447Y-117977934D01*
X36277389Y-117962389D01*
X36292934Y-117943447D01*
X36304485Y-117921836D01*
X36311598Y-117898387D01*
X36314000Y-117874001D01*
X36314000Y-117205999D01*
X36311598Y-117181613D01*
X36304485Y-117158164D01*
X36292934Y-117136553D01*
X36277389Y-117117611D01*
X36258447Y-117102066D01*
X36236836Y-117090515D01*
X36213387Y-117083402D01*
X36189001Y-117081000D01*
X33090999Y-117081000D01*
X33066613Y-117083402D01*
X33043164Y-117090515D01*
X33021553Y-117102066D01*
X33002611Y-117117611D01*
X32987066Y-117136553D01*
X32975515Y-117158164D01*
X32968402Y-117181613D01*
X32966000Y-117205999D01*
X32966000Y-117874001D01*
X32968402Y-117898387D01*
X32975515Y-117921836D01*
X32987066Y-117943447D01*
X33002611Y-117962389D01*
X33021553Y-117977934D01*
X33043164Y-117989485D01*
X33066613Y-117996598D01*
X33090999Y-117999000D01*
X34438500Y-117999000D01*
X34438500Y-120001000D01*
X30491500Y-120001000D01*
X30491500Y-117999000D01*
X31264001Y-117999000D01*
X31288387Y-117996598D01*
X31311836Y-117989485D01*
X31333447Y-117977934D01*
X31352389Y-117962389D01*
X31367934Y-117943447D01*
X31379485Y-117921836D01*
X31386598Y-117898387D01*
X31389000Y-117874001D01*
X31389000Y-115599000D01*
X37891000Y-115599000D01*
X37891000Y-117874001D01*
X37891000Y-117874001D01*
G37*
G36*
X50410442Y-114685518D02*
G01*
X50476627Y-114692037D01*
X50646466Y-114743557D01*
X50802991Y-114827222D01*
X50838729Y-114856552D01*
X50940186Y-114939814D01*
X51023448Y-115041271D01*
X51052778Y-115077009D01*
X51136443Y-115233534D01*
X51187963Y-115403373D01*
X51205359Y-115580000D01*
X51187963Y-115756627D01*
X51136443Y-115926466D01*
X51052778Y-116082991D01*
X51023448Y-116118729D01*
X50940186Y-116220186D01*
X50838729Y-116303448D01*
X50802991Y-116332778D01*
X50646466Y-116416443D01*
X50476627Y-116467963D01*
X50410442Y-116474482D01*
X50344260Y-116481000D01*
X50255740Y-116481000D01*
X50189558Y-116474482D01*
X50123373Y-116467963D01*
X49953534Y-116416443D01*
X49797009Y-116332778D01*
X49761271Y-116303448D01*
X49659814Y-116220186D01*
X49576552Y-116118729D01*
X49547222Y-116082991D01*
X49463557Y-115926466D01*
X49412037Y-115756627D01*
X49394641Y-115580000D01*
X49412037Y-115403373D01*
X49463557Y-115233534D01*
X49547222Y-115077009D01*
X49576552Y-115041271D01*
X49659814Y-114939814D01*
X49761271Y-114856552D01*
X49797009Y-114827222D01*
X49953534Y-114743557D01*
X50123373Y-114692037D01*
X50189558Y-114685518D01*
X50255740Y-114679000D01*
X50344260Y-114679000D01*
X50410442Y-114685518D01*
X50410442Y-114685518D01*
G37*
G36*
X52950442Y-114685518D02*
G01*
X53016627Y-114692037D01*
X53186466Y-114743557D01*
X53342991Y-114827222D01*
X53378729Y-114856552D01*
X53480186Y-114939814D01*
X53563448Y-115041271D01*
X53592778Y-115077009D01*
X53676443Y-115233534D01*
X53727963Y-115403373D01*
X53745359Y-115580000D01*
X53727963Y-115756627D01*
X53676443Y-115926466D01*
X53592778Y-116082991D01*
X53563448Y-116118729D01*
X53480186Y-116220186D01*
X53378729Y-116303448D01*
X53342991Y-116332778D01*
X53186466Y-116416443D01*
X53016627Y-116467963D01*
X52950442Y-116474482D01*
X52884260Y-116481000D01*
X52795740Y-116481000D01*
X52729558Y-116474482D01*
X52663373Y-116467963D01*
X52493534Y-116416443D01*
X52337009Y-116332778D01*
X52301271Y-116303448D01*
X52199814Y-116220186D01*
X52116552Y-116118729D01*
X52087222Y-116082991D01*
X52003557Y-115926466D01*
X51952037Y-115756627D01*
X51934641Y-115580000D01*
X51952037Y-115403373D01*
X52003557Y-115233534D01*
X52087222Y-115077009D01*
X52116552Y-115041271D01*
X52199814Y-114939814D01*
X52301271Y-114856552D01*
X52337009Y-114827222D01*
X52493534Y-114743557D01*
X52663373Y-114692037D01*
X52729558Y-114685518D01*
X52795740Y-114679000D01*
X52884260Y-114679000D01*
X52950442Y-114685518D01*
X52950442Y-114685518D01*
G37*
G36*
X50410443Y-112145519D02*
G01*
X50476627Y-112152037D01*
X50646466Y-112203557D01*
X50802991Y-112287222D01*
X50838729Y-112316552D01*
X50940186Y-112399814D01*
X51023448Y-112501271D01*
X51052778Y-112537009D01*
X51136443Y-112693534D01*
X51187963Y-112863373D01*
X51205359Y-113040000D01*
X51187963Y-113216627D01*
X51136443Y-113386466D01*
X51052778Y-113542991D01*
X51023448Y-113578729D01*
X50940186Y-113680186D01*
X50849680Y-113754461D01*
X50802991Y-113792778D01*
X50646466Y-113876443D01*
X50476627Y-113927963D01*
X50410442Y-113934482D01*
X50344260Y-113941000D01*
X50255740Y-113941000D01*
X50189558Y-113934482D01*
X50123373Y-113927963D01*
X49953534Y-113876443D01*
X49797009Y-113792778D01*
X49750320Y-113754461D01*
X49659814Y-113680186D01*
X49576552Y-113578729D01*
X49547222Y-113542991D01*
X49463557Y-113386466D01*
X49412037Y-113216627D01*
X49394641Y-113040000D01*
X49412037Y-112863373D01*
X49463557Y-112693534D01*
X49547222Y-112537009D01*
X49576552Y-112501271D01*
X49659814Y-112399814D01*
X49761271Y-112316552D01*
X49797009Y-112287222D01*
X49953534Y-112203557D01*
X50123373Y-112152037D01*
X50189557Y-112145519D01*
X50255740Y-112139000D01*
X50344260Y-112139000D01*
X50410443Y-112145519D01*
X50410443Y-112145519D01*
G37*
G36*
X52950443Y-112145519D02*
G01*
X53016627Y-112152037D01*
X53186466Y-112203557D01*
X53342991Y-112287222D01*
X53378729Y-112316552D01*
X53480186Y-112399814D01*
X53563448Y-112501271D01*
X53592778Y-112537009D01*
X53676443Y-112693534D01*
X53727963Y-112863373D01*
X53745359Y-113040000D01*
X53727963Y-113216627D01*
X53676443Y-113386466D01*
X53592778Y-113542991D01*
X53563448Y-113578729D01*
X53480186Y-113680186D01*
X53389680Y-113754461D01*
X53342991Y-113792778D01*
X53186466Y-113876443D01*
X53016627Y-113927963D01*
X52950442Y-113934482D01*
X52884260Y-113941000D01*
X52795740Y-113941000D01*
X52729558Y-113934482D01*
X52663373Y-113927963D01*
X52493534Y-113876443D01*
X52337009Y-113792778D01*
X52290320Y-113754461D01*
X52199814Y-113680186D01*
X52116552Y-113578729D01*
X52087222Y-113542991D01*
X52003557Y-113386466D01*
X51952037Y-113216627D01*
X51934641Y-113040000D01*
X51952037Y-112863373D01*
X52003557Y-112693534D01*
X52087222Y-112537009D01*
X52116552Y-112501271D01*
X52199814Y-112399814D01*
X52301271Y-112316552D01*
X52337009Y-112287222D01*
X52493534Y-112203557D01*
X52663373Y-112152037D01*
X52729557Y-112145519D01*
X52795740Y-112139000D01*
X52884260Y-112139000D01*
X52950443Y-112145519D01*
X52950443Y-112145519D01*
G37*
G36*
X37129591Y-112778085D02*
G01*
X37163569Y-112788393D01*
X37194890Y-112805134D01*
X37222339Y-112827661D01*
X37244866Y-112855110D01*
X37261607Y-112886431D01*
X37271915Y-112920409D01*
X37276000Y-112961890D01*
X37276000Y-113638110D01*
X37271915Y-113679591D01*
X37261607Y-113713569D01*
X37244866Y-113744890D01*
X37222339Y-113772339D01*
X37194890Y-113794866D01*
X37163569Y-113811607D01*
X37129591Y-113821915D01*
X37088110Y-113826000D01*
X36486890Y-113826000D01*
X36445409Y-113821915D01*
X36411431Y-113811607D01*
X36380110Y-113794866D01*
X36352661Y-113772339D01*
X36330134Y-113744890D01*
X36313393Y-113713569D01*
X36303085Y-113679591D01*
X36299000Y-113638110D01*
X36299000Y-112961890D01*
X36303085Y-112920409D01*
X36313393Y-112886431D01*
X36330134Y-112855110D01*
X36352661Y-112827661D01*
X36380110Y-112805134D01*
X36411431Y-112788393D01*
X36445409Y-112778085D01*
X36486890Y-112774000D01*
X37088110Y-112774000D01*
X37129591Y-112778085D01*
X37129591Y-112778085D01*
G37*
G36*
X35554591Y-112778085D02*
G01*
X35588569Y-112788393D01*
X35619890Y-112805134D01*
X35647339Y-112827661D01*
X35669866Y-112855110D01*
X35686607Y-112886431D01*
X35696915Y-112920409D01*
X35701000Y-112961890D01*
X35701000Y-113638110D01*
X35696915Y-113679591D01*
X35686607Y-113713569D01*
X35669866Y-113744890D01*
X35647339Y-113772339D01*
X35619890Y-113794866D01*
X35588569Y-113811607D01*
X35554591Y-113821915D01*
X35513110Y-113826000D01*
X34911890Y-113826000D01*
X34870409Y-113821915D01*
X34836431Y-113811607D01*
X34805110Y-113794866D01*
X34777661Y-113772339D01*
X34755134Y-113744890D01*
X34738393Y-113713569D01*
X34728085Y-113679591D01*
X34724000Y-113638110D01*
X34724000Y-112961890D01*
X34728085Y-112920409D01*
X34738393Y-112886431D01*
X34755134Y-112855110D01*
X34777661Y-112827661D01*
X34805110Y-112805134D01*
X34836431Y-112788393D01*
X34870409Y-112778085D01*
X34911890Y-112774000D01*
X35513110Y-112774000D01*
X35554591Y-112778085D01*
X35554591Y-112778085D01*
G37*
G36*
X41754591Y-112778085D02*
G01*
X41788569Y-112788393D01*
X41819890Y-112805134D01*
X41847339Y-112827661D01*
X41869866Y-112855110D01*
X41886607Y-112886431D01*
X41896915Y-112920409D01*
X41901000Y-112961890D01*
X41901000Y-113638110D01*
X41896915Y-113679591D01*
X41886607Y-113713569D01*
X41869866Y-113744890D01*
X41847339Y-113772339D01*
X41819890Y-113794866D01*
X41788569Y-113811607D01*
X41754591Y-113821915D01*
X41713110Y-113826000D01*
X41111890Y-113826000D01*
X41070409Y-113821915D01*
X41036431Y-113811607D01*
X41005110Y-113794866D01*
X40977661Y-113772339D01*
X40955134Y-113744890D01*
X40938393Y-113713569D01*
X40928085Y-113679591D01*
X40924000Y-113638110D01*
X40924000Y-112961890D01*
X40928085Y-112920409D01*
X40938393Y-112886431D01*
X40955134Y-112855110D01*
X40977661Y-112827661D01*
X41005110Y-112805134D01*
X41036431Y-112788393D01*
X41070409Y-112778085D01*
X41111890Y-112774000D01*
X41713110Y-112774000D01*
X41754591Y-112778085D01*
X41754591Y-112778085D01*
G37*
G36*
X43329591Y-112778085D02*
G01*
X43363569Y-112788393D01*
X43394890Y-112805134D01*
X43422339Y-112827661D01*
X43444866Y-112855110D01*
X43461607Y-112886431D01*
X43471915Y-112920409D01*
X43476000Y-112961890D01*
X43476000Y-113638110D01*
X43471915Y-113679591D01*
X43461607Y-113713569D01*
X43444866Y-113744890D01*
X43422339Y-113772339D01*
X43394890Y-113794866D01*
X43363569Y-113811607D01*
X43329591Y-113821915D01*
X43288110Y-113826000D01*
X42686890Y-113826000D01*
X42645409Y-113821915D01*
X42611431Y-113811607D01*
X42580110Y-113794866D01*
X42552661Y-113772339D01*
X42530134Y-113744890D01*
X42513393Y-113713569D01*
X42503085Y-113679591D01*
X42499000Y-113638110D01*
X42499000Y-112961890D01*
X42503085Y-112920409D01*
X42513393Y-112886431D01*
X42530134Y-112855110D01*
X42552661Y-112827661D01*
X42580110Y-112805134D01*
X42611431Y-112788393D01*
X42645409Y-112778085D01*
X42686890Y-112774000D01*
X43288110Y-112774000D01*
X43329591Y-112778085D01*
X43329591Y-112778085D01*
G37*
G36*
X43501000Y-111851000D02*
G01*
X39899000Y-111851000D01*
X39899000Y-109349000D01*
X43501000Y-109349000D01*
X43501000Y-111851000D01*
X43501000Y-111851000D01*
G37*
G36*
X38301000Y-111851000D02*
G01*
X34699000Y-111851000D01*
X34699000Y-109349000D01*
X38301000Y-109349000D01*
X38301000Y-111851000D01*
X38301000Y-111851000D01*
G37*
G36*
X32779591Y-110503085D02*
G01*
X32813569Y-110513393D01*
X32844890Y-110530134D01*
X32872339Y-110552661D01*
X32894866Y-110580110D01*
X32911607Y-110611431D01*
X32921915Y-110645409D01*
X32926000Y-110686890D01*
X32926000Y-111288110D01*
X32921915Y-111329591D01*
X32911607Y-111363569D01*
X32894866Y-111394890D01*
X32872339Y-111422339D01*
X32844890Y-111444866D01*
X32813569Y-111461607D01*
X32779591Y-111471915D01*
X32738110Y-111476000D01*
X32061890Y-111476000D01*
X32020409Y-111471915D01*
X31986431Y-111461607D01*
X31955110Y-111444866D01*
X31927661Y-111422339D01*
X31905134Y-111394890D01*
X31888393Y-111363569D01*
X31878085Y-111329591D01*
X31874000Y-111288110D01*
X31874000Y-110686890D01*
X31878085Y-110645409D01*
X31888393Y-110611431D01*
X31905134Y-110580110D01*
X31927661Y-110552661D01*
X31955110Y-110530134D01*
X31986431Y-110513393D01*
X32020409Y-110503085D01*
X32061890Y-110499000D01*
X32738110Y-110499000D01*
X32779591Y-110503085D01*
X32779591Y-110503085D01*
G37*
G36*
X31279591Y-110503085D02*
G01*
X31313569Y-110513393D01*
X31344890Y-110530134D01*
X31372339Y-110552661D01*
X31394866Y-110580110D01*
X31411607Y-110611431D01*
X31421915Y-110645409D01*
X31426000Y-110686890D01*
X31426000Y-111288110D01*
X31421915Y-111329591D01*
X31411607Y-111363569D01*
X31394866Y-111394890D01*
X31372339Y-111422339D01*
X31344890Y-111444866D01*
X31313569Y-111461607D01*
X31279591Y-111471915D01*
X31238110Y-111476000D01*
X30561890Y-111476000D01*
X30520409Y-111471915D01*
X30486431Y-111461607D01*
X30455110Y-111444866D01*
X30427661Y-111422339D01*
X30405134Y-111394890D01*
X30388393Y-111363569D01*
X30378085Y-111329591D01*
X30374000Y-111288110D01*
X30374000Y-110686890D01*
X30378085Y-110645409D01*
X30388393Y-110611431D01*
X30405134Y-110580110D01*
X30427661Y-110552661D01*
X30455110Y-110530134D01*
X30486431Y-110513393D01*
X30520409Y-110503085D01*
X30561890Y-110499000D01*
X31238110Y-110499000D01*
X31279591Y-110503085D01*
X31279591Y-110503085D01*
G37*
G36*
X51201000Y-111401000D02*
G01*
X49399000Y-111401000D01*
X49399000Y-109599000D01*
X51201000Y-109599000D01*
X51201000Y-111401000D01*
X51201000Y-111401000D01*
G37*
G36*
X52950442Y-109605518D02*
G01*
X53016627Y-109612037D01*
X53186466Y-109663557D01*
X53342991Y-109747222D01*
X53351970Y-109754591D01*
X53480186Y-109859814D01*
X53563448Y-109961271D01*
X53592778Y-109997009D01*
X53676443Y-110153534D01*
X53727963Y-110323373D01*
X53745359Y-110500000D01*
X53727963Y-110676627D01*
X53676443Y-110846466D01*
X53592778Y-111002991D01*
X53563448Y-111038729D01*
X53480186Y-111140186D01*
X53378729Y-111223448D01*
X53342991Y-111252778D01*
X53186466Y-111336443D01*
X53016627Y-111387963D01*
X52950443Y-111394481D01*
X52884260Y-111401000D01*
X52795740Y-111401000D01*
X52729557Y-111394481D01*
X52663373Y-111387963D01*
X52493534Y-111336443D01*
X52337009Y-111252778D01*
X52301271Y-111223448D01*
X52199814Y-111140186D01*
X52116552Y-111038729D01*
X52087222Y-111002991D01*
X52003557Y-110846466D01*
X51952037Y-110676627D01*
X51934641Y-110500000D01*
X51952037Y-110323373D01*
X52003557Y-110153534D01*
X52087222Y-109997009D01*
X52116552Y-109961271D01*
X52199814Y-109859814D01*
X52328030Y-109754591D01*
X52337009Y-109747222D01*
X52493534Y-109663557D01*
X52663373Y-109612037D01*
X52729558Y-109605518D01*
X52795740Y-109599000D01*
X52884260Y-109599000D01*
X52950442Y-109605518D01*
X52950442Y-109605518D01*
G37*
G36*
X32779591Y-108928085D02*
G01*
X32813569Y-108938393D01*
X32844890Y-108955134D01*
X32872339Y-108977661D01*
X32894866Y-109005110D01*
X32911607Y-109036431D01*
X32921915Y-109070409D01*
X32926000Y-109111890D01*
X32926000Y-109713110D01*
X32921915Y-109754591D01*
X32911607Y-109788569D01*
X32894866Y-109819890D01*
X32872339Y-109847339D01*
X32844890Y-109869866D01*
X32813569Y-109886607D01*
X32779591Y-109896915D01*
X32738110Y-109901000D01*
X32061890Y-109901000D01*
X32020409Y-109896915D01*
X31986431Y-109886607D01*
X31955110Y-109869866D01*
X31927661Y-109847339D01*
X31905134Y-109819890D01*
X31888393Y-109788569D01*
X31878085Y-109754591D01*
X31874000Y-109713110D01*
X31874000Y-109111890D01*
X31878085Y-109070409D01*
X31888393Y-109036431D01*
X31905134Y-109005110D01*
X31927661Y-108977661D01*
X31955110Y-108955134D01*
X31986431Y-108938393D01*
X32020409Y-108928085D01*
X32061890Y-108924000D01*
X32738110Y-108924000D01*
X32779591Y-108928085D01*
X32779591Y-108928085D01*
G37*
G36*
X31279591Y-108928085D02*
G01*
X31313569Y-108938393D01*
X31344890Y-108955134D01*
X31372339Y-108977661D01*
X31394866Y-109005110D01*
X31411607Y-109036431D01*
X31421915Y-109070409D01*
X31426000Y-109111890D01*
X31426000Y-109713110D01*
X31421915Y-109754591D01*
X31411607Y-109788569D01*
X31394866Y-109819890D01*
X31372339Y-109847339D01*
X31344890Y-109869866D01*
X31313569Y-109886607D01*
X31279591Y-109896915D01*
X31238110Y-109901000D01*
X30561890Y-109901000D01*
X30520409Y-109896915D01*
X30486431Y-109886607D01*
X30455110Y-109869866D01*
X30427661Y-109847339D01*
X30405134Y-109819890D01*
X30388393Y-109788569D01*
X30378085Y-109754591D01*
X30374000Y-109713110D01*
X30374000Y-109111890D01*
X30378085Y-109070409D01*
X30388393Y-109036431D01*
X30405134Y-109005110D01*
X30427661Y-108977661D01*
X30455110Y-108955134D01*
X30486431Y-108938393D01*
X30520409Y-108928085D01*
X30561890Y-108924000D01*
X31238110Y-108924000D01*
X31279591Y-108928085D01*
X31279591Y-108928085D01*
G37*
G36*
X53010443Y-106785519D02*
G01*
X53076627Y-106792037D01*
X53246466Y-106843557D01*
X53402991Y-106927222D01*
X53438729Y-106956552D01*
X53540186Y-107039814D01*
X53623448Y-107141271D01*
X53652778Y-107177009D01*
X53736443Y-107333534D01*
X53787963Y-107503373D01*
X53805359Y-107680000D01*
X53787963Y-107856627D01*
X53736443Y-108026466D01*
X53652778Y-108182991D01*
X53627683Y-108213569D01*
X53540186Y-108320186D01*
X53438729Y-108403448D01*
X53402991Y-108432778D01*
X53246466Y-108516443D01*
X53076627Y-108567963D01*
X53010442Y-108574482D01*
X52944260Y-108581000D01*
X52855740Y-108581000D01*
X52789558Y-108574482D01*
X52723373Y-108567963D01*
X52553534Y-108516443D01*
X52397009Y-108432778D01*
X52361271Y-108403448D01*
X52259814Y-108320186D01*
X52172317Y-108213569D01*
X52147222Y-108182991D01*
X52063557Y-108026466D01*
X52012037Y-107856627D01*
X51994641Y-107680000D01*
X52012037Y-107503373D01*
X52063557Y-107333534D01*
X52147222Y-107177009D01*
X52176552Y-107141271D01*
X52259814Y-107039814D01*
X52361271Y-106956552D01*
X52397009Y-106927222D01*
X52553534Y-106843557D01*
X52723373Y-106792037D01*
X52789557Y-106785519D01*
X52855740Y-106779000D01*
X52944260Y-106779000D01*
X53010443Y-106785519D01*
X53010443Y-106785519D01*
G37*
G36*
X35154591Y-107278085D02*
G01*
X35188569Y-107288393D01*
X35219890Y-107305134D01*
X35247339Y-107327661D01*
X35269866Y-107355110D01*
X35286607Y-107386431D01*
X35296915Y-107420409D01*
X35301000Y-107461890D01*
X35301000Y-108138110D01*
X35296915Y-108179591D01*
X35286607Y-108213569D01*
X35269866Y-108244890D01*
X35247339Y-108272339D01*
X35219890Y-108294866D01*
X35188569Y-108311607D01*
X35154591Y-108321915D01*
X35113110Y-108326000D01*
X34511890Y-108326000D01*
X34470409Y-108321915D01*
X34436431Y-108311607D01*
X34405110Y-108294866D01*
X34377661Y-108272339D01*
X34355134Y-108244890D01*
X34338393Y-108213569D01*
X34328085Y-108179591D01*
X34324000Y-108138110D01*
X34324000Y-107461890D01*
X34328085Y-107420409D01*
X34338393Y-107386431D01*
X34355134Y-107355110D01*
X34377661Y-107327661D01*
X34405110Y-107305134D01*
X34436431Y-107288393D01*
X34470409Y-107278085D01*
X34511890Y-107274000D01*
X35113110Y-107274000D01*
X35154591Y-107278085D01*
X35154591Y-107278085D01*
G37*
G36*
X36729591Y-107278085D02*
G01*
X36763569Y-107288393D01*
X36794890Y-107305134D01*
X36822339Y-107327661D01*
X36844866Y-107355110D01*
X36861607Y-107386431D01*
X36871915Y-107420409D01*
X36876000Y-107461890D01*
X36876000Y-108138110D01*
X36871915Y-108179591D01*
X36861607Y-108213569D01*
X36844866Y-108244890D01*
X36822339Y-108272339D01*
X36794890Y-108294866D01*
X36763569Y-108311607D01*
X36729591Y-108321915D01*
X36688110Y-108326000D01*
X36086890Y-108326000D01*
X36045409Y-108321915D01*
X36011431Y-108311607D01*
X35980110Y-108294866D01*
X35952661Y-108272339D01*
X35930134Y-108244890D01*
X35913393Y-108213569D01*
X35903085Y-108179591D01*
X35899000Y-108138110D01*
X35899000Y-107461890D01*
X35903085Y-107420409D01*
X35913393Y-107386431D01*
X35930134Y-107355110D01*
X35952661Y-107327661D01*
X35980110Y-107305134D01*
X36011431Y-107288393D01*
X36045409Y-107278085D01*
X36086890Y-107274000D01*
X36688110Y-107274000D01*
X36729591Y-107278085D01*
X36729591Y-107278085D01*
G37*
G36*
X43726000Y-106701000D02*
G01*
X35074000Y-106701000D01*
X35074000Y-105099000D01*
X43726000Y-105099000D01*
X43726000Y-106701000D01*
X43726000Y-106701000D01*
G37*
G36*
X53010443Y-104245519D02*
G01*
X53076627Y-104252037D01*
X53246466Y-104303557D01*
X53402991Y-104387222D01*
X53438729Y-104416552D01*
X53540186Y-104499814D01*
X53623448Y-104601271D01*
X53652778Y-104637009D01*
X53736443Y-104793534D01*
X53787963Y-104963373D01*
X53805359Y-105140000D01*
X53787963Y-105316627D01*
X53736443Y-105486466D01*
X53652778Y-105642991D01*
X53623448Y-105678729D01*
X53540186Y-105780186D01*
X53438729Y-105863448D01*
X53402991Y-105892778D01*
X53246466Y-105976443D01*
X53076627Y-106027963D01*
X53010443Y-106034481D01*
X52944260Y-106041000D01*
X52855740Y-106041000D01*
X52789557Y-106034481D01*
X52723373Y-106027963D01*
X52553534Y-105976443D01*
X52397009Y-105892778D01*
X52361271Y-105863448D01*
X52259814Y-105780186D01*
X52176552Y-105678729D01*
X52147222Y-105642991D01*
X52063557Y-105486466D01*
X52012037Y-105316627D01*
X51994641Y-105140000D01*
X52012037Y-104963373D01*
X52063557Y-104793534D01*
X52147222Y-104637009D01*
X52176552Y-104601271D01*
X52259814Y-104499814D01*
X52361271Y-104416552D01*
X52397009Y-104387222D01*
X52553534Y-104303557D01*
X52723373Y-104252037D01*
X52789558Y-104245518D01*
X52855740Y-104239000D01*
X52944260Y-104239000D01*
X53010443Y-104245519D01*
X53010443Y-104245519D01*
G37*
G36*
X34501000Y-104526000D02*
G01*
X32899000Y-104526000D01*
X32899000Y-95874000D01*
X34501000Y-95874000D01*
X34501000Y-104526000D01*
X34501000Y-104526000D01*
G37*
G36*
X45901000Y-104526000D02*
G01*
X44299000Y-104526000D01*
X44299000Y-95874000D01*
X45901000Y-95874000D01*
X45901000Y-104526000D01*
X45901000Y-104526000D01*
G37*
G36*
X53801000Y-103501000D02*
G01*
X51999000Y-103501000D01*
X51999000Y-101699000D01*
X53801000Y-101699000D01*
X53801000Y-103501000D01*
X53801000Y-103501000D01*
G37*
G36*
X32279591Y-100803085D02*
G01*
X32313569Y-100813393D01*
X32344890Y-100830134D01*
X32372339Y-100852661D01*
X32394866Y-100880110D01*
X32411607Y-100911431D01*
X32421915Y-100945409D01*
X32426000Y-100986890D01*
X32426000Y-101588110D01*
X32421915Y-101629591D01*
X32411607Y-101663569D01*
X32394866Y-101694890D01*
X32372339Y-101722339D01*
X32344890Y-101744866D01*
X32313569Y-101761607D01*
X32279591Y-101771915D01*
X32238110Y-101776000D01*
X31561890Y-101776000D01*
X31520409Y-101771915D01*
X31486431Y-101761607D01*
X31455110Y-101744866D01*
X31427661Y-101722339D01*
X31405134Y-101694890D01*
X31388393Y-101663569D01*
X31378085Y-101629591D01*
X31374000Y-101588110D01*
X31374000Y-100986890D01*
X31378085Y-100945409D01*
X31388393Y-100911431D01*
X31405134Y-100880110D01*
X31427661Y-100852661D01*
X31455110Y-100830134D01*
X31486431Y-100813393D01*
X31520409Y-100803085D01*
X31561890Y-100799000D01*
X32238110Y-100799000D01*
X32279591Y-100803085D01*
X32279591Y-100803085D01*
G37*
G36*
X53010443Y-98925519D02*
G01*
X53076627Y-98932037D01*
X53246466Y-98983557D01*
X53402991Y-99067222D01*
X53438729Y-99096552D01*
X53540186Y-99179814D01*
X53610230Y-99265164D01*
X53652778Y-99317009D01*
X53736443Y-99473534D01*
X53787963Y-99643373D01*
X53805359Y-99820000D01*
X53787963Y-99996627D01*
X53736443Y-100166466D01*
X53652778Y-100322991D01*
X53623448Y-100358729D01*
X53540186Y-100460186D01*
X53459990Y-100526000D01*
X53402991Y-100572778D01*
X53246466Y-100656443D01*
X53076627Y-100707963D01*
X53010443Y-100714481D01*
X52944260Y-100721000D01*
X52855740Y-100721000D01*
X52789558Y-100714482D01*
X52723373Y-100707963D01*
X52553534Y-100656443D01*
X52397009Y-100572778D01*
X52340010Y-100526000D01*
X52259814Y-100460186D01*
X52176552Y-100358729D01*
X52147222Y-100322991D01*
X52063557Y-100166466D01*
X52012037Y-99996627D01*
X51994641Y-99820000D01*
X52012037Y-99643373D01*
X52063557Y-99473534D01*
X52147222Y-99317009D01*
X52189770Y-99265164D01*
X52259814Y-99179814D01*
X52361271Y-99096552D01*
X52397009Y-99067222D01*
X52553534Y-98983557D01*
X52723373Y-98932037D01*
X52789557Y-98925519D01*
X52855740Y-98919000D01*
X52944260Y-98919000D01*
X53010443Y-98925519D01*
X53010443Y-98925519D01*
G37*
G36*
X32279591Y-99228085D02*
G01*
X32313569Y-99238393D01*
X32344890Y-99255134D01*
X32372339Y-99277661D01*
X32394866Y-99305110D01*
X32411607Y-99336431D01*
X32421915Y-99370409D01*
X32426000Y-99411890D01*
X32426000Y-100013110D01*
X32421915Y-100054591D01*
X32411607Y-100088569D01*
X32394866Y-100119890D01*
X32372339Y-100147339D01*
X32344890Y-100169866D01*
X32313569Y-100186607D01*
X32279591Y-100196915D01*
X32238110Y-100201000D01*
X31561890Y-100201000D01*
X31520409Y-100196915D01*
X31486431Y-100186607D01*
X31455110Y-100169866D01*
X31427661Y-100147339D01*
X31405134Y-100119890D01*
X31388393Y-100088569D01*
X31378085Y-100054591D01*
X31374000Y-100013110D01*
X31374000Y-99411890D01*
X31378085Y-99370409D01*
X31388393Y-99336431D01*
X31405134Y-99305110D01*
X31427661Y-99277661D01*
X31455110Y-99255134D01*
X31486431Y-99238393D01*
X31520409Y-99228085D01*
X31561890Y-99224000D01*
X32238110Y-99224000D01*
X32279591Y-99228085D01*
X32279591Y-99228085D01*
G37*
G36*
X50679591Y-97803085D02*
G01*
X50713569Y-97813393D01*
X50744890Y-97830134D01*
X50772339Y-97852661D01*
X50794866Y-97880110D01*
X50811607Y-97911431D01*
X50821915Y-97945409D01*
X50826000Y-97986890D01*
X50826000Y-98588110D01*
X50821915Y-98629591D01*
X50811607Y-98663569D01*
X50794866Y-98694890D01*
X50772339Y-98722339D01*
X50744890Y-98744866D01*
X50713569Y-98761607D01*
X50679591Y-98771915D01*
X50638110Y-98776000D01*
X49961890Y-98776000D01*
X49920409Y-98771915D01*
X49886431Y-98761607D01*
X49855110Y-98744866D01*
X49827661Y-98722339D01*
X49805134Y-98694890D01*
X49788393Y-98663569D01*
X49778085Y-98629591D01*
X49774000Y-98588110D01*
X49774000Y-97986890D01*
X49778085Y-97945409D01*
X49788393Y-97911431D01*
X49805134Y-97880110D01*
X49827661Y-97852661D01*
X49855110Y-97830134D01*
X49886431Y-97813393D01*
X49920409Y-97803085D01*
X49961890Y-97799000D01*
X50638110Y-97799000D01*
X50679591Y-97803085D01*
X50679591Y-97803085D01*
G37*
G36*
X49179591Y-97803085D02*
G01*
X49213569Y-97813393D01*
X49244890Y-97830134D01*
X49272339Y-97852661D01*
X49294866Y-97880110D01*
X49311607Y-97911431D01*
X49321915Y-97945409D01*
X49326000Y-97986890D01*
X49326000Y-98588110D01*
X49321915Y-98629591D01*
X49311607Y-98663569D01*
X49294866Y-98694890D01*
X49272339Y-98722339D01*
X49244890Y-98744866D01*
X49213569Y-98761607D01*
X49179591Y-98771915D01*
X49138110Y-98776000D01*
X48461890Y-98776000D01*
X48420409Y-98771915D01*
X48386431Y-98761607D01*
X48355110Y-98744866D01*
X48327661Y-98722339D01*
X48305134Y-98694890D01*
X48288393Y-98663569D01*
X48278085Y-98629591D01*
X48274000Y-98588110D01*
X48274000Y-97986890D01*
X48278085Y-97945409D01*
X48288393Y-97911431D01*
X48305134Y-97880110D01*
X48327661Y-97852661D01*
X48355110Y-97830134D01*
X48386431Y-97813393D01*
X48420409Y-97803085D01*
X48461890Y-97799000D01*
X49138110Y-97799000D01*
X49179591Y-97803085D01*
X49179591Y-97803085D01*
G37*
G36*
X53010442Y-96385518D02*
G01*
X53076627Y-96392037D01*
X53246466Y-96443557D01*
X53402991Y-96527222D01*
X53438729Y-96556552D01*
X53540186Y-96639814D01*
X53623448Y-96741271D01*
X53652778Y-96777009D01*
X53736443Y-96933534D01*
X53787963Y-97103373D01*
X53805359Y-97280000D01*
X53787963Y-97456627D01*
X53736443Y-97626466D01*
X53652778Y-97782991D01*
X53624381Y-97817592D01*
X53540186Y-97920186D01*
X53438729Y-98003448D01*
X53402991Y-98032778D01*
X53246466Y-98116443D01*
X53076627Y-98167963D01*
X53010442Y-98174482D01*
X52944260Y-98181000D01*
X52855740Y-98181000D01*
X52789558Y-98174482D01*
X52723373Y-98167963D01*
X52553534Y-98116443D01*
X52397009Y-98032778D01*
X52361271Y-98003448D01*
X52259814Y-97920186D01*
X52175619Y-97817592D01*
X52147222Y-97782991D01*
X52063557Y-97626466D01*
X52012037Y-97456627D01*
X51994641Y-97280000D01*
X52012037Y-97103373D01*
X52063557Y-96933534D01*
X52147222Y-96777009D01*
X52176552Y-96741271D01*
X52259814Y-96639814D01*
X52361271Y-96556552D01*
X52397009Y-96527222D01*
X52553534Y-96443557D01*
X52723373Y-96392037D01*
X52789558Y-96385518D01*
X52855740Y-96379000D01*
X52944260Y-96379000D01*
X53010442Y-96385518D01*
X53010442Y-96385518D01*
G37*
G36*
X32051000Y-97501000D02*
G01*
X30949000Y-97501000D01*
X30949000Y-96399000D01*
X32051000Y-96399000D01*
X32051000Y-97501000D01*
X32051000Y-97501000D01*
G37*
G36*
X49179591Y-96228085D02*
G01*
X49213569Y-96238393D01*
X49244890Y-96255134D01*
X49272339Y-96277661D01*
X49294866Y-96305110D01*
X49311607Y-96336431D01*
X49321915Y-96370409D01*
X49326000Y-96411890D01*
X49326000Y-97013110D01*
X49321915Y-97054591D01*
X49311607Y-97088569D01*
X49294866Y-97119890D01*
X49272339Y-97147339D01*
X49244890Y-97169866D01*
X49213569Y-97186607D01*
X49179591Y-97196915D01*
X49138110Y-97201000D01*
X48461890Y-97201000D01*
X48420409Y-97196915D01*
X48386431Y-97186607D01*
X48355110Y-97169866D01*
X48327661Y-97147339D01*
X48305134Y-97119890D01*
X48288393Y-97088569D01*
X48278085Y-97054591D01*
X48274000Y-97013110D01*
X48274000Y-96411890D01*
X48278085Y-96370409D01*
X48288393Y-96336431D01*
X48305134Y-96305110D01*
X48327661Y-96277661D01*
X48355110Y-96255134D01*
X48386431Y-96238393D01*
X48420409Y-96228085D01*
X48461890Y-96224000D01*
X49138110Y-96224000D01*
X49179591Y-96228085D01*
X49179591Y-96228085D01*
G37*
G36*
X50679591Y-96228085D02*
G01*
X50713569Y-96238393D01*
X50744890Y-96255134D01*
X50772339Y-96277661D01*
X50794866Y-96305110D01*
X50811607Y-96336431D01*
X50821915Y-96370409D01*
X50826000Y-96411890D01*
X50826000Y-97013110D01*
X50821915Y-97054591D01*
X50811607Y-97088569D01*
X50794866Y-97119890D01*
X50772339Y-97147339D01*
X50744890Y-97169866D01*
X50713569Y-97186607D01*
X50679591Y-97196915D01*
X50638110Y-97201000D01*
X49961890Y-97201000D01*
X49920409Y-97196915D01*
X49886431Y-97186607D01*
X49855110Y-97169866D01*
X49827661Y-97147339D01*
X49805134Y-97119890D01*
X49788393Y-97088569D01*
X49778085Y-97054591D01*
X49774000Y-97013110D01*
X49774000Y-96411890D01*
X49778085Y-96370409D01*
X49788393Y-96336431D01*
X49805134Y-96305110D01*
X49827661Y-96277661D01*
X49855110Y-96255134D01*
X49886431Y-96238393D01*
X49920409Y-96228085D01*
X49961890Y-96224000D01*
X50638110Y-96224000D01*
X50679591Y-96228085D01*
X50679591Y-96228085D01*
G37*
G36*
X53010442Y-93845518D02*
G01*
X53076627Y-93852037D01*
X53246466Y-93903557D01*
X53402991Y-93987222D01*
X53438729Y-94016552D01*
X53540186Y-94099814D01*
X53623448Y-94201271D01*
X53652778Y-94237009D01*
X53736443Y-94393534D01*
X53787963Y-94563373D01*
X53805359Y-94740000D01*
X53787963Y-94916627D01*
X53736443Y-95086466D01*
X53652778Y-95242991D01*
X53623448Y-95278729D01*
X53540186Y-95380186D01*
X53438729Y-95463448D01*
X53402991Y-95492778D01*
X53246466Y-95576443D01*
X53076627Y-95627963D01*
X53010442Y-95634482D01*
X52944260Y-95641000D01*
X52855740Y-95641000D01*
X52789558Y-95634482D01*
X52723373Y-95627963D01*
X52553534Y-95576443D01*
X52397009Y-95492778D01*
X52361271Y-95463448D01*
X52259814Y-95380186D01*
X52176552Y-95278729D01*
X52147222Y-95242991D01*
X52063557Y-95086466D01*
X52012037Y-94916627D01*
X51994641Y-94740000D01*
X52012037Y-94563373D01*
X52063557Y-94393534D01*
X52147222Y-94237009D01*
X52176552Y-94201271D01*
X52259814Y-94099814D01*
X52361271Y-94016552D01*
X52397009Y-93987222D01*
X52553534Y-93903557D01*
X52723373Y-93852037D01*
X52789558Y-93845518D01*
X52855740Y-93839000D01*
X52944260Y-93839000D01*
X53010442Y-93845518D01*
X53010442Y-93845518D01*
G37*
G36*
X43726000Y-95301000D02*
G01*
X35074000Y-95301000D01*
X35074000Y-93699000D01*
X43726000Y-93699000D01*
X43726000Y-95301000D01*
X43726000Y-95301000D01*
G37*
G36*
X32051000Y-95001000D02*
G01*
X30949000Y-95001000D01*
X30949000Y-93899000D01*
X32051000Y-93899000D01*
X32051000Y-95001000D01*
X32051000Y-95001000D01*
G37*
G36*
X53801000Y-93101000D02*
G01*
X51999000Y-93101000D01*
X51999000Y-91299000D01*
X53801000Y-91299000D01*
X53801000Y-93101000D01*
X53801000Y-93101000D01*
G37*
G36*
X50175999Y-91451001D02*
G01*
X48373999Y-91451001D01*
X48373999Y-90699001D01*
X50175999Y-90699001D01*
X50175999Y-91451001D01*
X50175999Y-91451001D01*
G37*
G36*
X45854591Y-89978085D02*
G01*
X45888569Y-89988393D01*
X45919890Y-90005134D01*
X45947339Y-90027661D01*
X45969866Y-90055110D01*
X45986607Y-90086431D01*
X45996915Y-90120409D01*
X46001000Y-90161890D01*
X46001000Y-90838110D01*
X45996915Y-90879591D01*
X45986607Y-90913569D01*
X45969866Y-90944890D01*
X45947339Y-90972339D01*
X45919890Y-90994866D01*
X45888569Y-91011607D01*
X45854591Y-91021915D01*
X45813110Y-91026000D01*
X45211890Y-91026000D01*
X45170409Y-91021915D01*
X45136431Y-91011607D01*
X45105110Y-90994866D01*
X45077661Y-90972339D01*
X45055134Y-90944890D01*
X45038393Y-90913569D01*
X45028085Y-90879591D01*
X45024000Y-90838110D01*
X45024000Y-90161890D01*
X45028085Y-90120409D01*
X45038393Y-90086431D01*
X45055134Y-90055110D01*
X45077661Y-90027661D01*
X45105110Y-90005134D01*
X45136431Y-89988393D01*
X45170409Y-89978085D01*
X45211890Y-89974000D01*
X45813110Y-89974000D01*
X45854591Y-89978085D01*
X45854591Y-89978085D01*
G37*
G36*
X47429591Y-89978085D02*
G01*
X47463569Y-89988393D01*
X47494890Y-90005134D01*
X47522339Y-90027661D01*
X47544866Y-90055110D01*
X47561607Y-90086431D01*
X47571915Y-90120409D01*
X47576000Y-90161890D01*
X47576000Y-90838110D01*
X47571915Y-90879591D01*
X47561607Y-90913569D01*
X47544866Y-90944890D01*
X47522339Y-90972339D01*
X47494890Y-90994866D01*
X47463569Y-91011607D01*
X47429591Y-91021915D01*
X47388110Y-91026000D01*
X46786890Y-91026000D01*
X46745409Y-91021915D01*
X46711431Y-91011607D01*
X46680110Y-90994866D01*
X46652661Y-90972339D01*
X46630134Y-90944890D01*
X46613393Y-90913569D01*
X46603085Y-90879591D01*
X46599000Y-90838110D01*
X46599000Y-90161890D01*
X46603085Y-90120409D01*
X46613393Y-90086431D01*
X46630134Y-90055110D01*
X46652661Y-90027661D01*
X46680110Y-90005134D01*
X46711431Y-89988393D01*
X46745409Y-89978085D01*
X46786890Y-89974000D01*
X47388110Y-89974000D01*
X47429591Y-89978085D01*
X47429591Y-89978085D01*
G37*
G36*
X53010443Y-88525519D02*
G01*
X53076627Y-88532037D01*
X53246466Y-88583557D01*
X53402991Y-88667222D01*
X53438729Y-88696552D01*
X53540186Y-88779814D01*
X53623448Y-88881271D01*
X53652778Y-88917009D01*
X53736443Y-89073534D01*
X53787963Y-89243373D01*
X53805359Y-89420000D01*
X53787963Y-89596627D01*
X53736443Y-89766466D01*
X53652778Y-89922991D01*
X53623448Y-89958729D01*
X53540186Y-90060186D01*
X53438729Y-90143448D01*
X53402991Y-90172778D01*
X53246466Y-90256443D01*
X53076627Y-90307963D01*
X53010442Y-90314482D01*
X52944260Y-90321000D01*
X52855740Y-90321000D01*
X52789558Y-90314482D01*
X52723373Y-90307963D01*
X52553534Y-90256443D01*
X52397009Y-90172778D01*
X52361271Y-90143448D01*
X52259814Y-90060186D01*
X52176552Y-89958729D01*
X52147222Y-89922991D01*
X52063557Y-89766466D01*
X52012037Y-89596627D01*
X51994641Y-89420000D01*
X52012037Y-89243373D01*
X52063557Y-89073534D01*
X52147222Y-88917009D01*
X52176552Y-88881271D01*
X52259814Y-88779814D01*
X52361271Y-88696552D01*
X52397009Y-88667222D01*
X52553534Y-88583557D01*
X52723373Y-88532037D01*
X52789557Y-88525519D01*
X52855740Y-88519000D01*
X52944260Y-88519000D01*
X53010443Y-88525519D01*
X53010443Y-88525519D01*
G37*
G36*
X50175999Y-89551001D02*
G01*
X48373999Y-89551001D01*
X48373999Y-88799001D01*
X50175999Y-88799001D01*
X50175999Y-89551001D01*
X50175999Y-89551001D01*
G37*
G36*
X47601000Y-89301000D02*
G01*
X46599000Y-89301000D01*
X46599000Y-88399000D01*
X47601000Y-88399000D01*
X47601000Y-89301000D01*
X47601000Y-89301000D01*
G37*
G36*
X45601000Y-88351000D02*
G01*
X44599000Y-88351000D01*
X44599000Y-87449000D01*
X45601000Y-87449000D01*
X45601000Y-88351000D01*
X45601000Y-88351000D01*
G37*
G36*
X53010442Y-85985518D02*
G01*
X53076627Y-85992037D01*
X53246466Y-86043557D01*
X53402991Y-86127222D01*
X53438729Y-86156552D01*
X53540186Y-86239814D01*
X53623448Y-86341271D01*
X53652778Y-86377009D01*
X53736443Y-86533534D01*
X53787963Y-86703373D01*
X53805359Y-86880000D01*
X53787963Y-87056627D01*
X53736443Y-87226466D01*
X53652778Y-87382991D01*
X53637998Y-87401000D01*
X53540186Y-87520186D01*
X53438729Y-87603448D01*
X53402991Y-87632778D01*
X53246466Y-87716443D01*
X53076627Y-87767963D01*
X53010443Y-87774481D01*
X52944260Y-87781000D01*
X52855740Y-87781000D01*
X52789557Y-87774481D01*
X52723373Y-87767963D01*
X52553534Y-87716443D01*
X52397009Y-87632778D01*
X52361271Y-87603448D01*
X52259814Y-87520186D01*
X52162002Y-87401000D01*
X52147222Y-87382991D01*
X52063557Y-87226466D01*
X52012037Y-87056627D01*
X51994641Y-86880000D01*
X52012037Y-86703373D01*
X52063557Y-86533534D01*
X52147222Y-86377009D01*
X52176552Y-86341271D01*
X52259814Y-86239814D01*
X52361271Y-86156552D01*
X52397009Y-86127222D01*
X52553534Y-86043557D01*
X52723373Y-85992037D01*
X52789558Y-85985518D01*
X52855740Y-85979000D01*
X52944260Y-85979000D01*
X53010442Y-85985518D01*
X53010442Y-85985518D01*
G37*
G36*
X47601000Y-87401000D02*
G01*
X46599000Y-87401000D01*
X46599000Y-86499000D01*
X47601000Y-86499000D01*
X47601000Y-87401000D01*
X47601000Y-87401000D01*
G37*
G36*
X45854591Y-84778085D02*
G01*
X45888569Y-84788393D01*
X45919890Y-84805134D01*
X45947339Y-84827661D01*
X45969866Y-84855110D01*
X45986607Y-84886431D01*
X45996915Y-84920409D01*
X46001000Y-84961890D01*
X46001000Y-85638110D01*
X45996915Y-85679591D01*
X45986607Y-85713569D01*
X45969866Y-85744890D01*
X45947339Y-85772339D01*
X45919890Y-85794866D01*
X45888569Y-85811607D01*
X45854591Y-85821915D01*
X45813110Y-85826000D01*
X45211890Y-85826000D01*
X45170409Y-85821915D01*
X45136431Y-85811607D01*
X45105110Y-85794866D01*
X45077661Y-85772339D01*
X45055134Y-85744890D01*
X45038393Y-85713569D01*
X45028085Y-85679591D01*
X45024000Y-85638110D01*
X45024000Y-84961890D01*
X45028085Y-84920409D01*
X45038393Y-84886431D01*
X45055134Y-84855110D01*
X45077661Y-84827661D01*
X45105110Y-84805134D01*
X45136431Y-84788393D01*
X45170409Y-84778085D01*
X45211890Y-84774000D01*
X45813110Y-84774000D01*
X45854591Y-84778085D01*
X45854591Y-84778085D01*
G37*
G36*
X47429591Y-84778085D02*
G01*
X47463569Y-84788393D01*
X47494890Y-84805134D01*
X47522339Y-84827661D01*
X47544866Y-84855110D01*
X47561607Y-84886431D01*
X47571915Y-84920409D01*
X47576000Y-84961890D01*
X47576000Y-85638110D01*
X47571915Y-85679591D01*
X47561607Y-85713569D01*
X47544866Y-85744890D01*
X47522339Y-85772339D01*
X47494890Y-85794866D01*
X47463569Y-85811607D01*
X47429591Y-85821915D01*
X47388110Y-85826000D01*
X46786890Y-85826000D01*
X46745409Y-85821915D01*
X46711431Y-85811607D01*
X46680110Y-85794866D01*
X46652661Y-85772339D01*
X46630134Y-85744890D01*
X46613393Y-85713569D01*
X46603085Y-85679591D01*
X46599000Y-85638110D01*
X46599000Y-84961890D01*
X46603085Y-84920409D01*
X46613393Y-84886431D01*
X46630134Y-84855110D01*
X46652661Y-84827661D01*
X46680110Y-84805134D01*
X46711431Y-84788393D01*
X46745409Y-84778085D01*
X46786890Y-84774000D01*
X47388110Y-84774000D01*
X47429591Y-84778085D01*
X47429591Y-84778085D01*
G37*
G36*
X53010442Y-83445518D02*
G01*
X53076627Y-83452037D01*
X53246466Y-83503557D01*
X53402991Y-83587222D01*
X53438729Y-83616552D01*
X53540186Y-83699814D01*
X53623448Y-83801271D01*
X53652778Y-83837009D01*
X53736443Y-83993534D01*
X53787963Y-84163373D01*
X53805359Y-84340000D01*
X53787963Y-84516627D01*
X53736443Y-84686466D01*
X53652778Y-84842991D01*
X53642832Y-84855110D01*
X53540186Y-84980186D01*
X53438729Y-85063448D01*
X53402991Y-85092778D01*
X53246466Y-85176443D01*
X53076627Y-85227963D01*
X53010442Y-85234482D01*
X52944260Y-85241000D01*
X52855740Y-85241000D01*
X52789558Y-85234482D01*
X52723373Y-85227963D01*
X52553534Y-85176443D01*
X52397009Y-85092778D01*
X52361271Y-85063448D01*
X52259814Y-84980186D01*
X52157168Y-84855110D01*
X52147222Y-84842991D01*
X52063557Y-84686466D01*
X52012037Y-84516627D01*
X51994641Y-84340000D01*
X52012037Y-84163373D01*
X52063557Y-83993534D01*
X52147222Y-83837009D01*
X52176552Y-83801271D01*
X52259814Y-83699814D01*
X52361271Y-83616552D01*
X52397009Y-83587222D01*
X52553534Y-83503557D01*
X52723373Y-83452037D01*
X52789558Y-83445518D01*
X52855740Y-83439000D01*
X52944260Y-83439000D01*
X53010442Y-83445518D01*
X53010442Y-83445518D01*
G37*
G36*
X53801000Y-82701000D02*
G01*
X51999000Y-82701000D01*
X51999000Y-80899000D01*
X53801000Y-80899000D01*
X53801000Y-82701000D01*
X53801000Y-82701000D01*
G37*
G36*
X53010442Y-78125518D02*
G01*
X53076627Y-78132037D01*
X53246466Y-78183557D01*
X53402991Y-78267222D01*
X53403266Y-78267448D01*
X53540186Y-78379814D01*
X53623448Y-78481271D01*
X53652778Y-78517009D01*
X53736443Y-78673534D01*
X53787963Y-78843373D01*
X53805359Y-79020000D01*
X53787963Y-79196627D01*
X53736443Y-79366466D01*
X53652778Y-79522991D01*
X53623448Y-79558729D01*
X53540186Y-79660186D01*
X53438729Y-79743448D01*
X53402991Y-79772778D01*
X53246466Y-79856443D01*
X53076627Y-79907963D01*
X53010443Y-79914481D01*
X52944260Y-79921000D01*
X52855740Y-79921000D01*
X52789557Y-79914481D01*
X52723373Y-79907963D01*
X52553534Y-79856443D01*
X52397009Y-79772778D01*
X52361271Y-79743448D01*
X52259814Y-79660186D01*
X52176552Y-79558729D01*
X52147222Y-79522991D01*
X52063557Y-79366466D01*
X52012037Y-79196627D01*
X51994641Y-79020000D01*
X52012037Y-78843373D01*
X52063557Y-78673534D01*
X52147222Y-78517009D01*
X52176552Y-78481271D01*
X52259814Y-78379814D01*
X52396734Y-78267448D01*
X52397009Y-78267222D01*
X52553534Y-78183557D01*
X52723373Y-78132037D01*
X52789558Y-78125518D01*
X52855740Y-78119000D01*
X52944260Y-78119000D01*
X53010442Y-78125518D01*
X53010442Y-78125518D01*
G37*
G36*
X49679591Y-77403085D02*
G01*
X49713569Y-77413393D01*
X49744890Y-77430134D01*
X49772339Y-77452661D01*
X49794866Y-77480110D01*
X49811607Y-77511431D01*
X49821915Y-77545409D01*
X49826000Y-77586890D01*
X49826000Y-78188110D01*
X49821915Y-78229591D01*
X49811607Y-78263569D01*
X49794866Y-78294890D01*
X49772339Y-78322339D01*
X49744890Y-78344866D01*
X49713569Y-78361607D01*
X49679591Y-78371915D01*
X49638110Y-78376000D01*
X48961890Y-78376000D01*
X48920409Y-78371915D01*
X48886431Y-78361607D01*
X48855110Y-78344866D01*
X48827661Y-78322339D01*
X48805134Y-78294890D01*
X48788393Y-78263569D01*
X48778085Y-78229591D01*
X48774000Y-78188110D01*
X48774000Y-77586890D01*
X48778085Y-77545409D01*
X48788393Y-77511431D01*
X48805134Y-77480110D01*
X48827661Y-77452661D01*
X48855110Y-77430134D01*
X48886431Y-77413393D01*
X48920409Y-77403085D01*
X48961890Y-77399000D01*
X49638110Y-77399000D01*
X49679591Y-77403085D01*
X49679591Y-77403085D01*
G37*
G36*
X53010442Y-75585518D02*
G01*
X53076627Y-75592037D01*
X53246466Y-75643557D01*
X53402991Y-75727222D01*
X53438729Y-75756552D01*
X53540186Y-75839814D01*
X53593772Y-75905110D01*
X53652778Y-75977009D01*
X53736443Y-76133534D01*
X53787963Y-76303373D01*
X53805359Y-76480000D01*
X53787963Y-76656627D01*
X53736443Y-76826466D01*
X53652778Y-76982991D01*
X53623448Y-77018729D01*
X53540186Y-77120186D01*
X53438729Y-77203448D01*
X53402991Y-77232778D01*
X53246466Y-77316443D01*
X53076627Y-77367963D01*
X53010443Y-77374481D01*
X52944260Y-77381000D01*
X52855740Y-77381000D01*
X52789557Y-77374481D01*
X52723373Y-77367963D01*
X52553534Y-77316443D01*
X52397009Y-77232778D01*
X52361271Y-77203448D01*
X52259814Y-77120186D01*
X52176552Y-77018729D01*
X52147222Y-76982991D01*
X52063557Y-76826466D01*
X52012037Y-76656627D01*
X51994641Y-76480000D01*
X52012037Y-76303373D01*
X52063557Y-76133534D01*
X52147222Y-75977009D01*
X52206228Y-75905110D01*
X52259814Y-75839814D01*
X52361271Y-75756552D01*
X52397009Y-75727222D01*
X52553534Y-75643557D01*
X52723373Y-75592037D01*
X52789558Y-75585518D01*
X52855740Y-75579000D01*
X52944260Y-75579000D01*
X53010442Y-75585518D01*
X53010442Y-75585518D01*
G37*
G36*
X49679591Y-75828085D02*
G01*
X49713569Y-75838393D01*
X49744890Y-75855134D01*
X49772339Y-75877661D01*
X49794866Y-75905110D01*
X49811607Y-75936431D01*
X49821915Y-75970409D01*
X49826000Y-76011890D01*
X49826000Y-76613110D01*
X49821915Y-76654591D01*
X49811607Y-76688569D01*
X49794866Y-76719890D01*
X49772339Y-76747339D01*
X49744890Y-76769866D01*
X49713569Y-76786607D01*
X49679591Y-76796915D01*
X49638110Y-76801000D01*
X48961890Y-76801000D01*
X48920409Y-76796915D01*
X48886431Y-76786607D01*
X48855110Y-76769866D01*
X48827661Y-76747339D01*
X48805134Y-76719890D01*
X48788393Y-76688569D01*
X48778085Y-76654591D01*
X48774000Y-76613110D01*
X48774000Y-76011890D01*
X48778085Y-75970409D01*
X48788393Y-75936431D01*
X48805134Y-75905110D01*
X48827661Y-75877661D01*
X48855110Y-75855134D01*
X48886431Y-75838393D01*
X48920409Y-75828085D01*
X48961890Y-75824000D01*
X49638110Y-75824000D01*
X49679591Y-75828085D01*
X49679591Y-75828085D01*
G37*
G36*
X49679591Y-74403085D02*
G01*
X49713569Y-74413393D01*
X49744890Y-74430134D01*
X49772339Y-74452661D01*
X49794866Y-74480110D01*
X49811607Y-74511431D01*
X49821915Y-74545409D01*
X49826000Y-74586890D01*
X49826000Y-75188110D01*
X49821915Y-75229591D01*
X49811607Y-75263569D01*
X49794866Y-75294890D01*
X49772339Y-75322339D01*
X49744890Y-75344866D01*
X49713569Y-75361607D01*
X49679591Y-75371915D01*
X49638110Y-75376000D01*
X48961890Y-75376000D01*
X48920409Y-75371915D01*
X48886431Y-75361607D01*
X48855110Y-75344866D01*
X48827661Y-75322339D01*
X48805134Y-75294890D01*
X48788393Y-75263569D01*
X48778085Y-75229591D01*
X48774000Y-75188110D01*
X48774000Y-74586890D01*
X48778085Y-74545409D01*
X48788393Y-74511431D01*
X48805134Y-74480110D01*
X48827661Y-74452661D01*
X48855110Y-74430134D01*
X48886431Y-74413393D01*
X48920409Y-74403085D01*
X48961890Y-74399000D01*
X49638110Y-74399000D01*
X49679591Y-74403085D01*
X49679591Y-74403085D01*
G37*
G36*
X53010443Y-73045519D02*
G01*
X53076627Y-73052037D01*
X53246466Y-73103557D01*
X53402991Y-73187222D01*
X53438729Y-73216552D01*
X53540186Y-73299814D01*
X53623448Y-73401271D01*
X53652778Y-73437009D01*
X53736443Y-73593534D01*
X53787963Y-73763373D01*
X53805359Y-73940000D01*
X53787963Y-74116627D01*
X53736443Y-74286466D01*
X53652778Y-74442991D01*
X53644842Y-74452661D01*
X53540186Y-74580186D01*
X53463341Y-74643250D01*
X53402991Y-74692778D01*
X53246466Y-74776443D01*
X53076627Y-74827963D01*
X53010442Y-74834482D01*
X52944260Y-74841000D01*
X52855740Y-74841000D01*
X52789558Y-74834482D01*
X52723373Y-74827963D01*
X52553534Y-74776443D01*
X52397009Y-74692778D01*
X52336659Y-74643250D01*
X52259814Y-74580186D01*
X52155158Y-74452661D01*
X52147222Y-74442991D01*
X52063557Y-74286466D01*
X52012037Y-74116627D01*
X51994641Y-73940000D01*
X52012037Y-73763373D01*
X52063557Y-73593534D01*
X52147222Y-73437009D01*
X52176552Y-73401271D01*
X52259814Y-73299814D01*
X52361271Y-73216552D01*
X52397009Y-73187222D01*
X52553534Y-73103557D01*
X52723373Y-73052037D01*
X52789557Y-73045519D01*
X52855740Y-73039000D01*
X52944260Y-73039000D01*
X53010443Y-73045519D01*
X53010443Y-73045519D01*
G37*
G36*
X49679591Y-72828085D02*
G01*
X49713569Y-72838393D01*
X49744890Y-72855134D01*
X49772339Y-72877661D01*
X49794866Y-72905110D01*
X49811607Y-72936431D01*
X49821915Y-72970409D01*
X49826000Y-73011890D01*
X49826000Y-73613110D01*
X49821915Y-73654591D01*
X49811607Y-73688569D01*
X49794866Y-73719890D01*
X49772339Y-73747339D01*
X49744890Y-73769866D01*
X49713569Y-73786607D01*
X49679591Y-73796915D01*
X49638110Y-73801000D01*
X48961890Y-73801000D01*
X48920409Y-73796915D01*
X48886431Y-73786607D01*
X48855110Y-73769866D01*
X48827661Y-73747339D01*
X48805134Y-73719890D01*
X48788393Y-73688569D01*
X48778085Y-73654591D01*
X48774000Y-73613110D01*
X48774000Y-73011890D01*
X48778085Y-72970409D01*
X48788393Y-72936431D01*
X48805134Y-72905110D01*
X48827661Y-72877661D01*
X48855110Y-72855134D01*
X48886431Y-72838393D01*
X48920409Y-72828085D01*
X48961890Y-72824000D01*
X49638110Y-72824000D01*
X49679591Y-72828085D01*
X49679591Y-72828085D01*
G37*
G36*
X53801000Y-72301000D02*
G01*
X51999000Y-72301000D01*
X51999000Y-70499000D01*
X53801000Y-70499000D01*
X53801000Y-72301000D01*
X53801000Y-72301000D01*
G37*
M02*
