M48
; DRILL file {KiCad (5.1.2)-2} date 2019-07-11 02:00:48
; FORMAT={2:4/ absolute / inch / suppress leading zeros}
; #@! TF.CreationDate,2019-07-11T02:00:48+02:00
; #@! TF.GenerationSoftware,Kicad,Pcbnew,(5.1.2)-2
FMAT,2
INCH,TZ
T1C0.0157
T2C0.0394
%
G90
G05
T1
X12835Y-45197
X13071Y-41850
X13071Y-42441
X13110Y-37480
X13346Y-41535
X13346Y-43031
X13346Y-43386
X13346Y-43740
X13504Y-37165
X13819Y-38268
X13819Y-39488
X13858Y-40748
X14646Y-41063
X14724Y-37913
X14724Y-38701
X14724Y-39488
X14724Y-40276
X14882Y-42441
X15000Y-44606
X15512Y-36378
X15512Y-37913
X15512Y-38701
X15512Y-39488
X15512Y-40276
X15512Y-41063
X16299Y-36378
X16299Y-37913
X16299Y-38701
X16299Y-39488
X16299Y-40276
X16299Y-41063
X17047Y-36575
X17165Y-41102
X17480Y-37205
X17835Y-43287
X18386Y-42283
X18425Y-36299
X18425Y-43189
X18740Y-40709
X18740Y-44705
X18819Y-37598
X18819Y-42008
X18937Y-42874
X19016Y-33583
X19173Y-44980
X19213Y-34134
X19213Y-39882
X19409Y-37598
X19528Y-42441
X19705Y-34291
X19862Y-37539
X20315Y-34724
X21417Y-29606
T2
X20827Y-40394
X20827Y-41394
X20827Y-42394
X20827Y-32205
X20827Y-33205
X20827Y-34205
X20827Y-35205
X19803Y-43504
X19803Y-44504
X19803Y-45504
X20803Y-43504
X20803Y-44504
X20803Y-45504
X20827Y-36299
X20827Y-37299
X20827Y-38299
X20827Y-39299
X20827Y-28110
X20827Y-29110
X20827Y-30110
X20827Y-31110
T0
M30
