M48
; DRILL file {KiCad (5.1.2)-2} date 2019-07-21 14:50:29
; FORMAT={2:4/ absolute / inch / suppress leading zeros}
; #@! TF.CreationDate,2019-07-21T14:50:29+02:00
; #@! TF.GenerationSoftware,Kicad,Pcbnew,(5.1.2)-2
FMAT,2
INCH,TZ
T1C0.0157
T2C0.0394
%
G90
G05
T1
X12835Y-45197
X13071Y-41850
X13071Y-42441
X13110Y-37480
X13346Y-43031
X13346Y-43386
X13346Y-43740
X13504Y-37165
X13819Y-38268
X13819Y-39488
X13819Y-40354
X14016Y-40945
X14173Y-39685
X14646Y-41063
X14724Y-37913
X14724Y-38701
X14724Y-40276
X14882Y-36575
X14882Y-42677
X14882Y-45039
X15000Y-44606
X15197Y-45591
X15236Y-46102
X15512Y-36378
X15512Y-37913
X15512Y-38701
X15512Y-39488
X15512Y-40276
X15512Y-41063
X16299Y-36378
X16299Y-37913
X16299Y-38701
X16299Y-39488
X16299Y-40276
X16299Y-41063
X16575Y-46339
X16890Y-44409
X16929Y-45591
X17047Y-36575
X17559Y-37126
X17598Y-45354
X17677Y-42047
X18071Y-43307
X18465Y-40709
X18780Y-44094
X18937Y-37087
X18937Y-37598
X19055Y-35315
X19173Y-41654
X19291Y-46378
X19370Y-39882
X19370Y-42047
X19370Y-42480
X19488Y-41378
X19862Y-37539
X20000Y-35748
X21417Y-29606
X21457Y-41811
X21457Y-42992
X21457Y-45945
T2
X20827Y-32205
X20827Y-33205
X20827Y-34205
X20827Y-35205
X20827Y-36299
X20827Y-37299
X20827Y-38299
X20827Y-39299
X20803Y-46512
X19803Y-43504
X19803Y-44504
X19803Y-45504
X20803Y-43504
X20803Y-44504
X20803Y-45504
X20827Y-40394
X20827Y-41394
X20827Y-42394
X20827Y-28110
X20827Y-29110
X20827Y-30110
X20827Y-31110
T0
M30
